M48
;Layer_Color=6321
;FILE_FORMAT=4:4
METRIC,LZ
;TYPE=PLATED
T1F00S00C0.3300
T2F00S00C0.5000
T4F00S00C0.7000
T5F00S00C0.8000
T6F00S00C0.8890
T7F00S00C0.9000
T8F00S00C1.0200
;TYPE=NON_PLATED
T10F00S00C2.7000
%
T01
X003335Y0019305
X003418Y0018485
X0035Y0019305
X003583Y0018485
X003665Y0019305
X003583Y0020135
X003418
X0035Y0020965
X003418Y0021795
X003583
X003665Y0020965
X003335
T02
X0048Y-0002
X005
X0052
X0054
X0054Y0
X0052
X0048
X0062
X0064
Y-0002
X0062
X0066
X0068
X007
Y0
X0068
X0066
X0072
X0074
X0076
X0078
X008
X0078Y-0002
X0076
X0074
X0072
X0026Y-0001
X0024
X0021996Y-0001004
X0014Y-0002
Y0
X001
Y-0002
X0008
X0006
Y0
X0008
X0Y0004
X-0002
Y0006
X-000143Y002133
X0Y002
X00015Y001995
X0002706Y00193505
X0004006Y00189505
X0006Y0019
X0008
X001
X00107Y0016908
X0012
X0009492Y00150825
X0008156Y00152705
X00072125Y0013044
X000492Y00150825
X0004Y0023
X0006
X0008
X0006Y0025
X0004
X000677Y002903
X000817Y003103
X0009Y0033
X0007
Y0035
Y0037
X0009
Y0035
X0011
Y0037
X0013
Y0035
X0015
Y0037
X0017
Y0039
X0015Y0039
X0013
X0011
X0009
X0006845Y003903
X0001Y0039
Y0037
Y0035
X0011Y0033
X0013
X0015
X0017
Y0035
Y0031
Y0029
Y0027
X00149584Y00269433
X0013Y0027
Y0029
X0011
Y0031
X0013
X0015
Y0029
X0021706Y002903
X0022406Y00278505
X0024Y0028
X0026
X00301653Y00277348
X00309Y00265
X00294
X003Y0024
X00296Y00214
X00297Y00189
X0030775Y0016325
X003Y0015
X0030285Y00126
X00346Y00129
X00358Y00151
X00332Y00156
X0038Y0018
Y002
Y0022
Y0024
X0038706Y00252505
X0036Y0024
X0034
Y0027
X0036
X0035Y0028
X0021706Y003103
Y003303
Y003503
X0022906Y00363505
X0022706Y00380505
Y00395505
X00226Y00187
X00246Y00186
X00248061Y00163
X0025Y0014
X00233Y00101
Y0009
X0028Y001
X0027Y00069
X0029575
X0030775
X00341Y00081
X00379Y00123
X004Y00124
X002185Y0016825
X00198Y0015
X0016Y0014
Y0016
X001272Y001153
X0007825Y00082505
X00032Y0007649
X0004825Y000485
X0002Y0004
X0012
X0014
Y0002
X0017625Y00023
Y00034
X0020975Y000535
X0022Y0001
X0024
X0026
X00246Y00025
X000977Y002703
X0042106Y0026485
X0042145Y0027755
X0048Y0028
Y0024
X004843Y002145
X004913Y001805
X00511Y00176
X005Y0016
Y0014
X0048
X0046886Y00104
X004363Y000845
X004153Y0007
X0042Y0002
X0046
X0048
X0052
Y0004
X0054
X0056
Y0006
Y0008
X0058
X006
Y0006
X0058
Y0004
X006
X0062
X0064
Y0002
X0062
X0066
Y0004
X0068
X007
Y0002
X0068
X0072
Y0004
X0074
Y0002
X0076
Y0004
X00759967Y00059749
X0074Y0006
Y0008
X0072
Y0006
X007
Y0008
X0068
Y0006
X0066
Y0008
Y001
X0068
X007
X0072
X0074
X0076
X0078
X0077845Y001145
X0079445Y001305
X008Y001
Y0008
Y0006
X0078
Y0008
X0076
X0078Y0004
Y0002
X008
Y0004
X0064Y0006
Y0008
X0062
Y0006
Y001
X0064
X00638892Y00130497
X00618892
X00598892
X00578892
X00558892
X0054Y0012
Y0016
Y0018
X005693Y001595
X00598892Y00160497
X00618892
X00638892
X00658892
X006552Y00146699
X00658892Y00130497
X007042Y001305
X007062Y001475
X007222
X00658892Y00180497
X0064Y0018
X00618892Y00180497
X006Y0018
Y002
Y0028
X0062
X0064
Y003
Y0032
X0062
Y003
X006
X0062Y0034
Y0036
X0064
Y0034
X0066
Y0036
Y0038
Y004
X0068
X007
Y0038
X0068
Y0036
X007
Y0034
X0068
Y0032
X007
Y003
X0068
X0066
Y0032
X0072
X0074
Y003
X0072
X007162Y002735
X007322
X007462
X007622
X007862
X0078Y003
Y0032
X0076
Y003
Y0034
Y0036
X0078
Y0034
X008
Y0036
Y0038
Y004
X0078
X0076
Y0038
X0078
X0074
Y004
X0072
Y0038
Y0036
X0074
Y0034
X0072
X008Y0032
Y003
X006562Y002275
X0064Y0038
Y004
X0062
Y0038
X005573Y003875
X0058Y001
X006
X0054Y0006
Y0002
X00418Y00145
X0040706Y00163505
X0041206Y00182505
X00413Y00201825
X008032Y002735
X008Y0042
Y0044
Y0046
X0078
Y0044
Y0042
X0076
X0074
X0072
X007
X0068
X0066
X0064
X0062
X005863Y004115
X0056205Y0042975
X0062Y005
X0070206Y00471502
X0078Y0048
Y005
X008
Y0048
X0021Y0043
Y0041
X0019Y0043
X0017
Y0041
X0015
Y0043
X0013
X0013Y0041
X0011
X0009
Y0043
X0007
Y0041
X000607Y004583
X000387
X00110625Y00431087
T04
X00655827Y004415
X00655573Y004615
Y004815
Y005015
X00755573
Y004815
Y004615
X00755827Y004415
T05
X0Y0009
Y0011
T06
X00425Y-00007
X004504
X003996
X003742
X003488
X003234
X00298
T07
X004297Y004773
X004551
X004805
X005059
X005313
Y005027
X005059
X004805
X004551
X004297
X004043
Y004773
X003789
X003535
X003281
X003027
X002773
X002519
X002265
X002011
X001757
X001503
X001249
X000995
X000741
X000487
Y005027
X000741
X000995
X001249
X001503
X001757
X002011
X002265
X002519
X002773
X003027
X003281
X003535
X003789
T08
X002519Y003503
Y003757
Y004011
X003027
Y003757
Y003503
X003281
Y003757
X003535
Y003503
X003789
X004043
Y003757
Y004011
X003789
X003535
X003281
X003789Y003757
X004297
X004551
X004805
Y003503
X004551
X004297
Y004011
X004551
X004805
X005313
Y003757
Y003503
Y003249
X004805
X004551
X005Y0002
X004805Y004265
X004551
X004297
X005313
X004043
X003789
X003535
X003281
X003027
X002519
T10
X0058Y0
X0
X0058Y0049
X0Y0049
M30
