G04*
G04 #@! TF.GenerationSoftware,Altium Limited,CircuitMaker,2.2.1 (2.2.1.6)*
G04*
G04 Layer_Color=15132400*
%FSLAX44Y44*%
%MOMM*%
G71*
G04*
G04 #@! TF.SameCoordinates,9F1E3F87-7A7F-4E4B-B1B4-4F695BE8A883*
G04*
G04*
G04 #@! TF.FilePolarity,Positive*
G04*
G01*
G75*
%ADD10C,0.2500*%
%ADD11C,0.2540*%
%ADD12C,0.3000*%
%ADD13C,0.1530*%
%ADD14C,0.2000*%
%ADD15C,0.1000*%
%ADD16C,0.2032*%
D10*
X91310Y141940D02*
G03*
X91310Y141940I-1250J0D01*
G01*
X120250Y126000D02*
G03*
X120250Y126000I-1250J0D01*
G01*
X260920Y283370D02*
G03*
X260920Y283370I-1250J0D01*
G01*
D11*
X36136Y420300D02*
G03*
X36136Y420300I-2236J0D01*
G01*
X124000Y-46260D02*
Y-32290D01*
X30000Y-46250D02*
Y-32290D01*
Y-46250D02*
X30010Y-46260D01*
X124000D01*
X30010Y-5620D02*
Y5810D01*
X123990Y-5620D02*
Y5810D01*
X664270Y265110D02*
X814130D01*
X664270Y155890D02*
X814130D01*
X664270D02*
Y265110D01*
X814130Y155890D02*
Y265110D01*
X270000Y285148D02*
Y290330D01*
X449832D01*
X450000Y97450D02*
Y104950D01*
X425000Y97450D02*
X450000D01*
X270000D02*
X295000D01*
X270000D02*
Y104950D01*
X449832Y285148D02*
Y290330D01*
X285554Y5192D02*
X386900D01*
X285300Y-19192D02*
X386900D01*
X285300D02*
Y5192D01*
X463100Y-19192D02*
Y5192D01*
X387154D02*
X463100D01*
X386900Y-19192D02*
X463100D01*
X725303Y522942D02*
X778303D01*
X725303Y419942D02*
Y522942D01*
Y419942D02*
X778303D01*
Y522942D01*
X625303D02*
X678303D01*
X625303Y419942D02*
Y522942D01*
Y419942D02*
X678303D01*
Y522942D01*
X146540Y452233D02*
X148233Y450540D01*
X151618D01*
X153311Y452233D01*
Y459004D01*
X151618Y460697D01*
X148233D01*
X146540Y459004D01*
Y457311D01*
X148233Y455618D01*
X153311D01*
X647619Y87724D02*
Y72489D01*
Y80106D01*
X657776D01*
Y87724D01*
Y72489D01*
X665394D02*
X670472D01*
X673011Y75028D01*
Y80106D01*
X670472Y82646D01*
X665394D01*
X662854Y80106D01*
Y75028D01*
X665394Y72489D01*
X678089Y87724D02*
Y72489D01*
X685707D01*
X688246Y75028D01*
Y77567D01*
Y80106D01*
X685707Y82646D01*
X678089D01*
X693324Y87724D02*
Y72489D01*
X700942D01*
X703481Y75028D01*
Y77567D01*
Y80106D01*
X700942Y82646D01*
X693324D01*
X708559D02*
Y75028D01*
X711099Y72489D01*
X718716D01*
Y69950D01*
X716177Y67410D01*
X713638D01*
X718716Y72489D02*
Y82646D01*
X723795Y87724D02*
X728873D01*
X726334D01*
Y72489D01*
X723795D01*
X728873D01*
X739030D02*
X744108D01*
X746647Y75028D01*
Y80106D01*
X744108Y82646D01*
X739030D01*
X736490Y80106D01*
Y75028D01*
X739030Y72489D01*
X751725Y87724D02*
X761882D01*
X756804D01*
Y72489D01*
X614610Y55728D02*
X612071Y58267D01*
X606992D01*
X604453Y55728D01*
Y53189D01*
X606992Y50650D01*
X612071D01*
X614610Y48111D01*
Y45571D01*
X612071Y43032D01*
X606992D01*
X604453Y45571D01*
X619688Y43032D02*
Y53189D01*
X627306D01*
X629845Y50650D01*
Y43032D01*
X637463D02*
X642541D01*
X645080Y45571D01*
Y50650D01*
X642541Y53189D01*
X637463D01*
X634923Y50650D01*
Y45571D01*
X637463Y43032D01*
X650158Y58267D02*
Y43032D01*
X655237Y48111D01*
X660315Y43032D01*
Y58267D01*
X665394D02*
Y43032D01*
Y50650D01*
X667933Y53189D01*
X673011D01*
X675550Y50650D01*
Y43032D01*
X680629D02*
X685707D01*
X683168D01*
Y53189D01*
X680629D01*
X695864Y55728D02*
Y53189D01*
X693324D01*
X698403D01*
X695864D01*
Y45571D01*
X698403Y43032D01*
X731412Y55728D02*
X728873Y58267D01*
X723795D01*
X721255Y55728D01*
Y53189D01*
X723795Y50650D01*
X728873D01*
X731412Y48111D01*
Y45571D01*
X728873Y43032D01*
X723795D01*
X721255Y45571D01*
X744108Y43032D02*
X739030D01*
X736490Y45571D01*
Y50650D01*
X739030Y53189D01*
X744108D01*
X746647Y50650D01*
Y48111D01*
X736490D01*
X751725Y53189D02*
Y43032D01*
Y48111D01*
X754265Y50650D01*
X756804Y53189D01*
X759343D01*
X766961Y43032D02*
X772039D01*
X769500D01*
Y53189D01*
X766961D01*
X787274Y43032D02*
X782196D01*
X779657Y45571D01*
Y50650D01*
X782196Y53189D01*
X787274D01*
X789813Y50650D01*
Y48111D01*
X779657D01*
X794892Y43032D02*
X802509D01*
X805048Y45571D01*
X802509Y48111D01*
X797431D01*
X794892Y50650D01*
X797431Y53189D01*
X805048D01*
X620958Y33889D02*
Y18654D01*
Y26272D01*
X631115D01*
Y33889D01*
Y18654D01*
X646350D02*
X636193D01*
X646350Y28811D01*
Y31350D01*
X643811Y33889D01*
X638732D01*
X636193Y31350D01*
X661585D02*
X659045Y33889D01*
X653967D01*
X651428Y31350D01*
Y28811D01*
X653967Y26272D01*
X659045D01*
X661585Y23733D01*
Y21193D01*
X659045Y18654D01*
X653967D01*
X651428Y21193D01*
X666663Y26272D02*
X676820D01*
X681898Y33889D02*
Y18654D01*
X689516D01*
X692055Y21193D01*
Y31350D01*
X689516Y33889D01*
X681898D01*
X704751Y18654D02*
X699672D01*
X697133Y21193D01*
Y26272D01*
X699672Y28811D01*
X704751D01*
X707290Y26272D01*
Y23733D01*
X697133D01*
X712368Y28811D02*
X717447Y18654D01*
X722525Y28811D01*
X742838Y33889D02*
Y23733D01*
X747917Y18654D01*
X752995Y23733D01*
Y33889D01*
X758074Y18654D02*
X763152D01*
X760613D01*
Y33889D01*
X758074Y31350D01*
X770769Y18654D02*
Y21193D01*
X773309D01*
Y18654D01*
X770769D01*
X783465D02*
X788544D01*
X786004D01*
Y33889D01*
X783465Y31350D01*
X653967Y-5724D02*
X648889Y-645D01*
Y4433D01*
X653967Y9511D01*
X671741Y6972D02*
X669202Y9511D01*
X664124D01*
X661585Y6972D01*
Y-3185D01*
X664124Y-5724D01*
X669202D01*
X671741Y-3185D01*
X676820Y-5724D02*
X681898Y-645D01*
Y4433D01*
X676820Y9511D01*
X714908Y-5724D02*
X704751D01*
X714908Y4433D01*
Y6972D01*
X712368Y9511D01*
X707290D01*
X704751Y6972D01*
X719986D02*
X722525Y9511D01*
X727603D01*
X730143Y6972D01*
Y-3185D01*
X727603Y-5724D01*
X722525D01*
X719986Y-3185D01*
Y6972D01*
X745378Y-5724D02*
X735221D01*
X745378Y4433D01*
Y6972D01*
X742838Y9511D01*
X737760D01*
X735221Y6972D01*
X750456D02*
X752995Y9511D01*
X758074D01*
X760613Y6972D01*
Y4433D01*
X758074Y1894D01*
X755534D01*
X758074D01*
X760613Y-645D01*
Y-3185D01*
X758074Y-5724D01*
X752995D01*
X750456Y-3185D01*
X269540Y450540D02*
X272926D01*
X271233D01*
Y460697D01*
X269540Y459004D01*
X278004Y452233D02*
X279697Y450540D01*
X283082D01*
X284775Y452233D01*
Y459004D01*
X283082Y460697D01*
X279697D01*
X278004Y459004D01*
Y457311D01*
X279697Y455618D01*
X284775D01*
X403311Y450540D02*
X396540D01*
X403311Y457311D01*
Y459004D01*
X401618Y460697D01*
X398233D01*
X396540Y459004D01*
X406697Y452233D02*
X408390Y450540D01*
X411775D01*
X413468Y452233D01*
Y459004D01*
X411775Y460697D01*
X408390D01*
X406697Y459004D01*
Y457311D01*
X408390Y455618D01*
X413468D01*
X315687Y325618D02*
X310608D01*
X308069Y323078D01*
Y312922D01*
X310608Y310382D01*
X315687D01*
X318226Y312922D01*
Y323078D01*
X315687Y325618D01*
X333461Y323078D02*
X330922Y325618D01*
X325843D01*
X323304Y323078D01*
Y320539D01*
X325843Y318000D01*
X330922D01*
X333461Y315461D01*
Y312922D01*
X330922Y310382D01*
X325843D01*
X323304Y312922D01*
X338539Y325618D02*
Y310382D01*
Y318000D01*
X348696D01*
Y325618D01*
Y310382D01*
X353774Y325618D02*
Y310382D01*
X358853Y315461D01*
X363931Y310382D01*
Y325618D01*
X522540Y459004D02*
X524233Y460697D01*
X527618D01*
X529311Y459004D01*
Y457311D01*
X527618Y455618D01*
X525926D01*
X527618D01*
X529311Y453926D01*
Y452233D01*
X527618Y450540D01*
X524233D01*
X522540Y452233D01*
X532697D02*
X534389Y450540D01*
X537775D01*
X539468Y452233D01*
Y459004D01*
X537775Y460697D01*
X534389D01*
X532697Y459004D01*
Y457311D01*
X534389Y455618D01*
X539468D01*
X608972Y350996D02*
Y335761D01*
Y343378D01*
X619129D01*
Y350996D01*
Y335761D01*
X631825D02*
X626746D01*
X624207Y338300D01*
Y343378D01*
X626746Y345917D01*
X631825D01*
X634364Y343378D01*
Y340839D01*
X624207D01*
X639442Y335761D02*
X644521D01*
X641981D01*
Y350996D01*
X639442D01*
X652138Y335761D02*
X657216D01*
X654677D01*
Y345917D01*
X652138D01*
X664834D02*
Y338300D01*
X667373Y335761D01*
X674991D01*
Y345917D01*
X680069Y335761D02*
Y345917D01*
X682608D01*
X685147Y343378D01*
Y335761D01*
Y343378D01*
X687687Y345917D01*
X690226Y343378D01*
Y335761D01*
X710539D02*
Y345917D01*
X718157D01*
X720696Y343378D01*
Y335761D01*
X733392D02*
X728314D01*
X725774Y338300D01*
Y343378D01*
X728314Y345917D01*
X733392D01*
X735931Y343378D01*
Y340839D01*
X725774D01*
X743549Y348456D02*
Y345917D01*
X741009D01*
X746088D01*
X743549D01*
Y338300D01*
X746088Y335761D01*
X753705Y345917D02*
Y338300D01*
X756244Y335761D01*
X758784Y338300D01*
X761323Y335761D01*
X763862Y338300D01*
Y345917D01*
X771479Y335761D02*
X776558D01*
X779097Y338300D01*
Y343378D01*
X776558Y345917D01*
X771479D01*
X768940Y343378D01*
Y338300D01*
X771479Y335761D01*
X784175Y345917D02*
Y335761D01*
Y340839D01*
X786715Y343378D01*
X789254Y345917D01*
X791793D01*
X799410Y335761D02*
Y350996D01*
Y340839D02*
X807028Y345917D01*
X799410Y340839D02*
X807028Y335761D01*
X615320Y324078D02*
X612781Y326618D01*
X607702D01*
X605163Y324078D01*
Y321539D01*
X607702Y319000D01*
X612781D01*
X615320Y316461D01*
Y313922D01*
X612781Y311383D01*
X607702D01*
X605163Y313922D01*
X628016Y311383D02*
X622938D01*
X620398Y313922D01*
Y319000D01*
X622938Y321539D01*
X628016D01*
X630555Y319000D01*
Y316461D01*
X620398D01*
X635633Y311383D02*
Y321539D01*
X643251D01*
X645790Y319000D01*
Y311383D01*
X650869D02*
X658486D01*
X661025Y313922D01*
X658486Y316461D01*
X653408D01*
X650869Y319000D01*
X653408Y321539D01*
X661025D01*
X668643Y311383D02*
X673721D01*
X676260Y313922D01*
Y319000D01*
X673721Y321539D01*
X668643D01*
X666104Y319000D01*
Y313922D01*
X668643Y311383D01*
X681339Y321539D02*
Y311383D01*
Y316461D01*
X683878Y319000D01*
X686417Y321539D01*
X688956D01*
X696574Y311383D02*
X706730Y321539D01*
X711809Y326618D02*
X721965D01*
X716887D01*
Y311383D01*
X727044Y321539D02*
Y311383D01*
Y316461D01*
X729583Y319000D01*
X732122Y321539D01*
X734661D01*
X744818D02*
X749896D01*
X752436Y319000D01*
Y311383D01*
X744818D01*
X742279Y313922D01*
X744818Y316461D01*
X752436D01*
X767671Y321539D02*
X760053D01*
X757514Y319000D01*
Y313922D01*
X760053Y311383D01*
X767671D01*
X772749D02*
Y326618D01*
Y316461D02*
X780367Y321539D01*
X772749Y316461D02*
X780367Y311383D01*
X795602D02*
X790523D01*
X787984Y313922D01*
Y319000D01*
X790523Y321539D01*
X795602D01*
X798141Y319000D01*
Y316461D01*
X787984D01*
X803219Y321539D02*
Y311383D01*
Y316461D01*
X805758Y319000D01*
X808298Y321539D01*
X810837D01*
X641981Y302239D02*
Y287004D01*
X649599D01*
X652138Y289544D01*
Y299700D01*
X649599Y302239D01*
X641981D01*
X667373D02*
X657216D01*
Y287004D01*
X667373D01*
X657216Y294622D02*
X662295D01*
X672451Y302239D02*
Y292083D01*
X677530Y287004D01*
X682608Y292083D01*
Y302239D01*
X702922D02*
Y287004D01*
X710539D01*
X713078Y289544D01*
Y292083D01*
X710539Y294622D01*
X702922D01*
X710539D01*
X713078Y297161D01*
Y299700D01*
X710539Y302239D01*
X702922D01*
X720696Y287004D02*
X725774D01*
X728314Y289544D01*
Y294622D01*
X725774Y297161D01*
X720696D01*
X718157Y294622D01*
Y289544D01*
X720696Y287004D01*
X735931Y297161D02*
X741009D01*
X743549Y294622D01*
Y287004D01*
X735931D01*
X733392Y289544D01*
X735931Y292083D01*
X743549D01*
X748627Y297161D02*
Y287004D01*
Y292083D01*
X751166Y294622D01*
X753705Y297161D01*
X756244D01*
X774019Y302239D02*
Y287004D01*
X766401D01*
X763862Y289544D01*
Y294622D01*
X766401Y297161D01*
X774019D01*
X560634Y225887D02*
X565712D01*
X563173D01*
Y241122D01*
X560634Y238583D01*
X573330Y225887D02*
X580947D01*
X583486Y228427D01*
X580947Y230966D01*
X575869D01*
X573330Y233505D01*
X575869Y236044D01*
X583486D01*
X419687Y12383D02*
Y27617D01*
X427304D01*
X429843Y25078D01*
Y20000D01*
X427304Y17461D01*
X419687D01*
X434922Y27617D02*
Y17461D01*
Y22539D01*
X437461Y25078D01*
X440000Y27617D01*
X442539D01*
X455235Y12383D02*
X457774D01*
X460313Y14922D01*
Y27617D01*
X452696D01*
X450157Y25078D01*
Y20000D01*
X452696Y17461D01*
X460313D01*
X265982Y298486D02*
X276138Y303565D01*
X265982Y308643D01*
Y323878D02*
Y316261D01*
X268521Y313721D01*
X273599D01*
X276138Y316261D01*
Y323878D01*
X265982Y339113D02*
Y331496D01*
X268521Y328956D01*
X273599D01*
X276138Y331496D01*
Y339113D01*
X268521Y344192D02*
Y354348D01*
Y359427D02*
Y369583D01*
Y374662D02*
Y384818D01*
Y389897D02*
Y400053D01*
Y405132D02*
Y415289D01*
Y420367D02*
Y430524D01*
X87226Y231809D02*
Y221652D01*
Y226730D01*
X89765Y229270D01*
X92304Y231809D01*
X94843D01*
X102461Y221652D02*
X110078D01*
X112618Y224191D01*
X110078Y226730D01*
X105000D01*
X102461Y229270D01*
X105000Y231809D01*
X112618D01*
X120235Y234348D02*
Y231809D01*
X117696D01*
X122774D01*
X120235D01*
Y224191D01*
X122774Y221652D01*
X66113Y49539D02*
X58495D01*
X55956Y47000D01*
Y41922D01*
X58495Y39382D01*
X66113D01*
X71191Y54618D02*
Y39382D01*
Y47000D01*
X73730Y49539D01*
X78809D01*
X81348Y47000D01*
Y39382D01*
X86426Y49539D02*
Y39382D01*
Y44461D01*
X88966Y47000D01*
X91505Y49539D01*
X94044D01*
X47540Y449540D02*
X50926D01*
X49233D01*
Y459697D01*
X47540Y458004D01*
X529157Y255859D02*
Y258398D01*
X526618Y260938D01*
X513922D01*
Y253320D01*
X516461Y250781D01*
X521539D01*
X524078Y253320D01*
Y260938D01*
X529157Y266016D02*
X513922D01*
Y273633D01*
X516461Y276173D01*
X521539D01*
X524078Y273633D01*
Y266016D01*
Y281251D02*
Y286329D01*
Y283790D01*
X513922D01*
Y281251D01*
X524078Y296486D02*
Y301564D01*
X521539Y304104D01*
X516461D01*
X513922Y301564D01*
Y296486D01*
X516461Y293947D01*
X521539D01*
X524078Y296486D01*
X516461Y309182D02*
Y319339D01*
Y324417D02*
Y334574D01*
Y339652D02*
Y349809D01*
Y354887D02*
Y365044D01*
Y370122D02*
Y380279D01*
Y385357D02*
Y395514D01*
Y400592D02*
Y410749D01*
Y415827D02*
Y425984D01*
Y431063D02*
Y441219D01*
X661085Y393887D02*
X666163D01*
X663624D01*
Y404044D01*
X661085D01*
X683938Y393887D02*
X673781D01*
X683938Y404044D01*
Y406583D01*
X681399Y409123D01*
X676320D01*
X673781Y406583D01*
X699173Y404044D02*
X691555D01*
X689016Y401505D01*
Y396427D01*
X691555Y393887D01*
X699173D01*
X727104D02*
X722026D01*
X719486Y396427D01*
Y401505D01*
X722026Y404044D01*
X727104D01*
X729643Y401505D01*
Y398966D01*
X719486D01*
X734721Y404044D02*
X744878Y393887D01*
X739800Y398966D01*
X744878Y404044D01*
X734721Y393887D01*
X752496Y406583D02*
Y404044D01*
X749956D01*
X755035D01*
X752496D01*
Y396427D01*
X755035Y393887D01*
X-23774Y63618D02*
Y48383D01*
X-16157D01*
X-13618Y50922D01*
Y53461D01*
Y56000D01*
X-16157Y58539D01*
X-23774D01*
X-6000D02*
X-922D01*
X1618Y56000D01*
Y48383D01*
X-6000D01*
X-8539Y50922D01*
X-6000Y53461D01*
X1618D01*
X9235Y61078D02*
Y58539D01*
X6696D01*
X11774D01*
X9235D01*
Y50922D01*
X11774Y48383D01*
X404972Y308348D02*
X407511D01*
X410051Y310887D01*
Y323583D01*
X402433D01*
X399894Y321044D01*
Y315966D01*
X402433Y313427D01*
X410051D01*
X415129D02*
Y323583D01*
X422747D01*
X425286Y321044D01*
Y313427D01*
X440521Y328662D02*
Y313427D01*
X432903D01*
X430364Y315966D01*
Y321044D01*
X432903Y323583D01*
X440521D01*
X445599Y310887D02*
X455756D01*
X460834D02*
X470991D01*
X476069D02*
X486226D01*
X165618Y155956D02*
X150382D01*
Y163574D01*
X152922Y166113D01*
X158000D01*
X160539Y163574D01*
Y155956D01*
X150382Y171191D02*
X158000D01*
X160539Y173730D01*
X158000Y176270D01*
X160539Y178809D01*
X158000Y181348D01*
X150382D01*
Y186426D02*
X160539D01*
X155461D01*
X152922Y188965D01*
X150382Y191505D01*
Y194044D01*
X503956Y118383D02*
X509035D01*
X506495D01*
Y133617D01*
X503956D01*
X524270Y118383D02*
X519191D01*
X516652Y120922D01*
Y126000D01*
X519191Y128539D01*
X524270D01*
X526809Y126000D01*
Y123461D01*
X516652D01*
X542044Y133617D02*
Y118383D01*
X534426D01*
X531887Y120922D01*
Y126000D01*
X534426Y128539D01*
X542044D01*
X545634Y317887D02*
X550712D01*
X548173D01*
Y333122D01*
X545634Y330583D01*
X568486Y333122D02*
X563408Y330583D01*
X558330Y325505D01*
Y320427D01*
X560869Y317887D01*
X565947D01*
X568486Y320427D01*
Y322966D01*
X565947Y325505D01*
X558330D01*
X545634Y343887D02*
X550712D01*
X548173D01*
Y359123D01*
X545634Y356583D01*
X558330Y359123D02*
X568486D01*
Y356583D01*
X558330Y346427D01*
Y343887D01*
X553521Y369887D02*
X543364D01*
X553521Y380044D01*
Y382583D01*
X550982Y385122D01*
X545903D01*
X543364Y382583D01*
X568756Y385122D02*
X558599D01*
Y377505D01*
X563677Y380044D01*
X566217D01*
X568756Y377505D01*
Y372427D01*
X566217Y369887D01*
X561138D01*
X558599Y372427D01*
X546634Y418887D02*
X551712D01*
X549173D01*
Y434123D01*
X546634Y431583D01*
X566947Y418887D02*
Y434123D01*
X559330Y426505D01*
X569486D01*
X546634Y393887D02*
X551712D01*
X549173D01*
Y409123D01*
X546634Y406583D01*
X559330D02*
X561869Y409123D01*
X566947D01*
X569486Y406583D01*
Y404044D01*
X566947Y401505D01*
X564408D01*
X566947D01*
X569486Y398966D01*
Y396427D01*
X566947Y393887D01*
X561869D01*
X559330Y396427D01*
D12*
X498500Y-7750D02*
X502500D01*
X500000Y2250D02*
Y9750D01*
X494500Y-2750D02*
X506500D01*
X490500Y2250D02*
X509500D01*
D13*
X32700Y465000D02*
Y515000D01*
X547300Y465000D02*
Y515000D01*
X32700D02*
X547300D01*
X32700Y465000D02*
X547300D01*
D14*
X-19300Y239300D02*
X-9300D01*
X210300Y210490D02*
Y243510D01*
X156300D02*
X210300D01*
X156300Y210490D02*
X210300D01*
X156300D02*
Y243510D01*
X360000Y22000D02*
X370000D01*
X360000Y38000D02*
X370000D01*
X56560Y126440D02*
X87560D01*
X56560Y133440D02*
X87560D01*
X56560Y126440D02*
Y133440D01*
X87560Y126440D02*
Y133440D01*
X183000Y78000D02*
X193000D01*
X153000Y90000D02*
X163000D01*
X144000Y142000D02*
X152000D01*
Y135000D02*
Y142000D01*
X122000D02*
X130000D01*
X122000Y135000D02*
Y142000D01*
X123000Y90000D02*
X133000D01*
X765200Y138500D02*
X767200D01*
X765200Y122500D02*
X767200D01*
X17000Y70000D02*
Y130000D01*
X-28000Y70000D02*
X17000D01*
X-28000D02*
Y130000D01*
X17000D01*
X12000Y75000D02*
Y90160D01*
X17000D01*
X12000Y110000D02*
X17000D01*
X12000D02*
Y125000D01*
X-23000D02*
X12000D01*
X-23000Y75000D02*
Y125000D01*
Y75000D02*
X12000D01*
D15*
X170190Y160030D02*
X177810D01*
X59440Y52780D02*
X67060D01*
X565490Y194910D02*
X573110D01*
X498970Y121190D02*
Y128810D01*
X38900Y422300D02*
X195900D01*
X38900Y260300D02*
X195900D01*
X581731Y439507D02*
Y449503D01*
X586729D01*
X588396Y447837D01*
Y444505D01*
X586729Y442839D01*
X581731D01*
X585063D02*
X588396Y439507D01*
X591728Y447837D02*
X593394Y449503D01*
X596726D01*
X598392Y447837D01*
Y446171D01*
X596726Y444505D01*
X595060D01*
X596726D01*
X598392Y442839D01*
Y441173D01*
X596726Y439507D01*
X593394D01*
X591728Y441173D01*
X601725Y447837D02*
X603391Y449503D01*
X606723D01*
X608389Y447837D01*
Y441173D01*
X606723Y439507D01*
X603391D01*
X601725Y441173D01*
Y447837D01*
X605058Y390176D02*
X595062D01*
Y395174D01*
X596728Y396841D01*
X600060D01*
X601726Y395174D01*
Y390176D01*
Y393508D02*
X605058Y396841D01*
Y406837D02*
Y400173D01*
X598394Y406837D01*
X596728D01*
X595062Y405171D01*
Y401839D01*
X596728Y400173D01*
X603392Y410169D02*
X605058Y411836D01*
Y415168D01*
X603392Y416834D01*
X596728D01*
X595062Y415168D01*
Y411836D01*
X596728Y410169D01*
X598394D01*
X600060Y411836D01*
Y416834D01*
X-21631Y284298D02*
Y274302D01*
X-16632D01*
X-14966Y275968D01*
Y282632D01*
X-16632Y284298D01*
X-21631D01*
X-11634Y282632D02*
X-9968Y284298D01*
X-6636D01*
X-4969Y282632D01*
Y280966D01*
X-6636Y279300D01*
X-4969Y277634D01*
Y275968D01*
X-6636Y274302D01*
X-9968D01*
X-11634Y275968D01*
Y277634D01*
X-9968Y279300D01*
X-11634Y280966D01*
Y282632D01*
X-9968Y279300D02*
X-6636D01*
X179002Y203332D02*
X177335Y204998D01*
X174003D01*
X172337Y203332D01*
Y201666D01*
X174003Y200000D01*
X177335D01*
X179002Y198334D01*
Y196668D01*
X177335Y195002D01*
X174003D01*
X172337Y196668D01*
X182334Y204998D02*
Y195002D01*
X185666Y198334D01*
X188998Y195002D01*
Y204998D01*
X192331Y195002D02*
X195663D01*
X193997D01*
Y204998D01*
X192331Y203332D01*
X219998Y149671D02*
X210002D01*
Y154669D01*
X211668Y156335D01*
X215000D01*
X216666Y154669D01*
Y149671D01*
Y153003D02*
X219998Y156335D01*
Y166332D02*
Y159668D01*
X213334Y166332D01*
X211668D01*
X210002Y164666D01*
Y161334D01*
X211668Y159668D01*
Y169664D02*
X210002Y171331D01*
Y174663D01*
X211668Y176329D01*
X213334D01*
X215000Y174663D01*
X216666Y176329D01*
X218332D01*
X219998Y174663D01*
Y171331D01*
X218332Y169664D01*
X216666D01*
X215000Y171331D01*
X213334Y169664D01*
X211668D01*
X215000Y171331D02*
Y174663D01*
X208728Y258839D02*
X207062Y257173D01*
Y253841D01*
X208728Y252174D01*
X215392D01*
X217058Y253841D01*
Y257173D01*
X215392Y258839D01*
X207062Y262171D02*
Y268836D01*
X208728D01*
X215392Y262171D01*
X217058D01*
X642731Y124507D02*
Y134503D01*
X647729D01*
X649395Y132837D01*
Y129505D01*
X647729Y127839D01*
X642731D01*
X646063D02*
X649395Y124507D01*
X659392D02*
X652728D01*
X659392Y131171D01*
Y132837D01*
X657726Y134503D01*
X654394D01*
X652728Y132837D01*
X662725Y134503D02*
X669389D01*
Y132837D01*
X662725Y126173D01*
Y124507D01*
X249058Y273176D02*
X239062D01*
Y278174D01*
X240728Y279840D01*
X244060D01*
X245726Y278174D01*
Y273176D01*
Y276508D02*
X249058Y279840D01*
Y289837D02*
Y283173D01*
X242394Y289837D01*
X240728D01*
X239062Y288171D01*
Y284839D01*
X240728Y283173D01*
X239062Y299834D02*
Y293169D01*
X244060D01*
X242394Y296502D01*
Y298168D01*
X244060Y299834D01*
X247392D01*
X249058Y298168D01*
Y294836D01*
X247392Y293169D01*
X43334Y146332D02*
X41668Y147998D01*
X38335D01*
X36669Y146332D01*
Y139668D01*
X38335Y138002D01*
X41668D01*
X43334Y139668D01*
X46666Y146332D02*
X48332Y147998D01*
X51665D01*
X53331Y146332D01*
Y144666D01*
X51665Y143000D01*
X49998D01*
X51665D01*
X53331Y141334D01*
Y139668D01*
X51665Y138002D01*
X48332D01*
X46666Y139668D01*
X309335Y44998D02*
Y35002D01*
X316000D01*
X319332D02*
X322664D01*
X320998D01*
Y44998D01*
X319332Y43332D01*
X236394Y103837D02*
X234728Y105503D01*
X231395D01*
X229729Y103837D01*
Y97173D01*
X231395Y95507D01*
X234728D01*
X236394Y97173D01*
X239726D02*
X241392Y95507D01*
X244725D01*
X246391Y97173D01*
Y103837D01*
X244725Y105503D01*
X241392D01*
X239726Y103837D01*
Y102171D01*
X241392Y100505D01*
X246391D01*
X258394Y85837D02*
X256728Y87503D01*
X253396D01*
X251729Y85837D01*
Y79173D01*
X253396Y77507D01*
X256728D01*
X258394Y79173D01*
X261726Y85837D02*
X263392Y87503D01*
X266724D01*
X268391Y85837D01*
Y84171D01*
X266724Y82505D01*
X268391Y80839D01*
Y79173D01*
X266724Y77507D01*
X263392D01*
X261726Y79173D01*
Y80839D01*
X263392Y82505D01*
X261726Y84171D01*
Y85837D01*
X263392Y82505D02*
X266724D01*
X590671Y194002D02*
Y203998D01*
X595669D01*
X597336Y202332D01*
Y199000D01*
X595669Y197334D01*
X590671D01*
X594003D02*
X597336Y194002D01*
X607332D02*
X600668D01*
X607332Y200666D01*
Y202332D01*
X605666Y203998D01*
X602334D01*
X600668Y202332D01*
X615663Y194002D02*
Y203998D01*
X610664Y199000D01*
X617329D01*
X591729Y261507D02*
Y271503D01*
X596728D01*
X598394Y269837D01*
Y266505D01*
X596728Y264839D01*
X591729D01*
X595062D02*
X598394Y261507D01*
X601726Y263173D02*
X603392Y261507D01*
X606725D01*
X608391Y263173D01*
Y269837D01*
X606725Y271503D01*
X603392D01*
X601726Y269837D01*
Y268171D01*
X603392Y266505D01*
X608391D01*
X716729Y110507D02*
Y120503D01*
X721728D01*
X723394Y118837D01*
Y115505D01*
X721728Y113839D01*
X716729D01*
X720062D02*
X723394Y110507D01*
X726726Y118837D02*
X728392Y120503D01*
X731724D01*
X733391Y118837D01*
Y117171D01*
X731724Y115505D01*
X733391Y113839D01*
Y112173D01*
X731724Y110507D01*
X728392D01*
X726726Y112173D01*
Y113839D01*
X728392Y115505D01*
X726726Y117171D01*
Y118837D01*
X728392Y115505D02*
X731724D01*
X590731Y211507D02*
Y221503D01*
X595729D01*
X597396Y219837D01*
Y216505D01*
X595729Y214839D01*
X590731D01*
X594063D02*
X597396Y211507D01*
X607392D02*
X600728D01*
X607392Y218171D01*
Y219837D01*
X605726Y221503D01*
X602394D01*
X600728Y219837D01*
X617389Y221503D02*
X614057Y219837D01*
X610724Y216505D01*
Y213173D01*
X612391Y211507D01*
X615723D01*
X617389Y213173D01*
Y214839D01*
X615723Y216505D01*
X610724D01*
X591731Y244507D02*
Y254503D01*
X596729D01*
X598396Y252837D01*
Y249505D01*
X596729Y247839D01*
X591731D01*
X595063D02*
X598396Y244507D01*
X608392D02*
X601728D01*
X608392Y251171D01*
Y252837D01*
X606726Y254503D01*
X603394D01*
X601728Y252837D01*
X611725D02*
X613391Y254503D01*
X616723D01*
X618389Y252837D01*
Y251171D01*
X616723Y249505D01*
X615057D01*
X616723D01*
X618389Y247839D01*
Y246173D01*
X616723Y244507D01*
X613391D01*
X611725Y246173D01*
X591731Y227507D02*
Y237503D01*
X596729D01*
X598396Y235837D01*
Y232505D01*
X596729Y230839D01*
X591731D01*
X595063D02*
X598396Y227507D01*
X608392D02*
X601728D01*
X608392Y234171D01*
Y235837D01*
X606726Y237503D01*
X603394D01*
X601728Y235837D01*
X618389Y227507D02*
X611725D01*
X618389Y234171D01*
Y235837D01*
X616723Y237503D01*
X613391D01*
X611725Y235837D01*
X761394Y115837D02*
X759728Y117503D01*
X756395D01*
X754729Y115837D01*
Y109173D01*
X756395Y107507D01*
X759728D01*
X761394Y109173D01*
X771391Y117503D02*
X768058Y115837D01*
X764726Y112505D01*
Y109173D01*
X766392Y107507D01*
X769725D01*
X771391Y109173D01*
Y110839D01*
X769725Y112505D01*
X764726D01*
X641869Y170498D02*
Y162168D01*
X643536Y160502D01*
X646868D01*
X648534Y162168D01*
Y170498D01*
X658531D02*
X651866D01*
Y165500D01*
X655198Y167166D01*
X656864D01*
X658531Y165500D01*
Y162168D01*
X656864Y160502D01*
X653532D01*
X651866Y162168D01*
X169337Y132002D02*
Y141998D01*
X174335D01*
X176002Y140332D01*
Y137000D01*
X174335Y135334D01*
X169337D01*
X172669D02*
X176002Y132002D01*
X185998D02*
X179334D01*
X185998Y138666D01*
Y140332D01*
X184332Y141998D01*
X181000D01*
X179334Y140332D01*
X189331Y132002D02*
X192663D01*
X190997D01*
Y141998D01*
X189331Y140332D01*
X473731Y85507D02*
Y95503D01*
X478729D01*
X480396Y93837D01*
Y90505D01*
X478729Y88839D01*
X473731D01*
X477063D02*
X480396Y85507D01*
X490392D02*
X483728D01*
X490392Y92171D01*
Y93837D01*
X488726Y95503D01*
X485394D01*
X483728Y93837D01*
X493725D02*
X495391Y95503D01*
X498723D01*
X500389Y93837D01*
Y87173D01*
X498723Y85507D01*
X495391D01*
X493725Y87173D01*
Y93837D01*
X558058Y165009D02*
X548062D01*
Y170007D01*
X549728Y171674D01*
X553060D01*
X554726Y170007D01*
Y165009D01*
Y168341D02*
X558058Y171674D01*
Y175006D02*
Y178338D01*
Y176672D01*
X548062D01*
X549728Y175006D01*
X556392Y183336D02*
X558058Y185003D01*
Y188335D01*
X556392Y190001D01*
X549728D01*
X548062Y188335D01*
Y185003D01*
X549728Y183336D01*
X551394D01*
X553060Y185003D01*
Y190001D01*
X181669Y170998D02*
Y161002D01*
X186668D01*
X188334Y162668D01*
Y169332D01*
X186668Y170998D01*
X181669D01*
X191666D02*
X198331D01*
Y169332D01*
X191666Y162668D01*
Y161002D01*
X477729Y142503D02*
Y132507D01*
X482728D01*
X484394Y134173D01*
Y140837D01*
X482728Y142503D01*
X477729D01*
X494391D02*
X491058Y140837D01*
X487726Y137505D01*
Y134173D01*
X489392Y132507D01*
X492724D01*
X494391Y134173D01*
Y135839D01*
X492724Y137505D01*
X487726D01*
X548062Y200174D02*
X558058D01*
Y205173D01*
X556392Y206839D01*
X549728D01*
X548062Y205173D01*
Y200174D01*
Y216836D02*
Y210171D01*
X553060D01*
X551394Y213503D01*
Y215170D01*
X553060Y216836D01*
X556392D01*
X558058Y215170D01*
Y211837D01*
X556392Y210171D01*
X97058Y56009D02*
X87062D01*
Y61007D01*
X88728Y62674D01*
X92060D01*
X93726Y61007D01*
Y56009D01*
Y59341D02*
X97058Y62674D01*
Y66006D02*
Y69338D01*
Y67672D01*
X87062D01*
X88728Y66006D01*
Y74337D02*
X87062Y76003D01*
Y79335D01*
X88728Y81001D01*
X95392D01*
X97058Y79335D01*
Y76003D01*
X95392Y74337D01*
X88728D01*
X39998Y40504D02*
X30002D01*
Y45502D01*
X31668Y47169D01*
X35000D01*
X36666Y45502D01*
Y40504D01*
Y43836D02*
X39998Y47169D01*
Y50501D02*
Y53833D01*
Y52167D01*
X30002D01*
X31668Y50501D01*
X30002Y58832D02*
Y65496D01*
X31668D01*
X38332Y58832D01*
X39998D01*
X58002Y82669D02*
X67998D01*
Y87668D01*
X66332Y89334D01*
X59668D01*
X58002Y87668D01*
Y82669D01*
X59668Y92666D02*
X58002Y94332D01*
Y97664D01*
X59668Y99331D01*
X61334D01*
X63000Y97664D01*
Y95998D01*
Y97664D01*
X64666Y99331D01*
X66332D01*
X67998Y97664D01*
Y94332D01*
X66332Y92666D01*
X135669Y-11292D02*
X142334Y-21288D01*
Y-11292D02*
X135669Y-21288D01*
X152331Y-11292D02*
X148998Y-12958D01*
X145666Y-16290D01*
Y-19622D01*
X147332Y-21288D01*
X150665D01*
X152331Y-19622D01*
Y-17956D01*
X150665Y-16290D01*
X145666D01*
X358335Y44002D02*
Y53998D01*
X363334D01*
X365000Y52332D01*
Y49000D01*
X363334Y47334D01*
X358335D01*
X361668D02*
X365000Y44002D01*
X368332D02*
X371665D01*
X369998D01*
Y53998D01*
X368332Y52332D01*
X27998Y107504D02*
X18002D01*
Y112502D01*
X19668Y114169D01*
X23000D01*
X24666Y112502D01*
Y107504D01*
Y110836D02*
X27998Y114169D01*
Y117501D02*
Y120833D01*
Y119167D01*
X18002D01*
X19668Y117501D01*
X18002Y132496D02*
X19668Y129164D01*
X23000Y125831D01*
X26332D01*
X27998Y127498D01*
Y130830D01*
X26332Y132496D01*
X24666D01*
X23000Y130830D01*
Y125831D01*
X40998Y108170D02*
X31002D01*
Y113169D01*
X32668Y114835D01*
X36000D01*
X37666Y113169D01*
Y108170D01*
Y111502D02*
X40998Y114835D01*
Y118167D02*
Y121499D01*
Y119833D01*
X31002D01*
X32668Y118167D01*
X40998Y126498D02*
Y129830D01*
Y128164D01*
X31002D01*
X32668Y126498D01*
X-9942Y173009D02*
X-19938D01*
Y178007D01*
X-18272Y179674D01*
X-14940D01*
X-13274Y178007D01*
Y173009D01*
Y176341D02*
X-9942Y179674D01*
Y183006D02*
Y186338D01*
Y184672D01*
X-19938D01*
X-18272Y183006D01*
X-19938Y198001D02*
Y191336D01*
X-14940D01*
X-16606Y194669D01*
Y196335D01*
X-14940Y198001D01*
X-11608D01*
X-9942Y196335D01*
Y193003D01*
X-11608Y191336D01*
X-9002Y141504D02*
X-18998D01*
Y146503D01*
X-17332Y148169D01*
X-14000D01*
X-12334Y146503D01*
Y141504D01*
Y144836D02*
X-9002Y148169D01*
Y151501D02*
Y154833D01*
Y153167D01*
X-18998D01*
X-17332Y151501D01*
X-9002Y166496D02*
Y159831D01*
X-15666Y166496D01*
X-17332D01*
X-18998Y164830D01*
Y161498D01*
X-17332Y159831D01*
X153002Y46336D02*
X162998D01*
Y51334D01*
X161332Y53000D01*
X154668D01*
X153002Y51334D01*
Y46336D01*
X162998Y56332D02*
Y59665D01*
Y57998D01*
X153002D01*
X154668Y56332D01*
X12728Y155839D02*
X11062Y154173D01*
Y150841D01*
X12728Y149174D01*
X19392D01*
X21058Y150841D01*
Y154173D01*
X19392Y155839D01*
X21058Y164170D02*
X11062D01*
X16060Y159171D01*
Y165836D01*
X762729Y416503D02*
X769394Y406507D01*
Y416503D02*
X762729Y406507D01*
X772726Y414837D02*
X774392Y416503D01*
X777725D01*
X779391Y414837D01*
Y413171D01*
X777725Y411505D01*
X776058D01*
X777725D01*
X779391Y409839D01*
Y408173D01*
X777725Y406507D01*
X774392D01*
X772726Y408173D01*
X213564Y-3493D02*
Y6503D01*
X218562D01*
X220229Y4837D01*
Y1505D01*
X218562Y-161D01*
X213564D01*
X216896D02*
X220229Y-3493D01*
X223561D02*
X226893D01*
X225227D01*
Y6503D01*
X223561Y4837D01*
X231891D02*
X233558Y6503D01*
X236890D01*
X238556Y4837D01*
Y3171D01*
X236890Y1505D01*
X238556Y-161D01*
Y-1827D01*
X236890Y-3493D01*
X233558D01*
X231891Y-1827D01*
Y-161D01*
X233558Y1505D01*
X231891Y3171D01*
Y4837D01*
X233558Y1505D02*
X236890D01*
X157564Y12507D02*
Y22503D01*
X162562D01*
X164228Y20837D01*
Y17505D01*
X162562Y15839D01*
X157564D01*
X160896D02*
X164228Y12507D01*
X167561D02*
X170893D01*
X169227D01*
Y22503D01*
X167561Y20837D01*
X175891D02*
X177558Y22503D01*
X180890D01*
X182556Y20837D01*
Y19171D01*
X180890Y17505D01*
X179224D01*
X180890D01*
X182556Y15839D01*
Y14173D01*
X180890Y12507D01*
X177558D01*
X175891Y14173D01*
X281084Y72332D02*
X279418Y73998D01*
X276085D01*
X274419Y72332D01*
Y65668D01*
X276085Y64002D01*
X279418D01*
X281084Y65668D01*
X291081Y64002D02*
X284416D01*
X291081Y70666D01*
Y72332D01*
X289415Y73998D01*
X286082D01*
X284416Y72332D01*
X163060Y36837D02*
X161394Y38503D01*
X158062D01*
X156396Y36837D01*
Y30173D01*
X158062Y28507D01*
X161394D01*
X163060Y30173D01*
X166392Y28507D02*
X169725D01*
X168058D01*
Y38503D01*
X166392Y36837D01*
X236394Y87837D02*
X234728Y89503D01*
X231395D01*
X229729Y87837D01*
Y81173D01*
X231395Y79507D01*
X234728D01*
X236394Y81173D01*
X246391Y89503D02*
X239726D01*
Y84505D01*
X243058Y86171D01*
X244725D01*
X246391Y84505D01*
Y81173D01*
X244725Y79507D01*
X241392D01*
X239726Y81173D01*
X222669Y25998D02*
Y17668D01*
X224335Y16002D01*
X227668D01*
X229334Y17668D01*
Y25998D01*
X237665Y16002D02*
Y25998D01*
X232666Y21000D01*
X239331D01*
X117060Y149173D02*
Y155837D01*
X115394Y157503D01*
X112062D01*
X110395Y155837D01*
Y149173D01*
X112062Y147507D01*
X115394D01*
X113728Y150839D02*
X117060Y147507D01*
X115394D02*
X117060Y149173D01*
X120392Y147507D02*
X123724D01*
X122058D01*
Y157503D01*
X120392Y155837D01*
X90564Y97507D02*
Y107503D01*
X95562D01*
X97228Y105837D01*
Y102505D01*
X95562Y100839D01*
X90564D01*
X93896D02*
X97228Y97507D01*
X100561D02*
X103893D01*
X102227D01*
Y107503D01*
X100561Y105837D01*
X113890Y97507D02*
Y107503D01*
X108891Y102505D01*
X115556D01*
X185002Y44669D02*
X194998D01*
Y49668D01*
X193332Y51334D01*
X186668D01*
X185002Y49668D01*
Y44669D01*
X194998Y59665D02*
X185002D01*
X190000Y54666D01*
Y61331D01*
X123002Y44429D02*
X132998D01*
Y49428D01*
X131332Y51094D01*
X124668D01*
X123002Y49428D01*
Y44429D01*
X132998Y61091D02*
Y54426D01*
X126334Y61091D01*
X124668D01*
X123002Y59425D01*
Y56092D01*
X124668Y54426D01*
X59729Y164503D02*
Y156173D01*
X61396Y154507D01*
X64728D01*
X66394Y156173D01*
Y164503D01*
X69726Y162837D02*
X71392Y164503D01*
X74724D01*
X76391Y162837D01*
Y161171D01*
X74724Y159505D01*
X73058D01*
X74724D01*
X76391Y157839D01*
Y156173D01*
X74724Y154507D01*
X71392D01*
X69726Y156173D01*
X694058Y440174D02*
X684062D01*
Y445173D01*
X685728Y446839D01*
X689060D01*
X690726Y445173D01*
Y440174D01*
Y443507D02*
X694058Y446839D01*
X685728Y450171D02*
X684062Y451837D01*
Y455169D01*
X685728Y456836D01*
X687394D01*
X689060Y455169D01*
Y453503D01*
Y455169D01*
X690726Y456836D01*
X692392D01*
X694058Y455169D01*
Y451837D01*
X692392Y450171D01*
X693058Y486174D02*
X683062D01*
Y491173D01*
X684728Y492839D01*
X688060D01*
X689726Y491173D01*
Y486174D01*
Y489507D02*
X693058Y492839D01*
Y502836D02*
Y496171D01*
X686394Y502836D01*
X684728D01*
X683062Y501170D01*
Y497837D01*
X684728Y496171D01*
X267335Y-1002D02*
X274000Y-10998D01*
Y-1002D02*
X267335Y-10998D01*
X277332D02*
X280665D01*
X278998D01*
Y-1002D01*
X277332Y-2668D01*
X623729Y416503D02*
X630394Y406507D01*
Y416503D02*
X623729Y406507D01*
X640391D02*
X633726D01*
X640391Y413171D01*
Y414837D01*
X638725Y416503D01*
X635392D01*
X633726Y414837D01*
X208729Y417503D02*
Y409173D01*
X210396Y407507D01*
X213728D01*
X215394Y409173D01*
Y417503D01*
X225391Y407507D02*
X218726D01*
X225391Y414171D01*
Y415837D01*
X223724Y417503D01*
X220392D01*
X218726Y415837D01*
D16*
X229705Y58224D02*
X238295D01*
X229705Y29776D02*
X238295D01*
X225895Y41315D02*
Y46685D01*
M02*
