G04*
G04 #@! TF.GenerationSoftware,Altium Limited,CircuitMaker,2.2.1 (2.2.1.6)*
G04*
G04 Layer_Physical_Order=2*
G04 Layer_Color=11436288*
%FSLAX44Y44*%
%MOMM*%
G71*
G04*
G04 #@! TF.SameCoordinates,9F1E3F87-7A7F-4E4B-B1B4-4F695BE8A883*
G04*
G04*
G04 #@! TF.FilePolarity,Positive*
G04*
G01*
G75*
%ADD77C,0.5000*%
%ADD79C,1.0000*%
%ADD99C,1.5500*%
%ADD100C,1.6510*%
%ADD101R,1.6510X1.6510*%
G04:AMPARAMS|DCode=102|XSize=1.524mm|YSize=1.524mm|CornerRadius=0.1905mm|HoleSize=0mm|Usage=FLASHONLY|Rotation=0.000|XOffset=0mm|YOffset=0mm|HoleType=Round|Shape=RoundedRectangle|*
%AMROUNDEDRECTD102*
21,1,1.5240,1.1430,0,0,0.0*
21,1,1.1430,1.5240,0,0,0.0*
1,1,0.3810,0.5715,-0.5715*
1,1,0.3810,-0.5715,-0.5715*
1,1,0.3810,-0.5715,0.5715*
1,1,0.3810,0.5715,0.5715*
%
%ADD102ROUNDEDRECTD102*%
%ADD103C,1.5240*%
%ADD104R,1.5240X1.5240*%
%ADD105R,1.2000X1.2000*%
%ADD106C,1.2000*%
%ADD107C,1.5000*%
G04:AMPARAMS|DCode=108|XSize=1.5mm|YSize=1.5mm|CornerRadius=0.1875mm|HoleSize=0mm|Usage=FLASHONLY|Rotation=90.000|XOffset=0mm|YOffset=0mm|HoleType=Round|Shape=RoundedRectangle|*
%AMROUNDEDRECTD108*
21,1,1.5000,1.1250,0,0,90.0*
21,1,1.1250,1.5000,0,0,90.0*
1,1,0.3750,0.5625,0.5625*
1,1,0.3750,0.5625,-0.5625*
1,1,0.3750,-0.5625,-0.5625*
1,1,0.3750,-0.5625,0.5625*
%
%ADD108ROUNDEDRECTD108*%
%ADD109C,1.0000*%
%ADD110C,0.6800*%
%ADD111R,2.5000X1.2000*%
G36*
X88700Y470827D02*
X87527Y470341D01*
X84281Y473587D01*
X84895Y475879D01*
Y478721D01*
X84159Y481467D01*
X82738Y483928D01*
X80728Y485938D01*
X78267Y487359D01*
X75521Y488095D01*
X72679D01*
X69933Y487359D01*
X67472Y485938D01*
X65462Y483928D01*
X64041Y481467D01*
X63305Y478721D01*
Y475879D01*
X64041Y473133D01*
X65462Y470672D01*
X67472Y468662D01*
X69933Y467241D01*
X72679Y466505D01*
X75521D01*
X76552Y466781D01*
X88700Y454633D01*
Y452300D01*
X33700D01*
Y521900D01*
X88700D01*
Y470827D01*
D02*
G37*
G36*
X789211Y521585D02*
X793317Y520599D01*
X797220Y518982D01*
X800821Y516776D01*
X804033Y514033D01*
X806776Y510821D01*
X808982Y507220D01*
X810599Y503317D01*
X811585Y499211D01*
X811818Y496246D01*
X811900Y495000D01*
X811900Y495000D01*
X811900Y493750D01*
Y416500D01*
Y247664D01*
X811200Y247090D01*
X763200D01*
X762209Y246893D01*
X761369Y246331D01*
X760808Y245491D01*
X760611Y244500D01*
Y176500D01*
X760808Y175509D01*
X761369Y174669D01*
X762209Y174107D01*
X763200Y173910D01*
X811200D01*
X811900Y173336D01*
Y-5000D01*
X811912Y-5056D01*
X811585Y-9211D01*
X810599Y-13318D01*
X808982Y-17220D01*
X806776Y-20821D01*
X804033Y-24032D01*
X800821Y-26776D01*
X797220Y-28982D01*
X793317Y-30599D01*
X789211Y-31585D01*
X786246Y-31818D01*
X785000Y-31900D01*
X785000Y-31900D01*
X783750Y-31900D01*
X585530D01*
X585380Y-30630D01*
X589622Y-29612D01*
X594135Y-27742D01*
X598301Y-25189D01*
X602016Y-22016D01*
X605190Y-18301D01*
X607742Y-14135D01*
X609612Y-9621D01*
X610753Y-4871D01*
X611136Y0D01*
X610753Y4871D01*
X609612Y9621D01*
X607742Y14135D01*
X605190Y18301D01*
X602016Y22016D01*
X598301Y25189D01*
X594135Y27742D01*
X589622Y29612D01*
X584871Y30753D01*
X580000Y31136D01*
X575129Y30753D01*
X570378Y29612D01*
X565865Y27742D01*
X561699Y25189D01*
X557984Y22016D01*
X554810Y18301D01*
X552258Y14135D01*
X550388Y9621D01*
X549247Y4871D01*
X548864Y0D01*
X549247Y-4871D01*
X550388Y-9621D01*
X552258Y-14135D01*
X554810Y-18301D01*
X557984Y-22016D01*
X561699Y-25189D01*
X565865Y-27742D01*
X570378Y-29612D01*
X574620Y-30630D01*
X574470Y-31900D01*
X5530D01*
X5380Y-30630D01*
X9621Y-29612D01*
X14135Y-27742D01*
X18301Y-25189D01*
X20420Y-23380D01*
X21573Y-23912D01*
Y-24035D01*
X21918Y-25769D01*
X22900Y-27240D01*
X24371Y-28222D01*
X26105Y-28567D01*
X37535D01*
X39269Y-28222D01*
X40740Y-27240D01*
X41722Y-25769D01*
X42067Y-24035D01*
Y-12605D01*
X41722Y-10871D01*
X40740Y-9400D01*
X39269Y-8418D01*
X37535Y-8073D01*
X31010D01*
X30223Y-7076D01*
X30753Y-4871D01*
X31136Y0D01*
X30753Y4871D01*
X30202Y7166D01*
X30988Y8163D01*
X37515D01*
X39249Y8508D01*
X40720Y9490D01*
X41702Y10961D01*
X42047Y12695D01*
Y24125D01*
X41702Y25859D01*
X40720Y27330D01*
X39249Y28312D01*
X37515Y28657D01*
X26085D01*
X24351Y28312D01*
X22880Y27330D01*
X21898Y25859D01*
X21553Y24125D01*
Y23929D01*
X20400Y23397D01*
X18301Y25189D01*
X14135Y27742D01*
X9621Y29612D01*
X4871Y30753D01*
X0Y31136D01*
X-4871Y30753D01*
X-9621Y29612D01*
X-14135Y27742D01*
X-18301Y25189D01*
X-22016Y22016D01*
X-25189Y18301D01*
X-27742Y14135D01*
X-29612Y9621D01*
X-30630Y5380D01*
X-31900Y5530D01*
Y484470D01*
X-30630Y484620D01*
X-29612Y480378D01*
X-27742Y475864D01*
X-25189Y471699D01*
X-22016Y467984D01*
X-18301Y464810D01*
X-14135Y462258D01*
X-9621Y460388D01*
X-4871Y459247D01*
X0Y458864D01*
X4871Y459247D01*
X9621Y460388D01*
X14135Y462258D01*
X18301Y464810D01*
X22016Y467984D01*
X25189Y471699D01*
X27742Y475864D01*
X29612Y480378D01*
X29840Y481329D01*
X31110Y481179D01*
Y452300D01*
X31307Y451309D01*
X31869Y450469D01*
X32709Y449907D01*
X33700Y449710D01*
X88700D01*
X89691Y449907D01*
X90531Y450469D01*
X90746Y450790D01*
X92245Y451088D01*
X100466Y442866D01*
X102134Y441752D01*
X104100Y441361D01*
X535172D01*
X545161Y431371D01*
Y424500D01*
X545552Y422533D01*
X546666Y420866D01*
X559666Y407866D01*
X561334Y406752D01*
X563300Y406361D01*
X580775D01*
X581670Y405466D01*
X583390Y404474D01*
X585307Y403960D01*
X587293D01*
X589210Y404474D01*
X590930Y405466D01*
X592104Y406641D01*
X593025Y406467D01*
X593428Y406231D01*
X593528Y405483D01*
X583150Y395105D01*
X557300D01*
X556806Y395040D01*
X556307D01*
X555826Y394911D01*
X555332Y394846D01*
X554871Y394655D01*
X554390Y394526D01*
X553958Y394277D01*
X553498Y394086D01*
X553102Y393783D01*
X552670Y393534D01*
X552318Y393181D01*
X551922Y392878D01*
X551619Y392482D01*
X551267Y392130D01*
X551017Y391698D01*
X550714Y391302D01*
X550523Y390842D01*
X550274Y390410D01*
X550145Y389929D01*
X549954Y389468D01*
X549889Y388974D01*
X549760Y388493D01*
Y387994D01*
X549695Y387500D01*
X549760Y387006D01*
Y386507D01*
X549889Y386026D01*
X549954Y385532D01*
X550145Y385071D01*
X550274Y384590D01*
X550523Y384158D01*
X550714Y383698D01*
X551017Y383302D01*
X551267Y382870D01*
X551619Y382518D01*
X551922Y382122D01*
X552318Y381819D01*
X552670Y381466D01*
X553102Y381217D01*
X553498Y380914D01*
X553958Y380723D01*
X554390Y380474D01*
X554871Y380345D01*
X555332Y380154D01*
X555826Y380089D01*
X556307Y379960D01*
X556806D01*
X557300Y379895D01*
X586300D01*
X588268Y380154D01*
X590103Y380914D01*
X591678Y382122D01*
X606678Y397122D01*
X607886Y398698D01*
X608646Y400532D01*
X608905Y402500D01*
Y421350D01*
X641450Y453895D01*
X651665D01*
X652277Y453542D01*
X654449Y452960D01*
X656697D01*
X658869Y453542D01*
X659481Y453895D01*
X751665D01*
X752277Y453542D01*
X754449Y452960D01*
X756697D01*
X758869Y453542D01*
X760817Y454666D01*
X762407Y456256D01*
X763531Y458204D01*
X764113Y460376D01*
Y462624D01*
X763531Y464796D01*
X762407Y466744D01*
X760817Y468334D01*
X758869Y469458D01*
X756697Y470040D01*
X754449D01*
X752277Y469458D01*
X751665Y469105D01*
X709665D01*
Y471502D01*
X709600Y471997D01*
Y472495D01*
X709471Y472976D01*
X709406Y473471D01*
X709215Y473931D01*
X709086Y474413D01*
X708837Y474845D01*
X708646Y475305D01*
X708343Y475700D01*
X708093Y476132D01*
X707741Y476485D01*
X707438Y476880D01*
X707042Y477183D01*
X706690Y477536D01*
X706258Y477785D01*
X705863Y478089D01*
X705402Y478279D01*
X704970Y478529D01*
X704489Y478658D01*
X704028Y478848D01*
X703534Y478913D01*
X703053Y479043D01*
X702554D01*
X702060Y479108D01*
X701566Y479043D01*
X701067D01*
X700586Y478913D01*
X700092Y478848D01*
X699631Y478658D01*
X699150Y478529D01*
X698718Y478279D01*
X698258Y478089D01*
X697862Y477785D01*
X697430Y477536D01*
X697078Y477183D01*
X696682Y476880D01*
X696379Y476485D01*
X696027Y476132D01*
X695777Y475700D01*
X695474Y475305D01*
X695283Y474845D01*
X695034Y474413D01*
X694905Y473931D01*
X694714Y473471D01*
X694649Y472976D01*
X694520Y472495D01*
Y471997D01*
X694455Y471502D01*
Y469105D01*
X659481D01*
X658869Y469458D01*
X656697Y470040D01*
X654449D01*
X652277Y469458D01*
X651665Y469105D01*
X638300D01*
X636332Y468846D01*
X634497Y468086D01*
X632922Y466878D01*
X595922Y429878D01*
X594714Y428302D01*
X593954Y426468D01*
X593695Y424500D01*
Y416312D01*
X592425Y415971D01*
X592333Y416130D01*
X590930Y417533D01*
X589210Y418526D01*
X587293Y419040D01*
X585307D01*
X583390Y418526D01*
X581670Y417533D01*
X580775Y416639D01*
X565429D01*
X561127Y420940D01*
X561653Y422210D01*
X563043D01*
X564960Y422724D01*
X566680Y423717D01*
X568083Y425120D01*
X569076Y426840D01*
X569590Y428757D01*
Y430743D01*
X569076Y432660D01*
X568083Y434380D01*
X567189Y435274D01*
Y441750D01*
X566798Y443717D01*
X565684Y445384D01*
X551134Y459934D01*
X549467Y461048D01*
X547500Y461439D01*
X122628D01*
X109850Y474217D01*
X110295Y475879D01*
Y478721D01*
X109559Y481467D01*
X108138Y483928D01*
X106128Y485938D01*
X103667Y487359D01*
X100921Y488095D01*
X98079D01*
X95333Y487359D01*
X92872Y485938D01*
X92463Y485530D01*
X91290Y486016D01*
Y493984D01*
X92463Y494470D01*
X92872Y494062D01*
X95333Y492641D01*
X98079Y491905D01*
X98230D01*
Y502700D01*
Y513495D01*
X98079D01*
X95333Y512759D01*
X92872Y511338D01*
X92463Y510929D01*
X91290Y511415D01*
Y521900D01*
X574470D01*
X574620Y520630D01*
X570378Y519612D01*
X565865Y517742D01*
X561699Y515190D01*
X557984Y512016D01*
X554810Y508301D01*
X552258Y504135D01*
X550388Y499622D01*
X549247Y494871D01*
X548864Y490000D01*
X549247Y485129D01*
X550388Y480378D01*
X552258Y475865D01*
X554810Y471699D01*
X557984Y467984D01*
X561699Y464810D01*
X565865Y462258D01*
X570378Y460388D01*
X575129Y459247D01*
X580000Y458864D01*
X584871Y459247D01*
X589622Y460388D01*
X594135Y462258D01*
X598301Y464810D01*
X602016Y467984D01*
X605190Y471699D01*
X607742Y475865D01*
X609612Y480378D01*
X610753Y485129D01*
X611136Y490000D01*
X610753Y494871D01*
X609612Y499622D01*
X607742Y504135D01*
X605190Y508301D01*
X602016Y512016D01*
X598301Y515190D01*
X594135Y517742D01*
X589622Y519612D01*
X585380Y520630D01*
X585530Y521900D01*
X785000D01*
X785056Y521912D01*
X789211Y521585D01*
D02*
G37*
%LPC*%
G36*
X75521Y513495D02*
X75370D01*
Y503970D01*
X84895D01*
Y504121D01*
X84159Y506867D01*
X82738Y509328D01*
X80728Y511338D01*
X78267Y512759D01*
X75521Y513495D01*
D02*
G37*
G36*
X72830D02*
X72679D01*
X69933Y512759D01*
X67472Y511338D01*
X65462Y509328D01*
X64041Y506867D01*
X63305Y504121D01*
Y503970D01*
X72830D01*
Y513495D01*
D02*
G37*
G36*
X50121D02*
X49970D01*
Y503970D01*
X59495D01*
Y504121D01*
X58759Y506867D01*
X57338Y509328D01*
X55328Y511338D01*
X52867Y512759D01*
X50121Y513495D01*
D02*
G37*
G36*
X47430D02*
X47279D01*
X44533Y512759D01*
X42072Y511338D01*
X40062Y509328D01*
X38641Y506867D01*
X37905Y504121D01*
Y503970D01*
X47430D01*
Y513495D01*
D02*
G37*
G36*
X84895Y501430D02*
X75370D01*
Y491905D01*
X75521D01*
X78267Y492641D01*
X80728Y494062D01*
X82738Y496072D01*
X84159Y498533D01*
X84895Y501279D01*
Y501430D01*
D02*
G37*
G36*
X72830D02*
X63305D01*
Y501279D01*
X64041Y498533D01*
X65462Y496072D01*
X67472Y494062D01*
X69933Y492641D01*
X72679Y491905D01*
X72830D01*
Y501430D01*
D02*
G37*
G36*
X59495D02*
X49970D01*
Y491905D01*
X50121D01*
X52867Y492641D01*
X55328Y494062D01*
X57338Y496072D01*
X58759Y498533D01*
X59495Y501279D01*
Y501430D01*
D02*
G37*
G36*
X47430D02*
X37905D01*
Y501279D01*
X38641Y498533D01*
X40062Y496072D01*
X42072Y494062D01*
X44533Y492641D01*
X47279Y491905D01*
X47430D01*
Y501430D01*
D02*
G37*
G36*
X59495Y488095D02*
X37905D01*
Y466505D01*
X59495D01*
Y488095D01*
D02*
G37*
G36*
X456521Y513495D02*
X456370D01*
Y503970D01*
X465895D01*
Y504121D01*
X465159Y506867D01*
X463738Y509328D01*
X461728Y511338D01*
X459267Y512759D01*
X456521Y513495D01*
D02*
G37*
G36*
X453830D02*
X453679D01*
X450933Y512759D01*
X448472Y511338D01*
X446462Y509328D01*
X445041Y506867D01*
X444305Y504121D01*
Y503970D01*
X453830D01*
Y513495D01*
D02*
G37*
G36*
X405721D02*
X405570D01*
Y503970D01*
X415095D01*
Y504121D01*
X414359Y506867D01*
X412938Y509328D01*
X410928Y511338D01*
X408467Y512759D01*
X405721Y513495D01*
D02*
G37*
G36*
X403030D02*
X402879D01*
X400133Y512759D01*
X397672Y511338D01*
X395662Y509328D01*
X394241Y506867D01*
X393505Y504121D01*
Y503970D01*
X403030D01*
Y513495D01*
D02*
G37*
G36*
X278721D02*
X278570D01*
Y503970D01*
X288095D01*
Y504121D01*
X287359Y506867D01*
X285938Y509328D01*
X283928Y511338D01*
X281467Y512759D01*
X278721Y513495D01*
D02*
G37*
G36*
X276030D02*
X275879D01*
X273133Y512759D01*
X270672Y511338D01*
X268662Y509328D01*
X267241Y506867D01*
X266505Y504121D01*
Y503970D01*
X276030D01*
Y513495D01*
D02*
G37*
G36*
X202521D02*
X202370D01*
Y503970D01*
X211895D01*
Y504121D01*
X211159Y506867D01*
X209738Y509328D01*
X207728Y511338D01*
X205267Y512759D01*
X202521Y513495D01*
D02*
G37*
G36*
X199830D02*
X199679D01*
X196933Y512759D01*
X194472Y511338D01*
X192462Y509328D01*
X191041Y506867D01*
X190305Y504121D01*
Y503970D01*
X199830D01*
Y513495D01*
D02*
G37*
G36*
X100921D02*
X100770D01*
Y503970D01*
X110295D01*
Y504121D01*
X109559Y506867D01*
X108138Y509328D01*
X106128Y511338D01*
X103667Y512759D01*
X100921Y513495D01*
D02*
G37*
G36*
X764113Y510040D02*
X747033D01*
Y492960D01*
X764113D01*
Y510040D01*
D02*
G37*
G36*
X664113D02*
X647033D01*
Y492960D01*
X664113D01*
Y510040D01*
D02*
G37*
G36*
X532721Y513495D02*
X529879D01*
X527133Y512759D01*
X524672Y511338D01*
X522662Y509328D01*
X521241Y506867D01*
X520505Y504121D01*
Y501279D01*
X521241Y498533D01*
X522662Y496072D01*
X524672Y494062D01*
X527133Y492641D01*
X529879Y491905D01*
X532721D01*
X535467Y492641D01*
X537928Y494062D01*
X539938Y496072D01*
X541359Y498533D01*
X542095Y501279D01*
Y504121D01*
X541359Y506867D01*
X539938Y509328D01*
X537928Y511338D01*
X535467Y512759D01*
X532721Y513495D01*
D02*
G37*
G36*
X507321D02*
X504479D01*
X501733Y512759D01*
X499272Y511338D01*
X497262Y509328D01*
X495841Y506867D01*
X495105Y504121D01*
Y501279D01*
X495841Y498533D01*
X497262Y496072D01*
X499272Y494062D01*
X501733Y492641D01*
X504479Y491905D01*
X507321D01*
X510067Y492641D01*
X512528Y494062D01*
X514538Y496072D01*
X515959Y498533D01*
X516695Y501279D01*
Y504121D01*
X515959Y506867D01*
X514538Y509328D01*
X512528Y511338D01*
X510067Y512759D01*
X507321Y513495D01*
D02*
G37*
G36*
X481921D02*
X479079D01*
X476333Y512759D01*
X473872Y511338D01*
X471862Y509328D01*
X470441Y506867D01*
X469705Y504121D01*
Y501279D01*
X470441Y498533D01*
X471862Y496072D01*
X473872Y494062D01*
X476333Y492641D01*
X479079Y491905D01*
X481921D01*
X484667Y492641D01*
X487128Y494062D01*
X489138Y496072D01*
X490559Y498533D01*
X491295Y501279D01*
Y504121D01*
X490559Y506867D01*
X489138Y509328D01*
X487128Y511338D01*
X484667Y512759D01*
X481921Y513495D01*
D02*
G37*
G36*
X465895Y501430D02*
X456370D01*
Y491905D01*
X456521D01*
X459267Y492641D01*
X461728Y494062D01*
X463738Y496072D01*
X465159Y498533D01*
X465895Y501279D01*
Y501430D01*
D02*
G37*
G36*
X453830D02*
X444305D01*
Y501279D01*
X445041Y498533D01*
X446462Y496072D01*
X448472Y494062D01*
X450933Y492641D01*
X453679Y491905D01*
X453830D01*
Y501430D01*
D02*
G37*
G36*
X431121Y513495D02*
X428279D01*
X425533Y512759D01*
X423072Y511338D01*
X421062Y509328D01*
X419641Y506867D01*
X418905Y504121D01*
Y501279D01*
X419641Y498533D01*
X421062Y496072D01*
X423072Y494062D01*
X425533Y492641D01*
X428279Y491905D01*
X431121D01*
X433867Y492641D01*
X436328Y494062D01*
X438338Y496072D01*
X439759Y498533D01*
X440495Y501279D01*
Y504121D01*
X439759Y506867D01*
X438338Y509328D01*
X436328Y511338D01*
X433867Y512759D01*
X431121Y513495D01*
D02*
G37*
G36*
X415095Y501430D02*
X405570D01*
Y491905D01*
X405721D01*
X408467Y492641D01*
X410928Y494062D01*
X412938Y496072D01*
X414359Y498533D01*
X415095Y501279D01*
Y501430D01*
D02*
G37*
G36*
X403030D02*
X393505D01*
Y501279D01*
X394241Y498533D01*
X395662Y496072D01*
X397672Y494062D01*
X400133Y492641D01*
X402879Y491905D01*
X403030D01*
Y501430D01*
D02*
G37*
G36*
X380321Y513495D02*
X377479D01*
X374733Y512759D01*
X372272Y511338D01*
X370262Y509328D01*
X368841Y506867D01*
X368105Y504121D01*
Y501279D01*
X368841Y498533D01*
X370262Y496072D01*
X372272Y494062D01*
X374733Y492641D01*
X377479Y491905D01*
X380321D01*
X383067Y492641D01*
X385528Y494062D01*
X387538Y496072D01*
X388959Y498533D01*
X389695Y501279D01*
Y504121D01*
X388959Y506867D01*
X387538Y509328D01*
X385528Y511338D01*
X383067Y512759D01*
X380321Y513495D01*
D02*
G37*
G36*
X354921D02*
X352079D01*
X349333Y512759D01*
X346872Y511338D01*
X344862Y509328D01*
X343441Y506867D01*
X342705Y504121D01*
Y501279D01*
X343441Y498533D01*
X344862Y496072D01*
X346872Y494062D01*
X349333Y492641D01*
X352079Y491905D01*
X354921D01*
X357667Y492641D01*
X360128Y494062D01*
X362138Y496072D01*
X363559Y498533D01*
X364295Y501279D01*
Y504121D01*
X363559Y506867D01*
X362138Y509328D01*
X360128Y511338D01*
X357667Y512759D01*
X354921Y513495D01*
D02*
G37*
G36*
X329521D02*
X326679D01*
X323933Y512759D01*
X321472Y511338D01*
X319462Y509328D01*
X318041Y506867D01*
X317305Y504121D01*
Y501279D01*
X318041Y498533D01*
X319462Y496072D01*
X321472Y494062D01*
X323933Y492641D01*
X326679Y491905D01*
X329521D01*
X332267Y492641D01*
X334728Y494062D01*
X336738Y496072D01*
X338159Y498533D01*
X338895Y501279D01*
Y504121D01*
X338159Y506867D01*
X336738Y509328D01*
X334728Y511338D01*
X332267Y512759D01*
X329521Y513495D01*
D02*
G37*
G36*
X304121D02*
X301279D01*
X298533Y512759D01*
X296072Y511338D01*
X294062Y509328D01*
X292641Y506867D01*
X291905Y504121D01*
Y501279D01*
X292641Y498533D01*
X294062Y496072D01*
X296072Y494062D01*
X298533Y492641D01*
X301279Y491905D01*
X304121D01*
X306867Y492641D01*
X309328Y494062D01*
X311338Y496072D01*
X312759Y498533D01*
X313495Y501279D01*
Y504121D01*
X312759Y506867D01*
X311338Y509328D01*
X309328Y511338D01*
X306867Y512759D01*
X304121Y513495D01*
D02*
G37*
G36*
X288095Y501430D02*
X278570D01*
Y491905D01*
X278721D01*
X281467Y492641D01*
X283928Y494062D01*
X285938Y496072D01*
X287359Y498533D01*
X288095Y501279D01*
Y501430D01*
D02*
G37*
G36*
X276030D02*
X266505D01*
Y501279D01*
X267241Y498533D01*
X268662Y496072D01*
X270672Y494062D01*
X273133Y492641D01*
X275879Y491905D01*
X276030D01*
Y501430D01*
D02*
G37*
G36*
X253321Y513495D02*
X250479D01*
X247733Y512759D01*
X245272Y511338D01*
X243262Y509328D01*
X241841Y506867D01*
X241105Y504121D01*
Y501279D01*
X241841Y498533D01*
X243262Y496072D01*
X245272Y494062D01*
X247733Y492641D01*
X250479Y491905D01*
X253321D01*
X256067Y492641D01*
X258528Y494062D01*
X260538Y496072D01*
X261959Y498533D01*
X262695Y501279D01*
Y504121D01*
X261959Y506867D01*
X260538Y509328D01*
X258528Y511338D01*
X256067Y512759D01*
X253321Y513495D01*
D02*
G37*
G36*
X227921D02*
X225079D01*
X222333Y512759D01*
X219872Y511338D01*
X217862Y509328D01*
X216441Y506867D01*
X215705Y504121D01*
Y501279D01*
X216441Y498533D01*
X217862Y496072D01*
X219872Y494062D01*
X222333Y492641D01*
X225079Y491905D01*
X227921D01*
X230667Y492641D01*
X233128Y494062D01*
X235138Y496072D01*
X236559Y498533D01*
X237295Y501279D01*
Y504121D01*
X236559Y506867D01*
X235138Y509328D01*
X233128Y511338D01*
X230667Y512759D01*
X227921Y513495D01*
D02*
G37*
G36*
X211895Y501430D02*
X202370D01*
Y491905D01*
X202521D01*
X205267Y492641D01*
X207728Y494062D01*
X209738Y496072D01*
X211159Y498533D01*
X211895Y501279D01*
Y501430D01*
D02*
G37*
G36*
X199830D02*
X190305D01*
Y501279D01*
X191041Y498533D01*
X192462Y496072D01*
X194472Y494062D01*
X196933Y492641D01*
X199679Y491905D01*
X199830D01*
Y501430D01*
D02*
G37*
G36*
X177121Y513495D02*
X174279D01*
X171533Y512759D01*
X169072Y511338D01*
X167062Y509328D01*
X165641Y506867D01*
X164905Y504121D01*
Y501279D01*
X165641Y498533D01*
X167062Y496072D01*
X169072Y494062D01*
X171533Y492641D01*
X174279Y491905D01*
X177121D01*
X179867Y492641D01*
X182328Y494062D01*
X184338Y496072D01*
X185759Y498533D01*
X186495Y501279D01*
Y504121D01*
X185759Y506867D01*
X184338Y509328D01*
X182328Y511338D01*
X179867Y512759D01*
X177121Y513495D01*
D02*
G37*
G36*
X151721D02*
X148879D01*
X146133Y512759D01*
X143672Y511338D01*
X141662Y509328D01*
X140241Y506867D01*
X139505Y504121D01*
Y501279D01*
X140241Y498533D01*
X141662Y496072D01*
X143672Y494062D01*
X146133Y492641D01*
X148879Y491905D01*
X151721D01*
X154467Y492641D01*
X156928Y494062D01*
X158938Y496072D01*
X160359Y498533D01*
X161095Y501279D01*
Y504121D01*
X160359Y506867D01*
X158938Y509328D01*
X156928Y511338D01*
X154467Y512759D01*
X151721Y513495D01*
D02*
G37*
G36*
X126321D02*
X123479D01*
X120733Y512759D01*
X118272Y511338D01*
X116262Y509328D01*
X114841Y506867D01*
X114105Y504121D01*
Y501279D01*
X114841Y498533D01*
X116262Y496072D01*
X118272Y494062D01*
X120733Y492641D01*
X123479Y491905D01*
X126321D01*
X129067Y492641D01*
X131528Y494062D01*
X133538Y496072D01*
X134959Y498533D01*
X135695Y501279D01*
Y504121D01*
X134959Y506867D01*
X133538Y509328D01*
X131528Y511338D01*
X129067Y512759D01*
X126321Y513495D01*
D02*
G37*
G36*
X110295Y501430D02*
X100770D01*
Y491905D01*
X100921D01*
X103667Y492641D01*
X106128Y494062D01*
X108138Y496072D01*
X109559Y498533D01*
X110295Y501279D01*
Y501430D01*
D02*
G37*
G36*
X532721Y488095D02*
X532570D01*
Y478570D01*
X542095D01*
Y478721D01*
X541359Y481467D01*
X539938Y483928D01*
X537928Y485938D01*
X535467Y487359D01*
X532721Y488095D01*
D02*
G37*
G36*
X530030D02*
X529879D01*
X527133Y487359D01*
X524672Y485938D01*
X522662Y483928D01*
X521241Y481467D01*
X520505Y478721D01*
Y478570D01*
X530030D01*
Y488095D01*
D02*
G37*
G36*
X354921D02*
X354770D01*
Y478570D01*
X364295D01*
Y478721D01*
X363559Y481467D01*
X362138Y483928D01*
X360128Y485938D01*
X357667Y487359D01*
X354921Y488095D01*
D02*
G37*
G36*
X352230D02*
X352079D01*
X349333Y487359D01*
X346872Y485938D01*
X344862Y483928D01*
X343441Y481467D01*
X342705Y478721D01*
Y478570D01*
X352230D01*
Y488095D01*
D02*
G37*
G36*
X151721D02*
X151570D01*
Y478570D01*
X161095D01*
Y478721D01*
X160359Y481467D01*
X158938Y483928D01*
X156928Y485938D01*
X154467Y487359D01*
X151721Y488095D01*
D02*
G37*
G36*
X149030D02*
X148879D01*
X146133Y487359D01*
X143672Y485938D01*
X141662Y483928D01*
X140241Y481467D01*
X139505Y478721D01*
Y478570D01*
X149030D01*
Y488095D01*
D02*
G37*
G36*
X756697Y490040D02*
X754449D01*
X752277Y489458D01*
X750329Y488334D01*
X748739Y486744D01*
X747615Y484796D01*
X747033Y482624D01*
Y480376D01*
X747615Y478204D01*
X748739Y476256D01*
X750329Y474666D01*
X752277Y473542D01*
X754449Y472960D01*
X756697D01*
X758869Y473542D01*
X760817Y474666D01*
X762407Y476256D01*
X763531Y478204D01*
X764113Y480376D01*
Y482624D01*
X763531Y484796D01*
X762407Y486744D01*
X760817Y488334D01*
X758869Y489458D01*
X756697Y490040D01*
D02*
G37*
G36*
X656697D02*
X654449D01*
X652277Y489458D01*
X650329Y488334D01*
X648739Y486744D01*
X647615Y484796D01*
X647033Y482624D01*
Y480376D01*
X647615Y478204D01*
X648739Y476256D01*
X650329Y474666D01*
X652277Y473542D01*
X654449Y472960D01*
X656697D01*
X658869Y473542D01*
X660817Y474666D01*
X662407Y476256D01*
X663531Y478204D01*
X664113Y480376D01*
Y482624D01*
X663531Y484796D01*
X662407Y486744D01*
X660817Y488334D01*
X658869Y489458D01*
X656697Y490040D01*
D02*
G37*
G36*
X542095Y476030D02*
X532570D01*
Y466505D01*
X532721D01*
X535467Y467241D01*
X537928Y468662D01*
X539938Y470672D01*
X541359Y473133D01*
X542095Y475879D01*
Y476030D01*
D02*
G37*
G36*
X530030D02*
X520505D01*
Y475879D01*
X521241Y473133D01*
X522662Y470672D01*
X524672Y468662D01*
X527133Y467241D01*
X529879Y466505D01*
X530030D01*
Y476030D01*
D02*
G37*
G36*
X507321Y488095D02*
X504479D01*
X501733Y487359D01*
X499272Y485938D01*
X497262Y483928D01*
X495841Y481467D01*
X495105Y478721D01*
Y475879D01*
X495841Y473133D01*
X497262Y470672D01*
X499272Y468662D01*
X501733Y467241D01*
X504479Y466505D01*
X507321D01*
X510067Y467241D01*
X512528Y468662D01*
X514538Y470672D01*
X515959Y473133D01*
X516695Y475879D01*
Y478721D01*
X515959Y481467D01*
X514538Y483928D01*
X512528Y485938D01*
X510067Y487359D01*
X507321Y488095D01*
D02*
G37*
G36*
X481921D02*
X479079D01*
X476333Y487359D01*
X473872Y485938D01*
X471862Y483928D01*
X470441Y481467D01*
X469705Y478721D01*
Y475879D01*
X470441Y473133D01*
X471862Y470672D01*
X473872Y468662D01*
X476333Y467241D01*
X479079Y466505D01*
X481921D01*
X484667Y467241D01*
X487128Y468662D01*
X489138Y470672D01*
X490559Y473133D01*
X491295Y475879D01*
Y478721D01*
X490559Y481467D01*
X489138Y483928D01*
X487128Y485938D01*
X484667Y487359D01*
X481921Y488095D01*
D02*
G37*
G36*
X456521D02*
X453679D01*
X450933Y487359D01*
X448472Y485938D01*
X446462Y483928D01*
X445041Y481467D01*
X444305Y478721D01*
Y475879D01*
X445041Y473133D01*
X446462Y470672D01*
X448472Y468662D01*
X450933Y467241D01*
X453679Y466505D01*
X456521D01*
X459267Y467241D01*
X461728Y468662D01*
X463738Y470672D01*
X465159Y473133D01*
X465895Y475879D01*
Y478721D01*
X465159Y481467D01*
X463738Y483928D01*
X461728Y485938D01*
X459267Y487359D01*
X456521Y488095D01*
D02*
G37*
G36*
X431121D02*
X428279D01*
X425533Y487359D01*
X423072Y485938D01*
X421062Y483928D01*
X419641Y481467D01*
X418905Y478721D01*
Y475879D01*
X419641Y473133D01*
X421062Y470672D01*
X423072Y468662D01*
X425533Y467241D01*
X428279Y466505D01*
X431121D01*
X433867Y467241D01*
X436328Y468662D01*
X438338Y470672D01*
X439759Y473133D01*
X440495Y475879D01*
Y478721D01*
X439759Y481467D01*
X438338Y483928D01*
X436328Y485938D01*
X433867Y487359D01*
X431121Y488095D01*
D02*
G37*
G36*
X405721D02*
X402879D01*
X400133Y487359D01*
X397672Y485938D01*
X395662Y483928D01*
X394241Y481467D01*
X393505Y478721D01*
Y475879D01*
X394241Y473133D01*
X395662Y470672D01*
X397672Y468662D01*
X400133Y467241D01*
X402879Y466505D01*
X405721D01*
X408467Y467241D01*
X410928Y468662D01*
X412938Y470672D01*
X414359Y473133D01*
X415095Y475879D01*
Y478721D01*
X414359Y481467D01*
X412938Y483928D01*
X410928Y485938D01*
X408467Y487359D01*
X405721Y488095D01*
D02*
G37*
G36*
X380321D02*
X377479D01*
X374733Y487359D01*
X372272Y485938D01*
X370262Y483928D01*
X368841Y481467D01*
X368105Y478721D01*
Y475879D01*
X368841Y473133D01*
X370262Y470672D01*
X372272Y468662D01*
X374733Y467241D01*
X377479Y466505D01*
X380321D01*
X383067Y467241D01*
X385528Y468662D01*
X387538Y470672D01*
X388959Y473133D01*
X389695Y475879D01*
Y478721D01*
X388959Y481467D01*
X387538Y483928D01*
X385528Y485938D01*
X383067Y487359D01*
X380321Y488095D01*
D02*
G37*
G36*
X364295Y476030D02*
X354770D01*
Y466505D01*
X354921D01*
X357667Y467241D01*
X360128Y468662D01*
X362138Y470672D01*
X363559Y473133D01*
X364295Y475879D01*
Y476030D01*
D02*
G37*
G36*
X352230D02*
X342705D01*
Y475879D01*
X343441Y473133D01*
X344862Y470672D01*
X346872Y468662D01*
X349333Y467241D01*
X352079Y466505D01*
X352230D01*
Y476030D01*
D02*
G37*
G36*
X329521Y488095D02*
X326679D01*
X323933Y487359D01*
X321472Y485938D01*
X319462Y483928D01*
X318041Y481467D01*
X317305Y478721D01*
Y475879D01*
X318041Y473133D01*
X319462Y470672D01*
X321472Y468662D01*
X323933Y467241D01*
X326679Y466505D01*
X329521D01*
X332267Y467241D01*
X334728Y468662D01*
X336738Y470672D01*
X338159Y473133D01*
X338895Y475879D01*
Y478721D01*
X338159Y481467D01*
X336738Y483928D01*
X334728Y485938D01*
X332267Y487359D01*
X329521Y488095D01*
D02*
G37*
G36*
X304121D02*
X301279D01*
X298533Y487359D01*
X296072Y485938D01*
X294062Y483928D01*
X292641Y481467D01*
X291905Y478721D01*
Y475879D01*
X292641Y473133D01*
X294062Y470672D01*
X296072Y468662D01*
X298533Y467241D01*
X301279Y466505D01*
X304121D01*
X306867Y467241D01*
X309328Y468662D01*
X311338Y470672D01*
X312759Y473133D01*
X313495Y475879D01*
Y478721D01*
X312759Y481467D01*
X311338Y483928D01*
X309328Y485938D01*
X306867Y487359D01*
X304121Y488095D01*
D02*
G37*
G36*
X278721D02*
X275879D01*
X273133Y487359D01*
X270672Y485938D01*
X268662Y483928D01*
X267241Y481467D01*
X266505Y478721D01*
Y475879D01*
X267241Y473133D01*
X268662Y470672D01*
X270672Y468662D01*
X273133Y467241D01*
X275879Y466505D01*
X278721D01*
X281467Y467241D01*
X283928Y468662D01*
X285938Y470672D01*
X287359Y473133D01*
X288095Y475879D01*
Y478721D01*
X287359Y481467D01*
X285938Y483928D01*
X283928Y485938D01*
X281467Y487359D01*
X278721Y488095D01*
D02*
G37*
G36*
X253321D02*
X250479D01*
X247733Y487359D01*
X245272Y485938D01*
X243262Y483928D01*
X241841Y481467D01*
X241105Y478721D01*
Y475879D01*
X241841Y473133D01*
X243262Y470672D01*
X245272Y468662D01*
X247733Y467241D01*
X250479Y466505D01*
X253321D01*
X256067Y467241D01*
X258528Y468662D01*
X260538Y470672D01*
X261959Y473133D01*
X262695Y475879D01*
Y478721D01*
X261959Y481467D01*
X260538Y483928D01*
X258528Y485938D01*
X256067Y487359D01*
X253321Y488095D01*
D02*
G37*
G36*
X227921D02*
X225079D01*
X222333Y487359D01*
X219872Y485938D01*
X217862Y483928D01*
X216441Y481467D01*
X215705Y478721D01*
Y475879D01*
X216441Y473133D01*
X217862Y470672D01*
X219872Y468662D01*
X222333Y467241D01*
X225079Y466505D01*
X227921D01*
X230667Y467241D01*
X233128Y468662D01*
X235138Y470672D01*
X236559Y473133D01*
X237295Y475879D01*
Y478721D01*
X236559Y481467D01*
X235138Y483928D01*
X233128Y485938D01*
X230667Y487359D01*
X227921Y488095D01*
D02*
G37*
G36*
X202521D02*
X199679D01*
X196933Y487359D01*
X194472Y485938D01*
X192462Y483928D01*
X191041Y481467D01*
X190305Y478721D01*
Y475879D01*
X191041Y473133D01*
X192462Y470672D01*
X194472Y468662D01*
X196933Y467241D01*
X199679Y466505D01*
X202521D01*
X205267Y467241D01*
X207728Y468662D01*
X209738Y470672D01*
X211159Y473133D01*
X211895Y475879D01*
Y478721D01*
X211159Y481467D01*
X209738Y483928D01*
X207728Y485938D01*
X205267Y487359D01*
X202521Y488095D01*
D02*
G37*
G36*
X177121D02*
X174279D01*
X171533Y487359D01*
X169072Y485938D01*
X167062Y483928D01*
X165641Y481467D01*
X164905Y478721D01*
Y475879D01*
X165641Y473133D01*
X167062Y470672D01*
X169072Y468662D01*
X171533Y467241D01*
X174279Y466505D01*
X177121D01*
X179867Y467241D01*
X182328Y468662D01*
X184338Y470672D01*
X185759Y473133D01*
X186495Y475879D01*
Y478721D01*
X185759Y481467D01*
X184338Y483928D01*
X182328Y485938D01*
X179867Y487359D01*
X177121Y488095D01*
D02*
G37*
G36*
X161095Y476030D02*
X151570D01*
Y466505D01*
X151721D01*
X154467Y467241D01*
X156928Y468662D01*
X158938Y470672D01*
X160359Y473133D01*
X161095Y475879D01*
Y476030D01*
D02*
G37*
G36*
X149030D02*
X139505D01*
Y475879D01*
X140241Y473133D01*
X141662Y470672D01*
X143672Y468662D01*
X146133Y467241D01*
X148879Y466505D01*
X149030D01*
Y476030D01*
D02*
G37*
G36*
X126321Y488095D02*
X123479D01*
X120733Y487359D01*
X118272Y485938D01*
X116262Y483928D01*
X114841Y481467D01*
X114105Y478721D01*
Y475879D01*
X114841Y473133D01*
X116262Y470672D01*
X118272Y468662D01*
X120733Y467241D01*
X123479Y466505D01*
X126321D01*
X129067Y467241D01*
X131528Y468662D01*
X133538Y470672D01*
X134959Y473133D01*
X135695Y475879D01*
Y478721D01*
X134959Y481467D01*
X133538Y483928D01*
X131528Y485938D01*
X129067Y487359D01*
X126321Y488095D01*
D02*
G37*
G36*
X757097Y450001D02*
Y442770D01*
X764328D01*
X763785Y444796D01*
X762661Y446744D01*
X761071Y448334D01*
X759123Y449458D01*
X757097Y450001D01*
D02*
G37*
G36*
X657097D02*
Y442770D01*
X664328D01*
X663785Y444796D01*
X662661Y446744D01*
X661071Y448334D01*
X659123Y449458D01*
X657097Y450001D01*
D02*
G37*
G36*
X754557Y450001D02*
X752531Y449458D01*
X750583Y448334D01*
X748993Y446744D01*
X747869Y444796D01*
X747326Y442770D01*
X754557D01*
Y450001D01*
D02*
G37*
G36*
X654557D02*
X652531Y449458D01*
X650583Y448334D01*
X648993Y446744D01*
X647869Y444796D01*
X647326Y442770D01*
X654557D01*
Y450001D01*
D02*
G37*
G36*
X754557Y440230D02*
X747326D01*
X747869Y438204D01*
X748993Y436256D01*
X750583Y434666D01*
X752531Y433542D01*
X754557Y432999D01*
Y440230D01*
D02*
G37*
G36*
X654557D02*
X647326D01*
X647869Y438204D01*
X648993Y436256D01*
X650583Y434666D01*
X652531Y433542D01*
X654557Y432999D01*
Y440230D01*
D02*
G37*
G36*
X764328D02*
X757097D01*
Y432999D01*
X759123Y433542D01*
X761071Y434666D01*
X762661Y436256D01*
X763785Y438204D01*
X764328Y440230D01*
D02*
G37*
G36*
X664328D02*
X657097D01*
Y432999D01*
X659123Y433542D01*
X661071Y434666D01*
X662661Y436256D01*
X663785Y438204D01*
X664328Y440230D01*
D02*
G37*
G36*
X532655Y436790D02*
X529945D01*
X527328Y436089D01*
X524982Y434734D01*
X523066Y432818D01*
X521711Y430472D01*
X521010Y427855D01*
Y425145D01*
X521362Y423830D01*
X490666Y393134D01*
X489552Y391466D01*
X489161Y389500D01*
Y383387D01*
X487891Y382861D01*
X486818Y383934D01*
X484472Y385289D01*
X481855Y385990D01*
X479145D01*
X476528Y385289D01*
X474182Y383934D01*
X472266Y382018D01*
X470911Y379672D01*
X470210Y377055D01*
Y374345D01*
X470911Y371728D01*
X472266Y369382D01*
X474182Y367466D01*
X476528Y366111D01*
X479145Y365410D01*
X481855D01*
X484472Y366111D01*
X486818Y367466D01*
X487891Y368539D01*
X489161Y368013D01*
Y357987D01*
X487891Y357461D01*
X486818Y358534D01*
X484472Y359889D01*
X481855Y360590D01*
X479145D01*
X476528Y359889D01*
X474182Y358534D01*
X472266Y356618D01*
X470911Y354272D01*
X470210Y351655D01*
Y348945D01*
X470911Y346328D01*
X472266Y343982D01*
X474182Y342066D01*
X476528Y340711D01*
X479145Y340010D01*
X481855D01*
X484472Y340711D01*
X486818Y342066D01*
X487891Y343139D01*
X489161Y342613D01*
Y332587D01*
X487891Y332061D01*
X486818Y333134D01*
X484472Y334489D01*
X481855Y335190D01*
X481770D01*
Y324900D01*
Y314610D01*
X481855D01*
X484472Y315311D01*
X486818Y316666D01*
X487891Y317739D01*
X489161Y317213D01*
Y226628D01*
X484573Y222040D01*
X483307D01*
X481390Y221526D01*
X479670Y220534D01*
X478266Y219130D01*
X477274Y217410D01*
X476760Y215493D01*
Y214227D01*
X459469Y196936D01*
X458199Y197462D01*
Y296505D01*
X457808Y298472D01*
X456694Y300139D01*
X423694Y333139D01*
X422026Y334253D01*
X420060Y334644D01*
X256189D01*
X251996Y338837D01*
X252482Y340010D01*
X253255D01*
X255872Y340711D01*
X258218Y342066D01*
X260134Y343982D01*
X261489Y346328D01*
X262190Y348945D01*
Y351655D01*
X261489Y354272D01*
X260134Y356618D01*
X258218Y358534D01*
X255872Y359889D01*
X253255Y360590D01*
X250545D01*
X247928Y359889D01*
X245582Y358534D01*
X243666Y356618D01*
X242311Y354272D01*
X241610Y351655D01*
Y350882D01*
X240437Y350396D01*
X234199Y356633D01*
Y357980D01*
X235093Y358875D01*
X236086Y360595D01*
X236600Y362512D01*
Y364498D01*
X236086Y366415D01*
X235093Y368135D01*
X233690Y369538D01*
X231970Y370531D01*
X230053Y371045D01*
X228067D01*
X226150Y370531D01*
X224430Y369538D01*
X223027Y368135D01*
X222034Y366415D01*
X221520Y364498D01*
Y362512D01*
X222034Y360595D01*
X223027Y358875D01*
X223921Y357980D01*
Y355898D01*
X222651Y355372D01*
X221690Y356334D01*
X219970Y357327D01*
X218053Y357840D01*
X216067D01*
X214150Y357327D01*
X212430Y356334D01*
X211026Y354930D01*
X210034Y353211D01*
X209520Y351293D01*
Y349308D01*
X210034Y347390D01*
X211026Y345671D01*
X212430Y344267D01*
X214150Y343274D01*
X216067Y342760D01*
X217333D01*
X244179Y315914D01*
X244171Y315732D01*
X243773Y314644D01*
X239984D01*
X224600Y330028D01*
Y331293D01*
X224086Y333211D01*
X223093Y334930D01*
X221690Y336334D01*
X219970Y337327D01*
X218053Y337840D01*
X216067D01*
X214150Y337327D01*
X212430Y336334D01*
X211026Y334930D01*
X210034Y333211D01*
X209520Y331293D01*
Y329308D01*
X210034Y327390D01*
X211026Y325671D01*
X212430Y324267D01*
X214150Y323274D01*
X216067Y322760D01*
X217333D01*
X234184Y305909D01*
X234178Y305748D01*
X233781Y304639D01*
X229989D01*
X224600Y310028D01*
Y311293D01*
X224086Y313211D01*
X223093Y314930D01*
X221690Y316334D01*
X219970Y317327D01*
X218053Y317840D01*
X216067D01*
X214150Y317327D01*
X212430Y316334D01*
X211026Y314930D01*
X210034Y313211D01*
X209520Y311293D01*
Y309308D01*
X210034Y307390D01*
X211026Y305671D01*
X212430Y304267D01*
X214150Y303274D01*
X216067Y302760D01*
X217333D01*
X222452Y297641D01*
X222034Y296263D01*
X221806Y296218D01*
X221690Y296334D01*
X219970Y297327D01*
X218053Y297840D01*
X216067D01*
X214150Y297327D01*
X212430Y296334D01*
X211026Y294930D01*
X210034Y293211D01*
X209520Y291293D01*
Y289308D01*
X210034Y287390D01*
X211026Y285671D01*
X212430Y284267D01*
X214150Y283274D01*
X216067Y282760D01*
X218053D01*
X219970Y283274D01*
X221690Y284267D01*
X222584Y285162D01*
X363571D01*
X387418Y261315D01*
X386892Y260045D01*
X386067D01*
X384150Y259531D01*
X382430Y258538D01*
X381026Y257135D01*
X380034Y255415D01*
X379520Y253498D01*
Y251512D01*
X380034Y249595D01*
X381026Y247875D01*
X382430Y246472D01*
X384150Y245479D01*
X386067Y244965D01*
X387333D01*
X391881Y240417D01*
Y156594D01*
X386326Y151039D01*
X385212Y149372D01*
X384821Y147405D01*
Y109905D01*
X383551Y109379D01*
X372139Y120792D01*
Y142000D01*
X371748Y143967D01*
X370634Y145634D01*
X365540Y150727D01*
Y151993D01*
X365026Y153910D01*
X364034Y155630D01*
X362630Y157034D01*
X360910Y158026D01*
X358993Y158540D01*
X357007D01*
X355090Y158026D01*
X353370Y157034D01*
X351967Y155630D01*
X350974Y153910D01*
X350460Y151993D01*
Y150007D01*
X350974Y148090D01*
X351967Y146370D01*
X353370Y144966D01*
X355090Y143974D01*
X357007Y143460D01*
X358273D01*
X361861Y139872D01*
Y122065D01*
X360688Y121579D01*
X353540Y128727D01*
Y129993D01*
X353026Y131910D01*
X352034Y133630D01*
X350630Y135034D01*
X348910Y136026D01*
X346993Y136540D01*
X345007D01*
X343090Y136026D01*
X341370Y135034D01*
X339967Y133630D01*
X338974Y131910D01*
X338460Y129993D01*
Y128007D01*
X338974Y126090D01*
X339967Y124370D01*
X341370Y122966D01*
X343090Y121974D01*
X345007Y121460D01*
X346273D01*
X362861Y104872D01*
Y62129D01*
X319766Y19034D01*
X318652Y17366D01*
X318261Y15400D01*
Y1765D01*
X317162Y1130D01*
X315270Y-762D01*
X313932Y-3078D01*
X313240Y-5662D01*
Y-8338D01*
X313932Y-10922D01*
X315270Y-13238D01*
X317162Y-15130D01*
X319478Y-16468D01*
X322062Y-17160D01*
X324738D01*
X327322Y-16468D01*
X329638Y-15130D01*
X331530Y-13238D01*
X332868Y-10922D01*
X333560Y-8338D01*
Y-5662D01*
X332868Y-3078D01*
X331530Y-762D01*
X329638Y1130D01*
X328539Y1765D01*
Y13271D01*
X371634Y56366D01*
X372748Y58033D01*
X373139Y60000D01*
Y103598D01*
X374312Y104084D01*
X377861Y100535D01*
Y52129D01*
X345166Y19434D01*
X344052Y17766D01*
X343661Y15800D01*
Y1765D01*
X342562Y1130D01*
X340670Y-762D01*
X339332Y-3078D01*
X338640Y-5662D01*
Y-8338D01*
X339332Y-10922D01*
X340670Y-13238D01*
X342562Y-15130D01*
X344878Y-16468D01*
X347462Y-17160D01*
X350138D01*
X352722Y-16468D01*
X355038Y-15130D01*
X356930Y-13238D01*
X358268Y-10922D01*
X358960Y-8338D01*
Y-5662D01*
X358268Y-3078D01*
X356930Y-762D01*
X355038Y1130D01*
X353939Y1765D01*
Y13671D01*
X386634Y46366D01*
X387748Y48033D01*
X388139Y50000D01*
Y101798D01*
X389409Y102324D01*
X391861Y99872D01*
Y73000D01*
X392252Y71034D01*
X393366Y69366D01*
X434861Y27871D01*
Y10129D01*
X427564Y2831D01*
X426338Y3160D01*
X423662D01*
X421078Y2468D01*
X418762Y1130D01*
X416870Y-762D01*
X415532Y-3078D01*
X414840Y-5662D01*
Y-8338D01*
X415532Y-10922D01*
X416870Y-13238D01*
X418762Y-15130D01*
X421078Y-16468D01*
X423662Y-17160D01*
X426338D01*
X428922Y-16468D01*
X431238Y-15130D01*
X433130Y-13238D01*
X434468Y-10922D01*
X435160Y-8338D01*
Y-5662D01*
X434831Y-4436D01*
X443634Y4366D01*
X444748Y6033D01*
X445139Y8000D01*
Y30000D01*
X444748Y31967D01*
X443634Y33634D01*
X415945Y61322D01*
X416538Y62526D01*
X418210Y62974D01*
X419930Y63966D01*
X421334Y65370D01*
X422326Y67090D01*
X422840Y69007D01*
Y70993D01*
X422326Y72910D01*
X421334Y74630D01*
X420439Y75524D01*
Y117372D01*
X429980Y126913D01*
X431161Y126298D01*
Y90024D01*
X430266Y89130D01*
X429274Y87410D01*
X428760Y85493D01*
Y83507D01*
X429274Y81590D01*
X430266Y79870D01*
X431670Y78467D01*
X433390Y77474D01*
X435307Y76960D01*
X437293D01*
X439210Y77474D01*
X440930Y78467D01*
X442333Y79870D01*
X443326Y81590D01*
X443840Y83507D01*
Y85493D01*
X443326Y87410D01*
X442333Y89130D01*
X441439Y90024D01*
Y124570D01*
X484834Y167966D01*
X485948Y169633D01*
X486339Y171599D01*
Y173191D01*
X487609Y173924D01*
X488390Y173474D01*
X490307Y172960D01*
X492293D01*
X494210Y173474D01*
X495930Y174466D01*
X497333Y175870D01*
X498326Y177590D01*
X498840Y179507D01*
Y180773D01*
X505714Y187647D01*
X506701Y186837D01*
X506252Y186166D01*
X505861Y184200D01*
Y181525D01*
X504967Y180630D01*
X503974Y178910D01*
X503460Y176993D01*
Y175007D01*
X503974Y173090D01*
X504967Y171370D01*
X506370Y169967D01*
X508090Y168974D01*
X510007Y168460D01*
X511993D01*
X513910Y168974D01*
X515630Y169967D01*
X517034Y171370D01*
X518026Y173090D01*
X518540Y175007D01*
Y176993D01*
X518026Y178910D01*
X517034Y180630D01*
X516139Y181525D01*
Y182071D01*
X534934Y200866D01*
X536048Y202533D01*
X536439Y204500D01*
Y315985D01*
X537618Y316666D01*
X539534Y318582D01*
X540889Y320928D01*
X541590Y323545D01*
Y326255D01*
X540889Y328872D01*
X539534Y331218D01*
X537618Y333134D01*
X535272Y334489D01*
X532655Y335190D01*
X529945D01*
X527328Y334489D01*
X524982Y333134D01*
X524822Y332974D01*
X523649Y333460D01*
Y335382D01*
X528630Y340363D01*
X529945Y340010D01*
X532655D01*
X535272Y340711D01*
X537618Y342066D01*
X539534Y343982D01*
X540889Y346328D01*
X541590Y348945D01*
Y351655D01*
X540889Y354272D01*
X539534Y356618D01*
X537618Y358534D01*
X535272Y359889D01*
X532655Y360590D01*
X529945D01*
X527328Y359889D01*
X524982Y358534D01*
X523066Y356618D01*
X521711Y354272D01*
X521010Y351655D01*
Y348945D01*
X521362Y347630D01*
X517152Y343419D01*
X515979Y343905D01*
Y353111D01*
X528630Y365762D01*
X529945Y365410D01*
X532655D01*
X535272Y366111D01*
X537618Y367466D01*
X539534Y369382D01*
X540889Y371728D01*
X541590Y374345D01*
Y377055D01*
X540889Y379672D01*
X539534Y382018D01*
X537618Y383934D01*
X535272Y385289D01*
X532655Y385990D01*
X529945D01*
X527328Y385289D01*
X524982Y383934D01*
X523066Y382018D01*
X521711Y379672D01*
X521010Y377055D01*
Y374345D01*
X521362Y373030D01*
X508612Y360279D01*
X507439Y360765D01*
Y372371D01*
X526853Y391786D01*
X527328Y391511D01*
X529945Y390810D01*
X532655D01*
X535272Y391511D01*
X537618Y392866D01*
X539534Y394782D01*
X540889Y397128D01*
X541590Y399745D01*
Y402455D01*
X540889Y405072D01*
X539534Y407418D01*
X537618Y409334D01*
X535272Y410689D01*
X532655Y411390D01*
X529945D01*
X527328Y410689D01*
X524982Y409334D01*
X523066Y407418D01*
X521711Y405072D01*
X521010Y402455D01*
Y400477D01*
X500612Y380079D01*
X499439Y380565D01*
Y387371D01*
X528630Y416562D01*
X529945Y416210D01*
X532655D01*
X535272Y416911D01*
X537618Y418266D01*
X539534Y420182D01*
X540889Y422528D01*
X541590Y425145D01*
Y427855D01*
X540889Y430472D01*
X539534Y432818D01*
X537618Y434734D01*
X535272Y436089D01*
X532655Y436790D01*
D02*
G37*
G36*
X481855D02*
X479145D01*
X476528Y436089D01*
X474182Y434734D01*
X472266Y432818D01*
X470911Y430472D01*
X470210Y427855D01*
Y425145D01*
X470911Y422528D01*
X472266Y420182D01*
X474182Y418266D01*
X476528Y416911D01*
X479145Y416210D01*
X481855D01*
X484472Y416911D01*
X486818Y418266D01*
X488734Y420182D01*
X490089Y422528D01*
X490790Y425145D01*
Y427855D01*
X490089Y430472D01*
X488734Y432818D01*
X486818Y434734D01*
X484472Y436089D01*
X481855Y436790D01*
D02*
G37*
G36*
X456455D02*
X453745D01*
X451128Y436089D01*
X448782Y434734D01*
X446866Y432818D01*
X445511Y430472D01*
X444810Y427855D01*
Y425145D01*
X445511Y422528D01*
X446866Y420182D01*
X448782Y418266D01*
X451128Y416911D01*
X453745Y416210D01*
X456455D01*
X459072Y416911D01*
X461418Y418266D01*
X463334Y420182D01*
X464689Y422528D01*
X465390Y425145D01*
Y427855D01*
X464689Y430472D01*
X463334Y432818D01*
X461418Y434734D01*
X459072Y436089D01*
X456455Y436790D01*
D02*
G37*
G36*
X431055D02*
X428345D01*
X425728Y436089D01*
X423382Y434734D01*
X421466Y432818D01*
X420111Y430472D01*
X419410Y427855D01*
Y425145D01*
X420111Y422528D01*
X421466Y420182D01*
X423382Y418266D01*
X425728Y416911D01*
X428345Y416210D01*
X431055D01*
X433672Y416911D01*
X436018Y418266D01*
X437934Y420182D01*
X439289Y422528D01*
X439990Y425145D01*
Y427855D01*
X439289Y430472D01*
X437934Y432818D01*
X436018Y434734D01*
X433672Y436089D01*
X431055Y436790D01*
D02*
G37*
G36*
X405655D02*
X402945D01*
X400328Y436089D01*
X397982Y434734D01*
X396066Y432818D01*
X394711Y430472D01*
X394010Y427855D01*
Y425145D01*
X394711Y422528D01*
X396066Y420182D01*
X397982Y418266D01*
X400328Y416911D01*
X402945Y416210D01*
X405655D01*
X408272Y416911D01*
X410618Y418266D01*
X412534Y420182D01*
X413889Y422528D01*
X414590Y425145D01*
Y427855D01*
X413889Y430472D01*
X412534Y432818D01*
X410618Y434734D01*
X408272Y436089D01*
X405655Y436790D01*
D02*
G37*
G36*
X380255D02*
X377545D01*
X374928Y436089D01*
X372582Y434734D01*
X370666Y432818D01*
X369311Y430472D01*
X368610Y427855D01*
Y425145D01*
X369311Y422528D01*
X370666Y420182D01*
X372582Y418266D01*
X374928Y416911D01*
X377545Y416210D01*
X380255D01*
X382872Y416911D01*
X385218Y418266D01*
X387134Y420182D01*
X388489Y422528D01*
X389190Y425145D01*
Y427855D01*
X388489Y430472D01*
X387134Y432818D01*
X385218Y434734D01*
X382872Y436089D01*
X380255Y436790D01*
D02*
G37*
G36*
X354855D02*
X352145D01*
X349528Y436089D01*
X347182Y434734D01*
X345266Y432818D01*
X343911Y430472D01*
X343210Y427855D01*
Y425145D01*
X343911Y422528D01*
X345266Y420182D01*
X347182Y418266D01*
X349528Y416911D01*
X352145Y416210D01*
X354855D01*
X357472Y416911D01*
X359818Y418266D01*
X361734Y420182D01*
X363089Y422528D01*
X363790Y425145D01*
Y427855D01*
X363089Y430472D01*
X361734Y432818D01*
X359818Y434734D01*
X357472Y436089D01*
X354855Y436790D01*
D02*
G37*
G36*
X329455D02*
X326745D01*
X324128Y436089D01*
X321782Y434734D01*
X319866Y432818D01*
X318511Y430472D01*
X317810Y427855D01*
Y425145D01*
X318511Y422528D01*
X319866Y420182D01*
X321782Y418266D01*
X324128Y416911D01*
X326745Y416210D01*
X329455D01*
X332072Y416911D01*
X334418Y418266D01*
X336334Y420182D01*
X337689Y422528D01*
X338390Y425145D01*
Y427855D01*
X337689Y430472D01*
X336334Y432818D01*
X334418Y434734D01*
X332072Y436089D01*
X329455Y436790D01*
D02*
G37*
G36*
X304055D02*
X301345D01*
X298728Y436089D01*
X296382Y434734D01*
X294466Y432818D01*
X293111Y430472D01*
X292410Y427855D01*
Y425145D01*
X293111Y422528D01*
X294466Y420182D01*
X296382Y418266D01*
X298728Y416911D01*
X301345Y416210D01*
X304055D01*
X306672Y416911D01*
X309018Y418266D01*
X310934Y420182D01*
X312289Y422528D01*
X312990Y425145D01*
Y427855D01*
X312289Y430472D01*
X310934Y432818D01*
X309018Y434734D01*
X306672Y436089D01*
X304055Y436790D01*
D02*
G37*
G36*
X253255D02*
X250545D01*
X247928Y436089D01*
X245582Y434734D01*
X243666Y432818D01*
X242311Y430472D01*
X241610Y427855D01*
Y425145D01*
X242311Y422528D01*
X243666Y420182D01*
X245582Y418266D01*
X247928Y416911D01*
X250545Y416210D01*
X253255D01*
X255872Y416911D01*
X258218Y418266D01*
X260134Y420182D01*
X261489Y422528D01*
X262190Y425145D01*
Y427855D01*
X261489Y430472D01*
X260134Y432818D01*
X258218Y434734D01*
X255872Y436089D01*
X253255Y436790D01*
D02*
G37*
G36*
X52000Y419923D02*
X16000D01*
X13510Y419595D01*
X11189Y418633D01*
X9196Y417104D01*
X7667Y415112D01*
X6705Y412791D01*
X6378Y410300D01*
X6705Y407810D01*
X7667Y405489D01*
X9196Y403496D01*
X11189Y401967D01*
X13510Y401006D01*
X16000Y400678D01*
X52000D01*
X54490Y401006D01*
X56811Y401967D01*
X58804Y403496D01*
X60333Y405489D01*
X61294Y407810D01*
X61622Y410300D01*
X61294Y412791D01*
X60333Y415112D01*
X58804Y417104D01*
X56811Y418633D01*
X54490Y419595D01*
X52000Y419923D01*
D02*
G37*
G36*
X481855Y411390D02*
X479145D01*
X476528Y410689D01*
X474182Y409334D01*
X472266Y407418D01*
X470911Y405072D01*
X470210Y402455D01*
Y399745D01*
X470911Y397128D01*
X472266Y394782D01*
X474182Y392866D01*
X476528Y391511D01*
X479145Y390810D01*
X481855D01*
X484472Y391511D01*
X486818Y392866D01*
X488734Y394782D01*
X490089Y397128D01*
X490790Y399745D01*
Y402455D01*
X490089Y405072D01*
X488734Y407418D01*
X486818Y409334D01*
X484472Y410689D01*
X481855Y411390D01*
D02*
G37*
G36*
X456455D02*
X453745D01*
X451128Y410689D01*
X448782Y409334D01*
X446866Y407418D01*
X445511Y405072D01*
X444810Y402455D01*
Y399745D01*
X445511Y397128D01*
X446866Y394782D01*
X448782Y392866D01*
X451128Y391511D01*
X453745Y390810D01*
X456455D01*
X459072Y391511D01*
X461418Y392866D01*
X463334Y394782D01*
X464689Y397128D01*
X465390Y399745D01*
Y402455D01*
X464689Y405072D01*
X463334Y407418D01*
X461418Y409334D01*
X459072Y410689D01*
X456455Y411390D01*
D02*
G37*
G36*
X431055D02*
X428345D01*
X425728Y410689D01*
X423382Y409334D01*
X421466Y407418D01*
X420111Y405072D01*
X419410Y402455D01*
Y399745D01*
X420111Y397128D01*
X421466Y394782D01*
X423382Y392866D01*
X425728Y391511D01*
X428345Y390810D01*
X431055D01*
X433672Y391511D01*
X436018Y392866D01*
X437934Y394782D01*
X439289Y397128D01*
X439990Y399745D01*
Y402455D01*
X439289Y405072D01*
X437934Y407418D01*
X436018Y409334D01*
X433672Y410689D01*
X431055Y411390D01*
D02*
G37*
G36*
X405655D02*
X402945D01*
X400328Y410689D01*
X397982Y409334D01*
X396066Y407418D01*
X394711Y405072D01*
X394010Y402455D01*
Y399745D01*
X394711Y397128D01*
X396066Y394782D01*
X397982Y392866D01*
X400328Y391511D01*
X402945Y390810D01*
X405655D01*
X408272Y391511D01*
X410618Y392866D01*
X412534Y394782D01*
X413889Y397128D01*
X414590Y399745D01*
Y402455D01*
X413889Y405072D01*
X412534Y407418D01*
X410618Y409334D01*
X408272Y410689D01*
X405655Y411390D01*
D02*
G37*
G36*
X380255D02*
X377545D01*
X374928Y410689D01*
X372582Y409334D01*
X370666Y407418D01*
X369311Y405072D01*
X368610Y402455D01*
Y399745D01*
X369311Y397128D01*
X370666Y394782D01*
X372582Y392866D01*
X374928Y391511D01*
X377545Y390810D01*
X380255D01*
X382872Y391511D01*
X385218Y392866D01*
X387134Y394782D01*
X388489Y397128D01*
X389190Y399745D01*
Y402455D01*
X388489Y405072D01*
X387134Y407418D01*
X385218Y409334D01*
X382872Y410689D01*
X380255Y411390D01*
D02*
G37*
G36*
X354855D02*
X352145D01*
X349528Y410689D01*
X347182Y409334D01*
X345266Y407418D01*
X343911Y405072D01*
X343210Y402455D01*
Y399745D01*
X343911Y397128D01*
X345266Y394782D01*
X347182Y392866D01*
X349528Y391511D01*
X352145Y390810D01*
X354855D01*
X357472Y391511D01*
X359818Y392866D01*
X361734Y394782D01*
X363089Y397128D01*
X363790Y399745D01*
Y402455D01*
X363089Y405072D01*
X361734Y407418D01*
X359818Y409334D01*
X357472Y410689D01*
X354855Y411390D01*
D02*
G37*
G36*
X329455D02*
X326745D01*
X324128Y410689D01*
X321782Y409334D01*
X319866Y407418D01*
X318511Y405072D01*
X317810Y402455D01*
Y399745D01*
X318511Y397128D01*
X319866Y394782D01*
X321782Y392866D01*
X324128Y391511D01*
X326745Y390810D01*
X329455D01*
X332072Y391511D01*
X334418Y392866D01*
X336334Y394782D01*
X337689Y397128D01*
X338390Y399745D01*
Y402455D01*
X337689Y405072D01*
X336334Y407418D01*
X334418Y409334D01*
X332072Y410689D01*
X329455Y411390D01*
D02*
G37*
G36*
X304055D02*
X301345D01*
X298728Y410689D01*
X296382Y409334D01*
X294466Y407418D01*
X293111Y405072D01*
X292410Y402455D01*
Y399745D01*
X293111Y397128D01*
X294466Y394782D01*
X296382Y392866D01*
X298728Y391511D01*
X301345Y390810D01*
X304055D01*
X306672Y391511D01*
X309018Y392866D01*
X310934Y394782D01*
X312289Y397128D01*
X312990Y399745D01*
Y402455D01*
X312289Y405072D01*
X310934Y407418D01*
X309018Y409334D01*
X306672Y410689D01*
X304055Y411390D01*
D02*
G37*
G36*
X253255D02*
X250545D01*
X247928Y410689D01*
X245582Y409334D01*
X243666Y407418D01*
X242311Y405072D01*
X241610Y402455D01*
Y399745D01*
X242311Y397128D01*
X243666Y394782D01*
X245582Y392866D01*
X247928Y391511D01*
X250545Y390810D01*
X253255D01*
X255872Y391511D01*
X258218Y392866D01*
X260134Y394782D01*
X261489Y397128D01*
X262190Y399745D01*
Y402455D01*
X261489Y405072D01*
X260134Y407418D01*
X258218Y409334D01*
X255872Y410689D01*
X253255Y411390D01*
D02*
G37*
G36*
X227060Y403110D02*
X226566Y403045D01*
X226067D01*
X225586Y402916D01*
X225092Y402851D01*
X224631Y402660D01*
X224150Y402531D01*
X223718Y402282D01*
X223258Y402091D01*
X222862Y401788D01*
X222430Y401539D01*
X222078Y401186D01*
X221682Y400883D01*
X221379Y400487D01*
X221026Y400135D01*
X220777Y399703D01*
X220474Y399308D01*
X220283Y398847D01*
X220034Y398415D01*
X219905Y397934D01*
X219714Y397473D01*
X219649Y396979D01*
X219520Y396498D01*
Y395999D01*
X219469Y395610D01*
X200560D01*
X198592Y395351D01*
X197517Y394906D01*
X196758Y394591D01*
X195182Y393383D01*
X184682Y382883D01*
X183474Y381307D01*
X182714Y379473D01*
X182455Y377505D01*
Y278505D01*
X182714Y276537D01*
X183474Y274702D01*
X184682Y273127D01*
X198187Y259622D01*
X199762Y258414D01*
X200522Y258099D01*
X201597Y257654D01*
X203565Y257395D01*
X292730D01*
X294193Y257202D01*
X306042D01*
X311695Y251550D01*
Y238450D01*
X307622Y234378D01*
X306414Y232803D01*
X305654Y230968D01*
X305395Y229000D01*
Y191709D01*
X304125Y191542D01*
X304026Y191910D01*
X303034Y193630D01*
X301630Y195033D01*
X299910Y196026D01*
X297993Y196540D01*
X296007D01*
X294090Y196026D01*
X292370Y195033D01*
X291476Y194139D01*
X286129D01*
X237129Y243139D01*
X235695Y244096D01*
X235860Y245250D01*
X235907Y245366D01*
X257367D01*
X288460Y214273D01*
Y213007D01*
X288974Y211090D01*
X289967Y209370D01*
X291370Y207966D01*
X293090Y206974D01*
X295007Y206460D01*
X296993D01*
X298910Y206974D01*
X300630Y207966D01*
X302034Y209370D01*
X303026Y211090D01*
X303540Y213007D01*
Y214993D01*
X303026Y216910D01*
X302034Y218630D01*
X300630Y220033D01*
X298910Y221026D01*
X296993Y221540D01*
X295727D01*
X263129Y254139D01*
X261462Y255253D01*
X259495Y255644D01*
X119623D01*
X105240Y270028D01*
Y271293D01*
X104726Y273211D01*
X103733Y274930D01*
X102329Y276334D01*
X100610Y277327D01*
X98692Y277840D01*
X96707D01*
X94789Y277327D01*
X93070Y276334D01*
X91666Y274930D01*
X90674Y273211D01*
X90160Y271293D01*
Y269904D01*
X88890Y269378D01*
X86838Y271429D01*
Y304776D01*
X87733Y305671D01*
X88726Y307390D01*
X89240Y309308D01*
Y311293D01*
X88726Y313211D01*
X87733Y314930D01*
X86329Y316334D01*
X84610Y317327D01*
X82692Y317840D01*
X80707D01*
X78789Y317327D01*
X77070Y316334D01*
X75666Y314930D01*
X74674Y313211D01*
X74160Y311293D01*
Y309308D01*
X74674Y307390D01*
X75666Y305671D01*
X76561Y304776D01*
Y269300D01*
X76952Y267334D01*
X78066Y265667D01*
X107861Y235871D01*
X109529Y234757D01*
X111495Y234366D01*
X231367D01*
X280716Y185016D01*
X282383Y183902D01*
X284350Y183511D01*
X286110Y183861D01*
X291476D01*
X292370Y182966D01*
X294090Y181974D01*
X294931Y181748D01*
X295311Y180332D01*
X280622Y165643D01*
X279414Y164068D01*
X278654Y162234D01*
X278395Y160266D01*
Y116000D01*
X278654Y114032D01*
X279414Y112198D01*
X280622Y110622D01*
X294395Y96850D01*
Y77590D01*
X290000D01*
X289009Y77393D01*
X288169Y76831D01*
X287607Y75991D01*
X287410Y75000D01*
Y63000D01*
X287607Y62009D01*
X288169Y61169D01*
X289009Y60607D01*
X290000Y60410D01*
X315000D01*
X315991Y60607D01*
X316831Y61169D01*
X317393Y62009D01*
X317590Y63000D01*
Y75000D01*
X317393Y75991D01*
X316831Y76831D01*
X315991Y77393D01*
X315000Y77590D01*
X309605D01*
Y100000D01*
X309346Y101968D01*
X308901Y103043D01*
X308586Y103802D01*
X307378Y105378D01*
X293605Y119150D01*
Y157116D01*
X299069Y162579D01*
X300280Y161995D01*
X300724Y160340D01*
X301716Y158620D01*
X303120Y157217D01*
X304840Y156224D01*
X306757Y155710D01*
X308023D01*
X310861Y152871D01*
Y124000D01*
X311252Y122034D01*
X312366Y120366D01*
X335861Y96871D01*
Y86524D01*
X334967Y85630D01*
X333974Y83910D01*
X333460Y81993D01*
Y80007D01*
X333974Y78090D01*
X334967Y76370D01*
X336370Y74967D01*
X338090Y73974D01*
X340007Y73460D01*
X341993D01*
X343910Y73974D01*
X345630Y74967D01*
X347034Y76370D01*
X347091Y76470D01*
X348361Y76130D01*
Y71628D01*
X294366Y17634D01*
X293252Y15967D01*
X292861Y14000D01*
Y3160D01*
X287840D01*
Y-17160D01*
X308160D01*
Y3160D01*
X303139D01*
Y11872D01*
X357134Y65866D01*
X358247Y67533D01*
X358639Y69500D01*
Y101500D01*
X358247Y103467D01*
X357134Y105134D01*
X337139Y125128D01*
Y150476D01*
X338033Y151370D01*
X339026Y153090D01*
X339540Y155007D01*
Y156993D01*
X339026Y158910D01*
X338033Y160630D01*
X336630Y162034D01*
X334910Y163026D01*
X332993Y163540D01*
X331007D01*
X329090Y163026D01*
X327370Y162034D01*
X325966Y160630D01*
X324974Y158910D01*
X324460Y156993D01*
Y155007D01*
X324974Y153090D01*
X325966Y151370D01*
X326861Y150476D01*
Y123000D01*
X327059Y122004D01*
X325889Y121378D01*
X321139Y126129D01*
Y155000D01*
X320748Y156966D01*
X319634Y158634D01*
X315290Y162977D01*
Y164243D01*
X314776Y166160D01*
X313783Y167880D01*
X312380Y169284D01*
X310660Y170276D01*
X309005Y170720D01*
X308421Y171931D01*
X318378Y181888D01*
X319586Y183463D01*
X320346Y185297D01*
X320605Y187266D01*
Y225850D01*
X324678Y229922D01*
X325886Y231497D01*
X326646Y233332D01*
X326905Y235300D01*
Y254700D01*
X326646Y256668D01*
X325886Y258503D01*
X324678Y260078D01*
X314378Y270378D01*
X313982Y270681D01*
X313630Y271033D01*
X313198Y271283D01*
X312803Y271586D01*
X312342Y271777D01*
X311910Y272026D01*
X311429Y272155D01*
X310968Y272346D01*
X310474Y272411D01*
X309993Y272540D01*
X309494D01*
X309000Y272605D01*
X308506Y272540D01*
X308007D01*
X307526Y272411D01*
X307032Y272346D01*
X306951Y272313D01*
X306192Y272413D01*
X295468D01*
X294993Y272540D01*
X294494D01*
X294000Y272605D01*
X206715D01*
X197665Y281655D01*
Y374355D01*
X203710Y380400D01*
X219469D01*
X219520Y380011D01*
Y379512D01*
X219649Y379031D01*
X219714Y378537D01*
X219905Y378076D01*
X220034Y377595D01*
X220283Y377163D01*
X220474Y376702D01*
X220777Y376307D01*
X221026Y375875D01*
X221379Y375523D01*
X221682Y375127D01*
X222078Y374824D01*
X222430Y374472D01*
X222862Y374222D01*
X223258Y373919D01*
X223718Y373728D01*
X224150Y373479D01*
X224631Y373350D01*
X225092Y373159D01*
X225586Y373094D01*
X226067Y372965D01*
X226566D01*
X227060Y372900D01*
X227554Y372965D01*
X228053D01*
X228534Y373094D01*
X229028Y373159D01*
X229489Y373350D01*
X229970Y373479D01*
X230402Y373728D01*
X230863Y373919D01*
X231258Y374222D01*
X231690Y374472D01*
X232042Y374824D01*
X232438Y375127D01*
X232741Y375523D01*
X233093Y375875D01*
X233343Y376307D01*
X233646Y376702D01*
X233837Y377163D01*
X234086Y377595D01*
X234215Y378076D01*
X234406Y378537D01*
X234471Y379031D01*
X234600Y379512D01*
Y380011D01*
X234665Y380505D01*
Y388005D01*
Y395505D01*
X234600Y395999D01*
Y396498D01*
X234471Y396979D01*
X234406Y397473D01*
X234215Y397934D01*
X234086Y398415D01*
X233837Y398847D01*
X233646Y399308D01*
X233343Y399703D01*
X233093Y400135D01*
X232741Y400487D01*
X232438Y400883D01*
X232042Y401186D01*
X231690Y401539D01*
X231258Y401788D01*
X230863Y402091D01*
X230402Y402282D01*
X229970Y402531D01*
X229489Y402660D01*
X229028Y402851D01*
X228534Y402916D01*
X228053Y403045D01*
X227554D01*
X227060Y403110D01*
D02*
G37*
G36*
X456455Y385990D02*
X453745D01*
X451128Y385289D01*
X448782Y383934D01*
X446866Y382018D01*
X445511Y379672D01*
X444810Y377055D01*
Y374345D01*
X445511Y371728D01*
X446866Y369382D01*
X448782Y367466D01*
X451128Y366111D01*
X453745Y365410D01*
X456455D01*
X459072Y366111D01*
X461418Y367466D01*
X463334Y369382D01*
X464689Y371728D01*
X465390Y374345D01*
Y377055D01*
X464689Y379672D01*
X463334Y382018D01*
X461418Y383934D01*
X459072Y385289D01*
X456455Y385990D01*
D02*
G37*
G36*
X431055D02*
X428345D01*
X425728Y385289D01*
X423382Y383934D01*
X421466Y382018D01*
X420111Y379672D01*
X419410Y377055D01*
Y374345D01*
X420111Y371728D01*
X421466Y369382D01*
X423382Y367466D01*
X425728Y366111D01*
X428345Y365410D01*
X431055D01*
X433672Y366111D01*
X436018Y367466D01*
X437934Y369382D01*
X439289Y371728D01*
X439990Y374345D01*
Y377055D01*
X439289Y379672D01*
X437934Y382018D01*
X436018Y383934D01*
X433672Y385289D01*
X431055Y385990D01*
D02*
G37*
G36*
X405655D02*
X402945D01*
X400328Y385289D01*
X397982Y383934D01*
X396066Y382018D01*
X394711Y379672D01*
X394010Y377055D01*
Y374345D01*
X394711Y371728D01*
X396066Y369382D01*
X397982Y367466D01*
X400328Y366111D01*
X402945Y365410D01*
X405655D01*
X408272Y366111D01*
X410618Y367466D01*
X412534Y369382D01*
X413889Y371728D01*
X414590Y374345D01*
Y377055D01*
X413889Y379672D01*
X412534Y382018D01*
X410618Y383934D01*
X408272Y385289D01*
X405655Y385990D01*
D02*
G37*
G36*
X380255D02*
X377545D01*
X374928Y385289D01*
X372582Y383934D01*
X370666Y382018D01*
X369311Y379672D01*
X368610Y377055D01*
Y374345D01*
X369311Y371728D01*
X370666Y369382D01*
X372582Y367466D01*
X374928Y366111D01*
X377545Y365410D01*
X380255D01*
X382872Y366111D01*
X385218Y367466D01*
X387134Y369382D01*
X388489Y371728D01*
X389190Y374345D01*
Y377055D01*
X388489Y379672D01*
X387134Y382018D01*
X385218Y383934D01*
X382872Y385289D01*
X380255Y385990D01*
D02*
G37*
G36*
X354855D02*
X352145D01*
X349528Y385289D01*
X347182Y383934D01*
X345266Y382018D01*
X343911Y379672D01*
X343210Y377055D01*
Y374345D01*
X343911Y371728D01*
X345266Y369382D01*
X347182Y367466D01*
X349528Y366111D01*
X352145Y365410D01*
X354855D01*
X357472Y366111D01*
X359818Y367466D01*
X361734Y369382D01*
X363089Y371728D01*
X363790Y374345D01*
Y377055D01*
X363089Y379672D01*
X361734Y382018D01*
X359818Y383934D01*
X357472Y385289D01*
X354855Y385990D01*
D02*
G37*
G36*
X329455D02*
X326745D01*
X324128Y385289D01*
X321782Y383934D01*
X319866Y382018D01*
X318511Y379672D01*
X317810Y377055D01*
Y374345D01*
X318511Y371728D01*
X319866Y369382D01*
X321782Y367466D01*
X324128Y366111D01*
X326745Y365410D01*
X329455D01*
X332072Y366111D01*
X334418Y367466D01*
X336334Y369382D01*
X337689Y371728D01*
X338390Y374345D01*
Y377055D01*
X337689Y379672D01*
X336334Y382018D01*
X334418Y383934D01*
X332072Y385289D01*
X329455Y385990D01*
D02*
G37*
G36*
X304055D02*
X301345D01*
X298728Y385289D01*
X296382Y383934D01*
X294466Y382018D01*
X293111Y379672D01*
X292410Y377055D01*
Y374345D01*
X293111Y371728D01*
X294466Y369382D01*
X296382Y367466D01*
X298728Y366111D01*
X301345Y365410D01*
X304055D01*
X306672Y366111D01*
X309018Y367466D01*
X310934Y369382D01*
X312289Y371728D01*
X312990Y374345D01*
Y377055D01*
X312289Y379672D01*
X310934Y382018D01*
X309018Y383934D01*
X306672Y385289D01*
X304055Y385990D01*
D02*
G37*
G36*
X253255D02*
X250545D01*
X247928Y385289D01*
X245582Y383934D01*
X243666Y382018D01*
X242311Y379672D01*
X241610Y377055D01*
Y374345D01*
X242311Y371728D01*
X243666Y369382D01*
X245582Y367466D01*
X247928Y366111D01*
X250545Y365410D01*
X253255D01*
X255872Y366111D01*
X258218Y367466D01*
X260134Y369382D01*
X261489Y371728D01*
X262190Y374345D01*
Y377055D01*
X261489Y379672D01*
X260134Y382018D01*
X258218Y383934D01*
X255872Y385289D01*
X253255Y385990D01*
D02*
G37*
G36*
X456455Y360590D02*
X453745D01*
X451128Y359889D01*
X448782Y358534D01*
X446866Y356618D01*
X445511Y354272D01*
X444810Y351655D01*
Y348945D01*
X445511Y346328D01*
X446866Y343982D01*
X448782Y342066D01*
X451128Y340711D01*
X453745Y340010D01*
X456455D01*
X459072Y340711D01*
X461418Y342066D01*
X463334Y343982D01*
X464689Y346328D01*
X465390Y348945D01*
Y351655D01*
X464689Y354272D01*
X463334Y356618D01*
X461418Y358534D01*
X459072Y359889D01*
X456455Y360590D01*
D02*
G37*
G36*
X431055D02*
X428345D01*
X425728Y359889D01*
X423382Y358534D01*
X421466Y356618D01*
X420111Y354272D01*
X419410Y351655D01*
Y348945D01*
X420111Y346328D01*
X421466Y343982D01*
X423382Y342066D01*
X425728Y340711D01*
X428345Y340010D01*
X431055D01*
X433672Y340711D01*
X436018Y342066D01*
X437934Y343982D01*
X439289Y346328D01*
X439990Y348945D01*
Y351655D01*
X439289Y354272D01*
X437934Y356618D01*
X436018Y358534D01*
X433672Y359889D01*
X431055Y360590D01*
D02*
G37*
G36*
X405655D02*
X402945D01*
X400328Y359889D01*
X397982Y358534D01*
X396066Y356618D01*
X394711Y354272D01*
X394010Y351655D01*
Y348945D01*
X394711Y346328D01*
X396066Y343982D01*
X397982Y342066D01*
X400328Y340711D01*
X402945Y340010D01*
X405655D01*
X408272Y340711D01*
X410618Y342066D01*
X412534Y343982D01*
X413889Y346328D01*
X414590Y348945D01*
Y351655D01*
X413889Y354272D01*
X412534Y356618D01*
X410618Y358534D01*
X408272Y359889D01*
X405655Y360590D01*
D02*
G37*
G36*
X380255D02*
X377545D01*
X374928Y359889D01*
X372582Y358534D01*
X370666Y356618D01*
X369311Y354272D01*
X368610Y351655D01*
Y348945D01*
X369311Y346328D01*
X370666Y343982D01*
X372582Y342066D01*
X374928Y340711D01*
X377545Y340010D01*
X380255D01*
X382872Y340711D01*
X385218Y342066D01*
X387134Y343982D01*
X388489Y346328D01*
X389190Y348945D01*
Y351655D01*
X388489Y354272D01*
X387134Y356618D01*
X385218Y358534D01*
X382872Y359889D01*
X380255Y360590D01*
D02*
G37*
G36*
X354855D02*
X352145D01*
X349528Y359889D01*
X347182Y358534D01*
X345266Y356618D01*
X343911Y354272D01*
X343210Y351655D01*
Y348945D01*
X343911Y346328D01*
X345266Y343982D01*
X347182Y342066D01*
X349528Y340711D01*
X352145Y340010D01*
X354855D01*
X357472Y340711D01*
X359818Y342066D01*
X361734Y343982D01*
X363089Y346328D01*
X363790Y348945D01*
Y351655D01*
X363089Y354272D01*
X361734Y356618D01*
X359818Y358534D01*
X357472Y359889D01*
X354855Y360590D01*
D02*
G37*
G36*
X329455D02*
X326745D01*
X324128Y359889D01*
X321782Y358534D01*
X319866Y356618D01*
X318511Y354272D01*
X317810Y351655D01*
Y348945D01*
X318511Y346328D01*
X319866Y343982D01*
X321782Y342066D01*
X324128Y340711D01*
X326745Y340010D01*
X329455D01*
X332072Y340711D01*
X334418Y342066D01*
X336334Y343982D01*
X337689Y346328D01*
X338390Y348945D01*
Y351655D01*
X337689Y354272D01*
X336334Y356618D01*
X334418Y358534D01*
X332072Y359889D01*
X329455Y360590D01*
D02*
G37*
G36*
X304055D02*
X301345D01*
X298728Y359889D01*
X296382Y358534D01*
X294466Y356618D01*
X293111Y354272D01*
X292410Y351655D01*
Y348945D01*
X293111Y346328D01*
X294466Y343982D01*
X296382Y342066D01*
X298728Y340711D01*
X301345Y340010D01*
X304055D01*
X306672Y340711D01*
X309018Y342066D01*
X310934Y343982D01*
X312289Y346328D01*
X312990Y348945D01*
Y351655D01*
X312289Y354272D01*
X310934Y356618D01*
X309018Y358534D01*
X306672Y359889D01*
X304055Y360590D01*
D02*
G37*
G36*
X479230Y335190D02*
X479145D01*
X476528Y334489D01*
X474182Y333134D01*
X472266Y331218D01*
X470911Y328872D01*
X470210Y326255D01*
Y326170D01*
X479230D01*
Y335190D01*
D02*
G37*
G36*
X456455D02*
X456370D01*
Y326170D01*
X465390D01*
Y326255D01*
X464689Y328872D01*
X463334Y331218D01*
X461418Y333134D01*
X459072Y334489D01*
X456455Y335190D01*
D02*
G37*
G36*
X453830D02*
X453745D01*
X451128Y334489D01*
X448782Y333134D01*
X446866Y331218D01*
X445511Y328872D01*
X444810Y326255D01*
Y326170D01*
X453830D01*
Y335190D01*
D02*
G37*
G36*
X479230Y323630D02*
X470210D01*
Y323545D01*
X470911Y320928D01*
X472266Y318582D01*
X474182Y316666D01*
X476528Y315311D01*
X479145Y314610D01*
X479230D01*
Y323630D01*
D02*
G37*
G36*
X465390D02*
X456370D01*
Y314610D01*
X456455D01*
X459072Y315311D01*
X461418Y316666D01*
X463334Y318582D01*
X464689Y320928D01*
X465390Y323545D01*
Y323630D01*
D02*
G37*
G36*
X453830D02*
X444810D01*
Y323545D01*
X445511Y320928D01*
X446866Y318582D01*
X448782Y316666D01*
X451128Y315311D01*
X453745Y314610D01*
X453830D01*
Y323630D01*
D02*
G37*
G36*
X689500Y188390D02*
X671500D01*
X670509Y188193D01*
X669669Y187631D01*
X669107Y186791D01*
X668910Y185800D01*
Y174800D01*
X669107Y173809D01*
X669669Y172969D01*
X670509Y172407D01*
X671500Y172210D01*
X689500D01*
X690491Y172407D01*
X691331Y172969D01*
X691893Y173809D01*
X692090Y174800D01*
Y185800D01*
X691893Y186791D01*
X691331Y187631D01*
X690491Y188193D01*
X689500Y188390D01*
D02*
G37*
G36*
X68692Y297840D02*
X66707D01*
X64789Y297327D01*
X63070Y296334D01*
X61666Y294930D01*
X60673Y293211D01*
X60160Y291293D01*
Y289308D01*
X60673Y287390D01*
X61666Y285671D01*
X62561Y284776D01*
Y264300D01*
X62952Y262334D01*
X64066Y260667D01*
X101324Y223409D01*
X100798Y222139D01*
X50555D01*
X48589Y221748D01*
X46922Y220634D01*
X27333Y201045D01*
X26067D01*
X24150Y200531D01*
X22430Y199538D01*
X21027Y198134D01*
X20034Y196415D01*
X19520Y194498D01*
Y192512D01*
X20034Y190595D01*
X21027Y188875D01*
X22430Y187471D01*
X24150Y186479D01*
X26067Y185965D01*
X28053D01*
X29970Y186479D01*
X31512Y187369D01*
X32895Y187114D01*
X33034Y186595D01*
X33470Y185840D01*
X32736Y184570D01*
X32160D01*
X30192Y184311D01*
X29117Y183866D01*
X28357Y183551D01*
X26782Y182342D01*
X-5378Y150183D01*
X-5950Y149436D01*
X-7060Y150077D01*
X-6954Y150332D01*
X-6695Y152300D01*
Y213300D01*
X-6760Y213794D01*
Y214293D01*
X-6889Y214774D01*
X-6954Y215268D01*
X-7145Y215729D01*
X-7274Y216210D01*
X-7523Y216642D01*
X-7714Y217103D01*
X-8017Y217498D01*
X-8267Y217930D01*
X-8619Y218282D01*
X-8922Y218678D01*
X-9318Y218981D01*
X-9670Y219333D01*
X-10102Y219583D01*
X-10497Y219886D01*
X-10958Y220077D01*
X-11390Y220326D01*
X-11871Y220455D01*
X-12332Y220646D01*
X-12826Y220711D01*
X-13307Y220840D01*
X-13806D01*
X-14300Y220905D01*
X-14794Y220840D01*
X-15293D01*
X-15774Y220711D01*
X-16268Y220646D01*
X-16729Y220455D01*
X-17210Y220326D01*
X-17642Y220077D01*
X-18103Y219886D01*
X-18498Y219583D01*
X-18930Y219333D01*
X-19282Y218981D01*
X-19678Y218678D01*
X-19981Y218282D01*
X-20333Y217930D01*
X-20583Y217498D01*
X-20886Y217103D01*
X-21077Y216642D01*
X-21326Y216210D01*
X-21455Y215729D01*
X-21646Y215268D01*
X-21711Y214774D01*
X-21840Y214293D01*
Y213794D01*
X-21905Y213300D01*
Y155450D01*
X-26678Y150678D01*
X-27886Y149102D01*
X-28646Y147268D01*
X-28905Y145300D01*
Y90030D01*
X-28646Y88062D01*
X-27886Y86228D01*
X-26678Y84653D01*
X1053Y56922D01*
X2628Y55714D01*
X3387Y55399D01*
X4462Y54954D01*
X6430Y54695D01*
X84700D01*
X86668Y54954D01*
X88503Y55714D01*
X90078Y56922D01*
X132578Y99422D01*
X133786Y100997D01*
X134101Y101757D01*
X134546Y102832D01*
X134805Y104800D01*
Y115300D01*
X134740Y115794D01*
Y116293D01*
X134611Y116774D01*
X134546Y117268D01*
X134355Y117729D01*
X134226Y118210D01*
X133977Y118642D01*
X133786Y119102D01*
X133483Y119498D01*
X133233Y119930D01*
X132881Y120282D01*
X132578Y120678D01*
X132182Y120981D01*
X131830Y121334D01*
X131398Y121583D01*
X131003Y121886D01*
X130542Y122077D01*
X130110Y122326D01*
X129629Y122455D01*
X129168Y122646D01*
X128674Y122711D01*
X128193Y122840D01*
X127694D01*
X127200Y122905D01*
X126706Y122840D01*
X126207D01*
X125726Y122711D01*
X125232Y122646D01*
X124771Y122455D01*
X124290Y122326D01*
X123858Y122077D01*
X123398Y121886D01*
X123002Y121583D01*
X122570Y121334D01*
X122218Y120981D01*
X121822Y120678D01*
X121519Y120282D01*
X121166Y119930D01*
X120917Y119498D01*
X120614Y119102D01*
X120423Y118642D01*
X120174Y118210D01*
X120045Y117729D01*
X119854Y117268D01*
X119789Y116774D01*
X119660Y116293D01*
Y115794D01*
X119595Y115300D01*
Y107950D01*
X81550Y69905D01*
X9580D01*
X699Y78787D01*
X1185Y79960D01*
X1322D01*
X3875Y80644D01*
X6165Y81966D01*
X8034Y83835D01*
X9356Y86125D01*
X10040Y88678D01*
Y88730D01*
X-0D01*
Y91270D01*
X10040D01*
Y91322D01*
X9356Y93875D01*
X8034Y96165D01*
X6165Y98034D01*
X5178Y98603D01*
X5519Y99874D01*
X5625D01*
X7348Y100216D01*
X8808Y101192D01*
X9784Y102652D01*
X10127Y104375D01*
Y115625D01*
X9784Y117348D01*
X8808Y118808D01*
X7605Y119612D01*
Y141655D01*
X19790Y153840D01*
X20921Y153175D01*
Y100505D01*
X21312Y98539D01*
X22426Y96871D01*
X40426Y78871D01*
X42094Y77757D01*
X44060Y77366D01*
X72726D01*
X73620Y76471D01*
X75340Y75479D01*
X77257Y74965D01*
X79243D01*
X81160Y75479D01*
X82880Y76471D01*
X84284Y77875D01*
X85276Y79595D01*
X85790Y81512D01*
Y83498D01*
X85276Y85415D01*
X84284Y87135D01*
X82880Y88539D01*
X81160Y89531D01*
X79243Y90045D01*
X77257D01*
X75340Y89531D01*
X73620Y88539D01*
X72726Y87644D01*
X46189D01*
X31199Y102633D01*
Y151376D01*
X37060Y157238D01*
X38189Y158366D01*
X74762D01*
X75540Y157348D01*
X75526Y157335D01*
X74534Y155615D01*
X74020Y153698D01*
Y151712D01*
X74534Y149795D01*
X75526Y148075D01*
X76930Y146671D01*
X78650Y145679D01*
X80567Y145165D01*
X82553D01*
X84470Y145679D01*
X86190Y146671D01*
X87593Y148075D01*
X88586Y149795D01*
X89100Y151712D01*
Y153698D01*
X88586Y155615D01*
X87593Y157335D01*
X86699Y158229D01*
Y159005D01*
D01*
Y159005D01*
X86307Y160972D01*
X85194Y162639D01*
X80694Y167139D01*
X79270Y168090D01*
X79470Y169332D01*
X79481Y169360D01*
X95965D01*
X101622Y163702D01*
X102018Y163399D01*
X102370Y163046D01*
X102802Y162797D01*
X103197Y162494D01*
X103658Y162303D01*
X104090Y162054D01*
X104571Y161925D01*
X105032Y161734D01*
X105526Y161669D01*
X106007Y161540D01*
X106506D01*
X107000Y161475D01*
X120000D01*
X120494Y161540D01*
X120993D01*
X121474Y161669D01*
X121968Y161734D01*
X122429Y161925D01*
X122910Y162054D01*
X123342Y162303D01*
X123802Y162494D01*
X124198Y162797D01*
X124630Y163046D01*
X124982Y163399D01*
X125378Y163702D01*
X125681Y164098D01*
X126033Y164450D01*
X126283Y164882D01*
X126586Y165278D01*
X126777Y165738D01*
X127026Y166170D01*
X127155Y166651D01*
X127346Y167112D01*
X127411Y167606D01*
X127540Y168087D01*
Y168586D01*
X127605Y169080D01*
X127540Y169574D01*
Y170073D01*
X127411Y170554D01*
X127346Y171048D01*
X127155Y171509D01*
X127026Y171990D01*
X126777Y172422D01*
X126586Y172882D01*
X126283Y173278D01*
X126033Y173710D01*
X125681Y174062D01*
X125378Y174458D01*
X124982Y174761D01*
X124630Y175114D01*
X124198Y175363D01*
X123802Y175666D01*
X123342Y175857D01*
X122910Y176106D01*
X122429Y176235D01*
X121968Y176426D01*
X121474Y176491D01*
X120993Y176620D01*
X120494D01*
X120000Y176685D01*
X110150D01*
X104493Y182342D01*
X102918Y183551D01*
X101083Y184311D01*
X99115Y184570D01*
X47384D01*
X46651Y185840D01*
X47086Y186595D01*
X47600Y188512D01*
Y189778D01*
X56189Y198366D01*
X194932D01*
X209931Y183366D01*
X211598Y182252D01*
X213565Y181861D01*
X220476D01*
X221370Y180966D01*
X223090Y179974D01*
X225007Y179460D01*
X226993D01*
X228910Y179974D01*
X230630Y180966D01*
X232034Y182370D01*
X233026Y184090D01*
X233540Y186007D01*
Y187993D01*
X233026Y189910D01*
X233026Y189911D01*
X234042Y190690D01*
X238460Y186273D01*
Y185007D01*
X238974Y183090D01*
X239967Y181370D01*
X241370Y179967D01*
X243090Y178974D01*
X245007Y178460D01*
X246993D01*
X248910Y178974D01*
X250630Y179967D01*
X250688Y180025D01*
X251861Y179539D01*
Y174067D01*
X248334Y170540D01*
X247069D01*
X245151Y170026D01*
X243431Y169034D01*
X242028Y167630D01*
X241035Y165910D01*
X240521Y163993D01*
Y162007D01*
X241035Y160090D01*
X242028Y158370D01*
X243431Y156966D01*
X245151Y155974D01*
X247069Y155460D01*
X249054D01*
X250972Y155974D01*
X252691Y156966D01*
X254095Y158370D01*
X255087Y160090D01*
X255601Y162007D01*
Y163273D01*
X260634Y168305D01*
X261748Y169972D01*
X262139Y171939D01*
Y196565D01*
X261748Y198531D01*
X260634Y200199D01*
X230694Y230139D01*
X229027Y231252D01*
X227060Y231644D01*
X107624D01*
X72838Y266429D01*
Y284776D01*
X73733Y285671D01*
X74726Y287390D01*
X75240Y289308D01*
Y291293D01*
X74726Y293211D01*
X73733Y294930D01*
X72329Y296334D01*
X70610Y297327D01*
X68692Y297840D01*
D02*
G37*
G36*
X656193Y154239D02*
X654207D01*
X652290Y153725D01*
X650570Y152732D01*
X649166Y151328D01*
X648174Y149609D01*
X647660Y147691D01*
Y145706D01*
X648174Y143788D01*
X649166Y142069D01*
X650570Y140665D01*
X652290Y139672D01*
X654207Y139159D01*
X656193D01*
X658110Y139672D01*
X659830Y140665D01*
X660643Y141478D01*
X675255Y126866D01*
X676922Y125752D01*
X678888Y125361D01*
X698676D01*
X699570Y124466D01*
X701290Y123474D01*
X703207Y122960D01*
X705193D01*
X707110Y123474D01*
X708830Y124466D01*
X710234Y125870D01*
X711226Y127590D01*
X711740Y129507D01*
Y131493D01*
X711226Y133410D01*
X710234Y135130D01*
X708830Y136533D01*
X707110Y137526D01*
X705193Y138040D01*
X703207D01*
X701290Y137526D01*
X699570Y136533D01*
X698676Y135639D01*
X681017D01*
X666323Y150332D01*
X664656Y151446D01*
X662690Y151837D01*
X660724D01*
X659830Y152732D01*
X658110Y153725D01*
X656193Y154239D01*
D02*
G37*
G36*
X260000Y84139D02*
X185250D01*
X183284Y83748D01*
X181616Y82634D01*
X172616Y73634D01*
X171502Y71967D01*
X171111Y70000D01*
Y39524D01*
X170216Y38630D01*
X169224Y36910D01*
X168710Y34993D01*
Y33007D01*
X169224Y31090D01*
X170216Y29370D01*
X171087Y28500D01*
X170216Y27630D01*
X169224Y25910D01*
X168710Y23993D01*
Y22007D01*
X169224Y20090D01*
X170216Y18370D01*
X171620Y16967D01*
X173340Y15974D01*
X175257Y15460D01*
X177243D01*
X179160Y15974D01*
X180880Y16967D01*
X182283Y18370D01*
X183276Y20090D01*
X183790Y22007D01*
Y23993D01*
X183276Y25910D01*
X182283Y27630D01*
X181413Y28500D01*
X182283Y29370D01*
X183276Y31090D01*
X183790Y33007D01*
Y34993D01*
X183276Y36910D01*
X182283Y38630D01*
X181389Y39524D01*
Y67871D01*
X187379Y73861D01*
X257871D01*
X262460Y69273D01*
Y68007D01*
X262974Y66090D01*
X263967Y64370D01*
X265370Y62966D01*
X267090Y61974D01*
X269007Y61460D01*
X270993D01*
X272910Y61974D01*
X274630Y62966D01*
X276033Y64370D01*
X277026Y66090D01*
X277540Y68007D01*
Y69993D01*
X277026Y71910D01*
X276033Y73630D01*
X274630Y75033D01*
X272910Y76026D01*
X270993Y76540D01*
X269727D01*
X263634Y82634D01*
X261966Y83748D01*
X260000Y84139D01*
D02*
G37*
G36*
X501355Y30290D02*
X501270D01*
Y21270D01*
X510290D01*
Y21355D01*
X509589Y23972D01*
X508234Y26318D01*
X506318Y28234D01*
X503972Y29589D01*
X501355Y30290D01*
D02*
G37*
G36*
X498730D02*
X498645D01*
X496028Y29589D01*
X493682Y28234D01*
X491766Y26318D01*
X490411Y23972D01*
X489710Y21355D01*
Y21270D01*
X498730D01*
Y30290D01*
D02*
G37*
G36*
X210743Y61040D02*
X208757D01*
X206840Y60526D01*
X205120Y59533D01*
X203717Y58129D01*
X202724Y56410D01*
X202210Y54492D01*
Y52507D01*
X202724Y50589D01*
X203717Y48870D01*
X204611Y47975D01*
Y37250D01*
X205002Y35284D01*
X206116Y33616D01*
X218366Y21366D01*
X220033Y20252D01*
X222000Y19861D01*
X240476D01*
X241370Y18966D01*
X243090Y17974D01*
X245007Y17460D01*
X246993D01*
X248910Y17974D01*
X250630Y18966D01*
X252034Y20370D01*
X253026Y22090D01*
X253540Y24007D01*
Y25993D01*
X253026Y27910D01*
X252034Y29630D01*
X250630Y31033D01*
X248910Y32026D01*
X246993Y32540D01*
X245007D01*
X243090Y32026D01*
X241370Y31033D01*
X240476Y30139D01*
X224128D01*
X214889Y39378D01*
Y47975D01*
X215784Y48870D01*
X216776Y50589D01*
X217290Y52507D01*
Y54492D01*
X216776Y56410D01*
X215784Y58129D01*
X214380Y59533D01*
X212660Y60526D01*
X210743Y61040D01*
D02*
G37*
G36*
X510290Y18730D02*
X501270D01*
Y9710D01*
X501355D01*
X503972Y10411D01*
X506318Y11766D01*
X508234Y13682D01*
X509589Y16028D01*
X510290Y18645D01*
Y18730D01*
D02*
G37*
G36*
X498730D02*
X489710D01*
Y18645D01*
X490411Y16028D01*
X491766Y13682D01*
X493682Y11766D01*
X496028Y10411D01*
X498645Y9710D01*
X498730D01*
Y18730D01*
D02*
G37*
G36*
X127915Y28657D02*
X116485D01*
X114751Y28312D01*
X113280Y27330D01*
X112298Y25859D01*
X111953Y24125D01*
Y12695D01*
X112298Y10961D01*
X113280Y9490D01*
X114751Y8508D01*
X116485Y8163D01*
X127915D01*
X129649Y8508D01*
X131120Y9490D01*
X132102Y10961D01*
X132447Y12695D01*
Y24125D01*
X132102Y25859D01*
X131120Y27330D01*
X129649Y28312D01*
X127915Y28657D01*
D02*
G37*
G36*
X375538Y3160D02*
X375470D01*
Y-5730D01*
X384360D01*
Y-5662D01*
X383668Y-3078D01*
X382330Y-762D01*
X380438Y1130D01*
X378122Y2468D01*
X375538Y3160D01*
D02*
G37*
G36*
X372930D02*
X372862D01*
X370278Y2468D01*
X367962Y1130D01*
X366070Y-762D01*
X364732Y-3078D01*
X364040Y-5662D01*
Y-5730D01*
X372930D01*
Y3160D01*
D02*
G37*
G36*
X451738D02*
X449062D01*
X446478Y2468D01*
X444162Y1130D01*
X442270Y-762D01*
X440932Y-3078D01*
X440240Y-5662D01*
Y-8338D01*
X440932Y-10922D01*
X442270Y-13238D01*
X444162Y-15130D01*
X446478Y-16468D01*
X449062Y-17160D01*
X451738D01*
X454322Y-16468D01*
X456638Y-15130D01*
X458530Y-13238D01*
X459868Y-10922D01*
X460560Y-8338D01*
Y-5662D01*
X459868Y-3078D01*
X458530Y-762D01*
X456638Y1130D01*
X454322Y2468D01*
X451738Y3160D01*
D02*
G37*
G36*
X400938D02*
X398262D01*
X395678Y2468D01*
X393362Y1130D01*
X391470Y-762D01*
X390132Y-3078D01*
X389440Y-5662D01*
Y-8338D01*
X390132Y-10922D01*
X391470Y-13238D01*
X393362Y-15130D01*
X395678Y-16468D01*
X398262Y-17160D01*
X400938D01*
X403522Y-16468D01*
X405838Y-15130D01*
X407730Y-13238D01*
X409068Y-10922D01*
X409760Y-8338D01*
Y-5662D01*
X409068Y-3078D01*
X407730Y-762D01*
X405838Y1130D01*
X403522Y2468D01*
X400938Y3160D01*
D02*
G37*
G36*
X384360Y-8270D02*
X375470D01*
Y-17160D01*
X375538D01*
X378122Y-16468D01*
X380438Y-15130D01*
X382330Y-13238D01*
X383668Y-10922D01*
X384360Y-8338D01*
Y-8270D01*
D02*
G37*
G36*
X372930D02*
X364040D01*
Y-8338D01*
X364732Y-10922D01*
X366070Y-13238D01*
X367962Y-15130D01*
X370278Y-16468D01*
X372862Y-17160D01*
X372930D01*
Y-8270D01*
D02*
G37*
G36*
X127895Y-8073D02*
X116465D01*
X114731Y-8418D01*
X113260Y-9400D01*
X112278Y-10871D01*
X111933Y-12605D01*
Y-24035D01*
X112278Y-25769D01*
X113260Y-27240D01*
X114731Y-28222D01*
X116465Y-28567D01*
X127895D01*
X129629Y-28222D01*
X131100Y-27240D01*
X132082Y-25769D01*
X132427Y-24035D01*
Y-12605D01*
X132082Y-10871D01*
X131100Y-9400D01*
X129629Y-8418D01*
X127895Y-8073D01*
D02*
G37*
%LPD*%
G36*
X428921Y281376D02*
Y268854D01*
X427651Y268514D01*
X427094Y269480D01*
X425690Y270884D01*
X423970Y271876D01*
X422053Y272390D01*
X420067D01*
X418150Y271876D01*
X416430Y270884D01*
X415536Y269989D01*
X411843D01*
X378736Y303096D01*
X378743Y303257D01*
X379140Y304366D01*
X405932D01*
X428921Y281376D01*
D02*
G37*
D77*
X413000Y201825D02*
Y243000D01*
X365700Y290300D02*
X413000Y243000D01*
X217060Y290300D02*
X365700D01*
X462000Y192200D02*
X484300Y214500D01*
X462000Y178200D02*
Y192200D01*
X428800Y145000D02*
X462000Y178200D01*
X215000Y217000D02*
X246000Y186000D01*
X50555Y217000D02*
X215000D01*
X27060Y193505D02*
X50555Y217000D01*
X678888Y130500D02*
X704200D01*
X662690Y146699D02*
X678888Y130500D01*
X655200Y146699D02*
X662690D01*
X358000Y151000D02*
X367000Y142000D01*
Y118663D02*
Y142000D01*
Y118663D02*
X383000Y102663D01*
X389960Y147405D02*
X397020Y154465D01*
X389960Y109040D02*
X397000Y102000D01*
X389960Y109040D02*
Y147405D01*
X511000Y176000D02*
Y184200D01*
X531300Y204500D01*
X397000Y73000D02*
X440000Y30000D01*
Y8000D02*
Y30000D01*
X425000Y-7000D02*
X440000Y8000D01*
X387060Y252505D02*
X397020Y242545D01*
Y154465D02*
Y242545D01*
X409715Y264850D02*
X421060D01*
X375065Y299500D02*
X409715Y264850D01*
X227860Y299500D02*
X375065D01*
X217060Y310300D02*
X227860Y299500D01*
X237855Y309505D02*
X408060D01*
X217060Y330300D02*
X237855Y309505D01*
X247855Y319505D02*
X412060D01*
X217060Y350300D02*
X247855Y319505D01*
X229060Y354505D02*
Y363505D01*
Y354505D02*
X254060Y329505D01*
X502300Y374500D02*
X528900Y401100D01*
X531300D01*
X254060Y329505D02*
X420060D01*
X453060Y296505D01*
Y183842D02*
Y296505D01*
X424928Y155710D02*
X453060Y183842D01*
X414265Y155710D02*
X424928D01*
X400000Y141445D02*
X414265Y155710D01*
X400000Y124000D02*
Y141445D01*
X407060Y163505D02*
X421550D01*
X421805Y163250D01*
X443060Y184505D01*
Y288505D01*
X412060Y182505D02*
X426505D01*
X434060Y190060D01*
X412060Y319505D02*
X443060Y288505D01*
X408060Y309505D02*
X434060Y283505D01*
Y190060D02*
Y283505D01*
X259495Y250505D02*
X296000Y214000D01*
X117495Y250505D02*
X259495D01*
X97700Y270300D02*
X117495Y250505D01*
X562050Y429750D02*
Y441750D01*
X547500Y456300D02*
X562050Y441750D01*
X120500Y456300D02*
X547500D01*
X73700Y476900D02*
X104100Y446500D01*
X550300Y424500D02*
Y433500D01*
X537300Y446500D02*
X550300Y433500D01*
X104100Y446500D02*
X537300D01*
X484300Y214500D02*
X494300Y224500D01*
X502300Y217500D02*
Y374500D01*
X473300Y188500D02*
X502300Y217500D01*
X510840Y215377D02*
Y355240D01*
X481201Y185737D02*
X510840Y215377D01*
X518510Y207710D02*
Y337510D01*
X491300Y180500D02*
X518510Y207710D01*
X531300Y204500D02*
Y324900D01*
X563300Y411500D02*
X586300D01*
X550300Y424500D02*
X563300Y411500D01*
X481201Y171599D02*
Y185737D01*
X473300Y177500D02*
Y188500D01*
X415300Y119500D02*
X473300Y177500D01*
X436300Y126699D02*
X481201Y171599D01*
X494300Y224500D02*
Y389500D01*
X436300Y84500D02*
Y126699D01*
X415300Y70000D02*
Y119500D01*
X510840Y355240D02*
X531300Y375700D01*
X397000Y73000D02*
Y102000D01*
X418000Y145000D02*
X428800D01*
X518510Y337510D02*
X531300Y350300D01*
X494300Y389500D02*
X531300Y426500D01*
X99500Y477300D02*
X120500Y456300D01*
X73700Y476900D02*
X74100Y477300D01*
X213565Y187000D02*
X226000D01*
X197060Y203505D02*
X213565Y187000D01*
X54060Y203505D02*
X197060D01*
X257000Y171939D02*
Y196565D01*
X227060Y226505D02*
X257000Y196565D01*
X105495Y226505D02*
X227060D01*
X111495Y239505D02*
X233495D01*
X81700Y269300D02*
X111495Y239505D01*
X67700Y264300D02*
X105495Y226505D01*
X40060Y189505D02*
X54060Y203505D01*
X36060Y163505D02*
X77060D01*
X26060Y153505D02*
X36060Y163505D01*
X26060Y100505D02*
Y153505D01*
X44060Y82505D02*
X78250D01*
X26060Y100505D02*
X44060Y82505D01*
X77060Y163505D02*
X81560Y159005D01*
Y152705D02*
Y159005D01*
X67700Y264300D02*
Y290300D01*
X81700Y269300D02*
Y310300D01*
X284700Y189000D02*
X297000D01*
X284350Y188650D02*
X284700Y189000D01*
X233495Y239505D02*
X284350Y188650D01*
X185250Y79000D02*
X260000D01*
X270000Y69000D01*
X248061Y163000D02*
X257000Y171939D01*
X176250Y23000D02*
Y70000D01*
X185250Y79000D01*
X209750Y37250D02*
X222000Y25000D01*
X209750Y37250D02*
Y53500D01*
X222000Y25000D02*
X246000D01*
X383000Y50000D02*
Y102663D01*
X348800Y15800D02*
X383000Y50000D01*
X348800Y-7000D02*
Y15800D01*
X368000Y60000D02*
Y107000D01*
X323400Y15400D02*
X368000Y60000D01*
X323400Y-7000D02*
Y15400D01*
X353500Y69500D02*
Y101500D01*
X298000Y14000D02*
X353500Y69500D01*
X298000Y-7000D02*
Y14000D01*
X346000Y129000D02*
X368000Y107000D01*
X332000Y123000D02*
X353500Y101500D01*
X316000Y124000D02*
X341000Y99000D01*
Y81000D02*
Y99000D01*
X332000Y123000D02*
Y156000D01*
X316000Y124000D02*
Y155000D01*
X307750Y163250D02*
X316000Y155000D01*
D79*
X286000Y116000D02*
X302000Y100000D01*
Y69000D02*
Y100000D01*
X703060Y461500D02*
X755573D01*
X655573D02*
X703060D01*
X702060Y462500D02*
X703060Y461500D01*
X702060Y462500D02*
Y471502D01*
X190060Y278505D02*
Y377505D01*
X200560Y388005D02*
X227060D01*
Y395505D01*
Y380505D02*
Y388005D01*
X190060Y377505D02*
X200560Y388005D01*
X190060Y278505D02*
X203565Y265000D01*
X294000D01*
X601300Y402500D02*
Y424500D01*
X586300Y387500D02*
X601300Y402500D01*
X557300Y387500D02*
X586300D01*
X638300Y461500D02*
X655573D01*
X601300Y424500D02*
X638300Y461500D01*
X84700Y62300D02*
X127200Y104800D01*
Y115300D01*
X6430Y62300D02*
X84700D01*
X-21300Y90030D02*
X6430Y62300D01*
X-21300Y90030D02*
Y145300D01*
X-14300Y152300D01*
Y213300D01*
X309000Y265000D02*
X319300Y254700D01*
Y235300D02*
Y254700D01*
X313000Y229000D02*
X319300Y235300D01*
X99115Y176965D02*
X107000Y169080D01*
X32160Y176965D02*
X99115D01*
X0Y144805D02*
X32160Y176965D01*
X0Y110000D02*
Y144805D01*
X107000Y169080D02*
X120000D01*
X313000Y187266D02*
Y229000D01*
X286000Y160266D02*
X313000Y187266D01*
X294193Y264807D02*
X306192D01*
X294000Y265000D02*
X294193Y264807D01*
X286000Y116000D02*
Y160266D01*
D99*
X500000Y20000D02*
D03*
X531300Y401100D02*
D03*
Y426500D02*
D03*
X480500Y375700D02*
D03*
Y350300D02*
D03*
Y426500D02*
D03*
Y401100D02*
D03*
X251900D02*
D03*
Y426500D02*
D03*
Y350300D02*
D03*
Y375700D02*
D03*
X455100Y401100D02*
D03*
Y426500D02*
D03*
Y350300D02*
D03*
Y375700D02*
D03*
X429700Y401100D02*
D03*
Y426500D02*
D03*
Y350300D02*
D03*
Y375700D02*
D03*
X404300Y401100D02*
D03*
Y426500D02*
D03*
Y350300D02*
D03*
Y375700D02*
D03*
X531300D02*
D03*
Y324900D02*
D03*
Y350300D02*
D03*
X302700Y375700D02*
D03*
Y350300D02*
D03*
Y426500D02*
D03*
Y401100D02*
D03*
X480500Y324900D02*
D03*
X455100D02*
D03*
X328100Y375700D02*
D03*
X353500D02*
D03*
X328100Y350300D02*
D03*
X353500D02*
D03*
X328100Y426500D02*
D03*
X353500D02*
D03*
X328100Y401100D02*
D03*
X353500D02*
D03*
X378900Y375700D02*
D03*
Y350300D02*
D03*
Y426500D02*
D03*
Y401100D02*
D03*
D100*
X353500Y477300D02*
D03*
X378900D02*
D03*
X404300D02*
D03*
X429700D02*
D03*
X455100D02*
D03*
X480500D02*
D03*
X505900D02*
D03*
X531300D02*
D03*
X74100D02*
D03*
X328100D02*
D03*
X302700D02*
D03*
X277300D02*
D03*
X251900D02*
D03*
X226500D02*
D03*
X201100D02*
D03*
X175700D02*
D03*
X150300D02*
D03*
X124900D02*
D03*
X99500D02*
D03*
Y502700D02*
D03*
X124900D02*
D03*
X150300D02*
D03*
X175700D02*
D03*
X201100D02*
D03*
X226500D02*
D03*
X251900D02*
D03*
X277300D02*
D03*
X302700D02*
D03*
X328100D02*
D03*
X353500D02*
D03*
X378900D02*
D03*
X404300D02*
D03*
X429700D02*
D03*
X455100D02*
D03*
X480500D02*
D03*
X505900D02*
D03*
X531300D02*
D03*
X48700D02*
D03*
X74100D02*
D03*
D101*
X48700Y477300D02*
D03*
D102*
X122200Y18410D02*
D03*
X31820Y-18320D02*
D03*
X122180D02*
D03*
X31800Y18410D02*
D03*
D103*
X348800Y-7000D02*
D03*
X374200D02*
D03*
X323400D02*
D03*
X450400D02*
D03*
X425000D02*
D03*
X399600D02*
D03*
D104*
X298000D02*
D03*
D105*
X755573Y501500D02*
D03*
X655573D02*
D03*
D106*
X755573Y481500D02*
D03*
Y461500D02*
D03*
X755827Y441500D02*
D03*
X655573Y481500D02*
D03*
Y461500D02*
D03*
X655827Y441500D02*
D03*
D107*
X0Y90000D02*
D03*
D108*
Y110000D02*
D03*
D109*
X558892Y130497D02*
D03*
X578892D02*
D03*
X658892D02*
D03*
X638892D02*
D03*
X618892D02*
D03*
X658892Y180497D02*
D03*
X640000Y180000D02*
D03*
X598892Y130497D02*
D03*
X540000Y120000D02*
D03*
X94920Y150825D02*
D03*
X100000Y190000D02*
D03*
X80000D02*
D03*
X60000D02*
D03*
X379000Y123000D02*
D03*
X620000Y500000D02*
D03*
X520000Y-20000D02*
D03*
X540000D02*
D03*
X480000D02*
D03*
X500000D02*
D03*
X540000Y0D02*
D03*
X520000D02*
D03*
X480000D02*
D03*
X210000Y410000D02*
D03*
Y430000D02*
D03*
X190000D02*
D03*
X170000D02*
D03*
X150000D02*
D03*
X149584Y269433D02*
D03*
X170000Y270000D02*
D03*
Y290000D02*
D03*
Y310000D02*
D03*
Y330000D02*
D03*
Y350000D02*
D03*
Y370000D02*
D03*
Y390000D02*
D03*
Y410000D02*
D03*
X150000D02*
D03*
X130000Y430000D02*
D03*
X110625Y431087D02*
D03*
X90000Y430000D02*
D03*
X70000D02*
D03*
X160000Y140000D02*
D03*
Y160000D02*
D03*
X250000Y140000D02*
D03*
X300000Y150000D02*
D03*
X280000Y100000D02*
D03*
X380000Y180000D02*
D03*
Y200000D02*
D03*
Y220000D02*
D03*
Y240000D02*
D03*
X360000D02*
D03*
X340000D02*
D03*
X300000D02*
D03*
X480000D02*
D03*
Y280000D02*
D03*
X511000Y176000D02*
D03*
X500000Y140000D02*
D03*
X480000D02*
D03*
X500000Y160000D02*
D03*
X540000D02*
D03*
Y180000D02*
D03*
X658892Y160497D02*
D03*
X638892D02*
D03*
X618892D02*
D03*
Y180497D02*
D03*
X598892Y160497D02*
D03*
X600000Y180000D02*
D03*
Y200000D02*
D03*
X520000Y40000D02*
D03*
X420000Y20000D02*
D03*
X560000Y80000D02*
D03*
Y40000D02*
D03*
Y60000D02*
D03*
X540000D02*
D03*
Y40000D02*
D03*
Y20000D02*
D03*
X520000D02*
D03*
X480000D02*
D03*
X460000D02*
D03*
X120000Y40000D02*
D03*
X140000D02*
D03*
Y20000D02*
D03*
Y0D02*
D03*
Y-20000D02*
D03*
X100000Y0D02*
D03*
Y-20000D02*
D03*
X80000D02*
D03*
Y0D02*
D03*
X60000Y-20000D02*
D03*
Y0D02*
D03*
X20000Y40000D02*
D03*
X0D02*
D03*
X-20000D02*
D03*
Y60000D02*
D03*
X233000Y90000D02*
D03*
Y101000D02*
D03*
X240000Y280000D02*
D03*
X260000D02*
D03*
X780000Y440000D02*
D03*
Y460000D02*
D03*
Y480000D02*
D03*
Y500000D02*
D03*
X800000D02*
D03*
Y480000D02*
D03*
Y460000D02*
D03*
Y440000D02*
D03*
X620000Y420000D02*
D03*
X640000D02*
D03*
X660000D02*
D03*
X680000D02*
D03*
X700000D02*
D03*
X720000D02*
D03*
X740000D02*
D03*
X760000D02*
D03*
X780000D02*
D03*
X800000D02*
D03*
Y400000D02*
D03*
X780000D02*
D03*
X760000D02*
D03*
X740000D02*
D03*
X720000D02*
D03*
X700000D02*
D03*
X680000D02*
D03*
X660000D02*
D03*
X640000D02*
D03*
X620000D02*
D03*
Y380000D02*
D03*
X640000D02*
D03*
X660000D02*
D03*
X680000D02*
D03*
X700000D02*
D03*
X720000D02*
D03*
X740000D02*
D03*
X760000D02*
D03*
X780000D02*
D03*
X800000D02*
D03*
Y360000D02*
D03*
X780000D02*
D03*
X760000D02*
D03*
X740000D02*
D03*
X720000D02*
D03*
X700000D02*
D03*
X680000D02*
D03*
X660000D02*
D03*
X640000D02*
D03*
X620000D02*
D03*
Y340000D02*
D03*
X640000D02*
D03*
X660000D02*
D03*
X680000D02*
D03*
X700000D02*
D03*
X720000D02*
D03*
X740000D02*
D03*
X760000D02*
D03*
X780000D02*
D03*
X800000D02*
D03*
Y320000D02*
D03*
X780000D02*
D03*
X760000D02*
D03*
X740000D02*
D03*
X720000D02*
D03*
X700000D02*
D03*
X680000D02*
D03*
X660000D02*
D03*
X640000D02*
D03*
X620000D02*
D03*
X640000Y280000D02*
D03*
X620000D02*
D03*
X600000D02*
D03*
Y300000D02*
D03*
X620000D02*
D03*
X640000D02*
D03*
X660000D02*
D03*
X680000D02*
D03*
X700000D02*
D03*
X720000D02*
D03*
X740000D02*
D03*
X760000D02*
D03*
X780000D02*
D03*
X800000D02*
D03*
X700000Y100000D02*
D03*
X720000D02*
D03*
X740000D02*
D03*
X760000D02*
D03*
X780000D02*
D03*
X800000D02*
D03*
Y80000D02*
D03*
X780000D02*
D03*
X760000D02*
D03*
X740000D02*
D03*
X720000D02*
D03*
X700000D02*
D03*
Y60000D02*
D03*
X720000D02*
D03*
X740000D02*
D03*
X759967Y59749D02*
D03*
X780000Y60000D02*
D03*
X800000D02*
D03*
Y40000D02*
D03*
X780000D02*
D03*
X760000D02*
D03*
X740000D02*
D03*
X720000D02*
D03*
X700000D02*
D03*
Y20000D02*
D03*
X720000D02*
D03*
X740000D02*
D03*
X760000D02*
D03*
X780000D02*
D03*
X800000D02*
D03*
Y0D02*
D03*
X780000D02*
D03*
X760000D02*
D03*
X740000D02*
D03*
X720000D02*
D03*
X700000D02*
D03*
X780000Y-20000D02*
D03*
X760000D02*
D03*
X740000D02*
D03*
X720000D02*
D03*
X700000D02*
D03*
X680000D02*
D03*
X660000D02*
D03*
X640000D02*
D03*
X620000D02*
D03*
X680000Y100000D02*
D03*
Y80000D02*
D03*
Y60000D02*
D03*
Y40000D02*
D03*
Y20000D02*
D03*
Y0D02*
D03*
X660000D02*
D03*
Y20000D02*
D03*
Y40000D02*
D03*
Y60000D02*
D03*
Y80000D02*
D03*
Y100000D02*
D03*
X640000D02*
D03*
Y80000D02*
D03*
Y60000D02*
D03*
Y40000D02*
D03*
Y20000D02*
D03*
Y0D02*
D03*
X620000D02*
D03*
Y20000D02*
D03*
Y40000D02*
D03*
Y100000D02*
D03*
Y80000D02*
D03*
Y60000D02*
D03*
X600000Y40000D02*
D03*
Y60000D02*
D03*
Y80000D02*
D03*
Y100000D02*
D03*
X580000Y40000D02*
D03*
Y60000D02*
D03*
Y80000D02*
D03*
Y100000D02*
D03*
X80000Y230000D02*
D03*
X60000D02*
D03*
Y250000D02*
D03*
X224060Y278505D02*
D03*
X218500Y168250D02*
D03*
X387060Y252505D02*
D03*
X421060Y264850D02*
D03*
X217060Y330300D02*
D03*
X229060Y363505D02*
D03*
X217060Y350300D02*
D03*
Y290300D02*
D03*
X407060Y163505D02*
D03*
X412060Y182505D02*
D03*
X702060Y471502D02*
D03*
X217060Y310300D02*
D03*
X227060Y395505D02*
D03*
Y380505D02*
D03*
X557300Y387500D02*
D03*
X491300Y180500D02*
D03*
X301653Y277348D02*
D03*
X484300Y214500D02*
D03*
X436300Y84500D02*
D03*
X415300Y70000D02*
D03*
X127200Y115300D02*
D03*
X-14300Y213300D02*
D03*
X38700Y458300D02*
D03*
X60700D02*
D03*
X562050Y429750D02*
D03*
X586300Y411500D02*
D03*
X655200Y146699D02*
D03*
X40060Y189505D02*
D03*
X27060Y193505D02*
D03*
X78250Y82505D02*
D03*
X81560Y152705D02*
D03*
X49200Y150825D02*
D03*
X107000Y169080D02*
D03*
X72125Y130440D02*
D03*
X704200Y130500D02*
D03*
X40000Y230000D02*
D03*
Y250000D02*
D03*
X10000Y350000D02*
D03*
Y370000D02*
D03*
Y390000D02*
D03*
X70000Y410000D02*
D03*
Y330000D02*
D03*
Y350000D02*
D03*
Y370000D02*
D03*
X90000Y330000D02*
D03*
Y350000D02*
D03*
Y370000D02*
D03*
Y390000D02*
D03*
Y410000D02*
D03*
X110000D02*
D03*
X130000D02*
D03*
X150000Y390000D02*
D03*
X130000D02*
D03*
X110000D02*
D03*
Y370000D02*
D03*
X130000D02*
D03*
X150000D02*
D03*
Y350000D02*
D03*
X130000D02*
D03*
X110000D02*
D03*
Y290000D02*
D03*
Y310000D02*
D03*
Y330000D02*
D03*
X150000D02*
D03*
X130000D02*
D03*
Y310000D02*
D03*
X150000D02*
D03*
Y290000D02*
D03*
X130000D02*
D03*
Y270000D02*
D03*
X340000D02*
D03*
X360000D02*
D03*
X350000Y280000D02*
D03*
X260000Y10000D02*
D03*
Y-10000D02*
D03*
X240000D02*
D03*
Y10000D02*
D03*
X220000D02*
D03*
X219960Y-10040D02*
D03*
X176250Y34000D02*
D03*
Y23000D02*
D03*
X295750Y69000D02*
D03*
X309000Y265000D02*
D03*
X294000D02*
D03*
X198000Y150000D02*
D03*
X67700Y290300D02*
D03*
X81700Y310300D02*
D03*
X97700Y270300D02*
D03*
X226000Y187000D02*
D03*
X421450Y277550D02*
D03*
X297000Y189000D02*
D03*
X296000Y214000D02*
D03*
X307750Y69000D02*
D03*
X32000Y76490D02*
D03*
X468860Y104000D02*
D03*
X302850Y126000D02*
D03*
X569300Y159500D02*
D03*
X246000Y186000D02*
D03*
X248061Y163000D02*
D03*
X120000Y169080D02*
D03*
X48250Y48500D02*
D03*
X270000Y69000D02*
D03*
X209750Y53500D02*
D03*
X246000Y25000D02*
D03*
X418000Y145000D02*
D03*
X400000Y124000D02*
D03*
X0Y200000D02*
D03*
X15000Y199500D02*
D03*
X341000Y81000D02*
D03*
X307750Y163250D02*
D03*
X656200Y227500D02*
D03*
X413000Y201825D02*
D03*
X358000Y151000D02*
D03*
X332000Y156000D02*
D03*
X722200Y147500D02*
D03*
X706200D02*
D03*
X732200Y273500D02*
D03*
X716200D02*
D03*
X786200D02*
D03*
X746200D02*
D03*
X762200D02*
D03*
X778450Y114500D02*
D03*
X794450Y130500D02*
D03*
X803200Y273500D02*
D03*
X68450Y390300D02*
D03*
X346000Y129000D02*
D03*
D110*
X341800Y184850D02*
D03*
X358300Y201350D02*
D03*
Y184850D02*
D03*
X341800Y201350D02*
D03*
X366500Y209650D02*
D03*
X350000D02*
D03*
X333500D02*
D03*
X366500Y193050D02*
D03*
X350000D02*
D03*
X333500D02*
D03*
X358300Y217950D02*
D03*
X341800D02*
D03*
D111*
X302500Y69000D02*
D03*
M02*
