G04*
G04 #@! TF.GenerationSoftware,Altium Limited,CircuitMaker,2.2.1 (2.2.1.6)*
G04*
G04 Layer_Color=20142*
%FSLAX44Y44*%
%MOMM*%
G71*
G04*
G04 #@! TF.SameCoordinates,9F1E3F87-7A7F-4E4B-B1B4-4F695BE8A883*
G04*
G04*
G04 #@! TF.FilePolarity,Negative*
G04*
G01*
G75*
%ADD14C,0.2000*%
%ADD41R,0.9032X1.0532*%
%ADD42R,1.7032X1.2032*%
%ADD43R,2.2032X1.7032*%
%ADD44R,1.0532X0.9032*%
%ADD45R,1.0160X1.4732*%
%ADD46R,0.9144X1.4732*%
%ADD47R,0.9652X1.4732*%
%ADD48R,1.1032X1.0032*%
%ADD49R,1.0032X1.1032*%
%ADD50R,1.0160X1.0922*%
%ADD51R,1.5032X2.0032*%
%ADD52R,0.8032X1.1032*%
%ADD53R,0.8032X1.3032*%
%ADD54R,1.3032X0.7531*%
%ADD55R,1.1032X4.1032*%
%ADD56R,1.8532X2.0032*%
%ADD57R,1.7032X0.9032*%
%ADD58R,0.9032X1.7032*%
%ADD59R,1.2032X1.7032*%
%ADD60R,1.0922X1.0160*%
%ADD61R,2.2032X1.1032*%
%ADD62R,1.1032X2.2032*%
%ADD63R,1.5332X1.5332*%
%ADD64R,2.6032X1.6032*%
%ADD65C,1.7532*%
%ADD66C,1.8542*%
%ADD67R,1.8542X1.8542*%
G04:AMPARAMS|DCode=68|XSize=1.7272mm|YSize=1.7272mm|CornerRadius=0.2921mm|HoleSize=0mm|Usage=FLASHONLY|Rotation=0.000|XOffset=0mm|YOffset=0mm|HoleType=Round|Shape=RoundedRectangle|*
%AMROUNDEDRECTD68*
21,1,1.7272,1.1430,0,0,0.0*
21,1,1.1430,1.7272,0,0,0.0*
1,1,0.5842,0.5715,-0.5715*
1,1,0.5842,-0.5715,-0.5715*
1,1,0.5842,-0.5715,0.5715*
1,1,0.5842,0.5715,0.5715*
%
%ADD68ROUNDEDRECTD68*%
%ADD69C,1.7272*%
%ADD70R,1.7272X1.7272*%
%ADD71C,5.6000*%
%ADD72R,1.4032X1.4032*%
%ADD73C,1.4032*%
%ADD74C,1.7032*%
G04:AMPARAMS|DCode=75|XSize=1.7032mm|YSize=1.7032mm|CornerRadius=0.2891mm|HoleSize=0mm|Usage=FLASHONLY|Rotation=90.000|XOffset=0mm|YOffset=0mm|HoleType=Round|Shape=RoundedRectangle|*
%AMROUNDEDRECTD75*
21,1,1.7032,1.1250,0,0,90.0*
21,1,1.1250,1.7032,0,0,90.0*
1,1,0.5782,0.5625,0.5625*
1,1,0.5782,0.5625,-0.5625*
1,1,0.5782,-0.5625,-0.5625*
1,1,0.5782,-0.5625,0.5625*
%
%ADD75ROUNDEDRECTD75*%
%ADD76C,0.8832*%
G36*
X263750Y17000D02*
X256750Y24000D01*
Y50000D01*
X263750Y57000D01*
Y17000D01*
D02*
G37*
G36*
X296750Y57000D02*
X303750Y50000D01*
Y24000D01*
X296750Y17000D01*
Y57000D01*
D02*
G37*
D14*
X-5000Y525000D02*
G03*
X-35000Y495000I0J-30000D01*
G01*
X815000D02*
G03*
X785000Y525000I-30000J0D01*
G01*
Y-35000D02*
G03*
X815000Y-5000I0J30000D01*
G01*
X-35000D02*
G03*
X-5000Y-35000I30000J0D01*
G01*
X-35000Y-5000D02*
Y495000D01*
X815000Y-5000D02*
Y495000D01*
X-5000Y525000D02*
X785000D01*
X-5000Y-35000D02*
X785000D01*
D41*
X586050Y426500D02*
D03*
X598550D02*
D03*
X562050Y444500D02*
D03*
X574550D02*
D03*
X174000Y150000D02*
D03*
X186500D02*
D03*
X204250Y18000D02*
D03*
X191750D02*
D03*
X204250Y2000D02*
D03*
X191750D02*
D03*
X627950Y198500D02*
D03*
X640450D02*
D03*
X627950Y266500D02*
D03*
X640450D02*
D03*
X718950Y130500D02*
D03*
X731450D02*
D03*
X627950Y216500D02*
D03*
X640450D02*
D03*
X628250Y233800D02*
D03*
X640750D02*
D03*
X628250Y249800D02*
D03*
X640750D02*
D03*
X480120Y104000D02*
D03*
X492620D02*
D03*
D42*
X-14300Y230800D02*
D03*
Y259800D02*
D03*
X188000Y98500D02*
D03*
Y69500D02*
D03*
X158000D02*
D03*
Y98500D02*
D03*
X128000Y69500D02*
D03*
Y98500D02*
D03*
D43*
X142300Y227000D02*
D03*
X224300D02*
D03*
D44*
X243300Y264850D02*
D03*
Y252350D02*
D03*
X78250Y73000D02*
D03*
Y60500D02*
D03*
X230000Y168250D02*
D03*
Y155750D02*
D03*
X679200Y145500D02*
D03*
Y133000D02*
D03*
X32000Y100250D02*
D03*
Y87750D02*
D03*
X48250Y73000D02*
D03*
Y60500D02*
D03*
X98060Y130440D02*
D03*
Y117940D02*
D03*
X569300Y170760D02*
D03*
Y183260D02*
D03*
X48250Y100250D02*
D03*
Y87750D02*
D03*
X0Y162500D02*
D03*
Y150000D02*
D03*
Y188500D02*
D03*
Y176000D02*
D03*
X702060Y454005D02*
D03*
Y441505D02*
D03*
Y489000D02*
D03*
Y501500D02*
D03*
D45*
X104432Y22320D02*
D03*
X49568D02*
D03*
D46*
X92240D02*
D03*
X82080D02*
D03*
D47*
X71920D02*
D03*
X61760D02*
D03*
D48*
X224300Y264550D02*
D03*
Y252050D02*
D03*
X46000Y130250D02*
D03*
Y117750D02*
D03*
X15000Y175500D02*
D03*
Y188000D02*
D03*
D49*
X191750Y34000D02*
D03*
X204250D02*
D03*
X258250Y69000D02*
D03*
X245750D02*
D03*
X209750D02*
D03*
X222250D02*
D03*
X209750Y100000D02*
D03*
X222250D02*
D03*
X209750Y84000D02*
D03*
X222250D02*
D03*
D50*
X174000Y166380D02*
D03*
Y181620D02*
D03*
X63250Y59130D02*
D03*
Y74370D02*
D03*
X569300Y216500D02*
D03*
Y201260D02*
D03*
D51*
X380500Y30000D02*
D03*
X349500D02*
D03*
D52*
X81560Y117940D02*
D03*
X62560D02*
D03*
Y141940D02*
D03*
X72060D02*
D03*
X81560D02*
D03*
D53*
X137000Y144000D02*
D03*
X146500Y126000D02*
D03*
X127500D02*
D03*
D54*
X246000Y34500D02*
D03*
Y44000D02*
D03*
Y53500D02*
D03*
X222000D02*
D03*
Y34500D02*
D03*
D55*
X291250Y37000D02*
D03*
X269250D02*
D03*
D56*
X753950Y130500D02*
D03*
X778450D02*
D03*
D57*
X675200Y210500D02*
D03*
Y220500D02*
D03*
Y230500D02*
D03*
Y200500D02*
D03*
Y190500D02*
D03*
D58*
X789200Y166500D02*
D03*
X769200D02*
D03*
X779200D02*
D03*
X759200D02*
D03*
X749200D02*
D03*
X739200D02*
D03*
X729200D02*
D03*
X719200D02*
D03*
X709200D02*
D03*
X699200D02*
D03*
X689200D02*
D03*
X679200D02*
D03*
Y254500D02*
D03*
X689200D02*
D03*
X699200D02*
D03*
X709200D02*
D03*
X719200D02*
D03*
X729200D02*
D03*
X739200D02*
D03*
X749200D02*
D03*
X759200D02*
D03*
X779200D02*
D03*
X769200D02*
D03*
X789200D02*
D03*
D59*
X800700Y166500D02*
D03*
Y254500D02*
D03*
D60*
X477380Y125000D02*
D03*
X492620D02*
D03*
D61*
X445000Y277550D02*
D03*
Y264850D02*
D03*
Y252150D02*
D03*
Y239450D02*
D03*
Y226750D02*
D03*
Y214050D02*
D03*
Y201350D02*
D03*
Y188650D02*
D03*
Y175950D02*
D03*
Y163250D02*
D03*
Y150550D02*
D03*
Y137850D02*
D03*
Y125150D02*
D03*
Y112450D02*
D03*
X275000D02*
D03*
Y125150D02*
D03*
Y137850D02*
D03*
Y150550D02*
D03*
Y163250D02*
D03*
Y175950D02*
D03*
Y188650D02*
D03*
Y201350D02*
D03*
Y214050D02*
D03*
Y226750D02*
D03*
Y239450D02*
D03*
Y252150D02*
D03*
Y264850D02*
D03*
Y277550D02*
D03*
D62*
X417150Y102450D02*
D03*
X404450D02*
D03*
X391750D02*
D03*
X379050D02*
D03*
X366350D02*
D03*
X353650D02*
D03*
X340950D02*
D03*
X328250D02*
D03*
X315550D02*
D03*
X302850D02*
D03*
D63*
X350000Y201350D02*
D03*
Y217950D02*
D03*
Y184850D02*
D03*
X366500D02*
D03*
Y217950D02*
D03*
Y201350D02*
D03*
X333500Y184850D02*
D03*
Y217950D02*
D03*
Y201350D02*
D03*
D64*
X189900Y270300D02*
D03*
Y290300D02*
D03*
Y310300D02*
D03*
Y330300D02*
D03*
Y350300D02*
D03*
Y370300D02*
D03*
Y390300D02*
D03*
Y410300D02*
D03*
X44900Y270300D02*
D03*
Y290300D02*
D03*
Y310300D02*
D03*
Y330300D02*
D03*
Y350300D02*
D03*
Y370300D02*
D03*
Y390300D02*
D03*
D65*
X500000Y20000D02*
D03*
X531300Y401100D02*
D03*
Y426500D02*
D03*
X480500Y375700D02*
D03*
Y350300D02*
D03*
Y426500D02*
D03*
Y401100D02*
D03*
X251900D02*
D03*
Y426500D02*
D03*
Y350300D02*
D03*
Y375700D02*
D03*
X455100Y401100D02*
D03*
Y426500D02*
D03*
Y350300D02*
D03*
Y375700D02*
D03*
X429700Y401100D02*
D03*
Y426500D02*
D03*
Y350300D02*
D03*
Y375700D02*
D03*
X404300Y401100D02*
D03*
Y426500D02*
D03*
Y350300D02*
D03*
Y375700D02*
D03*
X531300D02*
D03*
Y324900D02*
D03*
Y350300D02*
D03*
X302700Y375700D02*
D03*
Y350300D02*
D03*
Y426500D02*
D03*
Y401100D02*
D03*
X480500Y324900D02*
D03*
X455100D02*
D03*
X328100Y375700D02*
D03*
X353500D02*
D03*
X328100Y350300D02*
D03*
X353500D02*
D03*
X328100Y426500D02*
D03*
X353500D02*
D03*
X328100Y401100D02*
D03*
X353500D02*
D03*
X378900Y375700D02*
D03*
Y350300D02*
D03*
Y426500D02*
D03*
Y401100D02*
D03*
D66*
X353500Y477300D02*
D03*
X378900D02*
D03*
X404300D02*
D03*
X429700D02*
D03*
X455100D02*
D03*
X480500D02*
D03*
X505900D02*
D03*
X531300D02*
D03*
X74100D02*
D03*
X328100D02*
D03*
X302700D02*
D03*
X277300D02*
D03*
X251900D02*
D03*
X226500D02*
D03*
X201100D02*
D03*
X175700D02*
D03*
X150300D02*
D03*
X124900D02*
D03*
X99500D02*
D03*
Y502700D02*
D03*
X124900D02*
D03*
X150300D02*
D03*
X175700D02*
D03*
X201100D02*
D03*
X226500D02*
D03*
X251900D02*
D03*
X277300D02*
D03*
X302700D02*
D03*
X328100D02*
D03*
X353500D02*
D03*
X378900D02*
D03*
X404300D02*
D03*
X429700D02*
D03*
X455100D02*
D03*
X480500D02*
D03*
X505900D02*
D03*
X531300D02*
D03*
X48700D02*
D03*
X74100D02*
D03*
D67*
X48700Y477300D02*
D03*
D68*
X122200Y18410D02*
D03*
X31820Y-18320D02*
D03*
X122180D02*
D03*
X31800Y18410D02*
D03*
D69*
X348800Y-7000D02*
D03*
X374200D02*
D03*
X323400D02*
D03*
X450400D02*
D03*
X425000D02*
D03*
X399600D02*
D03*
D70*
X298000D02*
D03*
D71*
X580000Y0D02*
D03*
Y490000D02*
D03*
X0Y490000D02*
D03*
Y0D02*
D03*
D72*
X755573Y501500D02*
D03*
X655573D02*
D03*
D73*
X755573Y481500D02*
D03*
Y461500D02*
D03*
X755827Y441500D02*
D03*
X655573Y481500D02*
D03*
Y461500D02*
D03*
X655827Y441500D02*
D03*
D74*
X0Y90000D02*
D03*
D75*
Y110000D02*
D03*
D76*
X341800Y184850D02*
D03*
X358300Y201350D02*
D03*
Y184850D02*
D03*
X341800Y201350D02*
D03*
X366500Y209650D02*
D03*
X350000D02*
D03*
X333500D02*
D03*
X366500Y193050D02*
D03*
X350000D02*
D03*
X333500D02*
D03*
X358300Y217950D02*
D03*
X341800D02*
D03*
M02*
