G04*
G04 #@! TF.GenerationSoftware,Altium Limited,CircuitMaker,2.2.1 (2.2.1.6)*
G04*
G04 Layer_Color=8150272*
%FSLAX44Y44*%
%MOMM*%
G71*
G04*
G04 #@! TF.SameCoordinates,9F1E3F87-7A7F-4E4B-B1B4-4F695BE8A883*
G04*
G04*
G04 #@! TF.FilePolarity,Negative*
G04*
G01*
G75*
%ADD11C,0.2540*%
%ADD14C,0.2000*%
%ADD65C,1.7532*%
%ADD66C,1.8542*%
%ADD67R,1.8542X1.8542*%
G04:AMPARAMS|DCode=68|XSize=1.7272mm|YSize=1.7272mm|CornerRadius=0.2921mm|HoleSize=0mm|Usage=FLASHONLY|Rotation=0.000|XOffset=0mm|YOffset=0mm|HoleType=Round|Shape=RoundedRectangle|*
%AMROUNDEDRECTD68*
21,1,1.7272,1.1430,0,0,0.0*
21,1,1.1430,1.7272,0,0,0.0*
1,1,0.5842,0.5715,-0.5715*
1,1,0.5842,-0.5715,-0.5715*
1,1,0.5842,-0.5715,0.5715*
1,1,0.5842,0.5715,0.5715*
%
%ADD68ROUNDEDRECTD68*%
%ADD69C,1.7272*%
%ADD70R,1.7272X1.7272*%
%ADD71C,5.6000*%
%ADD72R,1.4032X1.4032*%
%ADD73C,1.4032*%
%ADD74C,1.7032*%
G04:AMPARAMS|DCode=75|XSize=1.7032mm|YSize=1.7032mm|CornerRadius=0.2891mm|HoleSize=0mm|Usage=FLASHONLY|Rotation=90.000|XOffset=0mm|YOffset=0mm|HoleType=Round|Shape=RoundedRectangle|*
%AMROUNDEDRECTD75*
21,1,1.7032,1.1250,0,0,90.0*
21,1,1.1250,1.7032,0,0,90.0*
1,1,0.5782,0.5625,0.5625*
1,1,0.5782,0.5625,-0.5625*
1,1,0.5782,-0.5625,-0.5625*
1,1,0.5782,-0.5625,0.5625*
%
%ADD75ROUNDEDRECTD75*%
%ADD76C,0.8832*%
D11*
X739993Y249846D02*
Y234611D01*
Y242228D01*
X729836D01*
Y249846D01*
Y234611D01*
X714601D02*
X724758D01*
X714601Y244767D01*
Y247306D01*
X717140Y249846D01*
X722219D01*
X724758Y247306D01*
X699366D02*
X701905Y249846D01*
X706983D01*
X709523Y247306D01*
Y244767D01*
X706983Y242228D01*
X701905D01*
X699366Y239689D01*
Y237150D01*
X701905Y234611D01*
X706983D01*
X709523Y237150D01*
X694288Y242228D02*
X684131D01*
X679053Y249846D02*
Y234611D01*
X671435D01*
X668896Y237150D01*
Y247306D01*
X671435Y249846D01*
X679053D01*
X656200Y234611D02*
X661278D01*
X663818Y237150D01*
Y242228D01*
X661278Y244767D01*
X656200D01*
X653661Y242228D01*
Y239689D01*
X663818D01*
X648582Y244767D02*
X643504Y234611D01*
X638426Y244767D01*
X618112Y249846D02*
Y239689D01*
X613034Y234611D01*
X607956Y239689D01*
Y249846D01*
X602877Y234611D02*
X597799D01*
X600338D01*
Y249846D01*
X602877Y247306D01*
X590181Y234611D02*
Y237150D01*
X587642D01*
Y234611D01*
X590181D01*
X577486D02*
X572407D01*
X574946D01*
Y249846D01*
X577486Y247306D01*
X736184Y225468D02*
Y210233D01*
X728567D01*
X726027Y212772D01*
Y215311D01*
Y217850D01*
X728567Y220389D01*
X736184D01*
X720949D02*
Y212772D01*
X718410Y210233D01*
X710792D01*
Y207693D01*
X713332Y205154D01*
X715871D01*
X710792Y210233D02*
Y220389D01*
X690479Y225468D02*
Y210233D01*
Y217850D01*
X680322D01*
Y225468D01*
Y210233D01*
X672705D02*
X667626D01*
X665087Y212772D01*
Y217850D01*
X667626Y220389D01*
X672705D01*
X675244Y217850D01*
Y212772D01*
X672705Y210233D01*
X660009Y225468D02*
Y210233D01*
X652391D01*
X649852Y212772D01*
Y215311D01*
Y217850D01*
X652391Y220389D01*
X660009D01*
X644774Y225468D02*
Y210233D01*
X637156D01*
X634617Y212772D01*
Y215311D01*
Y217850D01*
X637156Y220389D01*
X644774D01*
X629539D02*
Y212772D01*
X626999Y210233D01*
X619382D01*
Y207693D01*
X621921Y205154D01*
X624460D01*
X619382Y210233D02*
Y220389D01*
X614304Y225468D02*
X609225D01*
X611764D01*
Y210233D01*
X614304D01*
X609225D01*
X599068D02*
X593990D01*
X591451Y212772D01*
Y217850D01*
X593990Y220389D01*
X599068D01*
X601608Y217850D01*
Y212772D01*
X599068Y210233D01*
X586373Y225468D02*
X576216D01*
X581294D01*
Y210233D01*
D14*
X-35000Y-5000D02*
G03*
X-5000Y-35000I30000J0D01*
G01*
X785000D02*
G03*
X815000Y-5000I0J30000D01*
G01*
Y495000D02*
G03*
X785000Y525000I-30000J0D01*
G01*
X-5000D02*
G03*
X-35000Y495000I0J-30000D01*
G01*
X-5000Y-35000D02*
X785000D01*
X-5000Y525000D02*
X785000D01*
X815000Y-5000D02*
Y495000D01*
X-35000Y-5000D02*
Y495000D01*
D65*
X500000Y20000D02*
D03*
X531300Y401100D02*
D03*
Y426500D02*
D03*
X480500Y375700D02*
D03*
Y350300D02*
D03*
Y426500D02*
D03*
Y401100D02*
D03*
X251900D02*
D03*
Y426500D02*
D03*
Y350300D02*
D03*
Y375700D02*
D03*
X455100Y401100D02*
D03*
Y426500D02*
D03*
Y350300D02*
D03*
Y375700D02*
D03*
X429700Y401100D02*
D03*
Y426500D02*
D03*
Y350300D02*
D03*
Y375700D02*
D03*
X404300Y401100D02*
D03*
Y426500D02*
D03*
Y350300D02*
D03*
Y375700D02*
D03*
X531300D02*
D03*
Y324900D02*
D03*
Y350300D02*
D03*
X302700Y375700D02*
D03*
Y350300D02*
D03*
Y426500D02*
D03*
Y401100D02*
D03*
X480500Y324900D02*
D03*
X455100D02*
D03*
X328100Y375700D02*
D03*
X353500D02*
D03*
X328100Y350300D02*
D03*
X353500D02*
D03*
X328100Y426500D02*
D03*
X353500D02*
D03*
X328100Y401100D02*
D03*
X353500D02*
D03*
X378900Y375700D02*
D03*
Y350300D02*
D03*
Y426500D02*
D03*
Y401100D02*
D03*
D66*
X353500Y477300D02*
D03*
X378900D02*
D03*
X404300D02*
D03*
X429700D02*
D03*
X455100D02*
D03*
X480500D02*
D03*
X505900D02*
D03*
X531300D02*
D03*
X74100D02*
D03*
X328100D02*
D03*
X302700D02*
D03*
X277300D02*
D03*
X251900D02*
D03*
X226500D02*
D03*
X201100D02*
D03*
X175700D02*
D03*
X150300D02*
D03*
X124900D02*
D03*
X99500D02*
D03*
Y502700D02*
D03*
X124900D02*
D03*
X150300D02*
D03*
X175700D02*
D03*
X201100D02*
D03*
X226500D02*
D03*
X251900D02*
D03*
X277300D02*
D03*
X302700D02*
D03*
X328100D02*
D03*
X353500D02*
D03*
X378900D02*
D03*
X404300D02*
D03*
X429700D02*
D03*
X455100D02*
D03*
X480500D02*
D03*
X505900D02*
D03*
X531300D02*
D03*
X48700D02*
D03*
X74100D02*
D03*
D67*
X48700Y477300D02*
D03*
D68*
X122200Y18410D02*
D03*
X31820Y-18320D02*
D03*
X122180D02*
D03*
X31800Y18410D02*
D03*
D69*
X348800Y-7000D02*
D03*
X374200D02*
D03*
X323400D02*
D03*
X450400D02*
D03*
X425000D02*
D03*
X399600D02*
D03*
D70*
X298000D02*
D03*
D71*
X580000Y0D02*
D03*
Y490000D02*
D03*
X0Y490000D02*
D03*
Y0D02*
D03*
D72*
X755573Y501500D02*
D03*
X655573D02*
D03*
D73*
X755573Y481500D02*
D03*
Y461500D02*
D03*
X755827Y441500D02*
D03*
X655573Y481500D02*
D03*
Y461500D02*
D03*
X655827Y441500D02*
D03*
D74*
X0Y90000D02*
D03*
D75*
Y110000D02*
D03*
D76*
X341800Y184850D02*
D03*
X358300Y201350D02*
D03*
Y184850D02*
D03*
X341800Y201350D02*
D03*
X366500Y209650D02*
D03*
X350000D02*
D03*
X333500D02*
D03*
X366500Y193050D02*
D03*
X350000D02*
D03*
X333500D02*
D03*
X358300Y217950D02*
D03*
X341800D02*
D03*
M02*
