G04*
G04 #@! TF.GenerationSoftware,Altium Limited,CircuitMaker,2.2.1 (2.2.1.6)*
G04*
G04 Layer_Physical_Order=1*
G04 Layer_Color=25308*
%FSLAX44Y44*%
%MOMM*%
G71*
G04*
G04 #@! TF.SameCoordinates,9F1E3F87-7A7F-4E4B-B1B4-4F695BE8A883*
G04*
G04*
G04 #@! TF.FilePolarity,Positive*
G04*
G01*
G75*
%ADD11C,0.2540*%
%ADD17R,0.7000X0.8500*%
%ADD18R,1.5000X1.0000*%
%ADD19R,2.0000X1.5000*%
%ADD20R,0.8500X0.7000*%
%ADD21R,0.8128X1.2700*%
%ADD22R,0.7112X1.2700*%
%ADD23R,0.7620X1.2700*%
%ADD24R,0.9000X0.8000*%
%ADD25R,0.8000X0.9000*%
%ADD26R,0.8128X0.8890*%
%ADD27R,1.3000X1.8000*%
%ADD28R,0.6000X0.9000*%
%ADD29R,0.6000X1.1000*%
%ADD30R,1.1000X0.5499*%
%ADD31R,0.9000X3.9000*%
%ADD32R,1.6500X1.8000*%
%ADD33R,1.5000X0.7000*%
%ADD34R,0.7000X1.5000*%
%ADD35R,1.0000X1.5000*%
%ADD36R,0.8890X0.8128*%
%ADD37R,2.0000X0.9000*%
%ADD38R,0.9000X2.0000*%
%ADD39R,1.3300X1.3300*%
%ADD40R,2.4000X1.4000*%
%ADD77C,0.5000*%
%ADD78C,0.7000*%
%ADD79C,1.0000*%
%ADD80C,0.6000*%
%ADD81C,0.8000*%
%ADD82C,0.4000*%
%ADD83R,3.9000X3.6000*%
%ADD84R,2.5250X1.0000*%
%ADD85R,5.8000X1.0000*%
%ADD86R,1.0000X4.0000*%
%ADD87R,3.4250X1.1250*%
%ADD88R,1.0750X5.4000*%
%ADD89R,13.8000X1.2750*%
%ADD90R,2.5000X2.8000*%
%ADD91R,1.0000X2.1000*%
%ADD92R,1.0000X4.3000*%
%ADD93R,2.2000X4.6000*%
%ADD94R,3.2000X0.5000*%
%ADD95R,2.0000X5.4000*%
%ADD96R,5.7750X1.2000*%
%ADD97R,1.0000X4.2000*%
%ADD98R,3.0000X0.8000*%
%ADD99C,1.5500*%
%ADD100C,1.6510*%
%ADD101R,1.6510X1.6510*%
G04:AMPARAMS|DCode=102|XSize=1.524mm|YSize=1.524mm|CornerRadius=0.1905mm|HoleSize=0mm|Usage=FLASHONLY|Rotation=0.000|XOffset=0mm|YOffset=0mm|HoleType=Round|Shape=RoundedRectangle|*
%AMROUNDEDRECTD102*
21,1,1.5240,1.1430,0,0,0.0*
21,1,1.1430,1.5240,0,0,0.0*
1,1,0.3810,0.5715,-0.5715*
1,1,0.3810,-0.5715,-0.5715*
1,1,0.3810,-0.5715,0.5715*
1,1,0.3810,0.5715,0.5715*
%
%ADD102ROUNDEDRECTD102*%
%ADD103C,1.5240*%
%ADD104R,1.5240X1.5240*%
%ADD105R,1.2000X1.2000*%
%ADD106C,1.2000*%
%ADD107C,1.5000*%
G04:AMPARAMS|DCode=108|XSize=1.5mm|YSize=1.5mm|CornerRadius=0.1875mm|HoleSize=0mm|Usage=FLASHONLY|Rotation=90.000|XOffset=0mm|YOffset=0mm|HoleType=Round|Shape=RoundedRectangle|*
%AMROUNDEDRECTD108*
21,1,1.5000,1.1250,0,0,90.0*
21,1,1.1250,1.5000,0,0,90.0*
1,1,0.3750,0.5625,0.5625*
1,1,0.3750,0.5625,-0.5625*
1,1,0.3750,-0.5625,-0.5625*
1,1,0.3750,-0.5625,0.5625*
%
%ADD108ROUNDEDRECTD108*%
%ADD109C,1.0000*%
%ADD110C,0.6800*%
G36*
X789211Y521585D02*
X793317Y520599D01*
X797220Y518982D01*
X800821Y516776D01*
X804033Y514033D01*
X806776Y510821D01*
X808982Y507220D01*
X810599Y503317D01*
X811585Y499211D01*
X811818Y496246D01*
X811900Y495000D01*
X811900Y495000D01*
X811900Y493750D01*
Y416500D01*
Y247664D01*
X811200Y247090D01*
X808240D01*
Y253230D01*
X800700D01*
Y254500D01*
X799430D01*
Y264540D01*
X790470D01*
Y254500D01*
X787930D01*
Y264540D01*
X760470D01*
Y254500D01*
Y244460D01*
X760611D01*
Y176540D01*
X720470D01*
Y166500D01*
Y156460D01*
X734061D01*
Y140379D01*
X730973Y137290D01*
X726260D01*
X725410Y137290D01*
D01*
X724140Y137290D01*
X712910D01*
Y135639D01*
X709725D01*
X708830Y136533D01*
X707110Y137526D01*
X705193Y138040D01*
X703207D01*
X701290Y137526D01*
X699570Y136533D01*
X698167Y135130D01*
X697174Y133410D01*
X696660Y131493D01*
Y129507D01*
X697174Y127590D01*
X698167Y125870D01*
X699570Y124466D01*
X701290Y123474D01*
X703207Y122960D01*
X705193D01*
X707110Y123474D01*
X708830Y124466D01*
X709725Y125361D01*
X712910D01*
Y123710D01*
X724140D01*
X724990Y123710D01*
X726260Y123710D01*
X734745D01*
X735231Y122537D01*
X733800Y121105D01*
X684339D01*
Y126960D01*
X685990D01*
Y139040D01*
X685990D01*
Y139460D01*
X685990D01*
Y151540D01*
X684339D01*
Y156460D01*
X707930D01*
Y166500D01*
Y176540D01*
X692090D01*
Y185800D01*
X691893Y186791D01*
X691331Y187631D01*
X690491Y188193D01*
X689500Y188390D01*
X685240D01*
Y189230D01*
X665160D01*
Y184460D01*
X668910D01*
Y174800D01*
X669108Y173809D01*
X669669Y172969D01*
X670509Y172407D01*
X671500Y172210D01*
X673160D01*
Y156460D01*
X674061D01*
Y151540D01*
X672410D01*
Y139460D01*
X672410D01*
Y139040D01*
X672410D01*
Y126960D01*
X674061D01*
Y121105D01*
X569300D01*
X567332Y120846D01*
X566257Y120401D01*
X565497Y120086D01*
X563922Y118878D01*
X535612Y90567D01*
X534439Y91053D01*
Y128371D01*
X547627Y141560D01*
X649676D01*
X650570Y140665D01*
X652290Y139672D01*
X654207Y139159D01*
X656193D01*
X658110Y139672D01*
X659830Y140665D01*
X661234Y142069D01*
X662226Y143788D01*
X662740Y145706D01*
Y147691D01*
X662226Y149609D01*
X661234Y151328D01*
X659830Y152732D01*
X658110Y153725D01*
X656193Y154239D01*
X654207D01*
X652290Y153725D01*
X650570Y152732D01*
X649676Y151837D01*
X545499D01*
X543532Y151446D01*
X541865Y150332D01*
X532621Y141088D01*
X531439Y141702D01*
Y184371D01*
X558429Y211361D01*
X562696D01*
Y209515D01*
X575904D01*
Y211361D01*
X621910D01*
Y209710D01*
X633990D01*
Y209710D01*
X634410D01*
Y209710D01*
X646490D01*
Y210351D01*
Y211361D01*
X648072D01*
X648490Y210943D01*
X652059Y207374D01*
X652566Y206866D01*
X652723Y206762D01*
X652455Y205413D01*
X651620Y205247D01*
X651620Y205247D01*
X649953Y204134D01*
X649458Y203639D01*
X646490D01*
Y205290D01*
X635260D01*
X634410Y205290D01*
D01*
X633140Y205290D01*
X629220D01*
Y198500D01*
Y191710D01*
X633140D01*
X633990Y191710D01*
D01*
X635260Y191710D01*
X646490D01*
Y193361D01*
X651587D01*
X653554Y193752D01*
X655221Y194866D01*
X655716Y195361D01*
X665160D01*
Y191770D01*
X685240D01*
Y194460D01*
Y204460D01*
Y214460D01*
Y224460D01*
Y229230D01*
X665160D01*
Y224460D01*
Y215639D01*
X658329D01*
X653834Y220134D01*
X652167Y221248D01*
X650200Y221639D01*
X646490D01*
Y223290D01*
X634410D01*
Y223290D01*
X633990D01*
Y223290D01*
X621910D01*
Y221639D01*
X575904D01*
Y223485D01*
X562696D01*
Y221639D01*
X557502D01*
X556976Y222909D01*
X562729Y228661D01*
X622210D01*
Y227010D01*
X634290D01*
Y227010D01*
X634710D01*
Y227010D01*
X646790D01*
Y228661D01*
X647500D01*
X649466Y229052D01*
X651134Y230166D01*
X656629Y235661D01*
X665160D01*
Y231770D01*
X685240D01*
Y235661D01*
X685500D01*
X687467Y236052D01*
X689134Y237166D01*
X692134Y240166D01*
X693248Y241833D01*
X693639Y243800D01*
Y244460D01*
X717930D01*
Y254500D01*
Y264540D01*
X713714D01*
X713477Y265732D01*
X712473Y267234D01*
X709989Y269718D01*
X709948Y269927D01*
X708834Y271594D01*
X703794Y276634D01*
X702127Y277748D01*
X700161Y278139D01*
X657700D01*
X655733Y277748D01*
X654066Y276634D01*
X649072Y271639D01*
X646490D01*
Y273290D01*
X634410D01*
Y273290D01*
X633990D01*
Y273290D01*
X621910D01*
Y271639D01*
X558365D01*
X557879Y272812D01*
X602184Y317116D01*
X603298Y318783D01*
X603689Y320750D01*
Y419710D01*
X604590D01*
Y433290D01*
X604506D01*
X604027Y434560D01*
X645829Y476361D01*
X648679D01*
X648739Y476256D01*
X650329Y474666D01*
X652277Y473542D01*
X654449Y472960D01*
X656697D01*
X658869Y473542D01*
X660817Y474666D01*
X662407Y476256D01*
X662467Y476361D01*
X672936D01*
X678921Y470376D01*
Y447505D01*
X679312Y445538D01*
X680426Y443871D01*
X686426Y437871D01*
X688093Y436757D01*
X690060Y436366D01*
X695270D01*
Y435465D01*
X708850D01*
Y436366D01*
X714060D01*
X716027Y436757D01*
X717694Y437871D01*
X722694Y442871D01*
X723808Y444538D01*
X724199Y446505D01*
Y471376D01*
X729184Y476361D01*
X748679D01*
X748739Y476256D01*
X750329Y474666D01*
X752277Y473542D01*
X754449Y472960D01*
X756697D01*
X758869Y473542D01*
X760817Y474666D01*
X762407Y476256D01*
X763531Y478204D01*
X764113Y480376D01*
Y482624D01*
X763531Y484796D01*
X762407Y486744D01*
X760817Y488334D01*
X758869Y489458D01*
X756697Y490040D01*
X754449D01*
X752277Y489458D01*
X750329Y488334D01*
X748739Y486744D01*
X748679Y486639D01*
X727055D01*
X725089Y486248D01*
X723421Y485134D01*
X715426Y477139D01*
X714312Y475471D01*
X713921Y473505D01*
Y448633D01*
X711932Y446644D01*
X709748D01*
X708850Y447542D01*
X708850Y448815D01*
Y460045D01*
X707199D01*
Y465978D01*
X708093Y466873D01*
X709086Y468592D01*
X709600Y470510D01*
Y472495D01*
X709086Y474413D01*
X708093Y476132D01*
X707199Y477027D01*
Y482960D01*
X708850D01*
X708850Y495463D01*
X709748Y496361D01*
X747033D01*
Y492960D01*
X764113D01*
Y510040D01*
X747033D01*
Y506639D01*
X708850D01*
Y507540D01*
X695270D01*
Y506639D01*
X664113D01*
Y510040D01*
X647033D01*
Y506639D01*
X646700D01*
X644734Y506248D01*
X643066Y505134D01*
X587571Y449639D01*
X580590D01*
Y451290D01*
X568510D01*
Y451290D01*
X568090D01*
Y451290D01*
X556010D01*
Y437710D01*
X556911D01*
Y435274D01*
X556017Y434380D01*
X555024Y432660D01*
X554510Y430743D01*
Y428757D01*
X555024Y426840D01*
X556017Y425120D01*
X557420Y423717D01*
X559140Y422724D01*
X561057Y422210D01*
X563043D01*
X564960Y422724D01*
X566680Y423717D01*
X568083Y425120D01*
X568141Y425220D01*
X569411Y424880D01*
Y318878D01*
X507822Y257289D01*
X457540D01*
Y270510D01*
Y276280D01*
X445000D01*
X432460D01*
Y269989D01*
X426584D01*
X425690Y270884D01*
X423970Y271876D01*
X422053Y272390D01*
X420067D01*
X418150Y271876D01*
X416430Y270884D01*
X415027Y269480D01*
X414034Y267760D01*
X413520Y265843D01*
Y263857D01*
X414034Y261940D01*
X415027Y260220D01*
X416430Y258817D01*
X418150Y257824D01*
X420067Y257310D01*
X422053D01*
X423970Y257824D01*
X425690Y258817D01*
X426584Y259711D01*
X432460D01*
Y244589D01*
X408450D01*
X406483Y244198D01*
X404816Y243084D01*
X389366Y227634D01*
X388252Y225966D01*
X387861Y224000D01*
Y178129D01*
X380872Y171139D01*
X342000D01*
X340033Y170748D01*
X338366Y169634D01*
X332273Y163540D01*
X331007D01*
X329090Y163026D01*
X327370Y162034D01*
X325966Y160630D01*
X324974Y158910D01*
X324460Y156993D01*
Y155007D01*
X324974Y153090D01*
X325966Y151370D01*
X327370Y149966D01*
X329090Y148974D01*
X331007Y148460D01*
X332993D01*
X334910Y148974D01*
X336630Y149966D01*
X338033Y151370D01*
X339026Y153090D01*
X339540Y155007D01*
Y156273D01*
X344128Y160861D01*
X358918D01*
X359315Y159773D01*
X359324Y159591D01*
X358273Y158540D01*
X357007D01*
X355090Y158026D01*
X353370Y157034D01*
X351967Y155630D01*
X350974Y153910D01*
X350460Y151993D01*
Y150007D01*
X350974Y148090D01*
X351967Y146370D01*
X352888Y145449D01*
X352362Y144179D01*
X301691D01*
X299725Y143788D01*
X298058Y142674D01*
X288810Y133426D01*
X287540Y133952D01*
Y143510D01*
Y158111D01*
X302225D01*
X303120Y157217D01*
X304840Y156224D01*
X306757Y155710D01*
X308743D01*
X310660Y156224D01*
X312380Y157217D01*
X313783Y158620D01*
X314776Y160340D01*
X315290Y162257D01*
Y164243D01*
X314776Y166160D01*
X313783Y167880D01*
X312380Y169284D01*
X310660Y170276D01*
X308743Y170790D01*
X306757D01*
X304840Y170276D01*
X303120Y169284D01*
X302225Y168389D01*
X287540D01*
Y183861D01*
X291476D01*
X292370Y182966D01*
X294090Y181974D01*
X296007Y181460D01*
X297993D01*
X299910Y181974D01*
X301630Y182966D01*
X303034Y184370D01*
X304026Y186090D01*
X304540Y188007D01*
Y189993D01*
X304026Y191910D01*
X303034Y193630D01*
X301630Y195033D01*
X299910Y196026D01*
X297993Y196540D01*
X296007D01*
X294090Y196026D01*
X292370Y195033D01*
X291476Y194139D01*
X287540D01*
Y208861D01*
X290476D01*
X291370Y207966D01*
X293090Y206974D01*
X295007Y206460D01*
X296993D01*
X298910Y206974D01*
X300630Y207966D01*
X302034Y209370D01*
X303026Y211090D01*
X303540Y213007D01*
Y214993D01*
X303026Y216910D01*
X302034Y218630D01*
X300630Y220033D01*
X298910Y221026D01*
X296993Y221540D01*
X295007D01*
X293090Y221026D01*
X291370Y220033D01*
X290476Y219139D01*
X287540D01*
Y232410D01*
Y247011D01*
X381890D01*
X382430Y246472D01*
X384150Y245479D01*
X386067Y244965D01*
X388053D01*
X389970Y245479D01*
X391690Y246472D01*
X393093Y247875D01*
X394086Y249595D01*
X394600Y251512D01*
Y253498D01*
X394086Y255415D01*
X393093Y257135D01*
X391690Y258538D01*
X389970Y259531D01*
X388053Y260045D01*
X386067D01*
X384150Y259531D01*
X382430Y258538D01*
X381181Y257289D01*
X317468D01*
X317037Y258559D01*
X318228Y259472D01*
X351150Y292395D01*
X535800D01*
X537768Y292654D01*
X539603Y293414D01*
X541178Y294622D01*
X562678Y316122D01*
X563886Y317698D01*
X564646Y319532D01*
X564905Y321500D01*
Y387500D01*
X564840Y387994D01*
Y388493D01*
X564711Y388974D01*
X564646Y389468D01*
X564455Y389929D01*
X564326Y390410D01*
X564077Y390842D01*
X563886Y391302D01*
X563583Y391698D01*
X563334Y392130D01*
X562981Y392482D01*
X562678Y392878D01*
X562282Y393181D01*
X561930Y393534D01*
X561498Y393783D01*
X561103Y394086D01*
X560642Y394277D01*
X560210Y394526D01*
X559729Y394655D01*
X559268Y394846D01*
X558774Y394911D01*
X558293Y395040D01*
X557794D01*
X557300Y395105D01*
X556806Y395040D01*
X556307D01*
X555826Y394911D01*
X555332Y394846D01*
X554871Y394655D01*
X554390Y394526D01*
X553958Y394277D01*
X553498Y394086D01*
X553102Y393783D01*
X552670Y393534D01*
X552318Y393181D01*
X551922Y392878D01*
X551619Y392482D01*
X551267Y392130D01*
X551017Y391698D01*
X550714Y391302D01*
X550523Y390842D01*
X550274Y390410D01*
X550145Y389929D01*
X549954Y389468D01*
X549889Y388974D01*
X549760Y388493D01*
Y387994D01*
X549695Y387500D01*
Y324650D01*
X532650Y307605D01*
X348000D01*
X346032Y307346D01*
X344957Y306901D01*
X344198Y306586D01*
X342622Y305378D01*
X309850Y272605D01*
X309000D01*
X308506Y272540D01*
X308007D01*
X307526Y272411D01*
X307032Y272346D01*
X306571Y272155D01*
X306090Y272026D01*
X305658Y271777D01*
X305198Y271586D01*
X304802Y271283D01*
X304370Y271033D01*
X304018Y270681D01*
X303622Y270378D01*
X303319Y269982D01*
X302966Y269630D01*
X302717Y269198D01*
X302414Y268803D01*
X302223Y268342D01*
X302202Y268305D01*
X302016Y268243D01*
X300984D01*
X300798Y268305D01*
X300777Y268342D01*
X300586Y268803D01*
X300283Y269198D01*
X300033Y269630D01*
X299681Y269982D01*
X299378Y270378D01*
X298982Y270681D01*
X298630Y271033D01*
X298198Y271283D01*
X297803Y271586D01*
X297342Y271777D01*
X296910Y272026D01*
X296429Y272155D01*
X295968Y272346D01*
X295474Y272411D01*
X294993Y272540D01*
X294494D01*
X294000Y272605D01*
X287540D01*
Y276280D01*
X262460D01*
Y271008D01*
X243300D01*
X242705Y270890D01*
X236510D01*
Y259660D01*
X236510Y258810D01*
X236510D01*
Y258559D01*
X236103Y257289D01*
X231340D01*
Y263280D01*
X224300D01*
X217260D01*
Y258010D01*
Y245510D01*
X219161D01*
Y237040D01*
X211760D01*
Y216960D01*
X235033D01*
X235519Y215787D01*
X222366Y202634D01*
X221252Y200967D01*
X220861Y199000D01*
Y192524D01*
X219967Y191630D01*
X218974Y189910D01*
X218460Y187993D01*
Y186007D01*
X218974Y184090D01*
X219967Y182370D01*
X221370Y180966D01*
X223090Y179974D01*
X225007Y179460D01*
X226993D01*
X228910Y179974D01*
X230630Y180966D01*
X232034Y182370D01*
X233026Y184090D01*
X233540Y186007D01*
Y187993D01*
X233026Y189910D01*
X232034Y191630D01*
X231139Y192524D01*
Y196871D01*
X255879Y221611D01*
X262460D01*
Y206489D01*
X253350D01*
X251383Y206098D01*
X249716Y204984D01*
X242366Y197634D01*
X241252Y195966D01*
X240861Y194000D01*
Y191524D01*
X239967Y190630D01*
X238974Y188910D01*
X238460Y186993D01*
Y185007D01*
X238974Y183090D01*
X239967Y181370D01*
X241370Y179967D01*
X243090Y178974D01*
X245007Y178460D01*
X246993D01*
X247545Y178608D01*
X248202Y177469D01*
X244428Y173695D01*
X243314Y172028D01*
X242922Y170061D01*
Y168524D01*
X242028Y167630D01*
X241035Y165910D01*
X240521Y163993D01*
Y162007D01*
X241035Y160090D01*
X242028Y158370D01*
X243431Y156966D01*
X245151Y155974D01*
X247069Y155460D01*
X249054D01*
X250972Y155974D01*
X252691Y156966D01*
X254095Y158370D01*
X255087Y160090D01*
X255601Y162007D01*
Y163993D01*
X255087Y165910D01*
X254095Y167630D01*
X253496Y168228D01*
X256079Y170811D01*
X262460D01*
Y156210D01*
Y143510D01*
Y130810D01*
Y121665D01*
X261287Y121179D01*
X235139Y147327D01*
Y149710D01*
X236790D01*
Y160940D01*
X236790Y161790D01*
X236790Y163060D01*
Y166980D01*
X223210D01*
Y163060D01*
X223210Y162210D01*
X223210Y160940D01*
Y150341D01*
X221940Y149815D01*
X218145Y153610D01*
Y155194D01*
X217886Y157163D01*
X217126Y158997D01*
X215918Y160572D01*
X189492Y186998D01*
X187917Y188206D01*
X186083Y188966D01*
X184114Y189225D01*
X135530D01*
X111378Y213378D01*
X109803Y214586D01*
X107968Y215346D01*
X106000Y215605D01*
X35150D01*
X18605Y232150D01*
Y312850D01*
X28451Y322695D01*
X30360D01*
Y321110D01*
X30360Y320760D01*
Y319840D01*
X30360Y319490D01*
Y301110D01*
X30360Y300760D01*
Y299840D01*
X30360Y299490D01*
Y281110D01*
X30360Y280760D01*
Y279840D01*
X30360Y279490D01*
Y260760D01*
X59440D01*
Y265162D01*
X92175D01*
X93070Y264267D01*
X94789Y263274D01*
X96707Y262760D01*
X98692D01*
X100610Y263274D01*
X102329Y264267D01*
X103733Y265671D01*
X104726Y267390D01*
X105240Y269308D01*
Y271293D01*
X104726Y273211D01*
X103733Y274930D01*
X102329Y276334D01*
X100610Y277327D01*
X98692Y277840D01*
X96707D01*
X94789Y277327D01*
X93070Y276334D01*
X92175Y275439D01*
X59440D01*
Y279490D01*
X59440Y279840D01*
Y280760D01*
X59440Y281110D01*
Y285162D01*
X62175D01*
X63070Y284267D01*
X64789Y283274D01*
X66707Y282760D01*
X68692D01*
X70610Y283274D01*
X72329Y284267D01*
X73733Y285671D01*
X74726Y287390D01*
X75240Y289308D01*
Y291293D01*
X74726Y293211D01*
X73733Y294930D01*
X72329Y296334D01*
X70610Y297327D01*
X68692Y297840D01*
X66707D01*
X64789Y297327D01*
X63070Y296334D01*
X62175Y295439D01*
X59440D01*
Y299490D01*
X59440Y299840D01*
Y300760D01*
X59440Y301110D01*
Y305162D01*
X76175D01*
X77070Y304267D01*
X78789Y303274D01*
X80707Y302760D01*
X82692D01*
X84610Y303274D01*
X86329Y304267D01*
X87733Y305671D01*
X88726Y307390D01*
X89240Y309308D01*
Y311293D01*
X88726Y313211D01*
X87733Y314930D01*
X86329Y316334D01*
X84610Y317327D01*
X82692Y317840D01*
X80707D01*
X78789Y317327D01*
X77070Y316334D01*
X76175Y315439D01*
X59440D01*
Y319490D01*
X59440Y319840D01*
Y320760D01*
X59440Y321110D01*
Y339490D01*
X59440Y339840D01*
Y340760D01*
X59440Y341110D01*
Y359490D01*
X59440Y359840D01*
Y360760D01*
X59440Y361110D01*
Y379490D01*
X59440Y379840D01*
Y380760D01*
X59440Y381110D01*
Y389030D01*
X30360D01*
Y381110D01*
X30360Y380760D01*
Y379840D01*
X30360Y379490D01*
Y361110D01*
X30360Y360760D01*
Y359840D01*
X30360Y359490D01*
Y341110D01*
X30360Y340760D01*
Y339840D01*
X30360Y339490D01*
Y337905D01*
X25300D01*
X23332Y337646D01*
X21498Y336886D01*
X19923Y335678D01*
X5622Y321378D01*
X4414Y319802D01*
X3654Y317968D01*
X3395Y316000D01*
Y229000D01*
X3654Y227032D01*
X4414Y225197D01*
X5622Y223622D01*
X26622Y202622D01*
X27023Y202315D01*
X26592Y201045D01*
X26067D01*
X24150Y200531D01*
X22430Y199538D01*
X21027Y198134D01*
X20034Y196415D01*
X19532Y194540D01*
X16270D01*
Y188000D01*
X13730D01*
Y194540D01*
X8060D01*
X7960Y194540D01*
X6790D01*
X6690Y194540D01*
X1270D01*
Y188500D01*
X0D01*
Y187230D01*
X-6790D01*
Y183310D01*
X-6790Y182460D01*
X-6790Y181190D01*
Y169960D01*
X-5139D01*
Y168540D01*
X-6790D01*
Y157310D01*
X-6790Y156460D01*
X-6790Y155190D01*
Y143960D01*
X-6158D01*
Y120020D01*
X-7348Y119784D01*
X-8808Y118808D01*
X-9784Y117348D01*
X-10127Y115625D01*
Y104375D01*
X-9784Y102652D01*
X-8808Y101192D01*
X-7348Y100216D01*
X-5625Y99874D01*
X-5519D01*
X-5178Y98603D01*
X-6165Y98034D01*
X-8034Y96165D01*
X-9356Y93875D01*
X-10040Y91322D01*
Y91270D01*
X-0D01*
X10040D01*
Y91322D01*
X9356Y93875D01*
X8034Y96165D01*
X6165Y98034D01*
X5178Y98603D01*
X5519Y99874D01*
X5625D01*
X7348Y100216D01*
X8808Y101192D01*
X9784Y102652D01*
X10127Y104375D01*
Y115625D01*
X9784Y117348D01*
X8808Y118808D01*
X7348Y119784D01*
X6158Y120020D01*
Y143960D01*
X6790D01*
Y155190D01*
X6790Y156040D01*
X6790Y157310D01*
Y168540D01*
X5139D01*
Y169960D01*
X6790D01*
Y169960D01*
X7960Y169719D01*
Y168960D01*
X22040D01*
Y170361D01*
X22943D01*
X24909Y170752D01*
X26576Y171866D01*
X30654Y175944D01*
X31767Y177611D01*
X32159Y179577D01*
Y185570D01*
X33429Y185911D01*
X34027Y184875D01*
X34921Y183980D01*
Y176254D01*
X28366Y169699D01*
X27252Y168032D01*
X26861Y166065D01*
Y106290D01*
X25210D01*
Y95060D01*
X25210Y94210D01*
X25210Y92940D01*
Y89020D01*
X32000D01*
X38790D01*
X38790Y94213D01*
X39414Y94838D01*
X40843Y94834D01*
X41460Y94210D01*
Y93790D01*
X41460D01*
Y81710D01*
X41460D01*
X40964Y80645D01*
X40607Y80111D01*
X40410Y79120D01*
Y69120D01*
X40607Y68129D01*
X40959Y67603D01*
X41460Y66540D01*
Y61770D01*
X48250D01*
X55040D01*
Y65398D01*
X55376Y65621D01*
X55952Y65465D01*
X56646Y64940D01*
Y52145D01*
X69854D01*
Y54036D01*
X71596Y54382D01*
X71713Y54460D01*
X85040D01*
Y65690D01*
X85040Y66540D01*
X85040Y67810D01*
Y78222D01*
X85166Y79404D01*
X85276Y79595D01*
X85425Y80150D01*
X85425Y80150D01*
X85546Y80602D01*
X85790Y81512D01*
Y83498D01*
X85276Y85415D01*
X84284Y87135D01*
X83278Y88140D01*
X83804Y89410D01*
X197000D01*
X197991Y89607D01*
X198831Y90169D01*
X199393Y91009D01*
X199590Y92000D01*
Y104750D01*
X199393Y105741D01*
X198831Y106581D01*
X197991Y107143D01*
X197000Y107340D01*
X134840D01*
Y133000D01*
X134642Y133991D01*
X134176Y134690D01*
X134337Y135316D01*
X134678Y135960D01*
X142540D01*
Y141419D01*
X142690Y141643D01*
X143158Y144000D01*
Y162085D01*
X142690Y164442D01*
X141355Y166439D01*
X135049Y172745D01*
X135575Y174015D01*
X166395D01*
X167396Y173365D01*
X167396Y172745D01*
Y159395D01*
X168861D01*
Y156790D01*
X167960D01*
Y143210D01*
X179190D01*
X180040Y143210D01*
X181310Y143210D01*
X185230D01*
Y150000D01*
Y156790D01*
X180037Y156790D01*
X179139Y157688D01*
Y159395D01*
X180604D01*
Y172579D01*
X181874Y173105D01*
X202935Y152044D01*
Y150460D01*
X203194Y148492D01*
X203954Y146657D01*
X205162Y145082D01*
X244395Y105850D01*
Y97000D01*
X244654Y95032D01*
X245414Y93197D01*
X246622Y91622D01*
X259482Y78763D01*
X258996Y77590D01*
X257250D01*
X256259Y77393D01*
X255419Y76831D01*
X254890Y76040D01*
X247020D01*
Y69000D01*
Y61960D01*
X254890D01*
X255419Y61169D01*
X256259Y60607D01*
X257250Y60410D01*
X281660D01*
Y16000D01*
X281857Y15009D01*
X282419Y14169D01*
X283259Y13607D01*
X284250Y13410D01*
X304250D01*
X305241Y13607D01*
X306082Y14169D01*
X306643Y15009D01*
X306840Y16000D01*
Y29395D01*
X316850D01*
X321622Y24622D01*
X323197Y23414D01*
X323957Y23099D01*
X325032Y22654D01*
X327000Y22395D01*
X340460D01*
Y18460D01*
X358540D01*
Y41540D01*
X340460D01*
Y37605D01*
X330150D01*
X325378Y42378D01*
X323802Y43586D01*
X321968Y44346D01*
X320000Y44605D01*
X306840D01*
Y60410D01*
X312835D01*
X326622Y46622D01*
X328198Y45414D01*
X330032Y44654D01*
X332000Y44395D01*
X507800D01*
X509768Y44654D01*
X511603Y45414D01*
X513178Y46622D01*
X572450Y105895D01*
X736950D01*
X738918Y106154D01*
X740752Y106914D01*
X742328Y108122D01*
X753165Y118960D01*
X764740D01*
Y142040D01*
X760805D01*
Y156460D01*
X767930D01*
Y166500D01*
X770470D01*
Y156460D01*
X777930D01*
Y166500D01*
X780470D01*
Y156460D01*
X787930D01*
Y166500D01*
X790470D01*
Y156460D01*
X799430D01*
Y166500D01*
X800700D01*
Y167770D01*
X808240D01*
Y173910D01*
X811200D01*
X811900Y173336D01*
Y-5000D01*
X811912Y-5056D01*
X811585Y-9211D01*
X810599Y-13318D01*
X808982Y-17220D01*
X806776Y-20821D01*
X804033Y-24032D01*
X800821Y-26776D01*
X797220Y-28982D01*
X793317Y-30599D01*
X789211Y-31585D01*
X786246Y-31818D01*
X785000Y-31900D01*
D01*
X785000Y-31900D01*
D01*
D01*
X784998D01*
X783750Y-31900D01*
X585530D01*
X585380Y-30630D01*
X589622Y-29612D01*
X594135Y-27742D01*
X598301Y-25189D01*
X602016Y-22016D01*
X605190Y-18301D01*
X607742Y-14135D01*
X609612Y-9621D01*
X610753Y-4871D01*
X611136Y0D01*
X610753Y4871D01*
X609612Y9621D01*
X607742Y14135D01*
X605190Y18301D01*
X602016Y22016D01*
X598301Y25189D01*
X594135Y27742D01*
X589622Y29612D01*
X584871Y30753D01*
X580000Y31136D01*
X575129Y30753D01*
X570378Y29612D01*
X565865Y27742D01*
X561699Y25189D01*
X557984Y22016D01*
X554810Y18301D01*
X552258Y14135D01*
X550388Y9621D01*
X549247Y4871D01*
X548864Y0D01*
X549247Y-4871D01*
X550388Y-9621D01*
X552258Y-14135D01*
X554810Y-18301D01*
X557984Y-22016D01*
X561699Y-25189D01*
X565865Y-27742D01*
X570378Y-29612D01*
X574620Y-30630D01*
X574470Y-31900D01*
X437348D01*
X437096Y-30630D01*
X437202Y-30586D01*
X438778Y-29378D01*
X450995Y-17160D01*
X451738D01*
X454322Y-16468D01*
X456638Y-15130D01*
X458530Y-13238D01*
X459868Y-10922D01*
X460560Y-8338D01*
Y-5662D01*
X459868Y-3078D01*
X458530Y-762D01*
X456638Y1130D01*
X454322Y2468D01*
X451738Y3160D01*
X449062D01*
X446478Y2468D01*
X444162Y1130D01*
X442270Y-762D01*
X440932Y-3078D01*
X440240Y-5662D01*
Y-6405D01*
X435804Y-10841D01*
X434665Y-10183D01*
X435160Y-8338D01*
Y-5662D01*
X434468Y-3078D01*
X433130Y-762D01*
X431238Y1130D01*
X428922Y2468D01*
X426338Y3160D01*
X423662D01*
X421078Y2468D01*
X418762Y1130D01*
X416870Y-762D01*
X415532Y-3078D01*
X414840Y-5662D01*
Y-8338D01*
X415532Y-10922D01*
X416870Y-13238D01*
X418756Y-15125D01*
X418755Y-15441D01*
X418499Y-16395D01*
X406101D01*
X405845Y-15441D01*
X405844Y-15125D01*
X407730Y-13238D01*
X409068Y-10922D01*
X409760Y-8338D01*
Y-5662D01*
X409068Y-3078D01*
X407730Y-762D01*
X407205Y-237D01*
Y21400D01*
X406946Y23368D01*
X406186Y25203D01*
X404978Y26778D01*
X396378Y35378D01*
X394803Y36586D01*
X392968Y37346D01*
X391000Y37605D01*
X389540D01*
Y41540D01*
X371460D01*
Y18460D01*
X389540D01*
Y19045D01*
X390713Y19532D01*
X391995Y18250D01*
Y-237D01*
X391470Y-762D01*
X390132Y-3078D01*
X389440Y-5662D01*
Y-8338D01*
X390132Y-10922D01*
X391470Y-13238D01*
X393357Y-15125D01*
X393355Y-15441D01*
X393099Y-16395D01*
X380701D01*
X380445Y-15441D01*
X380443Y-15125D01*
X382330Y-13238D01*
X383668Y-10922D01*
X384360Y-8338D01*
Y-8270D01*
X364040D01*
Y-8338D01*
X364732Y-10922D01*
X366070Y-13238D01*
X367957Y-15125D01*
X367955Y-15441D01*
X367699Y-16395D01*
X355301D01*
X355045Y-15441D01*
X355043Y-15125D01*
X356930Y-13238D01*
X358268Y-10922D01*
X358960Y-8338D01*
Y-5662D01*
X358268Y-3078D01*
X356930Y-762D01*
X355038Y1130D01*
X352722Y2468D01*
X350138Y3160D01*
X347462D01*
X344878Y2468D01*
X342562Y1130D01*
X340670Y-762D01*
X339332Y-3078D01*
X338640Y-5662D01*
Y-8338D01*
X339332Y-10922D01*
X340670Y-13238D01*
X342556Y-15125D01*
X342555Y-15441D01*
X342299Y-16395D01*
X329901D01*
X329645Y-15441D01*
X329644Y-15125D01*
X331530Y-13238D01*
X332868Y-10922D01*
X333560Y-8338D01*
Y-5662D01*
X332868Y-3078D01*
X331530Y-762D01*
X329638Y1130D01*
X327322Y2468D01*
X324738Y3160D01*
X322062D01*
X319478Y2468D01*
X317162Y1130D01*
X315270Y-762D01*
X313932Y-3078D01*
X313240Y-5662D01*
Y-8338D01*
X313932Y-10922D01*
X315270Y-13238D01*
X317157Y-15125D01*
X317155Y-15441D01*
X316899Y-16395D01*
X308160D01*
Y3160D01*
X287840D01*
Y-16395D01*
X183715D01*
X165605Y1715D01*
Y61960D01*
X168040D01*
Y77040D01*
X158494D01*
X158000Y77105D01*
X157506Y77040D01*
X147960D01*
Y61960D01*
X150395D01*
Y-1435D01*
X150654Y-3403D01*
X151414Y-5238D01*
X152622Y-6813D01*
X175187Y-29378D01*
X176762Y-30586D01*
X176869Y-30630D01*
X176617Y-31900D01*
X5530D01*
X5380Y-30630D01*
X9621Y-29612D01*
X14135Y-27742D01*
X18301Y-25189D01*
X20420Y-23380D01*
X21573Y-23912D01*
Y-24035D01*
X21918Y-25769D01*
X22900Y-27240D01*
X24371Y-28222D01*
X26105Y-28567D01*
X37535D01*
X39269Y-28222D01*
X40740Y-27240D01*
X41722Y-25769D01*
X42067Y-24035D01*
Y-12605D01*
X41722Y-10871D01*
X40740Y-9400D01*
X39269Y-8418D01*
X37535Y-8073D01*
X31010D01*
X30223Y-7076D01*
X30753Y-4871D01*
X31136Y0D01*
X30753Y4871D01*
X30202Y7166D01*
X30988Y8163D01*
X37515D01*
X39249Y8508D01*
X40720Y9490D01*
X41702Y10961D01*
X42031Y12616D01*
X42494Y13019D01*
X43059Y13430D01*
X43317Y13430D01*
X48298D01*
Y22320D01*
Y31210D01*
X42964D01*
Y26025D01*
X41702Y25859D01*
X40720Y27330D01*
X39249Y28312D01*
X37515Y28657D01*
X26085D01*
X24351Y28312D01*
X22880Y27330D01*
X21898Y25859D01*
X21553Y24125D01*
Y23929D01*
X20400Y23397D01*
X18301Y25189D01*
X14135Y27742D01*
X9621Y29612D01*
X4871Y30753D01*
X0Y31136D01*
X-4871Y30753D01*
X-9621Y29612D01*
X-14135Y27742D01*
X-18301Y25189D01*
X-22016Y22016D01*
X-25189Y18301D01*
X-27742Y14135D01*
X-29612Y9621D01*
X-30630Y5380D01*
X-31900Y5530D01*
Y484470D01*
X-30630Y484620D01*
X-29612Y480378D01*
X-27742Y475864D01*
X-25189Y471699D01*
X-22016Y467984D01*
X-18301Y464810D01*
X-14135Y462258D01*
X-9621Y460388D01*
X-4871Y459247D01*
X0Y458864D01*
X4871Y459247D01*
X9621Y460388D01*
X14135Y462258D01*
X18301Y464810D01*
X22016Y467984D01*
X25189Y471699D01*
X27742Y475864D01*
X29612Y480378D01*
X30753Y485129D01*
X31136Y490000D01*
X30753Y494871D01*
X29612Y499622D01*
X27742Y504135D01*
X25189Y508301D01*
X22016Y512016D01*
X18301Y515190D01*
X14135Y517742D01*
X9621Y519612D01*
X5380Y520630D01*
X5530Y521900D01*
X574470D01*
X574620Y520630D01*
X570378Y519612D01*
X565865Y517742D01*
X561699Y515190D01*
X557984Y512016D01*
X554810Y508301D01*
X552258Y504135D01*
X550388Y499622D01*
X549247Y494871D01*
X548864Y490000D01*
X549247Y485129D01*
X550388Y480378D01*
X552258Y475865D01*
X554810Y471699D01*
X557984Y467984D01*
X561699Y464810D01*
X565865Y462258D01*
X570378Y460388D01*
X575129Y459247D01*
X580000Y458864D01*
X584871Y459247D01*
X589622Y460388D01*
X594135Y462258D01*
X598301Y464810D01*
X602016Y467984D01*
X605190Y471699D01*
X607742Y475865D01*
X609612Y480378D01*
X610753Y485129D01*
X611136Y490000D01*
X610753Y494871D01*
X609612Y499622D01*
X607742Y504135D01*
X605190Y508301D01*
X602016Y512016D01*
X598301Y515190D01*
X594135Y517742D01*
X589622Y519612D01*
X585380Y520630D01*
X585530Y521900D01*
X785000D01*
X785056Y521912D01*
X789211Y521585D01*
D02*
G37*
G36*
X592931Y406509D02*
X593411Y406218D01*
Y322879D01*
X500211Y229679D01*
X480141D01*
X478175Y229288D01*
X476508Y228174D01*
X467523Y219189D01*
X457540D01*
Y232410D01*
Y247011D01*
X509950D01*
X511917Y247402D01*
X513584Y248516D01*
X578184Y313116D01*
X579298Y314783D01*
X579689Y316750D01*
Y405652D01*
X580959Y406178D01*
X581670Y405466D01*
X583390Y404474D01*
X585307Y403960D01*
X587293D01*
X589210Y404474D01*
X590930Y405466D01*
X592141Y406678D01*
X592931Y406509D01*
D02*
G37*
G36*
X126736Y176508D02*
X126360Y175238D01*
X124413D01*
X122910Y176106D01*
X120993Y176620D01*
X119007D01*
X117090Y176106D01*
X115587Y175238D01*
X111413D01*
X109910Y176106D01*
X107993Y176620D01*
X106007D01*
X104090Y176106D01*
X102586Y175238D01*
X72535D01*
X70178Y174770D01*
X68180Y173435D01*
X58205Y163460D01*
X56870Y161462D01*
X56402Y159105D01*
Y148285D01*
X56870Y145928D01*
X57020Y145704D01*
Y134900D01*
X70790D01*
Y141940D01*
Y148980D01*
X68718D01*
Y156554D01*
X75086Y162922D01*
X102586D01*
X104090Y162054D01*
X106007Y161540D01*
X107993D01*
X109910Y162054D01*
X111413Y162922D01*
X115587D01*
X117090Y162054D01*
X119007Y161540D01*
X120993D01*
X122910Y162054D01*
X124413Y162922D01*
X127454D01*
X130842Y159534D01*
Y144000D01*
X131311Y141643D01*
X131460Y141419D01*
X131460Y135960D01*
X130343Y135590D01*
X122250D01*
X121259Y135393D01*
X120419Y134831D01*
X119857Y133991D01*
X119660Y133000D01*
Y116293D01*
X119660Y116293D01*
Y114307D01*
X119660Y114307D01*
Y107340D01*
X70590D01*
Y123000D01*
X70393Y123991D01*
X69831Y124831D01*
X68991Y125393D01*
X68451Y125500D01*
X68000Y125590D01*
X57250D01*
X56259Y125393D01*
X55419Y124831D01*
X54857Y123991D01*
X54739Y123399D01*
X53040D01*
Y125500D01*
Y128980D01*
X46000D01*
Y130250D01*
D01*
Y128980D01*
X38960D01*
Y125500D01*
Y123710D01*
Y111210D01*
X53040D01*
Y112101D01*
X54660D01*
Y106290D01*
X41460D01*
Y105389D01*
X38790D01*
Y106290D01*
X37139D01*
Y125500D01*
Y159000D01*
Y163937D01*
X43694Y170491D01*
X44808Y172159D01*
X45199Y174125D01*
Y183980D01*
X46094Y184875D01*
X47086Y186595D01*
X47600Y188512D01*
Y190497D01*
X47086Y192415D01*
X46094Y194135D01*
X44690Y195538D01*
X42970Y196531D01*
X41053Y197045D01*
X39067D01*
X37150Y196531D01*
X35608Y195641D01*
X34225Y195896D01*
X34086Y196415D01*
X33094Y198134D01*
X32103Y199125D01*
X32629Y200395D01*
X102850D01*
X126736Y176508D01*
D02*
G37*
G36*
X521161Y185298D02*
Y143428D01*
X505666Y127934D01*
X504552Y126266D01*
X504161Y124300D01*
Y97628D01*
X496171Y89639D01*
X441824D01*
X440930Y90534D01*
X439210Y91526D01*
X437293Y92040D01*
X435307D01*
X433390Y91526D01*
X431670Y90534D01*
X430776Y89639D01*
X425348D01*
X424190Y89910D01*
Y108883D01*
X425363Y109369D01*
X425916Y108816D01*
X427583Y107703D01*
X429550Y107311D01*
X432460D01*
Y105410D01*
X457540D01*
Y120011D01*
X470395D01*
Y118396D01*
X484365D01*
Y131604D01*
X470395D01*
Y130289D01*
X457540D01*
Y132711D01*
X460850D01*
X462817Y133103D01*
X464484Y134216D01*
X495169Y164901D01*
X505040D01*
X507006Y165292D01*
X508674Y166406D01*
X510727Y168460D01*
X511993D01*
X513910Y168974D01*
X515630Y169967D01*
X517034Y171370D01*
X518026Y173090D01*
X518540Y175007D01*
Y176993D01*
X518026Y178910D01*
X517034Y180630D01*
X516139Y181525D01*
Y182071D01*
X519891Y185824D01*
X521161Y185298D01*
D02*
G37*
G36*
X339390Y132631D02*
X338974Y131910D01*
X338460Y129993D01*
Y128007D01*
X338974Y126090D01*
X339967Y124370D01*
X341370Y122966D01*
X343090Y121974D01*
X345007Y121460D01*
X346993D01*
X348910Y121974D01*
X350630Y122966D01*
X351524Y123861D01*
X368000D01*
X369967Y124252D01*
X371634Y125366D01*
X378129Y131861D01*
X395996D01*
X396336Y130591D01*
X395370Y130034D01*
X393966Y128630D01*
X392974Y126910D01*
X392460Y124993D01*
Y123007D01*
X392974Y121090D01*
X393966Y119370D01*
X395370Y117966D01*
X397090Y116974D01*
X399007Y116460D01*
X399311D01*
Y114990D01*
X304120D01*
Y102450D01*
Y89910D01*
X310411D01*
Y85450D01*
X310802Y83483D01*
X311916Y81816D01*
X314873Y78860D01*
X314347Y77590D01*
X282165D01*
X259605Y100150D01*
Y107120D01*
X259952Y107305D01*
X260875Y107667D01*
X262460Y107351D01*
Y105410D01*
X287540D01*
Y120011D01*
X287801D01*
X289768Y120402D01*
X291435Y121516D01*
X303820Y133901D01*
X338657D01*
X339390Y132631D01*
D02*
G37*
G36*
X302750Y49500D02*
Y24500D01*
X295750Y17500D01*
Y56500D01*
X302750Y49500D01*
D02*
G37*
%LPC*%
G36*
X456521Y513495D02*
X456370D01*
Y503970D01*
X465895D01*
Y504121D01*
X465159Y506867D01*
X463738Y509328D01*
X461728Y511338D01*
X459267Y512759D01*
X456521Y513495D01*
D02*
G37*
G36*
X453830D02*
X453679D01*
X450933Y512759D01*
X448472Y511338D01*
X446462Y509328D01*
X445041Y506867D01*
X444305Y504121D01*
Y503970D01*
X453830D01*
Y513495D01*
D02*
G37*
G36*
X405721D02*
X405570D01*
Y503970D01*
X415095D01*
Y504121D01*
X414359Y506867D01*
X412938Y509328D01*
X410928Y511338D01*
X408467Y512759D01*
X405721Y513495D01*
D02*
G37*
G36*
X403030D02*
X402879D01*
X400133Y512759D01*
X397672Y511338D01*
X395662Y509328D01*
X394241Y506867D01*
X393505Y504121D01*
Y503970D01*
X403030D01*
Y513495D01*
D02*
G37*
G36*
X278721D02*
X278570D01*
Y503970D01*
X288095D01*
Y504121D01*
X287359Y506867D01*
X285938Y509328D01*
X283928Y511338D01*
X281467Y512759D01*
X278721Y513495D01*
D02*
G37*
G36*
X276030D02*
X275879D01*
X273133Y512759D01*
X270672Y511338D01*
X268662Y509328D01*
X267241Y506867D01*
X266505Y504121D01*
Y503970D01*
X276030D01*
Y513495D01*
D02*
G37*
G36*
X202521D02*
X202370D01*
Y503970D01*
X211895D01*
Y504121D01*
X211159Y506867D01*
X209738Y509328D01*
X207728Y511338D01*
X205267Y512759D01*
X202521Y513495D01*
D02*
G37*
G36*
X199830D02*
X199679D01*
X196933Y512759D01*
X194472Y511338D01*
X192462Y509328D01*
X191041Y506867D01*
X190305Y504121D01*
Y503970D01*
X199830D01*
Y513495D01*
D02*
G37*
G36*
X100921D02*
X100770D01*
Y503970D01*
X110295D01*
Y504121D01*
X109559Y506867D01*
X108138Y509328D01*
X106128Y511338D01*
X103667Y512759D01*
X100921Y513495D01*
D02*
G37*
G36*
X98230D02*
X98079D01*
X95333Y512759D01*
X92872Y511338D01*
X90862Y509328D01*
X89441Y506867D01*
X88705Y504121D01*
Y503970D01*
X98230D01*
Y513495D01*
D02*
G37*
G36*
X532721D02*
X529879D01*
X527133Y512759D01*
X524672Y511338D01*
X522662Y509328D01*
X521241Y506867D01*
X520505Y504121D01*
Y501279D01*
X521241Y498533D01*
X522662Y496072D01*
X524672Y494062D01*
X527133Y492641D01*
X529879Y491905D01*
X532721D01*
X535467Y492641D01*
X537928Y494062D01*
X539938Y496072D01*
X541359Y498533D01*
X542095Y501279D01*
Y504121D01*
X541359Y506867D01*
X539938Y509328D01*
X537928Y511338D01*
X535467Y512759D01*
X532721Y513495D01*
D02*
G37*
G36*
X507321D02*
X504479D01*
X501733Y512759D01*
X499272Y511338D01*
X497262Y509328D01*
X495841Y506867D01*
X495105Y504121D01*
Y501279D01*
X495841Y498533D01*
X497262Y496072D01*
X499272Y494062D01*
X501733Y492641D01*
X504479Y491905D01*
X507321D01*
X510067Y492641D01*
X512528Y494062D01*
X514538Y496072D01*
X515959Y498533D01*
X516695Y501279D01*
Y504121D01*
X515959Y506867D01*
X514538Y509328D01*
X512528Y511338D01*
X510067Y512759D01*
X507321Y513495D01*
D02*
G37*
G36*
X481921D02*
X479079D01*
X476333Y512759D01*
X473872Y511338D01*
X471862Y509328D01*
X470441Y506867D01*
X469705Y504121D01*
Y501279D01*
X470441Y498533D01*
X471862Y496072D01*
X473872Y494062D01*
X476333Y492641D01*
X479079Y491905D01*
X481921D01*
X484667Y492641D01*
X487128Y494062D01*
X489138Y496072D01*
X490559Y498533D01*
X491295Y501279D01*
Y504121D01*
X490559Y506867D01*
X489138Y509328D01*
X487128Y511338D01*
X484667Y512759D01*
X481921Y513495D01*
D02*
G37*
G36*
X465895Y501430D02*
X456370D01*
Y491905D01*
X456521D01*
X459267Y492641D01*
X461728Y494062D01*
X463738Y496072D01*
X465159Y498533D01*
X465895Y501279D01*
Y501430D01*
D02*
G37*
G36*
X453830D02*
X444305D01*
Y501279D01*
X445041Y498533D01*
X446462Y496072D01*
X448472Y494062D01*
X450933Y492641D01*
X453679Y491905D01*
X453830D01*
Y501430D01*
D02*
G37*
G36*
X431121Y513495D02*
X428279D01*
X425533Y512759D01*
X423072Y511338D01*
X421062Y509328D01*
X419641Y506867D01*
X418905Y504121D01*
Y501279D01*
X419641Y498533D01*
X421062Y496072D01*
X423072Y494062D01*
X425533Y492641D01*
X428279Y491905D01*
X431121D01*
X433867Y492641D01*
X436328Y494062D01*
X438338Y496072D01*
X439759Y498533D01*
X440495Y501279D01*
Y504121D01*
X439759Y506867D01*
X438338Y509328D01*
X436328Y511338D01*
X433867Y512759D01*
X431121Y513495D01*
D02*
G37*
G36*
X415095Y501430D02*
X405570D01*
Y491905D01*
X405721D01*
X408467Y492641D01*
X410928Y494062D01*
X412938Y496072D01*
X414359Y498533D01*
X415095Y501279D01*
Y501430D01*
D02*
G37*
G36*
X403030D02*
X393505D01*
Y501279D01*
X394241Y498533D01*
X395662Y496072D01*
X397672Y494062D01*
X400133Y492641D01*
X402879Y491905D01*
X403030D01*
Y501430D01*
D02*
G37*
G36*
X380321Y513495D02*
X377479D01*
X374733Y512759D01*
X372272Y511338D01*
X370262Y509328D01*
X368841Y506867D01*
X368105Y504121D01*
Y501279D01*
X368841Y498533D01*
X370262Y496072D01*
X372272Y494062D01*
X374733Y492641D01*
X377479Y491905D01*
X380321D01*
X383067Y492641D01*
X385528Y494062D01*
X387538Y496072D01*
X388959Y498533D01*
X389695Y501279D01*
Y504121D01*
X388959Y506867D01*
X387538Y509328D01*
X385528Y511338D01*
X383067Y512759D01*
X380321Y513495D01*
D02*
G37*
G36*
X354921D02*
X352079D01*
X349333Y512759D01*
X346872Y511338D01*
X344862Y509328D01*
X343441Y506867D01*
X342705Y504121D01*
Y501279D01*
X343441Y498533D01*
X344862Y496072D01*
X346872Y494062D01*
X349333Y492641D01*
X352079Y491905D01*
X354921D01*
X357667Y492641D01*
X360128Y494062D01*
X362138Y496072D01*
X363559Y498533D01*
X364295Y501279D01*
Y504121D01*
X363559Y506867D01*
X362138Y509328D01*
X360128Y511338D01*
X357667Y512759D01*
X354921Y513495D01*
D02*
G37*
G36*
X329521D02*
X326679D01*
X323933Y512759D01*
X321472Y511338D01*
X319462Y509328D01*
X318041Y506867D01*
X317305Y504121D01*
Y501279D01*
X318041Y498533D01*
X319462Y496072D01*
X321472Y494062D01*
X323933Y492641D01*
X326679Y491905D01*
X329521D01*
X332267Y492641D01*
X334728Y494062D01*
X336738Y496072D01*
X338159Y498533D01*
X338895Y501279D01*
Y504121D01*
X338159Y506867D01*
X336738Y509328D01*
X334728Y511338D01*
X332267Y512759D01*
X329521Y513495D01*
D02*
G37*
G36*
X304121D02*
X301279D01*
X298533Y512759D01*
X296072Y511338D01*
X294062Y509328D01*
X292641Y506867D01*
X291905Y504121D01*
Y501279D01*
X292641Y498533D01*
X294062Y496072D01*
X296072Y494062D01*
X298533Y492641D01*
X301279Y491905D01*
X304121D01*
X306867Y492641D01*
X309328Y494062D01*
X311338Y496072D01*
X312759Y498533D01*
X313495Y501279D01*
Y504121D01*
X312759Y506867D01*
X311338Y509328D01*
X309328Y511338D01*
X306867Y512759D01*
X304121Y513495D01*
D02*
G37*
G36*
X288095Y501430D02*
X278570D01*
Y491905D01*
X278721D01*
X281467Y492641D01*
X283928Y494062D01*
X285938Y496072D01*
X287359Y498533D01*
X288095Y501279D01*
Y501430D01*
D02*
G37*
G36*
X276030D02*
X266505D01*
Y501279D01*
X267241Y498533D01*
X268662Y496072D01*
X270672Y494062D01*
X273133Y492641D01*
X275879Y491905D01*
X276030D01*
Y501430D01*
D02*
G37*
G36*
X253321Y513495D02*
X250479D01*
X247733Y512759D01*
X245272Y511338D01*
X243262Y509328D01*
X241841Y506867D01*
X241105Y504121D01*
Y501279D01*
X241841Y498533D01*
X243262Y496072D01*
X245272Y494062D01*
X247733Y492641D01*
X250479Y491905D01*
X253321D01*
X256067Y492641D01*
X258528Y494062D01*
X260538Y496072D01*
X261959Y498533D01*
X262695Y501279D01*
Y504121D01*
X261959Y506867D01*
X260538Y509328D01*
X258528Y511338D01*
X256067Y512759D01*
X253321Y513495D01*
D02*
G37*
G36*
X227921D02*
X225079D01*
X222333Y512759D01*
X219872Y511338D01*
X217862Y509328D01*
X216441Y506867D01*
X215705Y504121D01*
Y501279D01*
X216441Y498533D01*
X217862Y496072D01*
X219872Y494062D01*
X222333Y492641D01*
X225079Y491905D01*
X227921D01*
X230667Y492641D01*
X233128Y494062D01*
X235138Y496072D01*
X236559Y498533D01*
X237295Y501279D01*
Y504121D01*
X236559Y506867D01*
X235138Y509328D01*
X233128Y511338D01*
X230667Y512759D01*
X227921Y513495D01*
D02*
G37*
G36*
X211895Y501430D02*
X202370D01*
Y491905D01*
X202521D01*
X205267Y492641D01*
X207728Y494062D01*
X209738Y496072D01*
X211159Y498533D01*
X211895Y501279D01*
Y501430D01*
D02*
G37*
G36*
X199830D02*
X190305D01*
Y501279D01*
X191041Y498533D01*
X192462Y496072D01*
X194472Y494062D01*
X196933Y492641D01*
X199679Y491905D01*
X199830D01*
Y501430D01*
D02*
G37*
G36*
X177121Y513495D02*
X174279D01*
X171533Y512759D01*
X169072Y511338D01*
X167062Y509328D01*
X165641Y506867D01*
X164905Y504121D01*
Y501279D01*
X165641Y498533D01*
X167062Y496072D01*
X169072Y494062D01*
X171533Y492641D01*
X174279Y491905D01*
X177121D01*
X179867Y492641D01*
X182328Y494062D01*
X184338Y496072D01*
X185759Y498533D01*
X186495Y501279D01*
Y504121D01*
X185759Y506867D01*
X184338Y509328D01*
X182328Y511338D01*
X179867Y512759D01*
X177121Y513495D01*
D02*
G37*
G36*
X151721D02*
X148879D01*
X146133Y512759D01*
X143672Y511338D01*
X141662Y509328D01*
X140241Y506867D01*
X139505Y504121D01*
Y501279D01*
X140241Y498533D01*
X141662Y496072D01*
X143672Y494062D01*
X146133Y492641D01*
X148879Y491905D01*
X151721D01*
X154467Y492641D01*
X156928Y494062D01*
X158938Y496072D01*
X160359Y498533D01*
X161095Y501279D01*
Y504121D01*
X160359Y506867D01*
X158938Y509328D01*
X156928Y511338D01*
X154467Y512759D01*
X151721Y513495D01*
D02*
G37*
G36*
X126321D02*
X123479D01*
X120733Y512759D01*
X118272Y511338D01*
X116262Y509328D01*
X114841Y506867D01*
X114105Y504121D01*
Y501279D01*
X114841Y498533D01*
X116262Y496072D01*
X118272Y494062D01*
X120733Y492641D01*
X123479Y491905D01*
X126321D01*
X129067Y492641D01*
X131528Y494062D01*
X133538Y496072D01*
X134959Y498533D01*
X135695Y501279D01*
Y504121D01*
X134959Y506867D01*
X133538Y509328D01*
X131528Y511338D01*
X129067Y512759D01*
X126321Y513495D01*
D02*
G37*
G36*
X110295Y501430D02*
X100770D01*
Y491905D01*
X100921D01*
X103667Y492641D01*
X106128Y494062D01*
X108138Y496072D01*
X109559Y498533D01*
X110295Y501279D01*
Y501430D01*
D02*
G37*
G36*
X98230D02*
X88705D01*
Y501279D01*
X89441Y498533D01*
X90862Y496072D01*
X92872Y494062D01*
X95333Y492641D01*
X98079Y491905D01*
X98230D01*
Y501430D01*
D02*
G37*
G36*
X75521Y513495D02*
X72679D01*
X69933Y512759D01*
X67472Y511338D01*
X65462Y509328D01*
X64041Y506867D01*
X63305Y504121D01*
Y501279D01*
X64041Y498533D01*
X65462Y496072D01*
X67472Y494062D01*
X69933Y492641D01*
X72679Y491905D01*
X75521D01*
X78267Y492641D01*
X80728Y494062D01*
X82738Y496072D01*
X84159Y498533D01*
X84895Y501279D01*
Y504121D01*
X84159Y506867D01*
X82738Y509328D01*
X80728Y511338D01*
X78267Y512759D01*
X75521Y513495D01*
D02*
G37*
G36*
X50121D02*
X47279D01*
X44533Y512759D01*
X42072Y511338D01*
X40062Y509328D01*
X38641Y506867D01*
X37905Y504121D01*
Y501279D01*
X38641Y498533D01*
X40062Y496072D01*
X42072Y494062D01*
X44533Y492641D01*
X47279Y491905D01*
X50121D01*
X52867Y492641D01*
X55328Y494062D01*
X57338Y496072D01*
X58759Y498533D01*
X59495Y501279D01*
Y504121D01*
X58759Y506867D01*
X57338Y509328D01*
X55328Y511338D01*
X52867Y512759D01*
X50121Y513495D01*
D02*
G37*
G36*
X532721Y488095D02*
X532570D01*
Y478570D01*
X542095D01*
Y478721D01*
X541359Y481467D01*
X539938Y483928D01*
X537928Y485938D01*
X535467Y487359D01*
X532721Y488095D01*
D02*
G37*
G36*
X530030D02*
X529879D01*
X527133Y487359D01*
X524672Y485938D01*
X522662Y483928D01*
X521241Y481467D01*
X520505Y478721D01*
Y478570D01*
X530030D01*
Y488095D01*
D02*
G37*
G36*
X354921D02*
X354770D01*
Y478570D01*
X364295D01*
Y478721D01*
X363559Y481467D01*
X362138Y483928D01*
X360128Y485938D01*
X357667Y487359D01*
X354921Y488095D01*
D02*
G37*
G36*
X352230D02*
X352079D01*
X349333Y487359D01*
X346872Y485938D01*
X344862Y483928D01*
X343441Y481467D01*
X342705Y478721D01*
Y478570D01*
X352230D01*
Y488095D01*
D02*
G37*
G36*
X151721D02*
X151570D01*
Y478570D01*
X161095D01*
Y478721D01*
X160359Y481467D01*
X158938Y483928D01*
X156928Y485938D01*
X154467Y487359D01*
X151721Y488095D01*
D02*
G37*
G36*
X149030D02*
X148879D01*
X146133Y487359D01*
X143672Y485938D01*
X141662Y483928D01*
X140241Y481467D01*
X139505Y478721D01*
Y478570D01*
X149030D01*
Y488095D01*
D02*
G37*
G36*
X542095Y476030D02*
X532570D01*
Y466505D01*
X532721D01*
X535467Y467241D01*
X537928Y468662D01*
X539938Y470672D01*
X541359Y473133D01*
X542095Y475879D01*
Y476030D01*
D02*
G37*
G36*
X530030D02*
X520505D01*
Y475879D01*
X521241Y473133D01*
X522662Y470672D01*
X524672Y468662D01*
X527133Y467241D01*
X529879Y466505D01*
X530030D01*
Y476030D01*
D02*
G37*
G36*
X507321Y488095D02*
X504479D01*
X501733Y487359D01*
X499272Y485938D01*
X497262Y483928D01*
X495841Y481467D01*
X495105Y478721D01*
Y475879D01*
X495841Y473133D01*
X497262Y470672D01*
X499272Y468662D01*
X501733Y467241D01*
X504479Y466505D01*
X507321D01*
X510067Y467241D01*
X512528Y468662D01*
X514538Y470672D01*
X515959Y473133D01*
X516695Y475879D01*
Y478721D01*
X515959Y481467D01*
X514538Y483928D01*
X512528Y485938D01*
X510067Y487359D01*
X507321Y488095D01*
D02*
G37*
G36*
X481921D02*
X479079D01*
X476333Y487359D01*
X473872Y485938D01*
X471862Y483928D01*
X470441Y481467D01*
X469705Y478721D01*
Y475879D01*
X470441Y473133D01*
X471862Y470672D01*
X473872Y468662D01*
X476333Y467241D01*
X479079Y466505D01*
X481921D01*
X484667Y467241D01*
X487128Y468662D01*
X489138Y470672D01*
X490559Y473133D01*
X491295Y475879D01*
Y478721D01*
X490559Y481467D01*
X489138Y483928D01*
X487128Y485938D01*
X484667Y487359D01*
X481921Y488095D01*
D02*
G37*
G36*
X456521D02*
X453679D01*
X450933Y487359D01*
X448472Y485938D01*
X446462Y483928D01*
X445041Y481467D01*
X444305Y478721D01*
Y475879D01*
X445041Y473133D01*
X446462Y470672D01*
X448472Y468662D01*
X450933Y467241D01*
X453679Y466505D01*
X456521D01*
X459267Y467241D01*
X461728Y468662D01*
X463738Y470672D01*
X465159Y473133D01*
X465895Y475879D01*
Y478721D01*
X465159Y481467D01*
X463738Y483928D01*
X461728Y485938D01*
X459267Y487359D01*
X456521Y488095D01*
D02*
G37*
G36*
X431121D02*
X428279D01*
X425533Y487359D01*
X423072Y485938D01*
X421062Y483928D01*
X419641Y481467D01*
X418905Y478721D01*
Y475879D01*
X419641Y473133D01*
X421062Y470672D01*
X423072Y468662D01*
X425533Y467241D01*
X428279Y466505D01*
X431121D01*
X433867Y467241D01*
X436328Y468662D01*
X438338Y470672D01*
X439759Y473133D01*
X440495Y475879D01*
Y478721D01*
X439759Y481467D01*
X438338Y483928D01*
X436328Y485938D01*
X433867Y487359D01*
X431121Y488095D01*
D02*
G37*
G36*
X405721D02*
X402879D01*
X400133Y487359D01*
X397672Y485938D01*
X395662Y483928D01*
X394241Y481467D01*
X393505Y478721D01*
Y475879D01*
X394241Y473133D01*
X395662Y470672D01*
X397672Y468662D01*
X400133Y467241D01*
X402879Y466505D01*
X405721D01*
X408467Y467241D01*
X410928Y468662D01*
X412938Y470672D01*
X414359Y473133D01*
X415095Y475879D01*
Y478721D01*
X414359Y481467D01*
X412938Y483928D01*
X410928Y485938D01*
X408467Y487359D01*
X405721Y488095D01*
D02*
G37*
G36*
X380321D02*
X377479D01*
X374733Y487359D01*
X372272Y485938D01*
X370262Y483928D01*
X368841Y481467D01*
X368105Y478721D01*
Y475879D01*
X368841Y473133D01*
X370262Y470672D01*
X372272Y468662D01*
X374733Y467241D01*
X377479Y466505D01*
X380321D01*
X383067Y467241D01*
X385528Y468662D01*
X387538Y470672D01*
X388959Y473133D01*
X389695Y475879D01*
Y478721D01*
X388959Y481467D01*
X387538Y483928D01*
X385528Y485938D01*
X383067Y487359D01*
X380321Y488095D01*
D02*
G37*
G36*
X364295Y476030D02*
X354770D01*
Y466505D01*
X354921D01*
X357667Y467241D01*
X360128Y468662D01*
X362138Y470672D01*
X363559Y473133D01*
X364295Y475879D01*
Y476030D01*
D02*
G37*
G36*
X352230D02*
X342705D01*
Y475879D01*
X343441Y473133D01*
X344862Y470672D01*
X346872Y468662D01*
X349333Y467241D01*
X352079Y466505D01*
X352230D01*
Y476030D01*
D02*
G37*
G36*
X329521Y488095D02*
X326679D01*
X323933Y487359D01*
X321472Y485938D01*
X319462Y483928D01*
X318041Y481467D01*
X317305Y478721D01*
Y475879D01*
X318041Y473133D01*
X319462Y470672D01*
X321472Y468662D01*
X323933Y467241D01*
X326679Y466505D01*
X329521D01*
X332267Y467241D01*
X334728Y468662D01*
X336738Y470672D01*
X338159Y473133D01*
X338895Y475879D01*
Y478721D01*
X338159Y481467D01*
X336738Y483928D01*
X334728Y485938D01*
X332267Y487359D01*
X329521Y488095D01*
D02*
G37*
G36*
X304121D02*
X301279D01*
X298533Y487359D01*
X296072Y485938D01*
X294062Y483928D01*
X292641Y481467D01*
X291905Y478721D01*
Y475879D01*
X292641Y473133D01*
X294062Y470672D01*
X296072Y468662D01*
X298533Y467241D01*
X301279Y466505D01*
X304121D01*
X306867Y467241D01*
X309328Y468662D01*
X311338Y470672D01*
X312759Y473133D01*
X313495Y475879D01*
Y478721D01*
X312759Y481467D01*
X311338Y483928D01*
X309328Y485938D01*
X306867Y487359D01*
X304121Y488095D01*
D02*
G37*
G36*
X278721D02*
X275879D01*
X273133Y487359D01*
X270672Y485938D01*
X268662Y483928D01*
X267241Y481467D01*
X266505Y478721D01*
Y475879D01*
X267241Y473133D01*
X268662Y470672D01*
X270672Y468662D01*
X273133Y467241D01*
X275879Y466505D01*
X278721D01*
X281467Y467241D01*
X283928Y468662D01*
X285938Y470672D01*
X287359Y473133D01*
X288095Y475879D01*
Y478721D01*
X287359Y481467D01*
X285938Y483928D01*
X283928Y485938D01*
X281467Y487359D01*
X278721Y488095D01*
D02*
G37*
G36*
X253321D02*
X250479D01*
X247733Y487359D01*
X245272Y485938D01*
X243262Y483928D01*
X241841Y481467D01*
X241105Y478721D01*
Y475879D01*
X241841Y473133D01*
X243262Y470672D01*
X245272Y468662D01*
X247733Y467241D01*
X250479Y466505D01*
X253321D01*
X256067Y467241D01*
X258528Y468662D01*
X260538Y470672D01*
X261959Y473133D01*
X262695Y475879D01*
Y478721D01*
X261959Y481467D01*
X260538Y483928D01*
X258528Y485938D01*
X256067Y487359D01*
X253321Y488095D01*
D02*
G37*
G36*
X227921D02*
X225079D01*
X222333Y487359D01*
X219872Y485938D01*
X217862Y483928D01*
X216441Y481467D01*
X215705Y478721D01*
Y475879D01*
X216441Y473133D01*
X217862Y470672D01*
X219872Y468662D01*
X222333Y467241D01*
X225079Y466505D01*
X227921D01*
X230667Y467241D01*
X233128Y468662D01*
X235138Y470672D01*
X236559Y473133D01*
X237295Y475879D01*
Y478721D01*
X236559Y481467D01*
X235138Y483928D01*
X233128Y485938D01*
X230667Y487359D01*
X227921Y488095D01*
D02*
G37*
G36*
X202521D02*
X199679D01*
X196933Y487359D01*
X194472Y485938D01*
X192462Y483928D01*
X191041Y481467D01*
X190305Y478721D01*
Y475879D01*
X191041Y473133D01*
X192462Y470672D01*
X194472Y468662D01*
X196933Y467241D01*
X199679Y466505D01*
X202521D01*
X205267Y467241D01*
X207728Y468662D01*
X209738Y470672D01*
X211159Y473133D01*
X211895Y475879D01*
Y478721D01*
X211159Y481467D01*
X209738Y483928D01*
X207728Y485938D01*
X205267Y487359D01*
X202521Y488095D01*
D02*
G37*
G36*
X177121D02*
X174279D01*
X171533Y487359D01*
X169072Y485938D01*
X167062Y483928D01*
X165641Y481467D01*
X164905Y478721D01*
Y475879D01*
X165641Y473133D01*
X167062Y470672D01*
X169072Y468662D01*
X171533Y467241D01*
X174279Y466505D01*
X177121D01*
X179867Y467241D01*
X182328Y468662D01*
X184338Y470672D01*
X185759Y473133D01*
X186495Y475879D01*
Y478721D01*
X185759Y481467D01*
X184338Y483928D01*
X182328Y485938D01*
X179867Y487359D01*
X177121Y488095D01*
D02*
G37*
G36*
X161095Y476030D02*
X151570D01*
Y466505D01*
X151721D01*
X154467Y467241D01*
X156928Y468662D01*
X158938Y470672D01*
X160359Y473133D01*
X161095Y475879D01*
Y476030D01*
D02*
G37*
G36*
X149030D02*
X139505D01*
Y475879D01*
X140241Y473133D01*
X141662Y470672D01*
X143672Y468662D01*
X146133Y467241D01*
X148879Y466505D01*
X149030D01*
Y476030D01*
D02*
G37*
G36*
X126321Y488095D02*
X123479D01*
X120733Y487359D01*
X118272Y485938D01*
X116262Y483928D01*
X114841Y481467D01*
X114105Y478721D01*
Y475879D01*
X114841Y473133D01*
X116262Y470672D01*
X118272Y468662D01*
X120733Y467241D01*
X123479Y466505D01*
X126321D01*
X129067Y467241D01*
X131528Y468662D01*
X133538Y470672D01*
X134959Y473133D01*
X135695Y475879D01*
Y478721D01*
X134959Y481467D01*
X133538Y483928D01*
X131528Y485938D01*
X129067Y487359D01*
X126321Y488095D01*
D02*
G37*
G36*
X100921D02*
X98079D01*
X95333Y487359D01*
X92872Y485938D01*
X90862Y483928D01*
X89441Y481467D01*
X88705Y478721D01*
Y475879D01*
X89441Y473133D01*
X90862Y470672D01*
X92872Y468662D01*
X95333Y467241D01*
X98079Y466505D01*
X100921D01*
X103667Y467241D01*
X106128Y468662D01*
X108138Y470672D01*
X109559Y473133D01*
X110295Y475879D01*
Y478721D01*
X109559Y481467D01*
X108138Y483928D01*
X106128Y485938D01*
X103667Y487359D01*
X100921Y488095D01*
D02*
G37*
G36*
X75521D02*
X72679D01*
X69933Y487359D01*
X67472Y485938D01*
X65462Y483928D01*
X64041Y481467D01*
X63305Y478721D01*
Y475879D01*
X64041Y473133D01*
X65462Y470672D01*
X67472Y468662D01*
X69933Y467241D01*
X72679Y466505D01*
X75521D01*
X78267Y467241D01*
X80728Y468662D01*
X82738Y470672D01*
X84159Y473133D01*
X84895Y475879D01*
Y478721D01*
X84159Y481467D01*
X82738Y483928D01*
X80728Y485938D01*
X78267Y487359D01*
X75521Y488095D01*
D02*
G37*
G36*
X756697Y470040D02*
X754449D01*
X752277Y469458D01*
X750329Y468334D01*
X748739Y466744D01*
X747615Y464796D01*
X747033Y462624D01*
Y460376D01*
X747615Y458204D01*
X748739Y456256D01*
X750329Y454666D01*
X752277Y453542D01*
X754449Y452960D01*
X756697D01*
X758869Y453542D01*
X760817Y454666D01*
X762407Y456256D01*
X763531Y458204D01*
X764113Y460376D01*
Y462624D01*
X763531Y464796D01*
X762407Y466744D01*
X760817Y468334D01*
X758869Y469458D01*
X756697Y470040D01*
D02*
G37*
G36*
X656697D02*
X654449D01*
X652277Y469458D01*
X650329Y468334D01*
X648739Y466744D01*
X647615Y464796D01*
X647033Y462624D01*
Y460376D01*
X647615Y458204D01*
X648739Y456256D01*
X650329Y454666D01*
X652277Y453542D01*
X654449Y452960D01*
X656697D01*
X658869Y453542D01*
X660817Y454666D01*
X662407Y456256D01*
X663531Y458204D01*
X664113Y460376D01*
Y462624D01*
X663531Y464796D01*
X662407Y466744D01*
X660817Y468334D01*
X658869Y469458D01*
X656697Y470040D01*
D02*
G37*
G36*
X757097Y450001D02*
Y442770D01*
X764328D01*
X763785Y444796D01*
X762661Y446744D01*
X761071Y448334D01*
X759123Y449458D01*
X757097Y450001D01*
D02*
G37*
G36*
X657097D02*
Y442770D01*
X664328D01*
X663785Y444796D01*
X662661Y446744D01*
X661071Y448334D01*
X659123Y449458D01*
X657097Y450001D01*
D02*
G37*
G36*
X754557Y450001D02*
X752531Y449458D01*
X750583Y448334D01*
X748993Y446744D01*
X747869Y444796D01*
X747326Y442770D01*
X754557D01*
Y450001D01*
D02*
G37*
G36*
X654557D02*
X652531Y449458D01*
X650583Y448334D01*
X648993Y446744D01*
X647869Y444796D01*
X647326Y442770D01*
X654557D01*
Y450001D01*
D02*
G37*
G36*
X754557Y440230D02*
X747326D01*
X747869Y438204D01*
X748993Y436256D01*
X750583Y434666D01*
X752531Y433542D01*
X754557Y432999D01*
Y440230D01*
D02*
G37*
G36*
X654557D02*
X647326D01*
X647869Y438204D01*
X648993Y436256D01*
X650583Y434666D01*
X652531Y433542D01*
X654557Y432999D01*
Y440230D01*
D02*
G37*
G36*
X764328D02*
X757097D01*
Y432999D01*
X759123Y433542D01*
X761071Y434666D01*
X762661Y436256D01*
X763785Y438204D01*
X764328Y440230D01*
D02*
G37*
G36*
X664328D02*
X657097D01*
Y432999D01*
X659123Y433542D01*
X661071Y434666D01*
X662661Y436256D01*
X663785Y438204D01*
X664328Y440230D01*
D02*
G37*
G36*
X532655Y436790D02*
X529945D01*
X527328Y436089D01*
X524982Y434734D01*
X523066Y432818D01*
X521711Y430472D01*
X521010Y427855D01*
Y425145D01*
X521711Y422528D01*
X523066Y420182D01*
X524982Y418266D01*
X527328Y416911D01*
X529945Y416210D01*
X532655D01*
X535272Y416911D01*
X537618Y418266D01*
X539534Y420182D01*
X540889Y422528D01*
X541590Y425145D01*
Y427855D01*
X540889Y430472D01*
X539534Y432818D01*
X537618Y434734D01*
X535272Y436089D01*
X532655Y436790D01*
D02*
G37*
G36*
X481855D02*
X479145D01*
X476528Y436089D01*
X474182Y434734D01*
X472266Y432818D01*
X470911Y430472D01*
X470210Y427855D01*
Y425145D01*
X470911Y422528D01*
X472266Y420182D01*
X474182Y418266D01*
X476528Y416911D01*
X479145Y416210D01*
X481855D01*
X484472Y416911D01*
X486818Y418266D01*
X488734Y420182D01*
X490089Y422528D01*
X490790Y425145D01*
Y427855D01*
X490089Y430472D01*
X488734Y432818D01*
X486818Y434734D01*
X484472Y436089D01*
X481855Y436790D01*
D02*
G37*
G36*
X456455D02*
X453745D01*
X451128Y436089D01*
X448782Y434734D01*
X446866Y432818D01*
X445511Y430472D01*
X444810Y427855D01*
Y425145D01*
X445511Y422528D01*
X446866Y420182D01*
X448782Y418266D01*
X451128Y416911D01*
X453745Y416210D01*
X456455D01*
X459072Y416911D01*
X461418Y418266D01*
X463334Y420182D01*
X464689Y422528D01*
X465390Y425145D01*
Y427855D01*
X464689Y430472D01*
X463334Y432818D01*
X461418Y434734D01*
X459072Y436089D01*
X456455Y436790D01*
D02*
G37*
G36*
X431055D02*
X428345D01*
X425728Y436089D01*
X423382Y434734D01*
X421466Y432818D01*
X420111Y430472D01*
X419410Y427855D01*
Y425145D01*
X420111Y422528D01*
X421466Y420182D01*
X423382Y418266D01*
X425728Y416911D01*
X428345Y416210D01*
X431055D01*
X433672Y416911D01*
X436018Y418266D01*
X437934Y420182D01*
X439289Y422528D01*
X439990Y425145D01*
Y427855D01*
X439289Y430472D01*
X437934Y432818D01*
X436018Y434734D01*
X433672Y436089D01*
X431055Y436790D01*
D02*
G37*
G36*
X405655D02*
X402945D01*
X400328Y436089D01*
X397982Y434734D01*
X396066Y432818D01*
X394711Y430472D01*
X394010Y427855D01*
Y425145D01*
X394711Y422528D01*
X396066Y420182D01*
X397982Y418266D01*
X400328Y416911D01*
X402945Y416210D01*
X405655D01*
X408272Y416911D01*
X410618Y418266D01*
X412534Y420182D01*
X413889Y422528D01*
X414590Y425145D01*
Y427855D01*
X413889Y430472D01*
X412534Y432818D01*
X410618Y434734D01*
X408272Y436089D01*
X405655Y436790D01*
D02*
G37*
G36*
X380255D02*
X377545D01*
X374928Y436089D01*
X372582Y434734D01*
X370666Y432818D01*
X369311Y430472D01*
X368610Y427855D01*
Y425145D01*
X369311Y422528D01*
X370666Y420182D01*
X372582Y418266D01*
X374928Y416911D01*
X377545Y416210D01*
X380255D01*
X382872Y416911D01*
X385218Y418266D01*
X387134Y420182D01*
X388489Y422528D01*
X389190Y425145D01*
Y427855D01*
X388489Y430472D01*
X387134Y432818D01*
X385218Y434734D01*
X382872Y436089D01*
X380255Y436790D01*
D02*
G37*
G36*
X354855D02*
X352145D01*
X349528Y436089D01*
X347182Y434734D01*
X345266Y432818D01*
X343911Y430472D01*
X343210Y427855D01*
Y425145D01*
X343911Y422528D01*
X345266Y420182D01*
X347182Y418266D01*
X349528Y416911D01*
X352145Y416210D01*
X354855D01*
X357472Y416911D01*
X359818Y418266D01*
X361734Y420182D01*
X363089Y422528D01*
X363790Y425145D01*
Y427855D01*
X363089Y430472D01*
X361734Y432818D01*
X359818Y434734D01*
X357472Y436089D01*
X354855Y436790D01*
D02*
G37*
G36*
X329455D02*
X326745D01*
X324128Y436089D01*
X321782Y434734D01*
X319866Y432818D01*
X318511Y430472D01*
X317810Y427855D01*
Y425145D01*
X318511Y422528D01*
X319866Y420182D01*
X321782Y418266D01*
X324128Y416911D01*
X326745Y416210D01*
X329455D01*
X332072Y416911D01*
X334418Y418266D01*
X336334Y420182D01*
X337689Y422528D01*
X338390Y425145D01*
Y427855D01*
X337689Y430472D01*
X336334Y432818D01*
X334418Y434734D01*
X332072Y436089D01*
X329455Y436790D01*
D02*
G37*
G36*
X304055D02*
X301345D01*
X298728Y436089D01*
X296382Y434734D01*
X294466Y432818D01*
X293111Y430472D01*
X292410Y427855D01*
Y425145D01*
X293111Y422528D01*
X294466Y420182D01*
X296382Y418266D01*
X298728Y416911D01*
X301345Y416210D01*
X304055D01*
X306672Y416911D01*
X309018Y418266D01*
X310934Y420182D01*
X312289Y422528D01*
X312990Y425145D01*
Y427855D01*
X312289Y430472D01*
X310934Y432818D01*
X309018Y434734D01*
X306672Y436089D01*
X304055Y436790D01*
D02*
G37*
G36*
X204440Y419840D02*
X191170D01*
Y411570D01*
X204440D01*
Y419840D01*
D02*
G37*
G36*
X188630D02*
X175360D01*
Y411570D01*
X188630D01*
Y419840D01*
D02*
G37*
G36*
X52000Y419923D02*
X16000D01*
X13510Y419595D01*
X11189Y418633D01*
X9196Y417104D01*
X7667Y415112D01*
X6705Y412791D01*
X6378Y410300D01*
X6705Y407810D01*
X7667Y405489D01*
X9196Y403496D01*
X11189Y401967D01*
X13510Y401006D01*
X16000Y400678D01*
X29437D01*
X30360Y399840D01*
X30360Y399408D01*
Y391570D01*
X59440D01*
Y399840D01*
X54995D01*
X54743Y401110D01*
X56811Y401967D01*
X58804Y403496D01*
X60333Y405489D01*
X61294Y407810D01*
X61622Y410300D01*
X61294Y412791D01*
X60333Y415112D01*
X58804Y417104D01*
X56811Y418633D01*
X54490Y419595D01*
X52000Y419923D01*
D02*
G37*
G36*
X532655Y411390D02*
X529945D01*
X527328Y410689D01*
X524982Y409334D01*
X523066Y407418D01*
X521711Y405072D01*
X521010Y402455D01*
Y399745D01*
X521711Y397128D01*
X523066Y394782D01*
X524982Y392866D01*
X527328Y391511D01*
X529945Y390810D01*
X532655D01*
X535272Y391511D01*
X537618Y392866D01*
X539534Y394782D01*
X540889Y397128D01*
X541590Y399745D01*
Y402455D01*
X540889Y405072D01*
X539534Y407418D01*
X537618Y409334D01*
X535272Y410689D01*
X532655Y411390D01*
D02*
G37*
G36*
X481855D02*
X479145D01*
X476528Y410689D01*
X474182Y409334D01*
X472266Y407418D01*
X470911Y405072D01*
X470210Y402455D01*
Y399745D01*
X470911Y397128D01*
X472266Y394782D01*
X474182Y392866D01*
X476528Y391511D01*
X479145Y390810D01*
X481855D01*
X484472Y391511D01*
X486818Y392866D01*
X488734Y394782D01*
X490089Y397128D01*
X490790Y399745D01*
Y402455D01*
X490089Y405072D01*
X488734Y407418D01*
X486818Y409334D01*
X484472Y410689D01*
X481855Y411390D01*
D02*
G37*
G36*
X456455D02*
X453745D01*
X451128Y410689D01*
X448782Y409334D01*
X446866Y407418D01*
X445511Y405072D01*
X444810Y402455D01*
Y399745D01*
X445511Y397128D01*
X446866Y394782D01*
X448782Y392866D01*
X451128Y391511D01*
X453745Y390810D01*
X456455D01*
X459072Y391511D01*
X461418Y392866D01*
X463334Y394782D01*
X464689Y397128D01*
X465390Y399745D01*
Y402455D01*
X464689Y405072D01*
X463334Y407418D01*
X461418Y409334D01*
X459072Y410689D01*
X456455Y411390D01*
D02*
G37*
G36*
X431055D02*
X428345D01*
X425728Y410689D01*
X423382Y409334D01*
X421466Y407418D01*
X420111Y405072D01*
X419410Y402455D01*
Y399745D01*
X420111Y397128D01*
X421466Y394782D01*
X423382Y392866D01*
X425728Y391511D01*
X428345Y390810D01*
X431055D01*
X433672Y391511D01*
X436018Y392866D01*
X437934Y394782D01*
X439289Y397128D01*
X439990Y399745D01*
Y402455D01*
X439289Y405072D01*
X437934Y407418D01*
X436018Y409334D01*
X433672Y410689D01*
X431055Y411390D01*
D02*
G37*
G36*
X405655D02*
X402945D01*
X400328Y410689D01*
X397982Y409334D01*
X396066Y407418D01*
X394711Y405072D01*
X394010Y402455D01*
Y399745D01*
X394711Y397128D01*
X396066Y394782D01*
X397982Y392866D01*
X400328Y391511D01*
X402945Y390810D01*
X405655D01*
X408272Y391511D01*
X410618Y392866D01*
X412534Y394782D01*
X413889Y397128D01*
X414590Y399745D01*
Y402455D01*
X413889Y405072D01*
X412534Y407418D01*
X410618Y409334D01*
X408272Y410689D01*
X405655Y411390D01*
D02*
G37*
G36*
X380255D02*
X377545D01*
X374928Y410689D01*
X372582Y409334D01*
X370666Y407418D01*
X369311Y405072D01*
X368610Y402455D01*
Y399745D01*
X369311Y397128D01*
X370666Y394782D01*
X372582Y392866D01*
X374928Y391511D01*
X377545Y390810D01*
X380255D01*
X382872Y391511D01*
X385218Y392866D01*
X387134Y394782D01*
X388489Y397128D01*
X389190Y399745D01*
Y402455D01*
X388489Y405072D01*
X387134Y407418D01*
X385218Y409334D01*
X382872Y410689D01*
X380255Y411390D01*
D02*
G37*
G36*
X354855D02*
X352145D01*
X349528Y410689D01*
X347182Y409334D01*
X345266Y407418D01*
X343911Y405072D01*
X343210Y402455D01*
Y399745D01*
X343911Y397128D01*
X345266Y394782D01*
X347182Y392866D01*
X349528Y391511D01*
X352145Y390810D01*
X354855D01*
X357472Y391511D01*
X359818Y392866D01*
X361734Y394782D01*
X363089Y397128D01*
X363790Y399745D01*
Y402455D01*
X363089Y405072D01*
X361734Y407418D01*
X359818Y409334D01*
X357472Y410689D01*
X354855Y411390D01*
D02*
G37*
G36*
X329455D02*
X326745D01*
X324128Y410689D01*
X321782Y409334D01*
X319866Y407418D01*
X318511Y405072D01*
X317810Y402455D01*
Y399745D01*
X318511Y397128D01*
X319866Y394782D01*
X321782Y392866D01*
X324128Y391511D01*
X326745Y390810D01*
X329455D01*
X332072Y391511D01*
X334418Y392866D01*
X336334Y394782D01*
X337689Y397128D01*
X338390Y399745D01*
Y402455D01*
X337689Y405072D01*
X336334Y407418D01*
X334418Y409334D01*
X332072Y410689D01*
X329455Y411390D01*
D02*
G37*
G36*
X304055D02*
X301345D01*
X298728Y410689D01*
X296382Y409334D01*
X294466Y407418D01*
X293111Y405072D01*
X292410Y402455D01*
Y399745D01*
X293111Y397128D01*
X294466Y394782D01*
X296382Y392866D01*
X298728Y391511D01*
X301345Y390810D01*
X304055D01*
X306672Y391511D01*
X309018Y392866D01*
X310934Y394782D01*
X312289Y397128D01*
X312990Y399745D01*
Y402455D01*
X312289Y405072D01*
X310934Y407418D01*
X309018Y409334D01*
X306672Y410689D01*
X304055Y411390D01*
D02*
G37*
G36*
X267060Y443095D02*
X237060D01*
X236069Y442898D01*
X235229Y442336D01*
X234667Y441496D01*
X234470Y440505D01*
Y405095D01*
X217060D01*
X216069Y404898D01*
X215229Y404336D01*
X214667Y403496D01*
X214470Y402505D01*
Y374158D01*
X213200Y373632D01*
X212898Y373934D01*
X211231Y375048D01*
X209265Y375439D01*
X204440D01*
Y379490D01*
X204440Y379840D01*
Y380760D01*
X204440Y381110D01*
Y399490D01*
X204440Y399840D01*
Y400760D01*
X204440Y401110D01*
Y409030D01*
X175360D01*
Y401110D01*
X175360Y400760D01*
Y399840D01*
X175360Y399490D01*
Y381110D01*
X175360Y380760D01*
Y379840D01*
X175360Y379490D01*
Y361110D01*
X175360Y360760D01*
Y359840D01*
X175360Y359490D01*
Y341110D01*
X175360Y340760D01*
Y339840D01*
X175360Y339490D01*
Y321110D01*
X175360Y320760D01*
Y319840D01*
X175360Y319490D01*
Y301110D01*
X175360Y300760D01*
Y299840D01*
X175360Y299490D01*
Y281110D01*
X175360Y280760D01*
Y279840D01*
X175360Y279490D01*
Y271570D01*
X204440D01*
Y279490D01*
X204440Y279840D01*
Y280760D01*
X204440Y281110D01*
Y285162D01*
X211535D01*
X212430Y284267D01*
X214150Y283274D01*
X216067Y282760D01*
X218053D01*
X219970Y283274D01*
X221690Y284267D01*
X223093Y285671D01*
X224086Y287390D01*
X224600Y289308D01*
Y291293D01*
X224086Y293211D01*
X223093Y294930D01*
X221690Y296334D01*
X219970Y297327D01*
X218053Y297840D01*
X216067D01*
X214150Y297327D01*
X212430Y296334D01*
X211535Y295439D01*
X204440D01*
Y299490D01*
X204440Y299840D01*
Y300760D01*
X204440Y301110D01*
Y305162D01*
X211535D01*
X212430Y304267D01*
X214150Y303274D01*
X216067Y302760D01*
X218053D01*
X219970Y303274D01*
X221690Y304267D01*
X223093Y305671D01*
X224086Y307390D01*
X224600Y309308D01*
Y311293D01*
X224086Y313211D01*
X223093Y314930D01*
X221690Y316334D01*
X219970Y317327D01*
X218053Y317840D01*
X216067D01*
X214150Y317327D01*
X212430Y316334D01*
X211535Y315439D01*
X204440D01*
Y319490D01*
X204440Y319840D01*
Y320760D01*
X204440Y321110D01*
Y325162D01*
X211535D01*
X212430Y324267D01*
X214150Y323274D01*
X216067Y322760D01*
X218053D01*
X219970Y323274D01*
X221690Y324267D01*
X223093Y325671D01*
X224086Y327390D01*
X224600Y329308D01*
Y331293D01*
X224086Y333211D01*
X223093Y334930D01*
X221690Y336334D01*
X219970Y337327D01*
X218053Y337840D01*
X216067D01*
X214150Y337327D01*
X212430Y336334D01*
X211535Y335439D01*
X204440D01*
Y339490D01*
X204440Y339840D01*
Y340760D01*
X204440Y341110D01*
Y345162D01*
X211535D01*
X212430Y344267D01*
X214150Y343274D01*
X216067Y342760D01*
X218053D01*
X219970Y343274D01*
X221690Y344267D01*
X223093Y345671D01*
X224086Y347390D01*
X224600Y349308D01*
Y351293D01*
X224086Y353211D01*
X223093Y354930D01*
X221690Y356334D01*
X220369Y357096D01*
X220709Y358366D01*
X223535D01*
X224430Y357472D01*
X226150Y356479D01*
X228067Y355965D01*
X230053D01*
X231970Y356479D01*
X233200Y357189D01*
X234470Y356561D01*
Y335505D01*
X234667Y334514D01*
X235229Y333674D01*
X236069Y333112D01*
X237060Y332915D01*
X267060D01*
X268051Y333112D01*
X268891Y333674D01*
X269453Y334514D01*
X269650Y335505D01*
Y440505D01*
X269453Y441496D01*
X268891Y442336D01*
X268051Y442898D01*
X267060Y443095D01*
D02*
G37*
G36*
X532655Y385990D02*
X529945D01*
X527328Y385289D01*
X524982Y383934D01*
X523066Y382018D01*
X521711Y379672D01*
X521010Y377055D01*
Y374345D01*
X521711Y371728D01*
X523066Y369382D01*
X524982Y367466D01*
X527328Y366111D01*
X529945Y365410D01*
X532655D01*
X535272Y366111D01*
X537618Y367466D01*
X539534Y369382D01*
X540889Y371728D01*
X541590Y374345D01*
Y377055D01*
X540889Y379672D01*
X539534Y382018D01*
X537618Y383934D01*
X535272Y385289D01*
X532655Y385990D01*
D02*
G37*
G36*
X481855D02*
X479145D01*
X476528Y385289D01*
X474182Y383934D01*
X472266Y382018D01*
X470911Y379672D01*
X470210Y377055D01*
Y374345D01*
X470911Y371728D01*
X472266Y369382D01*
X474182Y367466D01*
X476528Y366111D01*
X479145Y365410D01*
X481855D01*
X484472Y366111D01*
X486818Y367466D01*
X488734Y369382D01*
X490089Y371728D01*
X490790Y374345D01*
Y377055D01*
X490089Y379672D01*
X488734Y382018D01*
X486818Y383934D01*
X484472Y385289D01*
X481855Y385990D01*
D02*
G37*
G36*
X456455D02*
X453745D01*
X451128Y385289D01*
X448782Y383934D01*
X446866Y382018D01*
X445511Y379672D01*
X444810Y377055D01*
Y374345D01*
X445511Y371728D01*
X446866Y369382D01*
X448782Y367466D01*
X451128Y366111D01*
X453745Y365410D01*
X456455D01*
X459072Y366111D01*
X461418Y367466D01*
X463334Y369382D01*
X464689Y371728D01*
X465390Y374345D01*
Y377055D01*
X464689Y379672D01*
X463334Y382018D01*
X461418Y383934D01*
X459072Y385289D01*
X456455Y385990D01*
D02*
G37*
G36*
X431055D02*
X428345D01*
X425728Y385289D01*
X423382Y383934D01*
X421466Y382018D01*
X420111Y379672D01*
X419410Y377055D01*
Y374345D01*
X420111Y371728D01*
X421466Y369382D01*
X423382Y367466D01*
X425728Y366111D01*
X428345Y365410D01*
X431055D01*
X433672Y366111D01*
X436018Y367466D01*
X437934Y369382D01*
X439289Y371728D01*
X439990Y374345D01*
Y377055D01*
X439289Y379672D01*
X437934Y382018D01*
X436018Y383934D01*
X433672Y385289D01*
X431055Y385990D01*
D02*
G37*
G36*
X405655D02*
X402945D01*
X400328Y385289D01*
X397982Y383934D01*
X396066Y382018D01*
X394711Y379672D01*
X394010Y377055D01*
Y374345D01*
X394711Y371728D01*
X396066Y369382D01*
X397982Y367466D01*
X400328Y366111D01*
X402945Y365410D01*
X405655D01*
X408272Y366111D01*
X410618Y367466D01*
X412534Y369382D01*
X413889Y371728D01*
X414590Y374345D01*
Y377055D01*
X413889Y379672D01*
X412534Y382018D01*
X410618Y383934D01*
X408272Y385289D01*
X405655Y385990D01*
D02*
G37*
G36*
X380255D02*
X377545D01*
X374928Y385289D01*
X372582Y383934D01*
X370666Y382018D01*
X369311Y379672D01*
X368610Y377055D01*
Y374345D01*
X369311Y371728D01*
X370666Y369382D01*
X372582Y367466D01*
X374928Y366111D01*
X377545Y365410D01*
X380255D01*
X382872Y366111D01*
X385218Y367466D01*
X387134Y369382D01*
X388489Y371728D01*
X389190Y374345D01*
Y377055D01*
X388489Y379672D01*
X387134Y382018D01*
X385218Y383934D01*
X382872Y385289D01*
X380255Y385990D01*
D02*
G37*
G36*
X354855D02*
X352145D01*
X349528Y385289D01*
X347182Y383934D01*
X345266Y382018D01*
X343911Y379672D01*
X343210Y377055D01*
Y374345D01*
X343911Y371728D01*
X345266Y369382D01*
X347182Y367466D01*
X349528Y366111D01*
X352145Y365410D01*
X354855D01*
X357472Y366111D01*
X359818Y367466D01*
X361734Y369382D01*
X363089Y371728D01*
X363790Y374345D01*
Y377055D01*
X363089Y379672D01*
X361734Y382018D01*
X359818Y383934D01*
X357472Y385289D01*
X354855Y385990D01*
D02*
G37*
G36*
X329455D02*
X326745D01*
X324128Y385289D01*
X321782Y383934D01*
X319866Y382018D01*
X318511Y379672D01*
X317810Y377055D01*
Y374345D01*
X318511Y371728D01*
X319866Y369382D01*
X321782Y367466D01*
X324128Y366111D01*
X326745Y365410D01*
X329455D01*
X332072Y366111D01*
X334418Y367466D01*
X336334Y369382D01*
X337689Y371728D01*
X338390Y374345D01*
Y377055D01*
X337689Y379672D01*
X336334Y382018D01*
X334418Y383934D01*
X332072Y385289D01*
X329455Y385990D01*
D02*
G37*
G36*
X304055D02*
X301345D01*
X298728Y385289D01*
X296382Y383934D01*
X294466Y382018D01*
X293111Y379672D01*
X292410Y377055D01*
Y374345D01*
X293111Y371728D01*
X294466Y369382D01*
X296382Y367466D01*
X298728Y366111D01*
X301345Y365410D01*
X304055D01*
X306672Y366111D01*
X309018Y367466D01*
X310934Y369382D01*
X312289Y371728D01*
X312990Y374345D01*
Y377055D01*
X312289Y379672D01*
X310934Y382018D01*
X309018Y383934D01*
X306672Y385289D01*
X304055Y385990D01*
D02*
G37*
G36*
X532655Y360590D02*
X529945D01*
X527328Y359889D01*
X524982Y358534D01*
X523066Y356618D01*
X521711Y354272D01*
X521010Y351655D01*
Y348945D01*
X521711Y346328D01*
X523066Y343982D01*
X524982Y342066D01*
X527328Y340711D01*
X529945Y340010D01*
X532655D01*
X535272Y340711D01*
X537618Y342066D01*
X539534Y343982D01*
X540889Y346328D01*
X541590Y348945D01*
Y351655D01*
X540889Y354272D01*
X539534Y356618D01*
X537618Y358534D01*
X535272Y359889D01*
X532655Y360590D01*
D02*
G37*
G36*
X481855D02*
X479145D01*
X476528Y359889D01*
X474182Y358534D01*
X472266Y356618D01*
X470911Y354272D01*
X470210Y351655D01*
Y348945D01*
X470911Y346328D01*
X472266Y343982D01*
X474182Y342066D01*
X476528Y340711D01*
X479145Y340010D01*
X481855D01*
X484472Y340711D01*
X486818Y342066D01*
X488734Y343982D01*
X490089Y346328D01*
X490790Y348945D01*
Y351655D01*
X490089Y354272D01*
X488734Y356618D01*
X486818Y358534D01*
X484472Y359889D01*
X481855Y360590D01*
D02*
G37*
G36*
X456455D02*
X453745D01*
X451128Y359889D01*
X448782Y358534D01*
X446866Y356618D01*
X445511Y354272D01*
X444810Y351655D01*
Y348945D01*
X445511Y346328D01*
X446866Y343982D01*
X448782Y342066D01*
X451128Y340711D01*
X453745Y340010D01*
X456455D01*
X459072Y340711D01*
X461418Y342066D01*
X463334Y343982D01*
X464689Y346328D01*
X465390Y348945D01*
Y351655D01*
X464689Y354272D01*
X463334Y356618D01*
X461418Y358534D01*
X459072Y359889D01*
X456455Y360590D01*
D02*
G37*
G36*
X431055D02*
X428345D01*
X425728Y359889D01*
X423382Y358534D01*
X421466Y356618D01*
X420111Y354272D01*
X419410Y351655D01*
Y348945D01*
X420111Y346328D01*
X421466Y343982D01*
X423382Y342066D01*
X425728Y340711D01*
X428345Y340010D01*
X431055D01*
X433672Y340711D01*
X436018Y342066D01*
X437934Y343982D01*
X439289Y346328D01*
X439990Y348945D01*
Y351655D01*
X439289Y354272D01*
X437934Y356618D01*
X436018Y358534D01*
X433672Y359889D01*
X431055Y360590D01*
D02*
G37*
G36*
X405655D02*
X402945D01*
X400328Y359889D01*
X397982Y358534D01*
X396066Y356618D01*
X394711Y354272D01*
X394010Y351655D01*
Y348945D01*
X394711Y346328D01*
X396066Y343982D01*
X397982Y342066D01*
X400328Y340711D01*
X402945Y340010D01*
X405655D01*
X408272Y340711D01*
X410618Y342066D01*
X412534Y343982D01*
X413889Y346328D01*
X414590Y348945D01*
Y351655D01*
X413889Y354272D01*
X412534Y356618D01*
X410618Y358534D01*
X408272Y359889D01*
X405655Y360590D01*
D02*
G37*
G36*
X380255D02*
X377545D01*
X374928Y359889D01*
X372582Y358534D01*
X370666Y356618D01*
X369311Y354272D01*
X368610Y351655D01*
Y348945D01*
X369311Y346328D01*
X370666Y343982D01*
X372582Y342066D01*
X374928Y340711D01*
X377545Y340010D01*
X380255D01*
X382872Y340711D01*
X385218Y342066D01*
X387134Y343982D01*
X388489Y346328D01*
X389190Y348945D01*
Y351655D01*
X388489Y354272D01*
X387134Y356618D01*
X385218Y358534D01*
X382872Y359889D01*
X380255Y360590D01*
D02*
G37*
G36*
X354855D02*
X352145D01*
X349528Y359889D01*
X347182Y358534D01*
X345266Y356618D01*
X343911Y354272D01*
X343210Y351655D01*
Y348945D01*
X343911Y346328D01*
X345266Y343982D01*
X347182Y342066D01*
X349528Y340711D01*
X352145Y340010D01*
X354855D01*
X357472Y340711D01*
X359818Y342066D01*
X361734Y343982D01*
X363089Y346328D01*
X363790Y348945D01*
Y351655D01*
X363089Y354272D01*
X361734Y356618D01*
X359818Y358534D01*
X357472Y359889D01*
X354855Y360590D01*
D02*
G37*
G36*
X329455D02*
X326745D01*
X324128Y359889D01*
X321782Y358534D01*
X319866Y356618D01*
X318511Y354272D01*
X317810Y351655D01*
Y348945D01*
X318511Y346328D01*
X319866Y343982D01*
X321782Y342066D01*
X324128Y340711D01*
X326745Y340010D01*
X329455D01*
X332072Y340711D01*
X334418Y342066D01*
X336334Y343982D01*
X337689Y346328D01*
X338390Y348945D01*
Y351655D01*
X337689Y354272D01*
X336334Y356618D01*
X334418Y358534D01*
X332072Y359889D01*
X329455Y360590D01*
D02*
G37*
G36*
X304055D02*
X301345D01*
X298728Y359889D01*
X296382Y358534D01*
X294466Y356618D01*
X293111Y354272D01*
X292410Y351655D01*
Y348945D01*
X293111Y346328D01*
X294466Y343982D01*
X296382Y342066D01*
X298728Y340711D01*
X301345Y340010D01*
X304055D01*
X306672Y340711D01*
X309018Y342066D01*
X310934Y343982D01*
X312289Y346328D01*
X312990Y348945D01*
Y351655D01*
X312289Y354272D01*
X310934Y356618D01*
X309018Y358534D01*
X306672Y359889D01*
X304055Y360590D01*
D02*
G37*
G36*
X481855Y335190D02*
X481770D01*
Y326170D01*
X490790D01*
Y326255D01*
X490089Y328872D01*
X488734Y331218D01*
X486818Y333134D01*
X484472Y334489D01*
X481855Y335190D01*
D02*
G37*
G36*
X479230D02*
X479145D01*
X476528Y334489D01*
X474182Y333134D01*
X472266Y331218D01*
X470911Y328872D01*
X470210Y326255D01*
Y326170D01*
X479230D01*
Y335190D01*
D02*
G37*
G36*
X456455D02*
X456370D01*
Y326170D01*
X465390D01*
Y326255D01*
X464689Y328872D01*
X463334Y331218D01*
X461418Y333134D01*
X459072Y334489D01*
X456455Y335190D01*
D02*
G37*
G36*
X453830D02*
X453745D01*
X451128Y334489D01*
X448782Y333134D01*
X446866Y331218D01*
X445511Y328872D01*
X444810Y326255D01*
Y326170D01*
X453830D01*
Y335190D01*
D02*
G37*
G36*
X532655D02*
X529945D01*
X527328Y334489D01*
X524982Y333134D01*
X523066Y331218D01*
X521711Y328872D01*
X521010Y326255D01*
Y323545D01*
X521711Y320928D01*
X523066Y318582D01*
X524982Y316666D01*
X527328Y315311D01*
X529945Y314610D01*
X532655D01*
X535272Y315311D01*
X537618Y316666D01*
X539534Y318582D01*
X540889Y320928D01*
X541590Y323545D01*
Y326255D01*
X540889Y328872D01*
X539534Y331218D01*
X537618Y333134D01*
X535272Y334489D01*
X532655Y335190D01*
D02*
G37*
G36*
X490790Y323630D02*
X481770D01*
Y314610D01*
X481855D01*
X484472Y315311D01*
X486818Y316666D01*
X488734Y318582D01*
X490089Y320928D01*
X490790Y323545D01*
Y323630D01*
D02*
G37*
G36*
X479230D02*
X470210D01*
Y323545D01*
X470911Y320928D01*
X472266Y318582D01*
X474182Y316666D01*
X476528Y315311D01*
X479145Y314610D01*
X479230D01*
Y323630D01*
D02*
G37*
G36*
X465390D02*
X456370D01*
Y314610D01*
X456455D01*
X459072Y315311D01*
X461418Y316666D01*
X463334Y318582D01*
X464689Y320928D01*
X465390Y323545D01*
Y323630D01*
D02*
G37*
G36*
X453830D02*
X444810D01*
Y323545D01*
X445511Y320928D01*
X446866Y318582D01*
X448782Y316666D01*
X451128Y315311D01*
X453745Y314610D01*
X453830D01*
Y323630D01*
D02*
G37*
G36*
X457540Y284590D02*
X446270D01*
Y278820D01*
X457540D01*
Y284590D01*
D02*
G37*
G36*
X443730D02*
X432460D01*
Y278820D01*
X443730D01*
Y284590D01*
D02*
G37*
G36*
X287540D02*
X276270D01*
Y278820D01*
X287540D01*
Y284590D01*
D02*
G37*
G36*
X273730D02*
X262460D01*
Y278820D01*
X273730D01*
Y284590D01*
D02*
G37*
G36*
X231340Y271090D02*
X225570D01*
Y265820D01*
X231340D01*
Y271090D01*
D02*
G37*
G36*
X223030D02*
X217260D01*
Y265820D01*
X223030D01*
Y271090D01*
D02*
G37*
G36*
X204440Y269030D02*
X191170D01*
Y260760D01*
X204440D01*
Y269030D01*
D02*
G37*
G36*
X188630D02*
X175360D01*
Y260760D01*
X188630D01*
Y269030D01*
D02*
G37*
G36*
X808240Y264540D02*
X801970D01*
Y255770D01*
X808240D01*
Y264540D01*
D02*
G37*
G36*
X59495Y488095D02*
X37905D01*
Y467175D01*
X37905Y466505D01*
X36883Y465905D01*
X28700D01*
X26732Y465646D01*
X24897Y464886D01*
X23322Y463678D01*
X-19678Y420678D01*
X-20886Y419103D01*
X-21646Y417268D01*
X-21905Y415300D01*
Y267340D01*
X-24340D01*
Y252260D01*
X-14794D01*
X-14300Y252195D01*
X-13806Y252260D01*
X-4260D01*
Y267340D01*
X-6695D01*
Y412150D01*
X31850Y450695D01*
X60700D01*
X61194Y450760D01*
X61693D01*
X62174Y450889D01*
X62668Y450954D01*
X63129Y451145D01*
X63610Y451274D01*
X64042Y451523D01*
X64503Y451714D01*
X64898Y452017D01*
X65330Y452267D01*
X65682Y452619D01*
X66078Y452922D01*
X66381Y453318D01*
X66733Y453670D01*
X66983Y454102D01*
X67286Y454497D01*
X67477Y454958D01*
X67726Y455390D01*
X67855Y455871D01*
X68046Y456332D01*
X68111Y456826D01*
X68240Y457307D01*
Y457806D01*
X68305Y458300D01*
X68240Y458794D01*
Y459293D01*
X68111Y459774D01*
X68046Y460268D01*
X67855Y460729D01*
X67726Y461210D01*
X67477Y461642D01*
X67286Y462103D01*
X66983Y462498D01*
X66733Y462930D01*
X66381Y463282D01*
X66078Y463678D01*
X65682Y463981D01*
X65330Y464333D01*
X64898Y464583D01*
X64503Y464886D01*
X64042Y465077D01*
X63610Y465326D01*
X63129Y465455D01*
X62668Y465646D01*
X62174Y465711D01*
X61693Y465840D01*
X61194D01*
X60700Y465905D01*
X60517D01*
X59495Y466505D01*
X59495Y467175D01*
Y488095D01*
D02*
G37*
G36*
X757930Y264540D02*
X750470D01*
Y254500D01*
Y244460D01*
X757930D01*
Y254500D01*
Y264540D01*
D02*
G37*
G36*
X747930D02*
X730470D01*
Y254500D01*
Y244460D01*
X747930D01*
Y254500D01*
Y264540D01*
D02*
G37*
G36*
X727930D02*
X720470D01*
Y254500D01*
Y244460D01*
X727930D01*
Y254500D01*
Y264540D01*
D02*
G37*
G36*
X154840Y237040D02*
X143570D01*
Y228270D01*
X154840D01*
Y237040D01*
D02*
G37*
G36*
X141030D02*
X129760D01*
Y228270D01*
X141030D01*
Y237040D01*
D02*
G37*
G36*
X375690Y227140D02*
X367770D01*
Y219220D01*
X375690D01*
Y227140D01*
D02*
G37*
G36*
X332230D02*
X324310D01*
Y219220D01*
X332230D01*
Y227140D01*
D02*
G37*
G36*
X365230D02*
X351270D01*
Y217950D01*
X348730D01*
Y227140D01*
X334770D01*
Y217950D01*
X333500D01*
Y216680D01*
X324310D01*
Y208760D01*
Y202620D01*
X333500D01*
Y200080D01*
X324310D01*
Y192160D01*
Y186120D01*
X333500D01*
Y184850D01*
X334770D01*
Y175660D01*
X348730D01*
Y184850D01*
X351270D01*
Y175660D01*
X365230D01*
Y184850D01*
X366500D01*
Y186120D01*
X375690D01*
Y192160D01*
Y200080D01*
X366500D01*
Y202620D01*
X375690D01*
Y208760D01*
Y216680D01*
X366500D01*
Y217950D01*
X365230D01*
Y227140D01*
D02*
G37*
G36*
X154840Y225730D02*
X143570D01*
Y216960D01*
X154840D01*
Y225730D01*
D02*
G37*
G36*
X141030D02*
X129760D01*
Y216960D01*
X141030D01*
Y225730D01*
D02*
G37*
G36*
X-14300Y238405D02*
X-14794Y238340D01*
X-24340D01*
Y223260D01*
X-21905D01*
Y213300D01*
X-21840Y212806D01*
Y212307D01*
X-21711Y211826D01*
X-21646Y211332D01*
X-21455Y210871D01*
X-21326Y210390D01*
X-21077Y209958D01*
X-20886Y209497D01*
X-20583Y209102D01*
X-20333Y208670D01*
X-19981Y208318D01*
X-19678Y207922D01*
X-19282Y207619D01*
X-18930Y207267D01*
X-18498Y207017D01*
X-18103Y206714D01*
X-17642Y206523D01*
X-17210Y206274D01*
X-16729Y206145D01*
X-16268Y205954D01*
X-15774Y205889D01*
X-15293Y205760D01*
X-14794D01*
X-14300Y205695D01*
X-13806Y205760D01*
X-13307D01*
X-12826Y205889D01*
X-12332Y205954D01*
X-11871Y206145D01*
X-11390Y206274D01*
X-10958Y206523D01*
X-10497Y206714D01*
X-10102Y207017D01*
X-9670Y207267D01*
X-9318Y207619D01*
X-8922Y207922D01*
X-8619Y208318D01*
X-8267Y208670D01*
X-8017Y209102D01*
X-7714Y209497D01*
X-7523Y209958D01*
X-7274Y210390D01*
X-7145Y210871D01*
X-6954Y211332D01*
X-6889Y211826D01*
X-6760Y212307D01*
Y212806D01*
X-6695Y213300D01*
Y223260D01*
X-4260D01*
Y238340D01*
X-13806D01*
X-14300Y238405D01*
D02*
G37*
G36*
X626680Y205290D02*
X621910D01*
Y199770D01*
X626680D01*
Y205290D01*
D02*
G37*
G36*
Y197230D02*
X621910D01*
Y191710D01*
X626680D01*
Y194275D01*
Y197230D01*
D02*
G37*
G36*
X-1270Y194540D02*
X-6790D01*
Y189770D01*
X-1270D01*
Y194540D01*
D02*
G37*
G36*
X375690Y183580D02*
X367770D01*
Y175660D01*
X375690D01*
Y183580D01*
D02*
G37*
G36*
X332230D02*
X324310D01*
Y175660D01*
X332230D01*
Y183580D01*
D02*
G37*
G36*
X575904Y208245D02*
X562696D01*
Y194275D01*
X564161D01*
Y189300D01*
X562510D01*
Y178070D01*
X562510Y177220D01*
X562510Y175950D01*
Y172030D01*
X569300D01*
X576090D01*
Y175950D01*
X576090Y176800D01*
X576090Y178070D01*
Y189300D01*
X574439D01*
Y194275D01*
X575904D01*
Y208245D01*
D02*
G37*
G36*
X236790Y174290D02*
X231270D01*
Y169520D01*
X236790D01*
Y174290D01*
D02*
G37*
G36*
X228730D02*
X223210D01*
Y169520D01*
X228730D01*
Y174290D01*
D02*
G37*
G36*
X576090Y169490D02*
X570570D01*
Y164720D01*
X576090D01*
Y169490D01*
D02*
G37*
G36*
X568030D02*
X562510D01*
Y164720D01*
X568030D01*
Y169490D01*
D02*
G37*
G36*
X808240Y165230D02*
X801970D01*
Y156460D01*
X808240D01*
Y165230D01*
D02*
G37*
G36*
X717930Y176540D02*
X710470D01*
Y166500D01*
Y156460D01*
X717930D01*
Y166500D01*
Y176540D01*
D02*
G37*
G36*
X187770Y156790D02*
Y151270D01*
X192540D01*
Y156790D01*
X187770D01*
D02*
G37*
G36*
X192540Y148730D02*
X187770D01*
Y143210D01*
X192540D01*
Y148730D01*
D02*
G37*
G36*
X789240Y142040D02*
X779720D01*
Y131770D01*
X789240D01*
Y142040D01*
D02*
G37*
G36*
X777180D02*
X767660D01*
Y131770D01*
X777180D01*
Y142040D01*
D02*
G37*
G36*
X789240Y129230D02*
X779720D01*
Y118960D01*
X789240D01*
Y129230D01*
D02*
G37*
G36*
X777180D02*
X767660D01*
Y118960D01*
X777180D01*
Y129230D01*
D02*
G37*
G36*
X228790Y107040D02*
X223520D01*
Y101270D01*
X228790D01*
Y107040D01*
D02*
G37*
G36*
Y98730D02*
X223520D01*
Y92960D01*
X228790D01*
Y98730D01*
D02*
G37*
G36*
Y91040D02*
X223520D01*
Y85270D01*
X228790D01*
Y91040D01*
D02*
G37*
G36*
X38790Y86480D02*
X33270D01*
Y81710D01*
X38790D01*
Y86480D01*
D02*
G37*
G36*
X30730D02*
X25210D01*
Y81710D01*
X30730D01*
Y86480D01*
D02*
G37*
G36*
X10040Y88730D02*
X1270D01*
Y79960D01*
X1322D01*
X3875Y80644D01*
X6165Y81966D01*
X8034Y83835D01*
X9356Y86125D01*
X10040Y88678D01*
Y88730D01*
D02*
G37*
G36*
X-1270D02*
X-10040D01*
Y88678D01*
X-9356Y86125D01*
X-8034Y83835D01*
X-6165Y81966D01*
X-3875Y80644D01*
X-1322Y79960D01*
X-1270D01*
Y88730D01*
D02*
G37*
G36*
X244480Y76040D02*
X239210D01*
Y70270D01*
X244480D01*
Y76040D01*
D02*
G37*
G36*
Y67730D02*
X239210D01*
Y61960D01*
X244480D01*
Y67730D01*
D02*
G37*
G36*
X228790Y67730D02*
X223520D01*
Y61960D01*
X228790D01*
Y67730D01*
D02*
G37*
G36*
X264750Y59090D02*
X264500Y59040D01*
X262210D01*
Y58590D01*
X254040D01*
Y58789D01*
X237960D01*
Y48210D01*
Y45270D01*
X246000D01*
Y42730D01*
X237960D01*
Y38710D01*
Y29211D01*
X238455D01*
X239090Y28111D01*
X238974Y27910D01*
X238460Y25993D01*
Y24007D01*
X238974Y22090D01*
X239966Y20370D01*
X241370Y18966D01*
X243090Y17974D01*
X245007Y17460D01*
X246993D01*
X248910Y17974D01*
X250630Y18966D01*
X252034Y20370D01*
X253026Y22090D01*
X253540Y24007D01*
Y25993D01*
X253026Y27910D01*
X252910Y28111D01*
X253094Y28429D01*
X254040Y29211D01*
X255160Y28819D01*
Y24500D01*
X255357Y23509D01*
X255919Y22669D01*
X262210Y16378D01*
Y14960D01*
X264500D01*
X264750Y14910D01*
X265000Y14960D01*
X276290D01*
Y59040D01*
X265000D01*
X264750Y59090D01*
D02*
G37*
G36*
X55040Y59230D02*
X49520D01*
Y54460D01*
X55040D01*
Y59230D01*
D02*
G37*
G36*
X46980D02*
X41460D01*
Y54460D01*
X46980D01*
Y59230D01*
D02*
G37*
G36*
X152040Y134040D02*
X140960D01*
Y117960D01*
X152040D01*
Y118160D01*
X199084D01*
X202145Y115100D01*
Y100000D01*
X202404Y98032D01*
X202410Y98017D01*
Y77840D01*
X180000D01*
X179009Y77642D01*
X178169Y77081D01*
X178141Y77040D01*
X177960D01*
Y76769D01*
X177607Y76241D01*
X177410Y75250D01*
Y64000D01*
X177607Y63009D01*
X177960Y62481D01*
Y61960D01*
X178481D01*
X179009Y61607D01*
X180000Y61410D01*
X202145D01*
Y53500D01*
X202210Y53005D01*
Y52507D01*
X202339Y52025D01*
X202404Y51531D01*
X202595Y51071D01*
X202724Y50589D01*
X202973Y50157D01*
X203164Y49697D01*
X203467Y49302D01*
X203717Y48870D01*
X204069Y48517D01*
X204372Y48122D01*
X204768Y47819D01*
X205120Y47466D01*
X205552Y47217D01*
X205947Y46913D01*
X206408Y46723D01*
X206840Y46473D01*
X207321Y46344D01*
X207782Y46154D01*
X208276Y46089D01*
X208757Y45960D01*
X209256D01*
X209750Y45894D01*
X210244Y45960D01*
X210743D01*
X211224Y46089D01*
X211718Y46154D01*
X212179Y46344D01*
X212660Y46473D01*
X213092Y46723D01*
X213552Y46913D01*
X213948Y47217D01*
X214380Y47466D01*
X214732Y47819D01*
X214774Y47851D01*
X222000D01*
X223805Y48210D01*
X230040D01*
Y58789D01*
X223805D01*
X222000Y59148D01*
X217355D01*
Y61960D01*
X220980D01*
Y69000D01*
X222250D01*
Y70270D01*
X228790D01*
Y76040D01*
X228790D01*
Y76960D01*
X228790D01*
Y82730D01*
X222250D01*
Y84000D01*
X220980D01*
Y91040D01*
X217590D01*
Y92960D01*
X220980D01*
Y100000D01*
Y107040D01*
X217360D01*
X217355Y107047D01*
Y118250D01*
X217096Y120218D01*
X216651Y121293D01*
X216336Y122053D01*
X215128Y123628D01*
X207378Y131378D01*
X205803Y132586D01*
X203968Y133346D01*
X202000Y133605D01*
X200032Y133346D01*
X200017Y133340D01*
X152040D01*
Y134040D01*
D02*
G37*
G36*
X138040Y77040D02*
X117960D01*
Y61960D01*
X119146D01*
X119633Y60787D01*
X116509Y57663D01*
X105240D01*
X102883Y57194D01*
X100885Y55860D01*
X89073Y44047D01*
X88852Y44194D01*
X86495Y44663D01*
X67505D01*
X65148Y44194D01*
X63150Y42860D01*
X57405Y37115D01*
X56070Y35117D01*
X55602Y32760D01*
Y31210D01*
X50838D01*
Y22320D01*
Y13430D01*
X103162D01*
Y22320D01*
Y31210D01*
X98398D01*
Y32760D01*
X97930Y35117D01*
X97782Y35338D01*
X107791Y45347D01*
X119060D01*
X121417Y45815D01*
X123415Y47150D01*
X132355Y56090D01*
X133689Y58088D01*
X134158Y60445D01*
Y61960D01*
X138040D01*
Y77040D01*
D02*
G37*
G36*
X195250Y42590D02*
X170250D01*
X169259Y42393D01*
X168419Y41831D01*
X167857Y40991D01*
X167660Y40000D01*
Y12000D01*
X167857Y11009D01*
X168419Y10169D01*
X169259Y9607D01*
X170250Y9410D01*
X184697D01*
X185710Y8790D01*
Y3270D01*
X191750D01*
Y2000D01*
X193020D01*
Y-4790D01*
X196817D01*
X196857Y-4991D01*
X197419Y-5831D01*
X198259Y-6393D01*
X199250Y-6590D01*
X209250D01*
X210241Y-6393D01*
X211081Y-5831D01*
X211643Y-4991D01*
X211840Y-4000D01*
Y29362D01*
X213960D01*
Y29211D01*
X230040D01*
Y39790D01*
X213960D01*
Y39639D01*
X211713D01*
X211643Y39991D01*
X211081Y40831D01*
X210790Y41026D01*
Y41040D01*
X210769D01*
X210241Y41393D01*
X209250Y41590D01*
X199250D01*
X198259Y41393D01*
X197731Y41040D01*
X197610D01*
X197081Y41831D01*
X196241Y42393D01*
X195250Y42590D01*
D02*
G37*
G36*
X501355Y30290D02*
X501270D01*
Y21270D01*
X510290D01*
Y21355D01*
X509589Y23972D01*
X508234Y26318D01*
X506318Y28234D01*
X503972Y29589D01*
X501355Y30290D01*
D02*
G37*
G36*
X498730D02*
X498645D01*
X496028Y29589D01*
X493682Y28234D01*
X491766Y26318D01*
X490411Y23972D01*
X489710Y21355D01*
Y21270D01*
X498730D01*
Y30290D01*
D02*
G37*
G36*
X510290Y18730D02*
X501270D01*
Y9710D01*
X501355D01*
X503972Y10411D01*
X506318Y11766D01*
X508234Y13682D01*
X509589Y16028D01*
X510290Y18645D01*
Y18730D01*
D02*
G37*
G36*
X498730D02*
X489710D01*
Y18645D01*
X490411Y16028D01*
X491766Y13682D01*
X493682Y11766D01*
X496028Y10411D01*
X498645Y9710D01*
X498730D01*
Y18730D01*
D02*
G37*
G36*
X111036Y31210D02*
X105702D01*
Y22320D01*
Y13430D01*
X110683D01*
X110941Y13430D01*
X111506Y13019D01*
X111969Y12616D01*
X112298Y10961D01*
X113280Y9490D01*
X114751Y8508D01*
X116485Y8163D01*
X127915D01*
X129649Y8508D01*
X131120Y9490D01*
X132102Y10961D01*
X132447Y12695D01*
Y24125D01*
X132102Y25859D01*
X131120Y27330D01*
X129649Y28312D01*
X127915Y28657D01*
X116485D01*
X114751Y28312D01*
X113280Y27330D01*
X112298Y25859D01*
X111036Y26025D01*
Y31210D01*
D02*
G37*
G36*
X190480Y730D02*
X185710D01*
Y-4790D01*
X190480D01*
Y730D01*
D02*
G37*
G36*
X375538Y3160D02*
X375470D01*
Y-5730D01*
X384360D01*
Y-5662D01*
X383668Y-3078D01*
X382330Y-762D01*
X380438Y1130D01*
X378122Y2468D01*
X375538Y3160D01*
D02*
G37*
G36*
X372930D02*
X372862D01*
X370278Y2468D01*
X367962Y1130D01*
X366070Y-762D01*
X364732Y-3078D01*
X364040Y-5662D01*
Y-5730D01*
X372930D01*
Y3160D01*
D02*
G37*
G36*
X127895Y-8073D02*
X116465D01*
X114731Y-8418D01*
X113260Y-9400D01*
X112278Y-10871D01*
X111933Y-12605D01*
Y-24035D01*
X112278Y-25769D01*
X113260Y-27240D01*
X114731Y-28222D01*
X116465Y-28567D01*
X127895D01*
X129629Y-28222D01*
X131100Y-27240D01*
X132082Y-25769D01*
X132427Y-24035D01*
Y-12605D01*
X132082Y-10871D01*
X131100Y-9400D01*
X129629Y-8418D01*
X127895Y-8073D01*
D02*
G37*
%LPD*%
G36*
X267060Y335505D02*
X237060D01*
Y373505D01*
X217060D01*
Y402505D01*
X237060D01*
Y440505D01*
X267060D01*
Y335505D01*
D02*
G37*
%LPC*%
G36*
X253255Y436790D02*
X253170D01*
Y427770D01*
X262190D01*
Y427855D01*
X261489Y430472D01*
X260134Y432818D01*
X258218Y434734D01*
X255872Y436089D01*
X253255Y436790D01*
D02*
G37*
G36*
X250630D02*
X250545D01*
X247928Y436089D01*
X245582Y434734D01*
X243666Y432818D01*
X242311Y430472D01*
X241610Y427855D01*
Y427770D01*
X250630D01*
Y436790D01*
D02*
G37*
G36*
X262190Y425230D02*
X253170D01*
Y416210D01*
X253255D01*
X255872Y416911D01*
X258218Y418266D01*
X260134Y420182D01*
X261489Y422528D01*
X262190Y425145D01*
Y425230D01*
D02*
G37*
G36*
X250630D02*
X241610D01*
Y425145D01*
X242311Y422528D01*
X243666Y420182D01*
X245582Y418266D01*
X247928Y416911D01*
X250545Y416210D01*
X250630D01*
Y425230D01*
D02*
G37*
G36*
X253255Y411390D02*
X253170D01*
Y402370D01*
X262190D01*
Y402455D01*
X261489Y405072D01*
X260134Y407418D01*
X258218Y409334D01*
X255872Y410689D01*
X253255Y411390D01*
D02*
G37*
G36*
X250630D02*
X250545D01*
X247928Y410689D01*
X245582Y409334D01*
X243666Y407418D01*
X242311Y405072D01*
X241610Y402455D01*
Y402370D01*
X250630D01*
Y411390D01*
D02*
G37*
G36*
X262190Y399830D02*
X253170D01*
Y390810D01*
X253255D01*
X255872Y391511D01*
X258218Y392866D01*
X260134Y394782D01*
X261489Y397128D01*
X262190Y399745D01*
Y399830D01*
D02*
G37*
G36*
X250630D02*
X241610D01*
Y399745D01*
X242311Y397128D01*
X243666Y394782D01*
X245582Y392866D01*
X247928Y391511D01*
X250545Y390810D01*
X250630D01*
Y399830D01*
D02*
G37*
G36*
X253255Y385990D02*
X253170D01*
Y376970D01*
X262190D01*
Y377055D01*
X261489Y379672D01*
X260134Y382018D01*
X258218Y383934D01*
X255872Y385289D01*
X253255Y385990D01*
D02*
G37*
G36*
X250630D02*
X250545D01*
X247928Y385289D01*
X245582Y383934D01*
X243666Y382018D01*
X242311Y379672D01*
X241610Y377055D01*
Y376970D01*
X250630D01*
Y385990D01*
D02*
G37*
G36*
X262190Y374430D02*
X253170D01*
Y365410D01*
X253255D01*
X255872Y366111D01*
X258218Y367466D01*
X260134Y369382D01*
X261489Y371728D01*
X262190Y374345D01*
Y374430D01*
D02*
G37*
G36*
X250630D02*
X241610D01*
Y374345D01*
X242311Y371728D01*
X243666Y369382D01*
X245582Y367466D01*
X247928Y366111D01*
X250545Y365410D01*
X250630D01*
Y374430D01*
D02*
G37*
G36*
X253255Y360590D02*
X253170D01*
Y351570D01*
X262190D01*
Y351655D01*
X261489Y354272D01*
X260134Y356618D01*
X258218Y358534D01*
X255872Y359889D01*
X253255Y360590D01*
D02*
G37*
G36*
X250630D02*
X250545D01*
X247928Y359889D01*
X245582Y358534D01*
X243666Y356618D01*
X242311Y354272D01*
X241610Y351655D01*
Y351570D01*
X250630D01*
Y360590D01*
D02*
G37*
G36*
X262190Y349030D02*
X253170D01*
Y340010D01*
X253255D01*
X255872Y340711D01*
X258218Y342066D01*
X260134Y343982D01*
X261489Y346328D01*
X262190Y348945D01*
Y349030D01*
D02*
G37*
G36*
X250630D02*
X241610D01*
Y348945D01*
X242311Y346328D01*
X243666Y343982D01*
X245582Y342066D01*
X247928Y340711D01*
X250545Y340010D01*
X250630D01*
Y349030D01*
D02*
G37*
%LPD*%
G36*
X264750Y17500D02*
X257750Y24500D01*
Y49500D01*
X264750Y56500D01*
Y17500D01*
D02*
G37*
%LPC*%
G36*
X82553Y160245D02*
X80567D01*
X78650Y159731D01*
X76930Y158738D01*
X75526Y157335D01*
X74534Y155615D01*
X74020Y153698D01*
Y151712D01*
X74412Y150250D01*
X73680Y148980D01*
X73330D01*
Y141940D01*
Y134900D01*
X87100D01*
Y147582D01*
X87593Y148075D01*
X88586Y149795D01*
X89100Y151712D01*
Y153698D01*
X88586Y155615D01*
X87593Y157335D01*
X87198Y157730D01*
X86190Y158738D01*
X84470Y159731D01*
X82553Y160245D01*
D02*
G37*
G36*
X104850Y136480D02*
X99330D01*
Y131710D01*
X104850D01*
Y136480D01*
D02*
G37*
G36*
X96790D02*
X91270D01*
Y131710D01*
X96790D01*
Y136480D01*
D02*
G37*
G36*
X53040Y136790D02*
X47270D01*
Y131520D01*
X53040D01*
Y136790D01*
D02*
G37*
G36*
X44730D02*
X38960D01*
Y131520D01*
X44730D01*
Y136790D01*
D02*
G37*
G36*
X104850Y129170D02*
X91270D01*
Y125500D01*
X91270D01*
Y123977D01*
X90372Y123079D01*
X87100D01*
Y124980D01*
X76020D01*
Y110900D01*
X87100D01*
Y112801D01*
X91270D01*
Y111900D01*
X104850D01*
Y123130D01*
X104850Y123980D01*
X104850Y125250D01*
Y125500D01*
Y129170D01*
D02*
G37*
G36*
X478850Y110790D02*
X474080D01*
Y105270D01*
X478850D01*
Y110790D01*
D02*
G37*
G36*
Y102730D02*
X474080D01*
Y97210D01*
X478850D01*
Y102730D01*
D02*
G37*
G36*
X499605Y131604D02*
X485635D01*
Y118396D01*
X487481D01*
Y111688D01*
X486583Y110790D01*
X485310Y110790D01*
X481390D01*
Y104000D01*
Y97210D01*
X485310D01*
X486160Y97210D01*
X487430Y97210D01*
X498660D01*
Y110790D01*
X497759D01*
Y118396D01*
X499605D01*
Y131604D01*
D02*
G37*
G36*
X301580Y114990D02*
X295810D01*
Y103720D01*
X301580D01*
Y114990D01*
D02*
G37*
G36*
Y101180D02*
X295810D01*
Y89910D01*
X301580D01*
Y101180D01*
D02*
G37*
%LPD*%
D11*
X33800Y-18300D02*
X33820Y-18320D01*
X120180D02*
X120200Y-18300D01*
D17*
X586050Y426500D02*
D03*
X598550D02*
D03*
X562050Y444500D02*
D03*
X574550D02*
D03*
X174000Y150000D02*
D03*
X186500D02*
D03*
X204250Y18000D02*
D03*
X191750D02*
D03*
X204250Y2000D02*
D03*
X191750D02*
D03*
X627950Y198500D02*
D03*
X640450D02*
D03*
X627950Y266500D02*
D03*
X640450D02*
D03*
X718950Y130500D02*
D03*
X731450D02*
D03*
X627950Y216500D02*
D03*
X640450D02*
D03*
X628250Y233800D02*
D03*
X640750D02*
D03*
X628250Y249800D02*
D03*
X640750D02*
D03*
X480120Y104000D02*
D03*
X492620D02*
D03*
D18*
X-14300Y230800D02*
D03*
Y259800D02*
D03*
X188000Y98500D02*
D03*
Y69500D02*
D03*
X158000D02*
D03*
Y98500D02*
D03*
X128000Y69500D02*
D03*
Y98500D02*
D03*
D19*
X142300Y227000D02*
D03*
X224300D02*
D03*
D20*
X243300Y264850D02*
D03*
Y252350D02*
D03*
X78250Y73000D02*
D03*
Y60500D02*
D03*
X230000Y168250D02*
D03*
Y155750D02*
D03*
X679200Y145500D02*
D03*
Y133000D02*
D03*
X32000Y100250D02*
D03*
Y87750D02*
D03*
X48250Y73000D02*
D03*
Y60500D02*
D03*
X98060Y130440D02*
D03*
Y117940D02*
D03*
X569300Y170760D02*
D03*
Y183260D02*
D03*
X48250Y100250D02*
D03*
Y87750D02*
D03*
X0Y162500D02*
D03*
Y150000D02*
D03*
Y188500D02*
D03*
Y176000D02*
D03*
X702060Y454005D02*
D03*
Y441505D02*
D03*
Y489000D02*
D03*
Y501500D02*
D03*
D21*
X104432Y22320D02*
D03*
X49568D02*
D03*
D22*
X92240D02*
D03*
X82080D02*
D03*
D23*
X71920D02*
D03*
X61760D02*
D03*
D24*
X224300Y264550D02*
D03*
Y252050D02*
D03*
X46000Y130250D02*
D03*
Y117750D02*
D03*
X15000Y175500D02*
D03*
Y188000D02*
D03*
D25*
X191750Y34000D02*
D03*
X204250D02*
D03*
X258250Y69000D02*
D03*
X245750D02*
D03*
X209750D02*
D03*
X222250D02*
D03*
X209750Y100000D02*
D03*
X222250D02*
D03*
X209750Y84000D02*
D03*
X222250D02*
D03*
D26*
X174000Y166380D02*
D03*
Y181620D02*
D03*
X63250Y59130D02*
D03*
Y74370D02*
D03*
X569300Y216500D02*
D03*
Y201260D02*
D03*
D27*
X380500Y30000D02*
D03*
X349500D02*
D03*
D28*
X81560Y117940D02*
D03*
X62560D02*
D03*
Y141940D02*
D03*
X72060D02*
D03*
X81560D02*
D03*
D29*
X137000Y144000D02*
D03*
X146500Y126000D02*
D03*
X127500D02*
D03*
D30*
X246000Y34500D02*
D03*
Y44000D02*
D03*
Y53500D02*
D03*
X222000D02*
D03*
Y34500D02*
D03*
D31*
X291250Y37000D02*
D03*
X269250D02*
D03*
D32*
X753950Y130500D02*
D03*
X778450D02*
D03*
D33*
X675200Y210500D02*
D03*
Y220500D02*
D03*
Y230500D02*
D03*
Y200500D02*
D03*
Y190500D02*
D03*
D34*
X789200Y166500D02*
D03*
X769200D02*
D03*
X779200D02*
D03*
X759200D02*
D03*
X749200D02*
D03*
X739200D02*
D03*
X729200D02*
D03*
X719200D02*
D03*
X709200D02*
D03*
X699200D02*
D03*
X689200D02*
D03*
X679200D02*
D03*
Y254500D02*
D03*
X689200D02*
D03*
X699200D02*
D03*
X709200D02*
D03*
X719200D02*
D03*
X729200D02*
D03*
X739200D02*
D03*
X749200D02*
D03*
X759200D02*
D03*
X779200D02*
D03*
X769200D02*
D03*
X789200D02*
D03*
D35*
X800700Y166500D02*
D03*
Y254500D02*
D03*
D36*
X477380Y125000D02*
D03*
X492620D02*
D03*
D37*
X445000Y277550D02*
D03*
Y264850D02*
D03*
Y252150D02*
D03*
Y239450D02*
D03*
Y226750D02*
D03*
Y214050D02*
D03*
Y201350D02*
D03*
Y188650D02*
D03*
Y175950D02*
D03*
Y163250D02*
D03*
Y150550D02*
D03*
Y137850D02*
D03*
Y125150D02*
D03*
Y112450D02*
D03*
X275000D02*
D03*
Y125150D02*
D03*
Y137850D02*
D03*
Y150550D02*
D03*
Y163250D02*
D03*
Y175950D02*
D03*
Y188650D02*
D03*
Y201350D02*
D03*
Y214050D02*
D03*
Y226750D02*
D03*
Y239450D02*
D03*
Y252150D02*
D03*
Y264850D02*
D03*
Y277550D02*
D03*
D38*
X417150Y102450D02*
D03*
X404450D02*
D03*
X391750D02*
D03*
X379050D02*
D03*
X366350D02*
D03*
X353650D02*
D03*
X340950D02*
D03*
X328250D02*
D03*
X315550D02*
D03*
X302850D02*
D03*
D39*
X350000Y201350D02*
D03*
Y217950D02*
D03*
Y184850D02*
D03*
X366500D02*
D03*
Y217950D02*
D03*
Y201350D02*
D03*
X333500Y184850D02*
D03*
Y217950D02*
D03*
Y201350D02*
D03*
D40*
X189900Y270300D02*
D03*
Y290300D02*
D03*
Y310300D02*
D03*
Y330300D02*
D03*
Y350300D02*
D03*
Y370300D02*
D03*
Y390300D02*
D03*
Y410300D02*
D03*
X44900Y270300D02*
D03*
Y290300D02*
D03*
Y310300D02*
D03*
Y330300D02*
D03*
Y350300D02*
D03*
Y370300D02*
D03*
Y390300D02*
D03*
D77*
X556500Y266500D02*
X627950D01*
X504500Y214500D02*
X556500Y266500D01*
X484300Y214500D02*
X504500D01*
X529300Y89300D02*
Y130500D01*
X510000Y70000D02*
X529300Y89300D01*
X415300Y70000D02*
X510000D01*
X526300Y141300D02*
Y186500D01*
X509300Y124300D02*
X526300Y141300D01*
X509300Y95500D02*
Y124300D01*
X529300Y130500D02*
X545499Y146699D01*
X373000Y145000D02*
X418000D01*
X367040Y139040D02*
X373000Y145000D01*
X405000Y137000D02*
X429550Y112450D01*
X376000Y137000D02*
X405000D01*
X368000Y129000D02*
X376000Y137000D01*
X346000Y129000D02*
X368000D01*
X700161Y273000D02*
X705200Y267960D01*
X657700Y273000D02*
X700161D01*
X651200Y266500D02*
X657700Y273000D01*
X393000Y176000D02*
Y224000D01*
X383000Y166000D02*
X393000Y176000D01*
X342000Y166000D02*
X383000D01*
X384000Y156000D02*
X402000Y174000D01*
X363000Y156000D02*
X384000D01*
X402000Y174000D02*
Y216000D01*
X393000Y224000D02*
X408450Y239450D01*
X402000Y216000D02*
X412750Y226750D01*
X493040Y170040D02*
X505040D01*
X460850Y137850D02*
X493040Y170040D01*
X505040D02*
X511000Y176000D01*
Y184200D02*
X560600Y233800D01*
X511000Y176000D02*
Y184200D01*
X445000Y137850D02*
X460850D01*
X224060Y264790D02*
Y278505D01*
Y264790D02*
X224300Y264550D01*
X218500Y168250D02*
X230000D01*
X275000Y252150D02*
X386705D01*
X387060Y252505D01*
X421060Y264850D02*
X445000D01*
X216060Y363505D02*
X229060D01*
X209265Y370300D02*
X216060Y363505D01*
X189900Y370300D02*
X209265D01*
X189900Y350300D02*
X217060D01*
X189900Y330300D02*
X217060D01*
X189900Y310300D02*
X217060D01*
X407060Y163505D02*
X407315Y163250D01*
X445000D01*
X444745Y163505D02*
X445000Y163250D01*
X412060Y182505D02*
X418615Y175950D01*
X445000D01*
X424780Y190045D02*
X443605D01*
X445000Y188650D01*
X413000Y201825D02*
X424780Y190045D01*
X702060Y471502D02*
Y489000D01*
Y454005D02*
Y471502D01*
X719060Y473505D02*
X727055Y481500D01*
X755573D01*
X719060Y446505D02*
Y473505D01*
X714060Y441505D02*
X719060Y446505D01*
X702060Y441505D02*
X714060D01*
X690060D02*
X702060D01*
X684060Y447505D02*
X690060Y441505D01*
X684060Y447505D02*
Y472505D01*
X675065Y481500D02*
X684060Y472505D01*
X655573Y481500D02*
X675065D01*
X702060Y501500D02*
X755573D01*
Y480465D02*
Y481500D01*
X189900Y290300D02*
X217060D01*
X498300Y84500D02*
X509300Y95500D01*
X436300Y84500D02*
X498300D01*
X526300Y186500D02*
X556300Y216500D01*
X598550Y320750D02*
Y426500D01*
X502340Y224540D02*
X598550Y320750D01*
X480141Y224540D02*
X502340D01*
X574550Y316750D02*
Y444500D01*
X509950Y252150D02*
X574550Y316750D01*
X445000Y252150D02*
X509950D01*
X655573Y501500D02*
X702060D01*
X569300Y183260D02*
Y201260D01*
X545499Y146699D02*
X655200D01*
X469651Y214050D02*
X480141Y224540D01*
X445000Y214050D02*
X469651D01*
X560600Y249800D02*
X628250D01*
X491300Y180500D02*
X560600Y249800D01*
X560600Y233800D02*
X628250D01*
X461350Y150550D02*
X491300Y180500D01*
X445000Y150550D02*
X461350D01*
X345158Y84500D02*
X436300D01*
X341329Y80671D02*
X345158Y84500D01*
X341000Y81000D02*
X341329Y80671D01*
X331000Y70000D02*
X415300D01*
X315550Y85450D02*
X331000Y70000D01*
X562050Y429750D02*
Y444500D01*
X586050Y411750D02*
X586300Y411500D01*
X586050Y411750D02*
Y426500D01*
X598550D02*
Y436350D01*
X574550Y444500D02*
X589700D01*
X646700Y501500D02*
X655573D01*
X589700Y444500D02*
X646700Y501500D01*
X598550Y436350D02*
X643700Y481500D01*
X655573D01*
X253750Y226750D02*
X275000D01*
X226000Y199000D02*
X253750Y226750D01*
X226000Y187000D02*
Y199000D01*
X224300Y252150D02*
X275000D01*
X656200Y210500D02*
X675200D01*
X688500Y253800D02*
X689200Y254500D01*
X688500Y243800D02*
Y253800D01*
X685500Y240800D02*
X688500Y243800D01*
X654500Y240800D02*
X685500D01*
X647500Y233800D02*
X654500Y240800D01*
X640750Y233800D02*
X647500D01*
X664301Y249800D02*
X669001Y254500D01*
X640750Y249800D02*
X664301D01*
X224300Y227000D02*
Y252050D01*
X679200Y113500D02*
Y133000D01*
X40060Y174125D02*
Y189505D01*
X32000Y166065D02*
X40060Y174125D01*
X27020Y179577D02*
Y193465D01*
X27060Y193505D01*
X22943Y175500D02*
X27020Y179577D01*
X81560Y141940D02*
Y152705D01*
X62560Y141940D02*
Y148285D01*
X32000Y100250D02*
Y166065D01*
X15000Y175500D02*
X22943D01*
X556300Y216500D02*
X627950D01*
X72125Y130440D02*
X86560D01*
X32000Y100250D02*
X48250D01*
X230000Y145199D02*
Y155750D01*
Y145199D02*
X262040Y113159D01*
Y113072D02*
Y113159D01*
Y113072D02*
X262662Y112450D01*
X275000D01*
X704200Y130500D02*
X718950D01*
X679200Y145500D02*
Y166500D01*
X731450Y130500D02*
X739200Y138250D01*
X315550Y85450D02*
Y102450D01*
X174000Y150000D02*
Y166380D01*
X186500Y150000D02*
X198000D01*
X44900Y290300D02*
X67700D01*
X44900Y310300D02*
X81700D01*
X44900Y270300D02*
X97700D01*
X44900D02*
X45200Y270000D01*
X275350Y189000D02*
X297000D01*
X275000Y188650D02*
X275350Y189000D01*
X275050Y214000D02*
X296000D01*
X275000Y214050D02*
X275050Y214000D01*
X253350Y201350D02*
X275000D01*
X246000Y194000D02*
X253350Y201350D01*
X246000Y186000D02*
Y194000D01*
X253950Y175950D02*
X275000D01*
X248061Y170061D02*
X253950Y175950D01*
X248061Y163000D02*
Y170061D01*
X81560Y117940D02*
X98060D01*
X78250Y73000D02*
Y82505D01*
X71000Y60500D02*
X78250D01*
X63250Y59130D02*
X69630D01*
X71000Y60500D01*
X62750Y74870D02*
X63250Y74370D01*
X204750Y34500D02*
X222000D01*
X234000Y44000D02*
X246000D01*
X222250Y84000D02*
Y100000D01*
Y69000D02*
Y84000D01*
X204250Y34000D02*
X204750Y34500D01*
X412750Y226750D02*
X445000D01*
X408450Y239450D02*
X445000D01*
X404450Y102450D02*
Y119550D01*
X400000Y124000D02*
X404450Y119550D01*
X0Y188500D02*
Y200000D01*
X15000Y188000D02*
Y199500D01*
X14500Y176000D02*
X15000Y175500D01*
X0Y176000D02*
X14500D01*
X0Y162500D02*
Y176000D01*
X275000Y163250D02*
X307750D01*
X640450Y198500D02*
X651587D01*
X653587Y200500D01*
X640450Y216500D02*
X650200D01*
X656200Y210500D01*
X653587Y200500D02*
X675200D01*
X492620Y104000D02*
Y125000D01*
X445000Y125150D02*
X477230D01*
X301691Y139040D02*
X367040D01*
X358000Y151000D02*
X363000Y156000D01*
X332000D02*
X342000Y166000D01*
X275000Y125150D02*
X287801D01*
X301691Y139040D01*
X429550Y112450D02*
X445000D01*
X739200Y138250D02*
Y166500D01*
X640450Y266500D02*
X651200D01*
X669001Y254500D02*
X679200D01*
X769200D02*
X779200D01*
D78*
X634700Y180000D02*
X640000D01*
X656200Y187500D02*
X662658D01*
X627950Y186750D02*
X634700Y180000D01*
X49568Y10536D02*
Y34104D01*
X104000Y9000D02*
X104432Y9432D01*
Y33000D01*
X89368Y35633D02*
X92240Y32760D01*
X86495Y38505D02*
X89368Y35633D01*
X105240Y51505D01*
X67505Y38505D02*
X86495D01*
X92240Y22320D02*
Y32760D01*
X61760D02*
X67505Y38505D01*
X61760Y22320D02*
Y32760D01*
X119060Y51505D02*
X128000Y60445D01*
X105240Y51505D02*
X119060D01*
X243300Y264850D02*
X275000D01*
X128000Y60445D02*
Y69500D01*
X627950Y186750D02*
Y198500D01*
X72535Y169080D02*
X107000D01*
X62560Y159105D02*
X72535Y169080D01*
X107000D02*
X120000D01*
X62560Y148285D02*
Y159105D01*
X137000Y144000D02*
Y162085D01*
X130005Y169080D02*
X137000Y162085D01*
X120000Y169080D02*
X130005D01*
X46190Y130440D02*
X98060D01*
X32000Y76490D02*
Y87750D01*
X468860Y104000D02*
X480120D01*
X569300Y159500D02*
Y170760D01*
X48250Y48500D02*
Y60500D01*
X190250Y-10040D02*
X219960D01*
X234000Y4000D01*
Y44000D02*
Y69000D01*
Y4000D02*
Y44000D01*
X0Y110000D02*
Y150000D01*
X665658Y230500D02*
X675200D01*
X662658Y227500D02*
X665658Y230500D01*
X656200Y227500D02*
X662658D01*
X665658Y190500D02*
X675200D01*
X662658Y187500D02*
X665658Y190500D01*
X716200Y268331D02*
Y273500D01*
Y268331D02*
X717240Y267291D01*
Y266002D02*
Y267291D01*
Y266002D02*
X719200Y264042D01*
X722200Y147500D02*
Y153958D01*
X719200Y156958D02*
X722200Y153958D01*
X719200Y156958D02*
Y166500D01*
X706200Y147500D02*
Y153958D01*
X709200Y156958D01*
Y166500D01*
X732200Y267042D02*
Y273500D01*
X729200Y264042D02*
X732200Y267042D01*
X729200Y254500D02*
Y264042D01*
X719200Y254500D02*
Y264042D01*
X786200Y267042D02*
Y273500D01*
Y267042D02*
X789200Y264042D01*
Y254500D02*
Y264042D01*
X746200Y267042D02*
Y273500D01*
Y267042D02*
X749200Y264042D01*
Y254500D02*
Y264042D01*
X759200Y254500D02*
Y264042D01*
X762200Y267042D01*
Y273500D01*
X778450Y114500D02*
Y130500D01*
X794450D01*
D79*
X132380Y181620D02*
X174000D01*
X106000Y208000D02*
X132380Y181620D01*
X32000Y208000D02*
X106000D01*
X11000Y229000D02*
X32000Y208000D01*
X170000Y270000D02*
X189600D01*
X189900Y270300D01*
X170000Y410000D02*
X189600D01*
X189900Y410300D01*
X114000Y35940D02*
Y39000D01*
X312850Y264850D02*
X348000Y300000D01*
X557300Y321500D02*
Y387500D01*
X535800Y300000D02*
X557300Y321500D01*
X348000Y300000D02*
X535800D01*
X507800Y52000D02*
X569300Y113500D01*
X301460Y277540D02*
X301653Y277348D01*
X275150Y265000D02*
X294000D01*
X332000Y52000D02*
X507800D01*
X-14300Y213300D02*
Y230800D01*
X28700Y458300D02*
X60700D01*
X-14300Y415300D02*
X28700Y458300D01*
X-14300Y259800D02*
Y415300D01*
X184114Y181620D02*
X210540Y155194D01*
X174000Y181620D02*
X184114D01*
X180565Y-24000D02*
X433400D01*
X158000Y-1435D02*
X180565Y-24000D01*
X158000Y-1435D02*
Y69500D01*
X569300Y113500D02*
X736950D01*
X753950Y130500D01*
X252000Y97000D02*
Y109000D01*
X210540Y150460D02*
X252000Y109000D01*
X210540Y150460D02*
Y155194D01*
X252000Y97000D02*
X280000Y69000D01*
X282750D01*
X753200Y130500D02*
Y163540D01*
X11000Y316000D02*
X25300Y330300D01*
X11000Y229000D02*
Y316000D01*
X315000Y69000D02*
X332000Y52000D01*
X307750Y69000D02*
X315000D01*
X309000Y265000D02*
X312700D01*
X275010Y277540D02*
X301460D01*
X275000Y277550D02*
X275010Y277540D01*
X275000Y264850D02*
X275150Y265000D01*
X312700D02*
X312850Y264850D01*
X25300Y330300D02*
X44900D01*
X421450Y277550D02*
X445000D01*
X291250Y37000D02*
X320000D01*
X327000Y30000D01*
X349500D01*
X399600Y-7000D02*
Y21400D01*
X391000Y30000D02*
X399600Y21400D01*
X380500Y30000D02*
X391000D01*
X209750Y53500D02*
Y69000D01*
X202000Y126000D02*
X209750Y118250D01*
Y100000D02*
Y118250D01*
X433400Y-24000D02*
X450400Y-7000D01*
X777700Y130500D02*
X779200Y132000D01*
X800700Y271000D02*
X803200Y273500D01*
X800700Y254500D02*
Y271000D01*
X44900Y390300D02*
X68450D01*
D80*
X72060Y130505D02*
Y141940D01*
X46000Y117750D02*
X62370D01*
X209750Y53500D02*
X222000D01*
X48250Y73000D02*
Y87750D01*
X246000Y25000D02*
Y34500D01*
D81*
X302850Y102450D02*
Y126000D01*
D82*
X709200Y254500D02*
Y263960D01*
X705200Y267960D02*
X709200Y263960D01*
D83*
X785700Y155500D02*
D03*
D84*
X55625Y74120D02*
D03*
D85*
X173000Y125750D02*
D03*
D86*
X127250Y113000D02*
D03*
D87*
X197125Y69625D02*
D03*
D88*
X62625Y96000D02*
D03*
D89*
X128000Y98375D02*
D03*
D90*
X182750Y26000D02*
D03*
D91*
X190250Y-3500D02*
D03*
D92*
X204250Y17500D02*
D03*
D93*
X233250Y83000D02*
D03*
D94*
X257250Y53500D02*
D03*
D95*
X294250Y43000D02*
D03*
D96*
X286125Y69000D02*
D03*
D97*
X210000Y85000D02*
D03*
D98*
X234250Y69000D02*
D03*
D99*
X500000Y20000D02*
D03*
X531300Y401100D02*
D03*
Y426500D02*
D03*
X480500Y375700D02*
D03*
Y350300D02*
D03*
Y426500D02*
D03*
Y401100D02*
D03*
X251900D02*
D03*
Y426500D02*
D03*
Y350300D02*
D03*
Y375700D02*
D03*
X455100Y401100D02*
D03*
Y426500D02*
D03*
Y350300D02*
D03*
Y375700D02*
D03*
X429700Y401100D02*
D03*
Y426500D02*
D03*
Y350300D02*
D03*
Y375700D02*
D03*
X404300Y401100D02*
D03*
Y426500D02*
D03*
Y350300D02*
D03*
Y375700D02*
D03*
X531300D02*
D03*
Y324900D02*
D03*
Y350300D02*
D03*
X302700Y375700D02*
D03*
Y350300D02*
D03*
Y426500D02*
D03*
Y401100D02*
D03*
X480500Y324900D02*
D03*
X455100D02*
D03*
X328100Y375700D02*
D03*
X353500D02*
D03*
X328100Y350300D02*
D03*
X353500D02*
D03*
X328100Y426500D02*
D03*
X353500D02*
D03*
X328100Y401100D02*
D03*
X353500D02*
D03*
X378900Y375700D02*
D03*
Y350300D02*
D03*
Y426500D02*
D03*
Y401100D02*
D03*
D100*
X353500Y477300D02*
D03*
X378900D02*
D03*
X404300D02*
D03*
X429700D02*
D03*
X455100D02*
D03*
X480500D02*
D03*
X505900D02*
D03*
X531300D02*
D03*
X74100D02*
D03*
X328100D02*
D03*
X302700D02*
D03*
X277300D02*
D03*
X251900D02*
D03*
X226500D02*
D03*
X201100D02*
D03*
X175700D02*
D03*
X150300D02*
D03*
X124900D02*
D03*
X99500D02*
D03*
Y502700D02*
D03*
X124900D02*
D03*
X150300D02*
D03*
X175700D02*
D03*
X201100D02*
D03*
X226500D02*
D03*
X251900D02*
D03*
X277300D02*
D03*
X302700D02*
D03*
X328100D02*
D03*
X353500D02*
D03*
X378900D02*
D03*
X404300D02*
D03*
X429700D02*
D03*
X455100D02*
D03*
X480500D02*
D03*
X505900D02*
D03*
X531300D02*
D03*
X48700D02*
D03*
X74100D02*
D03*
D101*
X48700Y477300D02*
D03*
D102*
X122200Y18410D02*
D03*
X31820Y-18320D02*
D03*
X122180D02*
D03*
X31800Y18410D02*
D03*
D103*
X348800Y-7000D02*
D03*
X374200D02*
D03*
X323400D02*
D03*
X450400D02*
D03*
X425000D02*
D03*
X399600D02*
D03*
D104*
X298000D02*
D03*
D105*
X755573Y501500D02*
D03*
X655573D02*
D03*
D106*
X755573Y481500D02*
D03*
Y461500D02*
D03*
X755827Y441500D02*
D03*
X655573Y481500D02*
D03*
Y461500D02*
D03*
X655827Y441500D02*
D03*
D107*
X0Y90000D02*
D03*
D108*
Y110000D02*
D03*
D109*
X558892Y130497D02*
D03*
X578892D02*
D03*
X658892D02*
D03*
X638892D02*
D03*
X618892D02*
D03*
X658892Y180497D02*
D03*
X640000Y180000D02*
D03*
X598892Y130497D02*
D03*
X540000Y120000D02*
D03*
X94920Y150825D02*
D03*
X100000Y190000D02*
D03*
X80000D02*
D03*
X60000D02*
D03*
X379000Y123000D02*
D03*
X620000Y500000D02*
D03*
X520000Y-20000D02*
D03*
X540000D02*
D03*
X480000D02*
D03*
X500000D02*
D03*
X540000Y0D02*
D03*
X520000D02*
D03*
X480000D02*
D03*
X210000Y410000D02*
D03*
Y430000D02*
D03*
X190000D02*
D03*
X170000D02*
D03*
X150000D02*
D03*
X149584Y269433D02*
D03*
X170000Y270000D02*
D03*
Y290000D02*
D03*
Y310000D02*
D03*
Y330000D02*
D03*
Y350000D02*
D03*
Y370000D02*
D03*
Y390000D02*
D03*
Y410000D02*
D03*
X150000D02*
D03*
X130000Y430000D02*
D03*
X110625Y431087D02*
D03*
X90000Y430000D02*
D03*
X70000D02*
D03*
X160000Y140000D02*
D03*
Y160000D02*
D03*
X250000Y140000D02*
D03*
X300000Y150000D02*
D03*
X280000Y100000D02*
D03*
X380000Y180000D02*
D03*
Y200000D02*
D03*
Y220000D02*
D03*
Y240000D02*
D03*
X360000D02*
D03*
X340000D02*
D03*
X300000D02*
D03*
X480000D02*
D03*
Y280000D02*
D03*
X511000Y176000D02*
D03*
X500000Y140000D02*
D03*
X480000D02*
D03*
X500000Y160000D02*
D03*
X540000D02*
D03*
Y180000D02*
D03*
X658892Y160497D02*
D03*
X638892D02*
D03*
X618892D02*
D03*
Y180497D02*
D03*
X598892Y160497D02*
D03*
X600000Y180000D02*
D03*
Y200000D02*
D03*
X520000Y40000D02*
D03*
X420000Y20000D02*
D03*
X560000Y80000D02*
D03*
Y40000D02*
D03*
Y60000D02*
D03*
X540000D02*
D03*
Y40000D02*
D03*
Y20000D02*
D03*
X520000D02*
D03*
X480000D02*
D03*
X460000D02*
D03*
X120000Y40000D02*
D03*
X140000D02*
D03*
Y20000D02*
D03*
Y0D02*
D03*
Y-20000D02*
D03*
X100000Y0D02*
D03*
Y-20000D02*
D03*
X80000D02*
D03*
Y0D02*
D03*
X60000Y-20000D02*
D03*
Y0D02*
D03*
X20000Y40000D02*
D03*
X0D02*
D03*
X-20000D02*
D03*
Y60000D02*
D03*
X233000Y90000D02*
D03*
Y101000D02*
D03*
X240000Y280000D02*
D03*
X260000D02*
D03*
X780000Y440000D02*
D03*
Y460000D02*
D03*
Y480000D02*
D03*
Y500000D02*
D03*
X800000D02*
D03*
Y480000D02*
D03*
Y460000D02*
D03*
Y440000D02*
D03*
X620000Y420000D02*
D03*
X640000D02*
D03*
X660000D02*
D03*
X680000D02*
D03*
X700000D02*
D03*
X720000D02*
D03*
X740000D02*
D03*
X760000D02*
D03*
X780000D02*
D03*
X800000D02*
D03*
Y400000D02*
D03*
X780000D02*
D03*
X760000D02*
D03*
X740000D02*
D03*
X720000D02*
D03*
X700000D02*
D03*
X680000D02*
D03*
X660000D02*
D03*
X640000D02*
D03*
X620000D02*
D03*
Y380000D02*
D03*
X640000D02*
D03*
X660000D02*
D03*
X680000D02*
D03*
X700000D02*
D03*
X720000D02*
D03*
X740000D02*
D03*
X760000D02*
D03*
X780000D02*
D03*
X800000D02*
D03*
Y360000D02*
D03*
X780000D02*
D03*
X760000D02*
D03*
X740000D02*
D03*
X720000D02*
D03*
X700000D02*
D03*
X680000D02*
D03*
X660000D02*
D03*
X640000D02*
D03*
X620000D02*
D03*
Y340000D02*
D03*
X640000D02*
D03*
X660000D02*
D03*
X680000D02*
D03*
X700000D02*
D03*
X720000D02*
D03*
X740000D02*
D03*
X760000D02*
D03*
X780000D02*
D03*
X800000D02*
D03*
Y320000D02*
D03*
X780000D02*
D03*
X760000D02*
D03*
X740000D02*
D03*
X720000D02*
D03*
X700000D02*
D03*
X680000D02*
D03*
X660000D02*
D03*
X640000D02*
D03*
X620000D02*
D03*
X640000Y280000D02*
D03*
X620000D02*
D03*
X600000D02*
D03*
Y300000D02*
D03*
X620000D02*
D03*
X640000D02*
D03*
X660000D02*
D03*
X680000D02*
D03*
X700000D02*
D03*
X720000D02*
D03*
X740000D02*
D03*
X760000D02*
D03*
X780000D02*
D03*
X800000D02*
D03*
X700000Y100000D02*
D03*
X720000D02*
D03*
X740000D02*
D03*
X760000D02*
D03*
X780000D02*
D03*
X800000D02*
D03*
Y80000D02*
D03*
X780000D02*
D03*
X760000D02*
D03*
X740000D02*
D03*
X720000D02*
D03*
X700000D02*
D03*
Y60000D02*
D03*
X720000D02*
D03*
X740000D02*
D03*
X759967Y59749D02*
D03*
X780000Y60000D02*
D03*
X800000D02*
D03*
Y40000D02*
D03*
X780000D02*
D03*
X760000D02*
D03*
X740000D02*
D03*
X720000D02*
D03*
X700000D02*
D03*
Y20000D02*
D03*
X720000D02*
D03*
X740000D02*
D03*
X760000D02*
D03*
X780000D02*
D03*
X800000D02*
D03*
Y0D02*
D03*
X780000D02*
D03*
X760000D02*
D03*
X740000D02*
D03*
X720000D02*
D03*
X700000D02*
D03*
X780000Y-20000D02*
D03*
X760000D02*
D03*
X740000D02*
D03*
X720000D02*
D03*
X700000D02*
D03*
X680000D02*
D03*
X660000D02*
D03*
X640000D02*
D03*
X620000D02*
D03*
X680000Y100000D02*
D03*
Y80000D02*
D03*
Y60000D02*
D03*
Y40000D02*
D03*
Y20000D02*
D03*
Y0D02*
D03*
X660000D02*
D03*
Y20000D02*
D03*
Y40000D02*
D03*
Y60000D02*
D03*
Y80000D02*
D03*
Y100000D02*
D03*
X640000D02*
D03*
Y80000D02*
D03*
Y60000D02*
D03*
Y40000D02*
D03*
Y20000D02*
D03*
Y0D02*
D03*
X620000D02*
D03*
Y20000D02*
D03*
Y40000D02*
D03*
Y100000D02*
D03*
Y80000D02*
D03*
Y60000D02*
D03*
X600000Y40000D02*
D03*
Y60000D02*
D03*
Y80000D02*
D03*
Y100000D02*
D03*
X580000Y40000D02*
D03*
Y60000D02*
D03*
Y80000D02*
D03*
Y100000D02*
D03*
X80000Y230000D02*
D03*
X60000D02*
D03*
Y250000D02*
D03*
X224060Y278505D02*
D03*
X218500Y168250D02*
D03*
X387060Y252505D02*
D03*
X421060Y264850D02*
D03*
X217060Y330300D02*
D03*
X229060Y363505D02*
D03*
X217060Y350300D02*
D03*
Y290300D02*
D03*
X407060Y163505D02*
D03*
X412060Y182505D02*
D03*
X702060Y471502D02*
D03*
X217060Y310300D02*
D03*
X227060Y395505D02*
D03*
Y380505D02*
D03*
X557300Y387500D02*
D03*
X491300Y180500D02*
D03*
X301653Y277348D02*
D03*
X484300Y214500D02*
D03*
X436300Y84500D02*
D03*
X415300Y70000D02*
D03*
X127200Y115300D02*
D03*
X-14300Y213300D02*
D03*
X38700Y458300D02*
D03*
X60700D02*
D03*
X562050Y429750D02*
D03*
X586300Y411500D02*
D03*
X655200Y146699D02*
D03*
X40060Y189505D02*
D03*
X27060Y193505D02*
D03*
X78250Y82505D02*
D03*
X81560Y152705D02*
D03*
X49200Y150825D02*
D03*
X107000Y169080D02*
D03*
X72125Y130440D02*
D03*
X704200Y130500D02*
D03*
X40000Y230000D02*
D03*
Y250000D02*
D03*
X10000Y350000D02*
D03*
Y370000D02*
D03*
Y390000D02*
D03*
X70000Y410000D02*
D03*
Y330000D02*
D03*
Y350000D02*
D03*
Y370000D02*
D03*
X90000Y330000D02*
D03*
Y350000D02*
D03*
Y370000D02*
D03*
Y390000D02*
D03*
Y410000D02*
D03*
X110000D02*
D03*
X130000D02*
D03*
X150000Y390000D02*
D03*
X130000D02*
D03*
X110000D02*
D03*
Y370000D02*
D03*
X130000D02*
D03*
X150000D02*
D03*
Y350000D02*
D03*
X130000D02*
D03*
X110000D02*
D03*
Y290000D02*
D03*
Y310000D02*
D03*
Y330000D02*
D03*
X150000D02*
D03*
X130000D02*
D03*
Y310000D02*
D03*
X150000D02*
D03*
Y290000D02*
D03*
X130000D02*
D03*
Y270000D02*
D03*
X340000D02*
D03*
X360000D02*
D03*
X350000Y280000D02*
D03*
X260000Y10000D02*
D03*
Y-10000D02*
D03*
X240000D02*
D03*
Y10000D02*
D03*
X220000D02*
D03*
X219960Y-10040D02*
D03*
X176250Y34000D02*
D03*
Y23000D02*
D03*
X295750Y69000D02*
D03*
X309000Y265000D02*
D03*
X294000D02*
D03*
X198000Y150000D02*
D03*
X67700Y290300D02*
D03*
X81700Y310300D02*
D03*
X97700Y270300D02*
D03*
X226000Y187000D02*
D03*
X421450Y277550D02*
D03*
X297000Y189000D02*
D03*
X296000Y214000D02*
D03*
X307750Y69000D02*
D03*
X32000Y76490D02*
D03*
X468860Y104000D02*
D03*
X302850Y126000D02*
D03*
X569300Y159500D02*
D03*
X246000Y186000D02*
D03*
X248061Y163000D02*
D03*
X120000Y169080D02*
D03*
X48250Y48500D02*
D03*
X270000Y69000D02*
D03*
X209750Y53500D02*
D03*
X246000Y25000D02*
D03*
X418000Y145000D02*
D03*
X400000Y124000D02*
D03*
X0Y200000D02*
D03*
X15000Y199500D02*
D03*
X341000Y81000D02*
D03*
X307750Y163250D02*
D03*
X656200Y227500D02*
D03*
X413000Y201825D02*
D03*
X358000Y151000D02*
D03*
X332000Y156000D02*
D03*
X722200Y147500D02*
D03*
X706200D02*
D03*
X732200Y273500D02*
D03*
X716200D02*
D03*
X786200D02*
D03*
X746200D02*
D03*
X762200D02*
D03*
X778450Y114500D02*
D03*
X794450Y130500D02*
D03*
X803200Y273500D02*
D03*
X68450Y390300D02*
D03*
X346000Y129000D02*
D03*
D110*
X341800Y184850D02*
D03*
X358300Y201350D02*
D03*
Y184850D02*
D03*
X341800Y201350D02*
D03*
X366500Y209650D02*
D03*
X350000D02*
D03*
X333500D02*
D03*
X366500Y193050D02*
D03*
X350000D02*
D03*
X333500D02*
D03*
X358300Y217950D02*
D03*
X341800D02*
D03*
M02*
