G04*
G04 #@! TF.GenerationSoftware,Altium Limited,CircuitMaker,2.2.1 (2.2.1.6)*
G04*
G04 Layer_Physical_Order=2*
G04 Layer_Color=11436288*
%FSLAX44Y44*%
%MOMM*%
G71*
G04*
G04 #@! TF.SameCoordinates,4DC394B6-E11D-4AB0-B304-EE3890279FAF*
G04*
G04*
G04 #@! TF.FilePolarity,Positive*
G04*
G01*
G75*
%ADD71C,1.0000*%
%ADD72C,0.5000*%
%ADD77R,1.3000X1.0000*%
%ADD94C,1.5500*%
G04:AMPARAMS|DCode=95|XSize=1.524mm|YSize=1.524mm|CornerRadius=0.1905mm|HoleSize=0mm|Usage=FLASHONLY|Rotation=0.000|XOffset=0mm|YOffset=0mm|HoleType=Round|Shape=RoundedRectangle|*
%AMROUNDEDRECTD95*
21,1,1.5240,1.1430,0,0,0.0*
21,1,1.1430,1.5240,0,0,0.0*
1,1,0.3810,0.5715,-0.5715*
1,1,0.3810,-0.5715,-0.5715*
1,1,0.3810,-0.5715,0.5715*
1,1,0.3810,0.5715,0.5715*
%
%ADD95ROUNDEDRECTD95*%
%ADD96C,1.5240*%
%ADD97R,1.5240X1.5240*%
%ADD98R,1.2000X1.2000*%
%ADD99C,1.2000*%
%ADD100C,1.5000*%
G04:AMPARAMS|DCode=101|XSize=1.5mm|YSize=1.5mm|CornerRadius=0.1875mm|HoleSize=0mm|Usage=FLASHONLY|Rotation=90.000|XOffset=0mm|YOffset=0mm|HoleType=Round|Shape=RoundedRectangle|*
%AMROUNDEDRECTD101*
21,1,1.5000,1.1250,0,0,90.0*
21,1,1.1250,1.5000,0,0,90.0*
1,1,0.3750,0.5625,0.5625*
1,1,0.3750,0.5625,-0.5625*
1,1,0.3750,-0.5625,-0.5625*
1,1,0.3750,-0.5625,0.5625*
%
%ADD101ROUNDEDRECTD101*%
%ADD102C,1.0000*%
%ADD103C,0.6800*%
%ADD104R,2.5000X1.2000*%
G36*
X824211Y556585D02*
X828317Y555599D01*
X832220Y553982D01*
X835821Y551776D01*
X839033Y549033D01*
X841776Y545821D01*
X843982Y542220D01*
X845599Y538317D01*
X846585Y534211D01*
X846763Y531943D01*
X846900Y530000D01*
X846900Y530000D01*
X846900Y528033D01*
Y30000D01*
X846912Y29944D01*
X846585Y25789D01*
X845599Y21683D01*
X843982Y17780D01*
X841776Y14179D01*
X839033Y10968D01*
X835821Y8224D01*
X832220Y6018D01*
X828317Y4401D01*
X824211Y3415D01*
X821943Y3237D01*
X820000Y3100D01*
X820000Y3100D01*
X818033Y3100D01*
X189780D01*
X189190Y4791D01*
X189133Y5100D01*
X190082Y6521D01*
X190427Y8255D01*
Y19685D01*
X190082Y21419D01*
X189100Y22890D01*
X187629Y23872D01*
X185895Y24217D01*
X174465D01*
X172731Y23872D01*
X171260Y22890D01*
X170278Y21419D01*
X169933Y19685D01*
Y8255D01*
X170278Y6521D01*
X171227Y5100D01*
X171170Y4791D01*
X170580Y3100D01*
X99420D01*
X98830Y4791D01*
X98773Y5100D01*
X99722Y6521D01*
X100067Y8255D01*
Y19685D01*
X99722Y21419D01*
X98740Y22890D01*
X97269Y23872D01*
X95535Y24217D01*
X84105D01*
X82371Y23872D01*
X80900Y22890D01*
X79918Y21419D01*
X79573Y19685D01*
Y8255D01*
X79918Y6521D01*
X80868Y5100D01*
X80810Y4791D01*
X80220Y3100D01*
X32000D01*
X31967Y3100D01*
X30000Y3100D01*
X28057Y3237D01*
X25789Y3415D01*
X21683Y4401D01*
X17780Y6018D01*
X14179Y8224D01*
X10968Y10968D01*
X8224Y14179D01*
X6018Y17780D01*
X4401Y21683D01*
X3415Y25789D01*
X3237Y28057D01*
X3100Y30000D01*
X3100Y30000D01*
X3100Y31967D01*
Y530000D01*
X3088Y530056D01*
X3415Y534211D01*
X4401Y538317D01*
X6018Y542220D01*
X8224Y545821D01*
X10968Y549033D01*
X14179Y551776D01*
X17780Y553982D01*
X21683Y555599D01*
X25789Y556585D01*
X28057Y556763D01*
X30000Y556900D01*
Y556900D01*
X31967Y556900D01*
X820000D01*
X820056Y556912D01*
X824211Y556585D01*
D02*
G37*
%LPC*%
G36*
X491455Y547990D02*
X491370D01*
Y538970D01*
X500390D01*
Y539055D01*
X499689Y541672D01*
X498334Y544018D01*
X496418Y545934D01*
X494072Y547289D01*
X491455Y547990D01*
D02*
G37*
G36*
X488830D02*
X488745D01*
X486128Y547289D01*
X483782Y545934D01*
X481866Y544018D01*
X480511Y541672D01*
X479810Y539055D01*
Y538970D01*
X488830D01*
Y547990D01*
D02*
G37*
G36*
X440655D02*
X440570D01*
Y538970D01*
X449590D01*
Y539055D01*
X448889Y541672D01*
X447534Y544018D01*
X445618Y545934D01*
X443272Y547289D01*
X440655Y547990D01*
D02*
G37*
G36*
X438030D02*
X437945D01*
X435328Y547289D01*
X432982Y545934D01*
X431066Y544018D01*
X429711Y541672D01*
X429010Y539055D01*
Y538970D01*
X438030D01*
Y547990D01*
D02*
G37*
G36*
X313655D02*
X313570D01*
Y538970D01*
X322590D01*
Y539055D01*
X321889Y541672D01*
X320534Y544018D01*
X318618Y545934D01*
X316272Y547289D01*
X313655Y547990D01*
D02*
G37*
G36*
X311030D02*
X310945D01*
X308328Y547289D01*
X305982Y545934D01*
X304066Y544018D01*
X302711Y541672D01*
X302010Y539055D01*
Y538970D01*
X311030D01*
Y547990D01*
D02*
G37*
G36*
X237455D02*
X237370D01*
Y538970D01*
X246390D01*
Y539055D01*
X245689Y541672D01*
X244334Y544018D01*
X242418Y545934D01*
X240072Y547289D01*
X237455Y547990D01*
D02*
G37*
G36*
X234830D02*
X234745D01*
X232128Y547289D01*
X229782Y545934D01*
X227866Y544018D01*
X226511Y541672D01*
X225810Y539055D01*
Y538970D01*
X234830D01*
Y547990D01*
D02*
G37*
G36*
X135855D02*
X135770D01*
Y538970D01*
X144790D01*
Y539055D01*
X144089Y541672D01*
X142734Y544018D01*
X140818Y545934D01*
X138472Y547289D01*
X135855Y547990D01*
D02*
G37*
G36*
X133230D02*
X133145D01*
X130528Y547289D01*
X128182Y545934D01*
X126266Y544018D01*
X124911Y541672D01*
X124210Y539055D01*
Y538970D01*
X133230D01*
Y547990D01*
D02*
G37*
G36*
X567655D02*
X564945D01*
X562328Y547289D01*
X559982Y545934D01*
X558066Y544018D01*
X556711Y541672D01*
X556010Y539055D01*
Y536345D01*
X556711Y533728D01*
X558066Y531382D01*
X559982Y529466D01*
X562328Y528111D01*
X564945Y527410D01*
X567655D01*
X570272Y528111D01*
X572618Y529466D01*
X574534Y531382D01*
X575889Y533728D01*
X576590Y536345D01*
Y539055D01*
X575889Y541672D01*
X574534Y544018D01*
X572618Y545934D01*
X570272Y547289D01*
X567655Y547990D01*
D02*
G37*
G36*
X542255D02*
X539545D01*
X536928Y547289D01*
X534582Y545934D01*
X532666Y544018D01*
X531311Y541672D01*
X530610Y539055D01*
Y536345D01*
X531311Y533728D01*
X532666Y531382D01*
X534582Y529466D01*
X536928Y528111D01*
X539545Y527410D01*
X542255D01*
X544872Y528111D01*
X547218Y529466D01*
X549134Y531382D01*
X550489Y533728D01*
X551190Y536345D01*
Y539055D01*
X550489Y541672D01*
X549134Y544018D01*
X547218Y545934D01*
X544872Y547289D01*
X542255Y547990D01*
D02*
G37*
G36*
X516855D02*
X514145D01*
X511528Y547289D01*
X509182Y545934D01*
X507266Y544018D01*
X505911Y541672D01*
X505210Y539055D01*
Y536345D01*
X505911Y533728D01*
X507266Y531382D01*
X509182Y529466D01*
X511528Y528111D01*
X514145Y527410D01*
X516855D01*
X519472Y528111D01*
X521818Y529466D01*
X523734Y531382D01*
X525089Y533728D01*
X525790Y536345D01*
Y539055D01*
X525089Y541672D01*
X523734Y544018D01*
X521818Y545934D01*
X519472Y547289D01*
X516855Y547990D01*
D02*
G37*
G36*
X500390Y536430D02*
X491370D01*
Y527410D01*
X491455D01*
X494072Y528111D01*
X496418Y529466D01*
X498334Y531382D01*
X499689Y533728D01*
X500390Y536345D01*
Y536430D01*
D02*
G37*
G36*
X488830D02*
X479810D01*
Y536345D01*
X480511Y533728D01*
X481866Y531382D01*
X483782Y529466D01*
X486128Y528111D01*
X488745Y527410D01*
X488830D01*
Y536430D01*
D02*
G37*
G36*
X466055Y547990D02*
X463345D01*
X460728Y547289D01*
X458382Y545934D01*
X456466Y544018D01*
X455111Y541672D01*
X454410Y539055D01*
Y536345D01*
X455111Y533728D01*
X456466Y531382D01*
X458382Y529466D01*
X460728Y528111D01*
X463345Y527410D01*
X466055D01*
X468672Y528111D01*
X471018Y529466D01*
X472934Y531382D01*
X474289Y533728D01*
X474990Y536345D01*
Y539055D01*
X474289Y541672D01*
X472934Y544018D01*
X471018Y545934D01*
X468672Y547289D01*
X466055Y547990D01*
D02*
G37*
G36*
X449590Y536430D02*
X440570D01*
Y527410D01*
X440655D01*
X443272Y528111D01*
X445618Y529466D01*
X447534Y531382D01*
X448889Y533728D01*
X449590Y536345D01*
Y536430D01*
D02*
G37*
G36*
X438030D02*
X429010D01*
Y536345D01*
X429711Y533728D01*
X431066Y531382D01*
X432982Y529466D01*
X435328Y528111D01*
X437945Y527410D01*
X438030D01*
Y536430D01*
D02*
G37*
G36*
X415255Y547990D02*
X412545D01*
X409928Y547289D01*
X407582Y545934D01*
X405666Y544018D01*
X404311Y541672D01*
X403610Y539055D01*
Y536345D01*
X404311Y533728D01*
X405666Y531382D01*
X407582Y529466D01*
X409928Y528111D01*
X412545Y527410D01*
X415255D01*
X417872Y528111D01*
X420218Y529466D01*
X422134Y531382D01*
X423489Y533728D01*
X424190Y536345D01*
Y539055D01*
X423489Y541672D01*
X422134Y544018D01*
X420218Y545934D01*
X417872Y547289D01*
X415255Y547990D01*
D02*
G37*
G36*
X389855D02*
X387145D01*
X384528Y547289D01*
X382182Y545934D01*
X380266Y544018D01*
X378911Y541672D01*
X378210Y539055D01*
Y536345D01*
X378911Y533728D01*
X380266Y531382D01*
X382182Y529466D01*
X384528Y528111D01*
X387145Y527410D01*
X389855D01*
X392472Y528111D01*
X394818Y529466D01*
X396734Y531382D01*
X398089Y533728D01*
X398790Y536345D01*
Y539055D01*
X398089Y541672D01*
X396734Y544018D01*
X394818Y545934D01*
X392472Y547289D01*
X389855Y547990D01*
D02*
G37*
G36*
X364455D02*
X361745D01*
X359128Y547289D01*
X356782Y545934D01*
X354866Y544018D01*
X353511Y541672D01*
X352810Y539055D01*
Y536345D01*
X353511Y533728D01*
X354866Y531382D01*
X356782Y529466D01*
X359128Y528111D01*
X361745Y527410D01*
X364455D01*
X367072Y528111D01*
X369418Y529466D01*
X371334Y531382D01*
X372689Y533728D01*
X373390Y536345D01*
Y539055D01*
X372689Y541672D01*
X371334Y544018D01*
X369418Y545934D01*
X367072Y547289D01*
X364455Y547990D01*
D02*
G37*
G36*
X339055D02*
X336345D01*
X333728Y547289D01*
X331382Y545934D01*
X329466Y544018D01*
X328111Y541672D01*
X327410Y539055D01*
Y536345D01*
X328111Y533728D01*
X329466Y531382D01*
X331382Y529466D01*
X333728Y528111D01*
X336345Y527410D01*
X339055D01*
X341672Y528111D01*
X344018Y529466D01*
X345934Y531382D01*
X347289Y533728D01*
X347990Y536345D01*
Y539055D01*
X347289Y541672D01*
X345934Y544018D01*
X344018Y545934D01*
X341672Y547289D01*
X339055Y547990D01*
D02*
G37*
G36*
X322590Y536430D02*
X313570D01*
Y527410D01*
X313655D01*
X316272Y528111D01*
X318618Y529466D01*
X320534Y531382D01*
X321889Y533728D01*
X322590Y536345D01*
Y536430D01*
D02*
G37*
G36*
X311030D02*
X302010D01*
Y536345D01*
X302711Y533728D01*
X304066Y531382D01*
X305982Y529466D01*
X308328Y528111D01*
X310945Y527410D01*
X311030D01*
Y536430D01*
D02*
G37*
G36*
X288255Y547990D02*
X285545D01*
X282928Y547289D01*
X280582Y545934D01*
X278666Y544018D01*
X277311Y541672D01*
X276610Y539055D01*
Y536345D01*
X277311Y533728D01*
X278666Y531382D01*
X280582Y529466D01*
X282928Y528111D01*
X285545Y527410D01*
X288255D01*
X290872Y528111D01*
X293218Y529466D01*
X295134Y531382D01*
X296489Y533728D01*
X297190Y536345D01*
Y539055D01*
X296489Y541672D01*
X295134Y544018D01*
X293218Y545934D01*
X290872Y547289D01*
X288255Y547990D01*
D02*
G37*
G36*
X262855D02*
X260145D01*
X257528Y547289D01*
X255182Y545934D01*
X253266Y544018D01*
X251911Y541672D01*
X251210Y539055D01*
Y536345D01*
X251911Y533728D01*
X253266Y531382D01*
X255182Y529466D01*
X257528Y528111D01*
X260145Y527410D01*
X262855D01*
X265472Y528111D01*
X267818Y529466D01*
X269734Y531382D01*
X271089Y533728D01*
X271790Y536345D01*
Y539055D01*
X271089Y541672D01*
X269734Y544018D01*
X267818Y545934D01*
X265472Y547289D01*
X262855Y547990D01*
D02*
G37*
G36*
X246390Y536430D02*
X237370D01*
Y527410D01*
X237455D01*
X240072Y528111D01*
X242418Y529466D01*
X244334Y531382D01*
X245689Y533728D01*
X246390Y536345D01*
Y536430D01*
D02*
G37*
G36*
X234830D02*
X225810D01*
Y536345D01*
X226511Y533728D01*
X227866Y531382D01*
X229782Y529466D01*
X232128Y528111D01*
X234745Y527410D01*
X234830D01*
Y536430D01*
D02*
G37*
G36*
X212055Y547990D02*
X209345D01*
X206728Y547289D01*
X204382Y545934D01*
X202466Y544018D01*
X201111Y541672D01*
X200410Y539055D01*
Y536345D01*
X201111Y533728D01*
X202466Y531382D01*
X204382Y529466D01*
X206728Y528111D01*
X209345Y527410D01*
X212055D01*
X214672Y528111D01*
X217018Y529466D01*
X218934Y531382D01*
X220289Y533728D01*
X220990Y536345D01*
Y539055D01*
X220289Y541672D01*
X218934Y544018D01*
X217018Y545934D01*
X214672Y547289D01*
X212055Y547990D01*
D02*
G37*
G36*
X186655D02*
X183945D01*
X181328Y547289D01*
X178982Y545934D01*
X177066Y544018D01*
X175711Y541672D01*
X175010Y539055D01*
Y536345D01*
X175711Y533728D01*
X177066Y531382D01*
X178982Y529466D01*
X181328Y528111D01*
X183945Y527410D01*
X186655D01*
X189272Y528111D01*
X191618Y529466D01*
X193534Y531382D01*
X194889Y533728D01*
X195590Y536345D01*
Y539055D01*
X194889Y541672D01*
X193534Y544018D01*
X191618Y545934D01*
X189272Y547289D01*
X186655Y547990D01*
D02*
G37*
G36*
X161255D02*
X158545D01*
X155928Y547289D01*
X153582Y545934D01*
X151666Y544018D01*
X150311Y541672D01*
X149610Y539055D01*
Y536345D01*
X150311Y533728D01*
X151666Y531382D01*
X153582Y529466D01*
X155928Y528111D01*
X158545Y527410D01*
X161255D01*
X163872Y528111D01*
X166218Y529466D01*
X168134Y531382D01*
X169489Y533728D01*
X170190Y536345D01*
Y539055D01*
X169489Y541672D01*
X168134Y544018D01*
X166218Y545934D01*
X163872Y547289D01*
X161255Y547990D01*
D02*
G37*
G36*
X144790Y536430D02*
X135770D01*
Y527410D01*
X135855D01*
X138472Y528111D01*
X140818Y529466D01*
X142734Y531382D01*
X144089Y533728D01*
X144790Y536345D01*
Y536430D01*
D02*
G37*
G36*
X133230D02*
X124210D01*
Y536345D01*
X124911Y533728D01*
X126266Y531382D01*
X128182Y529466D01*
X130528Y528111D01*
X133145Y527410D01*
X133230D01*
Y536430D01*
D02*
G37*
G36*
X110455Y547990D02*
X107745D01*
X105128Y547289D01*
X102782Y545934D01*
X100866Y544018D01*
X99511Y541672D01*
X98810Y539055D01*
Y536345D01*
X99511Y533728D01*
X100866Y531382D01*
X102782Y529466D01*
X105128Y528111D01*
X107745Y527410D01*
X110455D01*
X113072Y528111D01*
X115418Y529466D01*
X117334Y531382D01*
X118689Y533728D01*
X119390Y536345D01*
Y539055D01*
X118689Y541672D01*
X117334Y544018D01*
X115418Y545934D01*
X113072Y547289D01*
X110455Y547990D01*
D02*
G37*
G36*
X85055D02*
X82345D01*
X79728Y547289D01*
X77382Y545934D01*
X75466Y544018D01*
X74111Y541672D01*
X73410Y539055D01*
Y536345D01*
X74111Y533728D01*
X75466Y531382D01*
X77382Y529466D01*
X79728Y528111D01*
X82345Y527410D01*
X85055D01*
X87672Y528111D01*
X90018Y529466D01*
X91934Y531382D01*
X93289Y533728D01*
X93990Y536345D01*
Y539055D01*
X93289Y541672D01*
X91934Y544018D01*
X90018Y545934D01*
X87672Y547289D01*
X85055Y547990D01*
D02*
G37*
G36*
X567655Y522590D02*
X567570D01*
Y513570D01*
X576590D01*
Y513655D01*
X575889Y516272D01*
X574534Y518618D01*
X572618Y520534D01*
X570272Y521889D01*
X567655Y522590D01*
D02*
G37*
G36*
X565030D02*
X564945D01*
X562328Y521889D01*
X559982Y520534D01*
X558066Y518618D01*
X556711Y516272D01*
X556010Y513655D01*
Y513570D01*
X565030D01*
Y522590D01*
D02*
G37*
G36*
X389855D02*
X389770D01*
Y513570D01*
X398790D01*
Y513655D01*
X398089Y516272D01*
X396734Y518618D01*
X394818Y520534D01*
X392472Y521889D01*
X389855Y522590D01*
D02*
G37*
G36*
X387230D02*
X387145D01*
X384528Y521889D01*
X382182Y520534D01*
X380266Y518618D01*
X378911Y516272D01*
X378210Y513655D01*
Y513570D01*
X387230D01*
Y522590D01*
D02*
G37*
G36*
X186655D02*
X186570D01*
Y513570D01*
X195590D01*
Y513655D01*
X194889Y516272D01*
X193534Y518618D01*
X191618Y520534D01*
X189272Y521889D01*
X186655Y522590D01*
D02*
G37*
G36*
X184030D02*
X183945D01*
X181328Y521889D01*
X178982Y520534D01*
X177066Y518618D01*
X175711Y516272D01*
X175010Y513655D01*
Y513570D01*
X184030D01*
Y522590D01*
D02*
G37*
G36*
X616580Y541040D02*
X613420D01*
X610321Y540424D01*
X607402Y539215D01*
X604775Y537459D01*
X602541Y535225D01*
X600785Y532598D01*
X599576Y529679D01*
X598960Y526580D01*
Y523420D01*
X599576Y520321D01*
X600785Y517402D01*
X602541Y514775D01*
X604775Y512541D01*
X607402Y510785D01*
X610321Y509576D01*
X613420Y508960D01*
X616580D01*
X619679Y509576D01*
X622598Y510785D01*
X625225Y512541D01*
X627459Y514775D01*
X629215Y517402D01*
X630424Y520321D01*
X631040Y523420D01*
Y526580D01*
X630424Y529679D01*
X629215Y532598D01*
X627459Y535225D01*
X625225Y537459D01*
X622598Y539215D01*
X619679Y540424D01*
X616580Y541040D01*
D02*
G37*
G36*
X36580D02*
X33420D01*
X30321Y540424D01*
X27402Y539215D01*
X24775Y537459D01*
X22541Y535225D01*
X20786Y532598D01*
X19576Y529679D01*
X18960Y526580D01*
Y523420D01*
X19576Y520321D01*
X20786Y517402D01*
X22541Y514775D01*
X24775Y512541D01*
X27402Y510785D01*
X30321Y509576D01*
X33420Y508960D01*
X36580D01*
X39679Y509576D01*
X42598Y510785D01*
X45225Y512541D01*
X47459Y514775D01*
X49215Y517402D01*
X50424Y520321D01*
X51040Y523420D01*
Y526580D01*
X50424Y529679D01*
X49215Y532598D01*
X47459Y535225D01*
X45225Y537459D01*
X42598Y539215D01*
X39679Y540424D01*
X36580Y541040D01*
D02*
G37*
G36*
X820000Y536605D02*
X682000D01*
X680032Y536346D01*
X678197Y535586D01*
X676622Y534378D01*
X627850Y485605D01*
X611000D01*
X610884Y485590D01*
X598000D01*
X597750Y485540D01*
X597007D01*
X595090Y485026D01*
X593370Y484034D01*
X591967Y482630D01*
X590974Y480910D01*
X590460Y478993D01*
Y477007D01*
X590974Y475090D01*
X591967Y473370D01*
X593370Y471967D01*
X595090Y470974D01*
X597007Y470460D01*
X597750D01*
X598000Y470410D01*
X610884D01*
X611000Y470395D01*
X631000D01*
X632968Y470654D01*
X634803Y471414D01*
X636378Y472622D01*
X683280Y519525D01*
X684880Y518297D01*
X683711Y516272D01*
X683010Y513655D01*
Y510945D01*
X683711Y508328D01*
X685066Y505982D01*
X686982Y504066D01*
X689328Y502711D01*
X691945Y502010D01*
X694655D01*
X697272Y502711D01*
X699618Y504066D01*
X701534Y505982D01*
X702889Y508328D01*
X703590Y510945D01*
Y513655D01*
X702889Y516272D01*
X701534Y518618D01*
X700757Y519395D01*
X701586Y521395D01*
X710414D01*
X711243Y519395D01*
X710466Y518618D01*
X709111Y516272D01*
X708410Y513655D01*
Y510945D01*
X709111Y508328D01*
X710466Y505982D01*
X712382Y504066D01*
X714728Y502711D01*
X717345Y502010D01*
X720055D01*
X722672Y502711D01*
X725018Y504066D01*
X726934Y505982D01*
X728289Y508328D01*
X728990Y510945D01*
Y513655D01*
X728289Y516272D01*
X726934Y518618D01*
X726157Y519395D01*
X726986Y521395D01*
X735814D01*
X736643Y519395D01*
X735866Y518618D01*
X734511Y516272D01*
X733810Y513655D01*
Y510945D01*
X734511Y508328D01*
X735866Y505982D01*
X737782Y504066D01*
X740128Y502711D01*
X742745Y502010D01*
X745455D01*
X748072Y502711D01*
X750418Y504066D01*
X752334Y505982D01*
X753689Y508328D01*
X754390Y510945D01*
Y513655D01*
X753689Y516272D01*
X752334Y518618D01*
X751557Y519395D01*
X752386Y521395D01*
X761214D01*
X762043Y519395D01*
X761266Y518618D01*
X759911Y516272D01*
X759210Y513655D01*
Y510945D01*
X759911Y508328D01*
X761266Y505982D01*
X763182Y504066D01*
X765528Y502711D01*
X768145Y502010D01*
X770855D01*
X773472Y502711D01*
X775818Y504066D01*
X777734Y505982D01*
X779089Y508328D01*
X779790Y510945D01*
Y513655D01*
X779089Y516272D01*
X777734Y518618D01*
X776957Y519395D01*
X777786Y521395D01*
X786614D01*
X787443Y519395D01*
X786666Y518618D01*
X785311Y516272D01*
X784610Y513655D01*
Y510945D01*
X785311Y508328D01*
X786666Y505982D01*
X788582Y504066D01*
X790928Y502711D01*
X793545Y502010D01*
X796255D01*
X798872Y502711D01*
X801218Y504066D01*
X803134Y505982D01*
X804489Y508328D01*
X805190Y510945D01*
Y513655D01*
X804489Y516272D01*
X803134Y518618D01*
X802357Y519395D01*
X803186Y521395D01*
X812014D01*
X812843Y519395D01*
X812066Y518618D01*
X810711Y516272D01*
X810010Y513655D01*
Y510945D01*
X810711Y508328D01*
X812066Y505982D01*
X813982Y504066D01*
X816328Y502711D01*
X818945Y502010D01*
X821655D01*
X824272Y502711D01*
X826618Y504066D01*
X828534Y505982D01*
X829889Y508328D01*
X830590Y510945D01*
Y513655D01*
X829889Y516272D01*
X828534Y518618D01*
X826618Y520534D01*
X825439Y521215D01*
Y523702D01*
X826586Y525197D01*
X827346Y527032D01*
X827605Y529000D01*
X827346Y530968D01*
X826586Y532803D01*
X825378Y534378D01*
X823802Y535586D01*
X821968Y536346D01*
X820000Y536605D01*
D02*
G37*
G36*
X576590Y511030D02*
X567570D01*
Y502010D01*
X567655D01*
X570272Y502711D01*
X572618Y504066D01*
X574534Y505982D01*
X575889Y508328D01*
X576590Y510945D01*
Y511030D01*
D02*
G37*
G36*
X565030D02*
X556010D01*
Y510945D01*
X556711Y508328D01*
X558066Y505982D01*
X559982Y504066D01*
X562328Y502711D01*
X564945Y502010D01*
X565030D01*
Y511030D01*
D02*
G37*
G36*
X542255Y522590D02*
X539545D01*
X536928Y521889D01*
X534582Y520534D01*
X532666Y518618D01*
X531311Y516272D01*
X530610Y513655D01*
Y510945D01*
X531311Y508328D01*
X532666Y505982D01*
X534582Y504066D01*
X536928Y502711D01*
X539545Y502010D01*
X542255D01*
X544872Y502711D01*
X547218Y504066D01*
X549134Y505982D01*
X550489Y508328D01*
X551190Y510945D01*
Y513655D01*
X550489Y516272D01*
X549134Y518618D01*
X547218Y520534D01*
X544872Y521889D01*
X542255Y522590D01*
D02*
G37*
G36*
X516855D02*
X514145D01*
X511528Y521889D01*
X509182Y520534D01*
X507266Y518618D01*
X505911Y516272D01*
X505210Y513655D01*
Y510945D01*
X505911Y508328D01*
X507266Y505982D01*
X509182Y504066D01*
X511528Y502711D01*
X514145Y502010D01*
X516855D01*
X519472Y502711D01*
X521818Y504066D01*
X523734Y505982D01*
X525089Y508328D01*
X525790Y510945D01*
Y513655D01*
X525089Y516272D01*
X523734Y518618D01*
X521818Y520534D01*
X519472Y521889D01*
X516855Y522590D01*
D02*
G37*
G36*
X491455D02*
X488745D01*
X486128Y521889D01*
X483782Y520534D01*
X481866Y518618D01*
X480511Y516272D01*
X479810Y513655D01*
Y510945D01*
X480511Y508328D01*
X481866Y505982D01*
X483782Y504066D01*
X486128Y502711D01*
X488745Y502010D01*
X491455D01*
X494072Y502711D01*
X496418Y504066D01*
X498334Y505982D01*
X499689Y508328D01*
X500390Y510945D01*
Y513655D01*
X499689Y516272D01*
X498334Y518618D01*
X496418Y520534D01*
X494072Y521889D01*
X491455Y522590D01*
D02*
G37*
G36*
X466055D02*
X463345D01*
X460728Y521889D01*
X458382Y520534D01*
X456466Y518618D01*
X455111Y516272D01*
X454410Y513655D01*
Y510945D01*
X455111Y508328D01*
X456466Y505982D01*
X458382Y504066D01*
X460728Y502711D01*
X463345Y502010D01*
X466055D01*
X468672Y502711D01*
X471018Y504066D01*
X472934Y505982D01*
X474289Y508328D01*
X474990Y510945D01*
Y513655D01*
X474289Y516272D01*
X472934Y518618D01*
X471018Y520534D01*
X468672Y521889D01*
X466055Y522590D01*
D02*
G37*
G36*
X440655D02*
X437945D01*
X435328Y521889D01*
X432982Y520534D01*
X431066Y518618D01*
X429711Y516272D01*
X429010Y513655D01*
Y510945D01*
X429711Y508328D01*
X431066Y505982D01*
X432982Y504066D01*
X435328Y502711D01*
X437945Y502010D01*
X440655D01*
X443272Y502711D01*
X445618Y504066D01*
X447534Y505982D01*
X448889Y508328D01*
X449590Y510945D01*
Y513655D01*
X448889Y516272D01*
X447534Y518618D01*
X445618Y520534D01*
X443272Y521889D01*
X440655Y522590D01*
D02*
G37*
G36*
X415255D02*
X412545D01*
X409928Y521889D01*
X407582Y520534D01*
X405666Y518618D01*
X404311Y516272D01*
X403610Y513655D01*
Y510945D01*
X404311Y508328D01*
X405666Y505982D01*
X407582Y504066D01*
X409928Y502711D01*
X412545Y502010D01*
X415255D01*
X417872Y502711D01*
X420218Y504066D01*
X422134Y505982D01*
X423489Y508328D01*
X424190Y510945D01*
Y513655D01*
X423489Y516272D01*
X422134Y518618D01*
X420218Y520534D01*
X417872Y521889D01*
X415255Y522590D01*
D02*
G37*
G36*
X398790Y511030D02*
X389770D01*
Y502010D01*
X389855D01*
X392472Y502711D01*
X394818Y504066D01*
X396734Y505982D01*
X398089Y508328D01*
X398790Y510945D01*
Y511030D01*
D02*
G37*
G36*
X387230D02*
X378210D01*
Y510945D01*
X378911Y508328D01*
X380266Y505982D01*
X382182Y504066D01*
X384528Y502711D01*
X387145Y502010D01*
X387230D01*
Y511030D01*
D02*
G37*
G36*
X364455Y522590D02*
X361745D01*
X359128Y521889D01*
X356782Y520534D01*
X354866Y518618D01*
X353511Y516272D01*
X352810Y513655D01*
Y510945D01*
X353511Y508328D01*
X354866Y505982D01*
X356782Y504066D01*
X359128Y502711D01*
X361745Y502010D01*
X364455D01*
X367072Y502711D01*
X369418Y504066D01*
X371334Y505982D01*
X372689Y508328D01*
X373390Y510945D01*
Y513655D01*
X372689Y516272D01*
X371334Y518618D01*
X369418Y520534D01*
X367072Y521889D01*
X364455Y522590D01*
D02*
G37*
G36*
X339055D02*
X336345D01*
X333728Y521889D01*
X331382Y520534D01*
X329466Y518618D01*
X328111Y516272D01*
X327410Y513655D01*
Y510945D01*
X328111Y508328D01*
X329466Y505982D01*
X331382Y504066D01*
X333728Y502711D01*
X336345Y502010D01*
X339055D01*
X341672Y502711D01*
X344018Y504066D01*
X345934Y505982D01*
X347289Y508328D01*
X347990Y510945D01*
Y513655D01*
X347289Y516272D01*
X345934Y518618D01*
X344018Y520534D01*
X341672Y521889D01*
X339055Y522590D01*
D02*
G37*
G36*
X313655D02*
X310945D01*
X308328Y521889D01*
X305982Y520534D01*
X304066Y518618D01*
X302711Y516272D01*
X302010Y513655D01*
Y510945D01*
X302711Y508328D01*
X304066Y505982D01*
X305982Y504066D01*
X308328Y502711D01*
X310945Y502010D01*
X313655D01*
X316272Y502711D01*
X318618Y504066D01*
X320534Y505982D01*
X321889Y508328D01*
X322590Y510945D01*
Y513655D01*
X321889Y516272D01*
X320534Y518618D01*
X318618Y520534D01*
X316272Y521889D01*
X313655Y522590D01*
D02*
G37*
G36*
X288255D02*
X285545D01*
X282928Y521889D01*
X280582Y520534D01*
X278666Y518618D01*
X277311Y516272D01*
X276610Y513655D01*
Y510945D01*
X277311Y508328D01*
X278666Y505982D01*
X280582Y504066D01*
X282928Y502711D01*
X285545Y502010D01*
X288255D01*
X290872Y502711D01*
X293218Y504066D01*
X295134Y505982D01*
X296489Y508328D01*
X297190Y510945D01*
Y513655D01*
X296489Y516272D01*
X295134Y518618D01*
X293218Y520534D01*
X290872Y521889D01*
X288255Y522590D01*
D02*
G37*
G36*
X262855D02*
X260145D01*
X257528Y521889D01*
X255182Y520534D01*
X253266Y518618D01*
X251911Y516272D01*
X251210Y513655D01*
Y510945D01*
X251911Y508328D01*
X253266Y505982D01*
X255182Y504066D01*
X257528Y502711D01*
X260145Y502010D01*
X262855D01*
X265472Y502711D01*
X267818Y504066D01*
X269734Y505982D01*
X271089Y508328D01*
X271790Y510945D01*
Y513655D01*
X271089Y516272D01*
X269734Y518618D01*
X267818Y520534D01*
X265472Y521889D01*
X262855Y522590D01*
D02*
G37*
G36*
X237455D02*
X234745D01*
X232128Y521889D01*
X229782Y520534D01*
X227866Y518618D01*
X226511Y516272D01*
X225810Y513655D01*
Y510945D01*
X226511Y508328D01*
X227866Y505982D01*
X229782Y504066D01*
X232128Y502711D01*
X234745Y502010D01*
X237455D01*
X240072Y502711D01*
X242418Y504066D01*
X244334Y505982D01*
X245689Y508328D01*
X246390Y510945D01*
Y513655D01*
X245689Y516272D01*
X244334Y518618D01*
X242418Y520534D01*
X240072Y521889D01*
X237455Y522590D01*
D02*
G37*
G36*
X212055D02*
X209345D01*
X206728Y521889D01*
X204382Y520534D01*
X202466Y518618D01*
X201111Y516272D01*
X200410Y513655D01*
Y510945D01*
X201111Y508328D01*
X202466Y505982D01*
X204382Y504066D01*
X206728Y502711D01*
X209345Y502010D01*
X212055D01*
X214672Y502711D01*
X217018Y504066D01*
X218934Y505982D01*
X220289Y508328D01*
X220990Y510945D01*
Y513655D01*
X220289Y516272D01*
X218934Y518618D01*
X217018Y520534D01*
X214672Y521889D01*
X212055Y522590D01*
D02*
G37*
G36*
X195590Y511030D02*
X186570D01*
Y502010D01*
X186655D01*
X189272Y502711D01*
X191618Y504066D01*
X193534Y505982D01*
X194889Y508328D01*
X195590Y510945D01*
Y511030D01*
D02*
G37*
G36*
X184030D02*
X175010D01*
Y510945D01*
X175711Y508328D01*
X177066Y505982D01*
X178982Y504066D01*
X181328Y502711D01*
X183945Y502010D01*
X184030D01*
Y511030D01*
D02*
G37*
G36*
X161255Y522590D02*
X158545D01*
X155928Y521889D01*
X153582Y520534D01*
X151666Y518618D01*
X150311Y516272D01*
X149610Y513655D01*
Y510945D01*
X150311Y508328D01*
X151666Y505982D01*
X153582Y504066D01*
X155928Y502711D01*
X158545Y502010D01*
X161255D01*
X163872Y502711D01*
X166218Y504066D01*
X168134Y505982D01*
X169489Y508328D01*
X170190Y510945D01*
Y513655D01*
X169489Y516272D01*
X168134Y518618D01*
X166218Y520534D01*
X163872Y521889D01*
X161255Y522590D01*
D02*
G37*
G36*
X135855D02*
X133145D01*
X130528Y521889D01*
X128182Y520534D01*
X126266Y518618D01*
X124911Y516272D01*
X124210Y513655D01*
Y510945D01*
X124911Y508328D01*
X126266Y505982D01*
X128182Y504066D01*
X130528Y502711D01*
X133145Y502010D01*
X135855D01*
X138472Y502711D01*
X140818Y504066D01*
X142734Y505982D01*
X144089Y508328D01*
X144790Y510945D01*
Y513655D01*
X144089Y516272D01*
X142734Y518618D01*
X140818Y520534D01*
X138472Y521889D01*
X135855Y522590D01*
D02*
G37*
G36*
X110455D02*
X107745D01*
X105128Y521889D01*
X102782Y520534D01*
X100866Y518618D01*
X99511Y516272D01*
X98810Y513655D01*
Y510945D01*
X99511Y508328D01*
X100866Y505982D01*
X102782Y504066D01*
X105128Y502711D01*
X107745Y502010D01*
X110455D01*
X113072Y502711D01*
X115418Y504066D01*
X117334Y505982D01*
X118689Y508328D01*
X119390Y510945D01*
Y513655D01*
X118689Y516272D01*
X117334Y518618D01*
X115418Y520534D01*
X113072Y521889D01*
X110455Y522590D01*
D02*
G37*
G36*
X85055D02*
X82345D01*
X79728Y521889D01*
X77382Y520534D01*
X75466Y518618D01*
X74111Y516272D01*
X73410Y513655D01*
Y510945D01*
X74111Y508328D01*
X75466Y505982D01*
X77382Y504066D01*
X79728Y502711D01*
X82345Y502010D01*
X85055D01*
X87672Y502711D01*
X90018Y504066D01*
X91934Y505982D01*
X93289Y508328D01*
X93990Y510945D01*
Y513655D01*
X93289Y516272D01*
X91934Y518618D01*
X90018Y520534D01*
X87672Y521889D01*
X85055Y522590D01*
D02*
G37*
G36*
X821655Y497190D02*
X818945D01*
X816328Y496489D01*
X813982Y495134D01*
X812066Y493218D01*
X810711Y490872D01*
X810010Y488255D01*
Y485545D01*
X810711Y482928D01*
X812066Y480582D01*
X813982Y478666D01*
X816328Y477311D01*
X818945Y476610D01*
X821655D01*
X824272Y477311D01*
X826618Y478666D01*
X828534Y480582D01*
X829889Y482928D01*
X830590Y485545D01*
Y488255D01*
X829889Y490872D01*
X828534Y493218D01*
X826618Y495134D01*
X824272Y496489D01*
X821655Y497190D01*
D02*
G37*
G36*
X796255D02*
X793545D01*
X790928Y496489D01*
X788582Y495134D01*
X786666Y493218D01*
X785311Y490872D01*
X784610Y488255D01*
Y485545D01*
X785311Y482928D01*
X786666Y480582D01*
X788582Y478666D01*
X790928Y477311D01*
X793545Y476610D01*
X796255D01*
X798872Y477311D01*
X801218Y478666D01*
X803134Y480582D01*
X804489Y482928D01*
X805190Y485545D01*
Y488255D01*
X804489Y490872D01*
X803134Y493218D01*
X801218Y495134D01*
X798872Y496489D01*
X796255Y497190D01*
D02*
G37*
G36*
X770855D02*
X768145D01*
X765528Y496489D01*
X763182Y495134D01*
X761266Y493218D01*
X759911Y490872D01*
X759210Y488255D01*
Y485545D01*
X759911Y482928D01*
X761266Y480582D01*
X763182Y478666D01*
X765528Y477311D01*
X768145Y476610D01*
X770855D01*
X773472Y477311D01*
X775818Y478666D01*
X777734Y480582D01*
X779089Y482928D01*
X779790Y485545D01*
Y488255D01*
X779089Y490872D01*
X777734Y493218D01*
X775818Y495134D01*
X773472Y496489D01*
X770855Y497190D01*
D02*
G37*
G36*
X745455D02*
X742745D01*
X740128Y496489D01*
X737782Y495134D01*
X735866Y493218D01*
X734511Y490872D01*
X733810Y488255D01*
Y485545D01*
X734511Y482928D01*
X735866Y480582D01*
X737782Y478666D01*
X740128Y477311D01*
X742745Y476610D01*
X745455D01*
X748072Y477311D01*
X750418Y478666D01*
X752334Y480582D01*
X753689Y482928D01*
X754390Y485545D01*
Y488255D01*
X753689Y490872D01*
X752334Y493218D01*
X750418Y495134D01*
X748072Y496489D01*
X745455Y497190D01*
D02*
G37*
G36*
X720055D02*
X717345D01*
X714728Y496489D01*
X712382Y495134D01*
X710466Y493218D01*
X709111Y490872D01*
X708410Y488255D01*
Y485545D01*
X709111Y482928D01*
X710466Y480582D01*
X712382Y478666D01*
X714728Y477311D01*
X717345Y476610D01*
X720055D01*
X722672Y477311D01*
X725018Y478666D01*
X726934Y480582D01*
X728289Y482928D01*
X728990Y485545D01*
Y488255D01*
X728289Y490872D01*
X726934Y493218D01*
X725018Y495134D01*
X722672Y496489D01*
X720055Y497190D01*
D02*
G37*
G36*
X694655D02*
X691945D01*
X689328Y496489D01*
X686982Y495134D01*
X685066Y493218D01*
X683711Y490872D01*
X683010Y488255D01*
Y485545D01*
X683711Y482928D01*
X685066Y480582D01*
X686982Y478666D01*
X689328Y477311D01*
X691945Y476610D01*
X694655D01*
X697272Y477311D01*
X699618Y478666D01*
X701534Y480582D01*
X702889Y482928D01*
X703590Y485545D01*
Y488255D01*
X702889Y490872D01*
X701534Y493218D01*
X699618Y495134D01*
X697272Y496489D01*
X694655Y497190D01*
D02*
G37*
G36*
X821655Y471790D02*
X818945D01*
X816328Y471089D01*
X813982Y469734D01*
X812066Y467818D01*
X810711Y465472D01*
X810010Y462855D01*
Y460145D01*
X810711Y457528D01*
X812066Y455182D01*
X813982Y453266D01*
X816328Y451911D01*
X818945Y451210D01*
X821655D01*
X824272Y451911D01*
X826618Y453266D01*
X828534Y455182D01*
X829889Y457528D01*
X830590Y460145D01*
Y462855D01*
X829889Y465472D01*
X828534Y467818D01*
X826618Y469734D01*
X824272Y471089D01*
X821655Y471790D01*
D02*
G37*
G36*
X796255D02*
X793545D01*
X790928Y471089D01*
X788582Y469734D01*
X786666Y467818D01*
X785311Y465472D01*
X784610Y462855D01*
Y460145D01*
X785311Y457528D01*
X786666Y455182D01*
X788582Y453266D01*
X790928Y451911D01*
X793545Y451210D01*
X796255D01*
X798872Y451911D01*
X801218Y453266D01*
X803134Y455182D01*
X804489Y457528D01*
X805190Y460145D01*
Y462855D01*
X804489Y465472D01*
X803134Y467818D01*
X801218Y469734D01*
X798872Y471089D01*
X796255Y471790D01*
D02*
G37*
G36*
X770855D02*
X768145D01*
X765528Y471089D01*
X763182Y469734D01*
X761266Y467818D01*
X759911Y465472D01*
X759210Y462855D01*
Y460145D01*
X759911Y457528D01*
X761266Y455182D01*
X763182Y453266D01*
X765528Y451911D01*
X768145Y451210D01*
X770855D01*
X773472Y451911D01*
X775818Y453266D01*
X777734Y455182D01*
X779089Y457528D01*
X779790Y460145D01*
Y462855D01*
X779089Y465472D01*
X777734Y467818D01*
X775818Y469734D01*
X773472Y471089D01*
X770855Y471790D01*
D02*
G37*
G36*
X745455D02*
X742745D01*
X740128Y471089D01*
X737782Y469734D01*
X735866Y467818D01*
X734511Y465472D01*
X733810Y462855D01*
Y460145D01*
X734511Y457528D01*
X735866Y455182D01*
X737782Y453266D01*
X740128Y451911D01*
X742745Y451210D01*
X745455D01*
X748072Y451911D01*
X750418Y453266D01*
X752334Y455182D01*
X753689Y457528D01*
X754390Y460145D01*
Y462855D01*
X753689Y465472D01*
X752334Y467818D01*
X750418Y469734D01*
X748072Y471089D01*
X745455Y471790D01*
D02*
G37*
G36*
X720055D02*
X717345D01*
X714728Y471089D01*
X712382Y469734D01*
X710466Y467818D01*
X709111Y465472D01*
X708410Y462855D01*
Y460145D01*
X709111Y457528D01*
X710466Y455182D01*
X712382Y453266D01*
X714728Y451911D01*
X717345Y451210D01*
X720055D01*
X722672Y451911D01*
X725018Y453266D01*
X726934Y455182D01*
X728289Y457528D01*
X728990Y460145D01*
Y462855D01*
X728289Y465472D01*
X726934Y467818D01*
X725018Y469734D01*
X722672Y471089D01*
X720055Y471790D01*
D02*
G37*
G36*
X694655D02*
X691945D01*
X689328Y471089D01*
X686982Y469734D01*
X685066Y467818D01*
X683711Y465472D01*
X683010Y462855D01*
Y460145D01*
X683711Y457528D01*
X685066Y455182D01*
X686982Y453266D01*
X689328Y451911D01*
X691945Y451210D01*
X694655D01*
X697272Y451911D01*
X699618Y453266D01*
X701534Y455182D01*
X702889Y457528D01*
X703590Y460145D01*
Y462855D01*
X702889Y465472D01*
X701534Y467818D01*
X699618Y469734D01*
X697272Y471089D01*
X694655Y471790D01*
D02*
G37*
G36*
X466055D02*
X463345D01*
X460728Y471089D01*
X458382Y469734D01*
X456466Y467818D01*
X455111Y465472D01*
X454410Y462855D01*
Y460145D01*
X455111Y457528D01*
X456466Y455182D01*
X458382Y453266D01*
X460728Y451911D01*
X463345Y451210D01*
X466055D01*
X468672Y451911D01*
X471018Y453266D01*
X472934Y455182D01*
X474289Y457528D01*
X474990Y460145D01*
Y462855D01*
X474289Y465472D01*
X472934Y467818D01*
X471018Y469734D01*
X468672Y471089D01*
X466055Y471790D01*
D02*
G37*
G36*
X440655D02*
X437945D01*
X435328Y471089D01*
X432982Y469734D01*
X431066Y467818D01*
X429711Y465472D01*
X429010Y462855D01*
Y460145D01*
X429711Y457528D01*
X431066Y455182D01*
X432982Y453266D01*
X435328Y451911D01*
X437945Y451210D01*
X440655D01*
X443272Y451911D01*
X445618Y453266D01*
X447534Y455182D01*
X448889Y457528D01*
X449590Y460145D01*
Y462855D01*
X448889Y465472D01*
X447534Y467818D01*
X445618Y469734D01*
X443272Y471089D01*
X440655Y471790D01*
D02*
G37*
G36*
X415255D02*
X412545D01*
X409928Y471089D01*
X407582Y469734D01*
X405666Y467818D01*
X404311Y465472D01*
X403610Y462855D01*
Y460145D01*
X404311Y457528D01*
X405666Y455182D01*
X407582Y453266D01*
X409928Y451911D01*
X412545Y451210D01*
X415255D01*
X417872Y451911D01*
X420218Y453266D01*
X422134Y455182D01*
X423489Y457528D01*
X424190Y460145D01*
Y462855D01*
X423489Y465472D01*
X422134Y467818D01*
X420218Y469734D01*
X417872Y471089D01*
X415255Y471790D01*
D02*
G37*
G36*
X389855D02*
X387145D01*
X384528Y471089D01*
X382182Y469734D01*
X380266Y467818D01*
X378911Y465472D01*
X378210Y462855D01*
Y460145D01*
X378911Y457528D01*
X380266Y455182D01*
X382182Y453266D01*
X384528Y451911D01*
X387145Y451210D01*
X389855D01*
X392472Y451911D01*
X394818Y453266D01*
X396734Y455182D01*
X398089Y457528D01*
X398790Y460145D01*
Y462855D01*
X398089Y465472D01*
X396734Y467818D01*
X394818Y469734D01*
X392472Y471089D01*
X389855Y471790D01*
D02*
G37*
G36*
X364455D02*
X361745D01*
X359128Y471089D01*
X356782Y469734D01*
X354866Y467818D01*
X353511Y465472D01*
X352810Y462855D01*
Y460145D01*
X353511Y457528D01*
X354866Y455182D01*
X356782Y453266D01*
X359128Y451911D01*
X361745Y451210D01*
X364455D01*
X367072Y451911D01*
X369418Y453266D01*
X371334Y455182D01*
X372689Y457528D01*
X373390Y460145D01*
Y462855D01*
X372689Y465472D01*
X371334Y467818D01*
X369418Y469734D01*
X367072Y471089D01*
X364455Y471790D01*
D02*
G37*
G36*
X339055D02*
X336345D01*
X333728Y471089D01*
X331382Y469734D01*
X329466Y467818D01*
X328111Y465472D01*
X327410Y462855D01*
Y460145D01*
X328111Y457528D01*
X329466Y455182D01*
X331382Y453266D01*
X333728Y451911D01*
X336345Y451210D01*
X339055D01*
X341672Y451911D01*
X344018Y453266D01*
X345934Y455182D01*
X347289Y457528D01*
X347990Y460145D01*
Y462855D01*
X347289Y465472D01*
X345934Y467818D01*
X344018Y469734D01*
X341672Y471089D01*
X339055Y471790D01*
D02*
G37*
G36*
X646270Y453628D02*
Y446397D01*
X653501D01*
X652958Y448423D01*
X651834Y450371D01*
X650244Y451961D01*
X648296Y453085D01*
X646270Y453628D01*
D02*
G37*
G36*
X643730D02*
X641704Y453085D01*
X639756Y451961D01*
X638166Y450371D01*
X637042Y448423D01*
X636499Y446397D01*
X643730D01*
Y453628D01*
D02*
G37*
G36*
X84900Y453914D02*
X72900D01*
X72719Y453890D01*
X67898D01*
X66907Y453693D01*
X66066Y453132D01*
X65505Y452291D01*
X65308Y451300D01*
Y449287D01*
X64580Y447530D01*
X64286Y445300D01*
X64580Y443071D01*
X65308Y441313D01*
Y439300D01*
X65505Y438309D01*
X66066Y437469D01*
X66907Y436908D01*
X67898Y436711D01*
X72717D01*
X72900Y436687D01*
X84900D01*
X85083Y436711D01*
X89898D01*
X90889Y436908D01*
X91729Y437469D01*
X92290Y438309D01*
X92487Y439300D01*
Y441302D01*
X93220Y443071D01*
X93514Y445300D01*
X93220Y447530D01*
X92487Y449299D01*
Y451300D01*
X92290Y452291D01*
X91729Y453132D01*
X90889Y453693D01*
X89898Y453890D01*
X85081D01*
X84900Y453914D01*
D02*
G37*
G36*
X653501Y443857D02*
X646270D01*
Y436626D01*
X648296Y437169D01*
X650244Y438293D01*
X651834Y439883D01*
X652958Y441831D01*
X653501Y443857D01*
D02*
G37*
G36*
X643730D02*
X636499D01*
X637042Y441831D01*
X638166Y439883D01*
X639756Y438293D01*
X641704Y437169D01*
X643730Y436626D01*
Y443857D01*
D02*
G37*
G36*
X626124Y453413D02*
X623876D01*
X621704Y452831D01*
X619756Y451707D01*
X618166Y450117D01*
X617042Y448169D01*
X616460Y445997D01*
Y443749D01*
X617042Y441577D01*
X618166Y439629D01*
X619756Y438039D01*
X621704Y436915D01*
X623876Y436333D01*
X626124D01*
X628296Y436915D01*
X630244Y438039D01*
X631834Y439629D01*
X632958Y441577D01*
X633540Y443749D01*
Y445997D01*
X632958Y448169D01*
X631834Y450117D01*
X630244Y451707D01*
X628296Y452831D01*
X626124Y453413D01*
D02*
G37*
G36*
X821655Y446390D02*
X818945D01*
X816328Y445689D01*
X813982Y444334D01*
X812066Y442418D01*
X810711Y440072D01*
X810010Y437455D01*
Y434745D01*
X810711Y432128D01*
X812066Y429782D01*
X813982Y427866D01*
X816328Y426511D01*
X818945Y425810D01*
X821655D01*
X824272Y426511D01*
X826618Y427866D01*
X828534Y429782D01*
X829889Y432128D01*
X830590Y434745D01*
Y437455D01*
X829889Y440072D01*
X828534Y442418D01*
X826618Y444334D01*
X824272Y445689D01*
X821655Y446390D01*
D02*
G37*
G36*
X796255D02*
X793545D01*
X790928Y445689D01*
X788582Y444334D01*
X786666Y442418D01*
X785311Y440072D01*
X784610Y437455D01*
Y434745D01*
X785311Y432128D01*
X786666Y429782D01*
X788582Y427866D01*
X790928Y426511D01*
X793545Y425810D01*
X796255D01*
X798872Y426511D01*
X801218Y427866D01*
X803134Y429782D01*
X804489Y432128D01*
X805190Y434745D01*
Y437455D01*
X804489Y440072D01*
X803134Y442418D01*
X801218Y444334D01*
X798872Y445689D01*
X796255Y446390D01*
D02*
G37*
G36*
X770855D02*
X768145D01*
X765528Y445689D01*
X763182Y444334D01*
X761266Y442418D01*
X759911Y440072D01*
X759210Y437455D01*
Y434745D01*
X759911Y432128D01*
X761266Y429782D01*
X763182Y427866D01*
X765528Y426511D01*
X768145Y425810D01*
X770855D01*
X773472Y426511D01*
X775818Y427866D01*
X777734Y429782D01*
X779089Y432128D01*
X779790Y434745D01*
Y437455D01*
X779089Y440072D01*
X777734Y442418D01*
X775818Y444334D01*
X773472Y445689D01*
X770855Y446390D01*
D02*
G37*
G36*
X745455D02*
X742745D01*
X740128Y445689D01*
X737782Y444334D01*
X735866Y442418D01*
X734511Y440072D01*
X733810Y437455D01*
Y434745D01*
X734511Y432128D01*
X735866Y429782D01*
X737782Y427866D01*
X740128Y426511D01*
X742745Y425810D01*
X745455D01*
X748072Y426511D01*
X750418Y427866D01*
X752334Y429782D01*
X753689Y432128D01*
X754390Y434745D01*
Y437455D01*
X753689Y440072D01*
X752334Y442418D01*
X750418Y444334D01*
X748072Y445689D01*
X745455Y446390D01*
D02*
G37*
G36*
X720055D02*
X717345D01*
X714728Y445689D01*
X712382Y444334D01*
X710466Y442418D01*
X709111Y440072D01*
X708410Y437455D01*
Y434745D01*
X709111Y432128D01*
X710466Y429782D01*
X712382Y427866D01*
X714728Y426511D01*
X717345Y425810D01*
X720055D01*
X722672Y426511D01*
X725018Y427866D01*
X726934Y429782D01*
X728289Y432128D01*
X728990Y434745D01*
Y437455D01*
X728289Y440072D01*
X726934Y442418D01*
X725018Y444334D01*
X722672Y445689D01*
X720055Y446390D01*
D02*
G37*
G36*
X694655D02*
X691945D01*
X689328Y445689D01*
X686982Y444334D01*
X685066Y442418D01*
X683711Y440072D01*
X683010Y437455D01*
Y434745D01*
X683711Y432128D01*
X685066Y429782D01*
X686982Y427866D01*
X689328Y426511D01*
X691945Y425810D01*
X694655D01*
X697272Y426511D01*
X699618Y427866D01*
X701534Y429782D01*
X702889Y432128D01*
X703590Y434745D01*
Y437455D01*
X702889Y440072D01*
X701534Y442418D01*
X699618Y444334D01*
X697272Y445689D01*
X694655Y446390D01*
D02*
G37*
G36*
X466055D02*
X463345D01*
X460728Y445689D01*
X458382Y444334D01*
X456466Y442418D01*
X455111Y440072D01*
X454410Y437455D01*
Y434745D01*
X455111Y432128D01*
X456466Y429782D01*
X458382Y427866D01*
X460728Y426511D01*
X463345Y425810D01*
X466055D01*
X468672Y426511D01*
X471018Y427866D01*
X472934Y429782D01*
X474289Y432128D01*
X474990Y434745D01*
Y437455D01*
X474289Y440072D01*
X472934Y442418D01*
X471018Y444334D01*
X468672Y445689D01*
X466055Y446390D01*
D02*
G37*
G36*
X440655D02*
X437945D01*
X435328Y445689D01*
X432982Y444334D01*
X431066Y442418D01*
X429711Y440072D01*
X429010Y437455D01*
Y434745D01*
X429711Y432128D01*
X431066Y429782D01*
X432982Y427866D01*
X435328Y426511D01*
X437945Y425810D01*
X440655D01*
X443272Y426511D01*
X445618Y427866D01*
X447534Y429782D01*
X448889Y432128D01*
X449590Y434745D01*
Y437455D01*
X448889Y440072D01*
X447534Y442418D01*
X445618Y444334D01*
X443272Y445689D01*
X440655Y446390D01*
D02*
G37*
G36*
X415255D02*
X412545D01*
X409928Y445689D01*
X407582Y444334D01*
X405666Y442418D01*
X404311Y440072D01*
X403610Y437455D01*
Y434745D01*
X404311Y432128D01*
X405666Y429782D01*
X407582Y427866D01*
X409928Y426511D01*
X412545Y425810D01*
X415255D01*
X417872Y426511D01*
X420218Y427866D01*
X422134Y429782D01*
X423489Y432128D01*
X424190Y434745D01*
Y437455D01*
X423489Y440072D01*
X422134Y442418D01*
X420218Y444334D01*
X417872Y445689D01*
X415255Y446390D01*
D02*
G37*
G36*
X389855D02*
X387145D01*
X384528Y445689D01*
X382182Y444334D01*
X380266Y442418D01*
X378911Y440072D01*
X378210Y437455D01*
Y434745D01*
X378911Y432128D01*
X380266Y429782D01*
X382182Y427866D01*
X384528Y426511D01*
X387145Y425810D01*
X389855D01*
X392472Y426511D01*
X394818Y427866D01*
X396734Y429782D01*
X398089Y432128D01*
X398790Y434745D01*
Y437455D01*
X398089Y440072D01*
X396734Y442418D01*
X394818Y444334D01*
X392472Y445689D01*
X389855Y446390D01*
D02*
G37*
G36*
X364455D02*
X361745D01*
X359128Y445689D01*
X356782Y444334D01*
X354866Y442418D01*
X353511Y440072D01*
X352810Y437455D01*
Y434745D01*
X353511Y432128D01*
X354866Y429782D01*
X356782Y427866D01*
X359128Y426511D01*
X361745Y425810D01*
X364455D01*
X367072Y426511D01*
X369418Y427866D01*
X371334Y429782D01*
X372689Y432128D01*
X373390Y434745D01*
Y437455D01*
X372689Y440072D01*
X371334Y442418D01*
X369418Y444334D01*
X367072Y445689D01*
X364455Y446390D01*
D02*
G37*
G36*
X339055D02*
X336345D01*
X333728Y445689D01*
X331382Y444334D01*
X329466Y442418D01*
X328111Y440072D01*
X327410Y437455D01*
Y434745D01*
X328111Y432128D01*
X329466Y429782D01*
X331382Y427866D01*
X333728Y426511D01*
X336345Y425810D01*
X339055D01*
X341672Y426511D01*
X344018Y427866D01*
X345934Y429782D01*
X347289Y432128D01*
X347990Y434745D01*
Y437455D01*
X347289Y440072D01*
X345934Y442418D01*
X344018Y444334D01*
X341672Y445689D01*
X339055Y446390D01*
D02*
G37*
G36*
X821655Y420990D02*
X818945D01*
X816328Y420289D01*
X813982Y418934D01*
X812066Y417018D01*
X810711Y414672D01*
X810010Y412055D01*
Y409345D01*
X810711Y406728D01*
X812066Y404382D01*
X813982Y402466D01*
X816328Y401111D01*
X818945Y400410D01*
X821655D01*
X824272Y401111D01*
X826618Y402466D01*
X828534Y404382D01*
X829889Y406728D01*
X830590Y409345D01*
Y412055D01*
X829889Y414672D01*
X828534Y417018D01*
X826618Y418934D01*
X824272Y420289D01*
X821655Y420990D01*
D02*
G37*
G36*
X796255D02*
X793545D01*
X790928Y420289D01*
X788582Y418934D01*
X786666Y417018D01*
X785311Y414672D01*
X784610Y412055D01*
Y409345D01*
X785311Y406728D01*
X786666Y404382D01*
X788582Y402466D01*
X790928Y401111D01*
X793545Y400410D01*
X796255D01*
X798872Y401111D01*
X801218Y402466D01*
X803134Y404382D01*
X804489Y406728D01*
X805190Y409345D01*
Y412055D01*
X804489Y414672D01*
X803134Y417018D01*
X801218Y418934D01*
X798872Y420289D01*
X796255Y420990D01*
D02*
G37*
G36*
X770855D02*
X768145D01*
X765528Y420289D01*
X763182Y418934D01*
X761266Y417018D01*
X759911Y414672D01*
X759210Y412055D01*
Y409345D01*
X759911Y406728D01*
X761266Y404382D01*
X763182Y402466D01*
X765528Y401111D01*
X768145Y400410D01*
X770855D01*
X773472Y401111D01*
X775818Y402466D01*
X777734Y404382D01*
X779089Y406728D01*
X779790Y409345D01*
Y412055D01*
X779089Y414672D01*
X777734Y417018D01*
X775818Y418934D01*
X773472Y420289D01*
X770855Y420990D01*
D02*
G37*
G36*
X745455D02*
X742745D01*
X740128Y420289D01*
X737782Y418934D01*
X735866Y417018D01*
X734511Y414672D01*
X733810Y412055D01*
Y409345D01*
X734511Y406728D01*
X735866Y404382D01*
X737782Y402466D01*
X740128Y401111D01*
X742745Y400410D01*
X745455D01*
X748072Y401111D01*
X750418Y402466D01*
X752334Y404382D01*
X753689Y406728D01*
X754390Y409345D01*
Y412055D01*
X753689Y414672D01*
X752334Y417018D01*
X750418Y418934D01*
X748072Y420289D01*
X745455Y420990D01*
D02*
G37*
G36*
X720055D02*
X717345D01*
X714728Y420289D01*
X712382Y418934D01*
X710466Y417018D01*
X709111Y414672D01*
X708410Y412055D01*
Y409345D01*
X709111Y406728D01*
X710466Y404382D01*
X712382Y402466D01*
X714728Y401111D01*
X717345Y400410D01*
X720055D01*
X722672Y401111D01*
X725018Y402466D01*
X726934Y404382D01*
X728289Y406728D01*
X728990Y409345D01*
Y412055D01*
X728289Y414672D01*
X726934Y417018D01*
X725018Y418934D01*
X722672Y420289D01*
X720055Y420990D01*
D02*
G37*
G36*
X694655D02*
X691945D01*
X689328Y420289D01*
X686982Y418934D01*
X685066Y417018D01*
X683711Y414672D01*
X683010Y412055D01*
Y409345D01*
X683711Y406728D01*
X685066Y404382D01*
X686982Y402466D01*
X689328Y401111D01*
X691945Y400410D01*
X694655D01*
X697272Y401111D01*
X699618Y402466D01*
X701534Y404382D01*
X702889Y406728D01*
X703590Y409345D01*
Y412055D01*
X702889Y414672D01*
X701534Y417018D01*
X699618Y418934D01*
X697272Y420289D01*
X694655Y420990D01*
D02*
G37*
G36*
X466055D02*
X463345D01*
X460728Y420289D01*
X458382Y418934D01*
X456466Y417018D01*
X455111Y414672D01*
X454410Y412055D01*
Y409345D01*
X455111Y406728D01*
X456466Y404382D01*
X458382Y402466D01*
X460728Y401111D01*
X463345Y400410D01*
X466055D01*
X468672Y401111D01*
X471018Y402466D01*
X472934Y404382D01*
X474289Y406728D01*
X474990Y409345D01*
Y412055D01*
X474289Y414672D01*
X472934Y417018D01*
X471018Y418934D01*
X468672Y420289D01*
X466055Y420990D01*
D02*
G37*
G36*
X440655D02*
X437945D01*
X435328Y420289D01*
X432982Y418934D01*
X431066Y417018D01*
X429711Y414672D01*
X429010Y412055D01*
Y409345D01*
X429711Y406728D01*
X431066Y404382D01*
X432982Y402466D01*
X435328Y401111D01*
X437945Y400410D01*
X440655D01*
X443272Y401111D01*
X445618Y402466D01*
X447534Y404382D01*
X448889Y406728D01*
X449590Y409345D01*
Y412055D01*
X448889Y414672D01*
X447534Y417018D01*
X445618Y418934D01*
X443272Y420289D01*
X440655Y420990D01*
D02*
G37*
G36*
X415255D02*
X412545D01*
X409928Y420289D01*
X407582Y418934D01*
X405666Y417018D01*
X404311Y414672D01*
X403610Y412055D01*
Y409345D01*
X404311Y406728D01*
X405666Y404382D01*
X407582Y402466D01*
X409928Y401111D01*
X412545Y400410D01*
X415255D01*
X417872Y401111D01*
X420218Y402466D01*
X422134Y404382D01*
X423489Y406728D01*
X424190Y409345D01*
Y412055D01*
X423489Y414672D01*
X422134Y417018D01*
X420218Y418934D01*
X417872Y420289D01*
X415255Y420990D01*
D02*
G37*
G36*
X389855D02*
X387145D01*
X384528Y420289D01*
X382182Y418934D01*
X380266Y417018D01*
X378911Y414672D01*
X378210Y412055D01*
Y409345D01*
X378911Y406728D01*
X380266Y404382D01*
X382182Y402466D01*
X384528Y401111D01*
X387145Y400410D01*
X389855D01*
X392472Y401111D01*
X394818Y402466D01*
X396734Y404382D01*
X398089Y406728D01*
X398790Y409345D01*
Y412055D01*
X398089Y414672D01*
X396734Y417018D01*
X394818Y418934D01*
X392472Y420289D01*
X389855Y420990D01*
D02*
G37*
G36*
X364455D02*
X361745D01*
X359128Y420289D01*
X356782Y418934D01*
X354866Y417018D01*
X353511Y414672D01*
X352810Y412055D01*
Y409345D01*
X353511Y406728D01*
X354866Y404382D01*
X356782Y402466D01*
X359128Y401111D01*
X361745Y400410D01*
X364455D01*
X367072Y401111D01*
X369418Y402466D01*
X371334Y404382D01*
X372689Y406728D01*
X373390Y409345D01*
Y412055D01*
X372689Y414672D01*
X371334Y417018D01*
X369418Y418934D01*
X367072Y420289D01*
X364455Y420990D01*
D02*
G37*
G36*
X339055D02*
X336345D01*
X333728Y420289D01*
X331382Y418934D01*
X329466Y417018D01*
X328111Y414672D01*
X327410Y412055D01*
Y409345D01*
X328111Y406728D01*
X329466Y404382D01*
X331382Y402466D01*
X333728Y401111D01*
X336345Y400410D01*
X339055D01*
X341672Y401111D01*
X344018Y402466D01*
X345934Y404382D01*
X347289Y406728D01*
X347990Y409345D01*
Y412055D01*
X347289Y414672D01*
X345934Y417018D01*
X344018Y418934D01*
X341672Y420289D01*
X339055Y420990D01*
D02*
G37*
G36*
X821655Y395590D02*
X818945D01*
X816328Y394889D01*
X813982Y393534D01*
X812066Y391618D01*
X810711Y389272D01*
X810010Y386655D01*
Y383945D01*
X810711Y381328D01*
X812066Y378982D01*
X813982Y377066D01*
X816328Y375711D01*
X818945Y375010D01*
X821655D01*
X824272Y375711D01*
X826618Y377066D01*
X828534Y378982D01*
X829889Y381328D01*
X830590Y383945D01*
Y386655D01*
X829889Y389272D01*
X828534Y391618D01*
X826618Y393534D01*
X824272Y394889D01*
X821655Y395590D01*
D02*
G37*
G36*
X796255D02*
X793545D01*
X790928Y394889D01*
X788582Y393534D01*
X786666Y391618D01*
X785311Y389272D01*
X784610Y386655D01*
Y383945D01*
X785311Y381328D01*
X786666Y378982D01*
X788582Y377066D01*
X790928Y375711D01*
X793545Y375010D01*
X796255D01*
X798872Y375711D01*
X801218Y377066D01*
X803134Y378982D01*
X804489Y381328D01*
X805190Y383945D01*
Y386655D01*
X804489Y389272D01*
X803134Y391618D01*
X801218Y393534D01*
X798872Y394889D01*
X796255Y395590D01*
D02*
G37*
G36*
X770855D02*
X768145D01*
X765528Y394889D01*
X763182Y393534D01*
X761266Y391618D01*
X759911Y389272D01*
X759210Y386655D01*
Y383945D01*
X759911Y381328D01*
X761266Y378982D01*
X763182Y377066D01*
X765528Y375711D01*
X768145Y375010D01*
X770855D01*
X773472Y375711D01*
X775818Y377066D01*
X777734Y378982D01*
X779089Y381328D01*
X779790Y383945D01*
Y386655D01*
X779089Y389272D01*
X777734Y391618D01*
X775818Y393534D01*
X773472Y394889D01*
X770855Y395590D01*
D02*
G37*
G36*
X745455D02*
X742745D01*
X740128Y394889D01*
X737782Y393534D01*
X735866Y391618D01*
X734511Y389272D01*
X733810Y386655D01*
Y383945D01*
X734511Y381328D01*
X735866Y378982D01*
X737782Y377066D01*
X740128Y375711D01*
X742745Y375010D01*
X745455D01*
X748072Y375711D01*
X750418Y377066D01*
X752334Y378982D01*
X753689Y381328D01*
X754390Y383945D01*
Y386655D01*
X753689Y389272D01*
X752334Y391618D01*
X750418Y393534D01*
X748072Y394889D01*
X745455Y395590D01*
D02*
G37*
G36*
X720055D02*
X717345D01*
X714728Y394889D01*
X712382Y393534D01*
X710466Y391618D01*
X709111Y389272D01*
X708410Y386655D01*
Y383945D01*
X709111Y381328D01*
X710466Y378982D01*
X712382Y377066D01*
X714728Y375711D01*
X717345Y375010D01*
X720055D01*
X722672Y375711D01*
X725018Y377066D01*
X726934Y378982D01*
X728289Y381328D01*
X728990Y383945D01*
Y386655D01*
X728289Y389272D01*
X726934Y391618D01*
X725018Y393534D01*
X722672Y394889D01*
X720055Y395590D01*
D02*
G37*
G36*
X694655D02*
X691945D01*
X689328Y394889D01*
X686982Y393534D01*
X685066Y391618D01*
X683711Y389272D01*
X683010Y386655D01*
Y383945D01*
X683711Y381328D01*
X685066Y378982D01*
X686982Y377066D01*
X689328Y375711D01*
X691945Y375010D01*
X694655D01*
X697272Y375711D01*
X699618Y377066D01*
X701534Y378982D01*
X702889Y381328D01*
X703590Y383945D01*
Y386655D01*
X702889Y389272D01*
X701534Y391618D01*
X699618Y393534D01*
X697272Y394889D01*
X694655Y395590D01*
D02*
G37*
G36*
X255693Y412840D02*
X253707D01*
X251790Y412327D01*
X250070Y411334D01*
X248666Y409930D01*
X247674Y408211D01*
X247160Y406293D01*
Y404308D01*
X247674Y402390D01*
X248666Y400671D01*
X249561Y399776D01*
Y366300D01*
X249952Y364333D01*
X251066Y362666D01*
X270366Y343366D01*
X272034Y342252D01*
X272605Y342139D01*
X272408Y340139D01*
X267129D01*
X262240Y345028D01*
Y346293D01*
X261726Y348211D01*
X260733Y349930D01*
X259329Y351334D01*
X257610Y352327D01*
X255692Y352840D01*
X253707D01*
X251789Y352327D01*
X250070Y351334D01*
X248666Y349930D01*
X247673Y348211D01*
X247160Y346293D01*
Y344308D01*
X247673Y342390D01*
X248666Y340671D01*
X250070Y339267D01*
X251789Y338274D01*
X253707Y337760D01*
X254972D01*
X258762Y333971D01*
X257610Y332327D01*
X255692Y332840D01*
X253707D01*
X251789Y332327D01*
X250070Y331334D01*
X248666Y329930D01*
X247673Y328211D01*
X247160Y326293D01*
Y324308D01*
X247673Y322390D01*
X248666Y320671D01*
X250070Y319267D01*
X251789Y318274D01*
X253707Y317760D01*
X255692D01*
X257610Y318274D01*
X259329Y319267D01*
X260224Y320162D01*
X402571D01*
X442861Y279872D01*
Y242349D01*
X441967Y241455D01*
X440974Y239735D01*
X440460Y237818D01*
Y235832D01*
X440974Y233915D01*
X441967Y232195D01*
X443370Y230791D01*
X445090Y229799D01*
X447007Y229285D01*
X447189D01*
X448018Y227285D01*
X431366Y210634D01*
X430252Y208967D01*
X429861Y207000D01*
Y164524D01*
X428966Y163630D01*
X427974Y161910D01*
X427460Y159993D01*
Y158007D01*
X427974Y156090D01*
X428966Y154370D01*
X430370Y152966D01*
X432090Y151974D01*
X434007Y151460D01*
X435993D01*
X437910Y151974D01*
X439630Y152966D01*
X441034Y154370D01*
X442026Y156090D01*
X442540Y158007D01*
Y159993D01*
X442026Y161910D01*
X441034Y163630D01*
X440139Y164524D01*
Y194085D01*
X442139Y194621D01*
X442716Y193620D01*
X444120Y192216D01*
X445840Y191224D01*
X447757Y190710D01*
X449743D01*
X451660Y191224D01*
X453380Y192216D01*
X454274Y193111D01*
X465250D01*
X467216Y193503D01*
X468884Y194616D01*
X494634Y220366D01*
X495748Y222034D01*
X496139Y224000D01*
Y336000D01*
X495748Y337966D01*
X494634Y339634D01*
X460589Y373678D01*
X461625Y375471D01*
X463345Y375010D01*
X466055D01*
X468672Y375711D01*
X471018Y377066D01*
X472934Y378982D01*
X474289Y381328D01*
X474990Y383945D01*
Y386655D01*
X474289Y389272D01*
X472934Y391618D01*
X471018Y393534D01*
X468672Y394889D01*
X466055Y395590D01*
X463345D01*
X460728Y394889D01*
X458382Y393534D01*
X456466Y391618D01*
X455111Y389272D01*
X454410Y386655D01*
Y383945D01*
X455111Y381328D01*
X456466Y378982D01*
X458045Y377403D01*
X457406Y375753D01*
X457236Y375524D01*
X456460Y375679D01*
X447059D01*
X446231Y377679D01*
X447534Y378982D01*
X448889Y381328D01*
X449590Y383945D01*
Y386655D01*
X448889Y389272D01*
X447534Y391618D01*
X445618Y393534D01*
X443272Y394889D01*
X440655Y395590D01*
X437945D01*
X435328Y394889D01*
X432982Y393534D01*
X431066Y391618D01*
X429711Y389272D01*
X429010Y386655D01*
Y383945D01*
X429711Y381328D01*
X431066Y378982D01*
X432369Y377679D01*
X431541Y375679D01*
X421659D01*
X420831Y377679D01*
X422134Y378982D01*
X423489Y381328D01*
X424190Y383945D01*
Y386655D01*
X423489Y389272D01*
X422134Y391618D01*
X420218Y393534D01*
X417872Y394889D01*
X415255Y395590D01*
X412545D01*
X409928Y394889D01*
X407582Y393534D01*
X405666Y391618D01*
X404311Y389272D01*
X403610Y386655D01*
Y383945D01*
X404311Y381328D01*
X405666Y378982D01*
X406969Y377679D01*
X406141Y375679D01*
X396259D01*
X395431Y377679D01*
X396734Y378982D01*
X398089Y381328D01*
X398790Y383945D01*
Y386655D01*
X398089Y389272D01*
X396734Y391618D01*
X394818Y393534D01*
X392472Y394889D01*
X389855Y395590D01*
X387145D01*
X384528Y394889D01*
X382182Y393534D01*
X380266Y391618D01*
X378911Y389272D01*
X378210Y386655D01*
Y383945D01*
X378911Y381328D01*
X380266Y378982D01*
X381569Y377679D01*
X380741Y375679D01*
X370859D01*
X370031Y377679D01*
X371334Y378982D01*
X372689Y381328D01*
X373390Y383945D01*
Y386655D01*
X372689Y389272D01*
X371334Y391618D01*
X369418Y393534D01*
X367072Y394889D01*
X364455Y395590D01*
X361745D01*
X359128Y394889D01*
X356782Y393534D01*
X354866Y391618D01*
X353511Y389272D01*
X352810Y386655D01*
Y383945D01*
X353511Y381328D01*
X354866Y378982D01*
X356169Y377679D01*
X355341Y375679D01*
X345459D01*
X344631Y377679D01*
X345934Y378982D01*
X347289Y381328D01*
X347990Y383945D01*
Y386655D01*
X347289Y389272D01*
X345934Y391618D01*
X344018Y393534D01*
X341672Y394889D01*
X339055Y395590D01*
X336345D01*
X333728Y394889D01*
X331382Y393534D01*
X329466Y391618D01*
X328111Y389272D01*
X327410Y386655D01*
Y383945D01*
X328111Y381328D01*
X329466Y378982D01*
X330769Y377679D01*
X329941Y375679D01*
X313589D01*
X300333Y388934D01*
X298666Y390048D01*
X296700Y390439D01*
X280224D01*
X279330Y391334D01*
X277610Y392327D01*
X275693Y392840D01*
X273707D01*
X271790Y392327D01*
X270070Y391334D01*
X268666Y389930D01*
X267674Y388211D01*
X267160Y386293D01*
Y384308D01*
X267674Y382390D01*
X268666Y380671D01*
X270070Y379267D01*
X271790Y378274D01*
X273707Y377760D01*
X275693D01*
X277610Y378274D01*
X278762Y376630D01*
X274973Y372840D01*
X273707D01*
X271790Y372327D01*
X270070Y371334D01*
X268666Y369930D01*
X267674Y368211D01*
X267160Y366293D01*
Y364308D01*
X267296Y363800D01*
X265503Y362764D01*
X259839Y368428D01*
Y399776D01*
X260734Y400671D01*
X261726Y402390D01*
X262240Y404308D01*
Y406293D01*
X261726Y408211D01*
X260734Y409930D01*
X259330Y411334D01*
X257610Y412327D01*
X255693Y412840D01*
D02*
G37*
G36*
X821655Y370190D02*
X818945D01*
X816328Y369489D01*
X813982Y368134D01*
X812066Y366218D01*
X810711Y363872D01*
X810010Y361255D01*
Y358545D01*
X810711Y355928D01*
X812066Y353582D01*
X813982Y351666D01*
X816328Y350311D01*
X818945Y349610D01*
X821655D01*
X824272Y350311D01*
X826618Y351666D01*
X828534Y353582D01*
X829889Y355928D01*
X830590Y358545D01*
Y361255D01*
X829889Y363872D01*
X828534Y366218D01*
X826618Y368134D01*
X824272Y369489D01*
X821655Y370190D01*
D02*
G37*
G36*
X796255D02*
X793545D01*
X790928Y369489D01*
X788582Y368134D01*
X786666Y366218D01*
X785311Y363872D01*
X784610Y361255D01*
Y358545D01*
X785311Y355928D01*
X786666Y353582D01*
X788582Y351666D01*
X790928Y350311D01*
X793545Y349610D01*
X796255D01*
X798872Y350311D01*
X801218Y351666D01*
X803134Y353582D01*
X804489Y355928D01*
X805190Y358545D01*
Y361255D01*
X804489Y363872D01*
X803134Y366218D01*
X801218Y368134D01*
X798872Y369489D01*
X796255Y370190D01*
D02*
G37*
G36*
X770855D02*
X768145D01*
X765528Y369489D01*
X763182Y368134D01*
X761266Y366218D01*
X759911Y363872D01*
X759210Y361255D01*
Y358545D01*
X759911Y355928D01*
X761266Y353582D01*
X763182Y351666D01*
X765528Y350311D01*
X768145Y349610D01*
X770855D01*
X773472Y350311D01*
X775818Y351666D01*
X777734Y353582D01*
X779089Y355928D01*
X779790Y358545D01*
Y361255D01*
X779089Y363872D01*
X777734Y366218D01*
X775818Y368134D01*
X773472Y369489D01*
X770855Y370190D01*
D02*
G37*
G36*
X745455D02*
X742745D01*
X740128Y369489D01*
X737782Y368134D01*
X735866Y366218D01*
X734511Y363872D01*
X733810Y361255D01*
Y358545D01*
X734511Y355928D01*
X735866Y353582D01*
X737782Y351666D01*
X740128Y350311D01*
X742745Y349610D01*
X745455D01*
X748072Y350311D01*
X750418Y351666D01*
X752334Y353582D01*
X753689Y355928D01*
X754390Y358545D01*
Y361255D01*
X753689Y363872D01*
X752334Y366218D01*
X750418Y368134D01*
X748072Y369489D01*
X745455Y370190D01*
D02*
G37*
G36*
X720055D02*
X717345D01*
X714728Y369489D01*
X712382Y368134D01*
X710466Y366218D01*
X709111Y363872D01*
X708410Y361255D01*
Y358545D01*
X709111Y355928D01*
X710466Y353582D01*
X712382Y351666D01*
X714728Y350311D01*
X717345Y349610D01*
X720055D01*
X722672Y350311D01*
X725018Y351666D01*
X726934Y353582D01*
X728289Y355928D01*
X728990Y358545D01*
Y361255D01*
X728289Y363872D01*
X726934Y366218D01*
X725018Y368134D01*
X722672Y369489D01*
X720055Y370190D01*
D02*
G37*
G36*
X694655D02*
X691945D01*
X689328Y369489D01*
X686982Y368134D01*
X685066Y366218D01*
X683711Y363872D01*
X683010Y361255D01*
Y358545D01*
X683711Y355928D01*
X685066Y353582D01*
X686982Y351666D01*
X689328Y350311D01*
X691945Y349610D01*
X694655D01*
X697272Y350311D01*
X699618Y351666D01*
X701534Y353582D01*
X702889Y355928D01*
X703590Y358545D01*
Y361255D01*
X702889Y363872D01*
X701534Y366218D01*
X699618Y368134D01*
X697272Y369489D01*
X694655Y370190D01*
D02*
G37*
G36*
X646270Y343628D02*
Y336397D01*
X653501D01*
X652958Y338423D01*
X651834Y340371D01*
X650244Y341961D01*
X648296Y343085D01*
X646270Y343628D01*
D02*
G37*
G36*
X643730D02*
X641704Y343085D01*
X639756Y341961D01*
X638166Y340371D01*
X637042Y338423D01*
X636499Y336397D01*
X643730D01*
Y343628D01*
D02*
G37*
G36*
X117692Y352840D02*
X115707D01*
X113789Y352327D01*
X112070Y351334D01*
X110666Y349930D01*
X109674Y348211D01*
X109160Y346293D01*
Y344308D01*
X109674Y342390D01*
X110666Y340671D01*
X111561Y339776D01*
Y329992D01*
X111184Y329686D01*
X108733Y329930D01*
X107329Y331334D01*
X105610Y332327D01*
X103692Y332840D01*
X101707D01*
X99789Y332327D01*
X98070Y331334D01*
X96666Y329930D01*
X95674Y328211D01*
X95160Y326293D01*
Y324308D01*
X95674Y322390D01*
X96666Y320671D01*
X97561Y319776D01*
Y299300D01*
X97952Y297334D01*
X99066Y295667D01*
X126366Y268366D01*
X126707Y268139D01*
X126100Y266139D01*
X101000D01*
X99033Y265748D01*
X97366Y264634D01*
X58866Y226134D01*
X57752Y224466D01*
X57361Y222500D01*
Y216024D01*
X56466Y215130D01*
X55474Y213410D01*
X54960Y211493D01*
Y209507D01*
X55474Y207590D01*
X56466Y205870D01*
X57870Y204466D01*
X59590Y203474D01*
X61507Y202960D01*
X63493D01*
X65410Y203474D01*
X67130Y204466D01*
X68534Y205870D01*
X69526Y207590D01*
X70040Y209507D01*
Y211493D01*
X69526Y213410D01*
X68534Y215130D01*
X67639Y216024D01*
Y220371D01*
X103128Y255861D01*
X238871D01*
X263312Y231420D01*
X262376Y229677D01*
X260663Y229604D01*
X243634Y246634D01*
X241966Y247748D01*
X240000Y248139D01*
X118000D01*
X116033Y247748D01*
X114366Y246634D01*
X79366Y211634D01*
X78252Y209967D01*
X77861Y208000D01*
Y204524D01*
X76967Y203630D01*
X75974Y201910D01*
X75460Y199993D01*
Y198007D01*
X75974Y196090D01*
X76967Y194370D01*
X78370Y192966D01*
X80090Y191974D01*
X82007Y191460D01*
X83993D01*
X85910Y191974D01*
X87630Y192966D01*
X89033Y194370D01*
X90026Y196090D01*
X90540Y198007D01*
Y199993D01*
X90026Y201910D01*
X89033Y203630D01*
X88139Y204524D01*
Y205872D01*
X120128Y237861D01*
X237871D01*
X253460Y222273D01*
Y221007D01*
X253974Y219090D01*
X254967Y217370D01*
X256370Y215966D01*
X258090Y214974D01*
X260007Y214460D01*
X261993D01*
X263910Y214974D01*
X265630Y215966D01*
X267034Y217370D01*
X268026Y219090D01*
X268540Y221007D01*
Y222993D01*
X268404Y223500D01*
X270197Y224536D01*
X273460Y221273D01*
Y220007D01*
X273974Y218090D01*
X274967Y216370D01*
X276370Y214967D01*
X278090Y213974D01*
X280007Y213460D01*
X281993D01*
X283910Y213974D01*
X284861Y214523D01*
X286861Y213536D01*
Y209067D01*
X283334Y205540D01*
X282069D01*
X280151Y205026D01*
X278431Y204034D01*
X277028Y202630D01*
X276035Y200910D01*
X275521Y198993D01*
Y197007D01*
X276035Y195090D01*
X277028Y193370D01*
X278431Y191966D01*
X280151Y190974D01*
X282069Y190460D01*
X284054D01*
X285972Y190974D01*
X287691Y191966D01*
X289095Y193370D01*
X290087Y195090D01*
X290601Y197007D01*
Y198273D01*
X295634Y203305D01*
X296748Y204972D01*
X297139Y206939D01*
Y224938D01*
X297254Y226053D01*
X299007Y226861D01*
X308871D01*
X315716Y220016D01*
X317383Y218902D01*
X319350Y218511D01*
X321110Y218861D01*
X326475D01*
X327370Y217966D01*
X329090Y216974D01*
X329117Y216966D01*
X329715Y214736D01*
X315622Y200643D01*
X314414Y199068D01*
X313654Y197234D01*
X313395Y195266D01*
Y151000D01*
X313654Y149032D01*
X314414Y147198D01*
X315622Y145622D01*
X323145Y138100D01*
Y121250D01*
X323404Y119282D01*
X324164Y117448D01*
X325372Y115872D01*
X326807Y114438D01*
X326042Y112590D01*
X325000D01*
X324009Y112393D01*
X323169Y111831D01*
X322607Y110991D01*
X322410Y110000D01*
Y98000D01*
X322607Y97009D01*
X323169Y96169D01*
X324009Y95607D01*
X325000Y95410D01*
X350000D01*
X350991Y95607D01*
X351831Y96169D01*
X352393Y97009D01*
X352590Y98000D01*
Y110000D01*
X352393Y110991D01*
X351831Y111831D01*
X350991Y112393D01*
X350000Y112590D01*
X344605D01*
Y115000D01*
X344346Y116968D01*
X343586Y118802D01*
X342378Y120378D01*
X338355Y124400D01*
Y141250D01*
X338096Y143218D01*
X337336Y145052D01*
X336128Y146628D01*
X328605Y154150D01*
Y192116D01*
X333285Y196796D01*
X335499Y196181D01*
X335724Y195340D01*
X336716Y193620D01*
X338120Y192216D01*
X339840Y191224D01*
X341757Y190710D01*
X343023D01*
X345861Y187871D01*
Y159000D01*
X346252Y157034D01*
X347366Y155366D01*
X370861Y131871D01*
Y121524D01*
X369967Y120630D01*
X368974Y118910D01*
X368460Y116993D01*
Y115007D01*
X368974Y113090D01*
X369967Y111370D01*
X371370Y109966D01*
X373090Y108974D01*
X375007Y108460D01*
X376993D01*
X378910Y108974D01*
X380630Y109966D01*
X381361Y110698D01*
X383361Y109870D01*
Y106629D01*
X329366Y52634D01*
X328252Y50967D01*
X327861Y49000D01*
Y38160D01*
X322840D01*
Y17840D01*
X343160D01*
Y38160D01*
X338139D01*
Y46872D01*
X392134Y100866D01*
X393247Y102534D01*
X393639Y104500D01*
Y136500D01*
X393247Y138467D01*
X392134Y140134D01*
X376938Y155330D01*
X378090Y156974D01*
X380007Y156460D01*
X381273D01*
X397861Y139872D01*
Y97128D01*
X354766Y54034D01*
X353652Y52366D01*
X353261Y50400D01*
Y36765D01*
X352162Y36130D01*
X350270Y34238D01*
X348932Y31922D01*
X348240Y29338D01*
Y26662D01*
X348932Y24078D01*
X350270Y21762D01*
X352162Y19870D01*
X354478Y18532D01*
X357062Y17840D01*
X359738D01*
X362322Y18532D01*
X364638Y19870D01*
X366530Y21762D01*
X367868Y24078D01*
X368560Y26662D01*
Y29338D01*
X367868Y31922D01*
X366530Y34238D01*
X364638Y36130D01*
X363539Y36765D01*
Y48271D01*
X406634Y91366D01*
X407748Y93034D01*
X408139Y95000D01*
Y137644D01*
X409986Y138409D01*
X412861Y135535D01*
Y87128D01*
X380166Y54434D01*
X379052Y52766D01*
X378661Y50800D01*
Y36765D01*
X377562Y36130D01*
X375670Y34238D01*
X374332Y31922D01*
X373640Y29338D01*
Y26662D01*
X374332Y24078D01*
X375670Y21762D01*
X377562Y19870D01*
X379878Y18532D01*
X382462Y17840D01*
X385138D01*
X387722Y18532D01*
X390038Y19870D01*
X391930Y21762D01*
X393268Y24078D01*
X393960Y26662D01*
Y29338D01*
X393268Y31922D01*
X391930Y34238D01*
X390038Y36130D01*
X388939Y36765D01*
Y48671D01*
X421634Y81366D01*
X422748Y83034D01*
X423139Y85000D01*
Y135766D01*
X425139Y136594D01*
X426861Y134872D01*
Y108000D01*
X427252Y106033D01*
X428366Y104366D01*
X459901Y72832D01*
Y51447D01*
X456366Y47912D01*
X455252Y46245D01*
X454861Y44279D01*
Y36765D01*
X453762Y36130D01*
X451870Y34238D01*
X450532Y31922D01*
X449840Y29338D01*
Y26662D01*
X450532Y24078D01*
X451870Y21762D01*
X453762Y19870D01*
X456078Y18532D01*
X458662Y17840D01*
X461338D01*
X463922Y18532D01*
X466238Y19870D01*
X468130Y21762D01*
X469468Y24078D01*
X470160Y26662D01*
Y29338D01*
X469468Y31922D01*
X468130Y34238D01*
X466238Y36130D01*
X465139Y36765D01*
Y42150D01*
X468674Y45685D01*
X469788Y47352D01*
X470179Y49319D01*
Y74960D01*
X469788Y76926D01*
X468674Y78594D01*
X437139Y110128D01*
Y137000D01*
X436748Y138967D01*
X435634Y140634D01*
X420139Y156129D01*
Y205872D01*
X432634Y218366D01*
X433748Y220033D01*
X434139Y222000D01*
Y259000D01*
X433748Y260966D01*
X432634Y262634D01*
X421540Y273727D01*
Y274993D01*
X421026Y276910D01*
X420033Y278630D01*
X418630Y280033D01*
X416910Y281026D01*
X414993Y281540D01*
X413007D01*
X411090Y281026D01*
X409370Y280033D01*
X407966Y278630D01*
X406974Y276910D01*
X406460Y274993D01*
Y273007D01*
X406974Y271090D01*
X407966Y269370D01*
X409370Y267966D01*
X411090Y266974D01*
X413007Y266460D01*
X414273D01*
X423861Y256871D01*
Y224128D01*
X411366Y211634D01*
X410252Y209967D01*
X409861Y208000D01*
Y178900D01*
X407861Y178293D01*
X407634Y178634D01*
X400540Y185727D01*
Y186993D01*
X400026Y188910D01*
X399034Y190630D01*
X397630Y192034D01*
X395910Y193026D01*
X393993Y193540D01*
X392007D01*
X390090Y193026D01*
X388370Y192034D01*
X386967Y190630D01*
X385974Y188910D01*
X385460Y186993D01*
Y185007D01*
X385974Y183090D01*
X386967Y181370D01*
X388370Y179967D01*
X390090Y178974D01*
X392007Y178460D01*
X393273D01*
X398861Y172871D01*
Y156019D01*
X397014Y155254D01*
X388540Y163727D01*
Y164993D01*
X388026Y166910D01*
X387034Y168630D01*
X385630Y170033D01*
X383910Y171026D01*
X381993Y171540D01*
X380007D01*
X378090Y171026D01*
X376370Y170033D01*
X374967Y168630D01*
X372516Y168385D01*
X372139Y168692D01*
Y185476D01*
X373033Y186370D01*
X374026Y188090D01*
X374540Y190007D01*
Y191993D01*
X374026Y193910D01*
X373033Y195630D01*
X371630Y197034D01*
X369910Y198026D01*
X367993Y198540D01*
X366007D01*
X364090Y198026D01*
X362370Y197034D01*
X360966Y195630D01*
X359974Y193910D01*
X359460Y191993D01*
Y190007D01*
X359974Y188090D01*
X360966Y186370D01*
X361861Y185476D01*
Y158234D01*
X361311Y157800D01*
X359960Y157307D01*
X356139Y161129D01*
Y190000D01*
X355748Y191966D01*
X354634Y193634D01*
X350290Y197977D01*
Y199243D01*
X349776Y201160D01*
X348783Y202880D01*
X347380Y204284D01*
X345660Y205276D01*
X344819Y205501D01*
X344204Y207715D01*
X353378Y216888D01*
X354586Y218463D01*
X355346Y220297D01*
X355605Y222266D01*
Y260850D01*
X362378Y267622D01*
X363586Y269198D01*
X364346Y271032D01*
X364605Y273000D01*
Y287000D01*
X364346Y288968D01*
X363901Y290043D01*
X363586Y290802D01*
X362378Y292378D01*
X349378Y305378D01*
X348982Y305681D01*
X348630Y306033D01*
X348198Y306283D01*
X347803Y306586D01*
X347342Y306777D01*
X346910Y307026D01*
X346429Y307155D01*
X345968Y307346D01*
X345474Y307411D01*
X344993Y307540D01*
X344494D01*
X344000Y307605D01*
X343506Y307540D01*
X343007D01*
X342526Y307411D01*
X342032Y307346D01*
X341951Y307313D01*
X341193Y307413D01*
X330468D01*
X329993Y307540D01*
X329494D01*
X329000Y307605D01*
X328506Y307540D01*
X328007D01*
X327526Y307411D01*
X327032Y307346D01*
X326571Y307155D01*
X326090Y307026D01*
X325658Y306777D01*
X325197Y306586D01*
X324802Y306283D01*
X324370Y306033D01*
X324018Y305681D01*
X323622Y305378D01*
X323319Y304982D01*
X322966Y304630D01*
X322717Y304198D01*
X322414Y303803D01*
X322223Y303342D01*
X321974Y302910D01*
X321845Y302429D01*
X321654Y301968D01*
X321589Y301474D01*
X321460Y300993D01*
Y300494D01*
X321395Y300000D01*
X321460Y299506D01*
Y299007D01*
X321589Y298526D01*
X321654Y298032D01*
X321845Y297571D01*
X321974Y297090D01*
X322223Y296658D01*
X322414Y296197D01*
X322717Y295802D01*
X322966Y295370D01*
X323319Y295018D01*
X323622Y294622D01*
X323815Y294430D01*
X324210Y294126D01*
X324370Y293967D01*
X324566Y293853D01*
X325390Y293221D01*
X326150Y292907D01*
X327224Y292462D01*
X329193Y292202D01*
X341042D01*
X349395Y283850D01*
Y276150D01*
X342622Y269378D01*
X341414Y267803D01*
X340654Y265968D01*
X340395Y264000D01*
Y250797D01*
X338395Y250534D01*
X338026Y251910D01*
X337034Y253630D01*
X335630Y255033D01*
X333910Y256026D01*
X331993Y256540D01*
X330007D01*
X328090Y256026D01*
X326370Y255033D01*
X325476Y254139D01*
X293129D01*
X251634Y295634D01*
X249967Y296748D01*
X248000Y297139D01*
X148128D01*
X140240Y305028D01*
Y306293D01*
X139726Y308211D01*
X138733Y309930D01*
X137329Y311334D01*
X135610Y312327D01*
X133692Y312840D01*
X131707D01*
X129789Y312327D01*
X128070Y311334D01*
X126666Y309930D01*
X125674Y308211D01*
X125160Y306293D01*
Y305936D01*
X123160Y305108D01*
X121838Y306429D01*
Y339776D01*
X122733Y340671D01*
X123726Y342390D01*
X124240Y344308D01*
Y346293D01*
X123726Y348211D01*
X122733Y349930D01*
X121329Y351334D01*
X119610Y352327D01*
X117692Y352840D01*
D02*
G37*
G36*
X643730Y333857D02*
X636499D01*
X637042Y331831D01*
X638166Y329883D01*
X639756Y328293D01*
X641704Y327169D01*
X643730Y326626D01*
Y333857D01*
D02*
G37*
G36*
X653501D02*
X646270D01*
Y326626D01*
X648296Y327169D01*
X650244Y328293D01*
X651834Y329883D01*
X652958Y331831D01*
X653501Y333857D01*
D02*
G37*
G36*
X626124Y343413D02*
X623876D01*
X621704Y342831D01*
X619756Y341707D01*
X618166Y340117D01*
X617042Y338169D01*
X616460Y335997D01*
Y333749D01*
X617042Y331577D01*
X618166Y329629D01*
X619756Y328039D01*
X621704Y326915D01*
X623876Y326333D01*
X626124D01*
X628296Y326915D01*
X630244Y328039D01*
X631834Y329629D01*
X632958Y331577D01*
X633540Y333749D01*
Y335997D01*
X632958Y338169D01*
X631834Y340117D01*
X630244Y341707D01*
X628296Y342831D01*
X626124Y343413D01*
D02*
G37*
G36*
X821655Y344790D02*
X818945D01*
X816328Y344089D01*
X813982Y342734D01*
X812066Y340818D01*
X810711Y338472D01*
X810010Y335855D01*
Y333145D01*
X810711Y330528D01*
X812066Y328182D01*
X813982Y326266D01*
X816328Y324911D01*
X818945Y324210D01*
X821655D01*
X824272Y324911D01*
X826618Y326266D01*
X828534Y328182D01*
X829889Y330528D01*
X830590Y333145D01*
Y335855D01*
X829889Y338472D01*
X828534Y340818D01*
X826618Y342734D01*
X824272Y344089D01*
X821655Y344790D01*
D02*
G37*
G36*
X796255D02*
X793545D01*
X790928Y344089D01*
X788582Y342734D01*
X786666Y340818D01*
X785311Y338472D01*
X784610Y335855D01*
Y333145D01*
X785311Y330528D01*
X786666Y328182D01*
X788582Y326266D01*
X790928Y324911D01*
X793545Y324210D01*
X796255D01*
X798872Y324911D01*
X801218Y326266D01*
X803134Y328182D01*
X804489Y330528D01*
X805190Y333145D01*
Y335855D01*
X804489Y338472D01*
X803134Y340818D01*
X801218Y342734D01*
X798872Y344089D01*
X796255Y344790D01*
D02*
G37*
G36*
X770855D02*
X768145D01*
X765528Y344089D01*
X763182Y342734D01*
X761266Y340818D01*
X759911Y338472D01*
X759210Y335855D01*
Y333145D01*
X759911Y330528D01*
X761266Y328182D01*
X763182Y326266D01*
X765528Y324911D01*
X768145Y324210D01*
X770855D01*
X773472Y324911D01*
X775818Y326266D01*
X777734Y328182D01*
X779089Y330528D01*
X779790Y333145D01*
Y335855D01*
X779089Y338472D01*
X777734Y340818D01*
X775818Y342734D01*
X773472Y344089D01*
X770855Y344790D01*
D02*
G37*
G36*
X745455D02*
X742745D01*
X740128Y344089D01*
X737782Y342734D01*
X735866Y340818D01*
X734511Y338472D01*
X733810Y335855D01*
Y333145D01*
X734511Y330528D01*
X735866Y328182D01*
X737782Y326266D01*
X740128Y324911D01*
X742745Y324210D01*
X745455D01*
X748072Y324911D01*
X750418Y326266D01*
X752334Y328182D01*
X753689Y330528D01*
X754390Y333145D01*
Y335855D01*
X753689Y338472D01*
X752334Y340818D01*
X750418Y342734D01*
X748072Y344089D01*
X745455Y344790D01*
D02*
G37*
G36*
X720055D02*
X717345D01*
X714728Y344089D01*
X712382Y342734D01*
X710466Y340818D01*
X709111Y338472D01*
X708410Y335855D01*
Y333145D01*
X709111Y330528D01*
X710466Y328182D01*
X712382Y326266D01*
X714728Y324911D01*
X717345Y324210D01*
X720055D01*
X722672Y324911D01*
X725018Y326266D01*
X726934Y328182D01*
X728289Y330528D01*
X728990Y333145D01*
Y335855D01*
X728289Y338472D01*
X726934Y340818D01*
X725018Y342734D01*
X722672Y344089D01*
X720055Y344790D01*
D02*
G37*
G36*
X694655D02*
X691945D01*
X689328Y344089D01*
X686982Y342734D01*
X685066Y340818D01*
X683711Y338472D01*
X683010Y335855D01*
Y333145D01*
X683711Y330528D01*
X685066Y328182D01*
X686982Y326266D01*
X689328Y324911D01*
X691945Y324210D01*
X694655D01*
X697272Y324911D01*
X699618Y326266D01*
X701534Y328182D01*
X702889Y330528D01*
X703590Y333145D01*
Y335855D01*
X702889Y338472D01*
X701534Y340818D01*
X699618Y342734D01*
X697272Y344089D01*
X694655Y344790D01*
D02*
G37*
G36*
X821655Y319390D02*
X818945D01*
X816328Y318689D01*
X813982Y317334D01*
X812066Y315418D01*
X810711Y313072D01*
X810010Y310455D01*
Y307745D01*
X810711Y305128D01*
X812066Y302782D01*
X813982Y300866D01*
X816328Y299511D01*
X818945Y298810D01*
X821655D01*
X824272Y299511D01*
X826618Y300866D01*
X828534Y302782D01*
X829889Y305128D01*
X830590Y307745D01*
Y310455D01*
X829889Y313072D01*
X828534Y315418D01*
X826618Y317334D01*
X824272Y318689D01*
X821655Y319390D01*
D02*
G37*
G36*
X796255D02*
X793545D01*
X790928Y318689D01*
X788582Y317334D01*
X786666Y315418D01*
X785311Y313072D01*
X784610Y310455D01*
Y307745D01*
X785311Y305128D01*
X786666Y302782D01*
X788582Y300866D01*
X790928Y299511D01*
X793545Y298810D01*
X796255D01*
X798872Y299511D01*
X801218Y300866D01*
X803134Y302782D01*
X804489Y305128D01*
X805190Y307745D01*
Y310455D01*
X804489Y313072D01*
X803134Y315418D01*
X801218Y317334D01*
X798872Y318689D01*
X796255Y319390D01*
D02*
G37*
G36*
X770855D02*
X768145D01*
X765528Y318689D01*
X763182Y317334D01*
X761266Y315418D01*
X759911Y313072D01*
X759210Y310455D01*
Y307745D01*
X759911Y305128D01*
X761266Y302782D01*
X763182Y300866D01*
X765528Y299511D01*
X768145Y298810D01*
X770855D01*
X773472Y299511D01*
X775818Y300866D01*
X777734Y302782D01*
X779089Y305128D01*
X779790Y307745D01*
Y310455D01*
X779089Y313072D01*
X777734Y315418D01*
X775818Y317334D01*
X773472Y318689D01*
X770855Y319390D01*
D02*
G37*
G36*
X745455D02*
X742745D01*
X740128Y318689D01*
X737782Y317334D01*
X735866Y315418D01*
X734511Y313072D01*
X733810Y310455D01*
Y307745D01*
X734511Y305128D01*
X735866Y302782D01*
X737782Y300866D01*
X740128Y299511D01*
X742745Y298810D01*
X745455D01*
X748072Y299511D01*
X750418Y300866D01*
X752334Y302782D01*
X753689Y305128D01*
X754390Y307745D01*
Y310455D01*
X753689Y313072D01*
X752334Y315418D01*
X750418Y317334D01*
X748072Y318689D01*
X745455Y319390D01*
D02*
G37*
G36*
X720055D02*
X717345D01*
X714728Y318689D01*
X712382Y317334D01*
X710466Y315418D01*
X709111Y313072D01*
X708410Y310455D01*
Y307745D01*
X709111Y305128D01*
X710466Y302782D01*
X712382Y300866D01*
X714728Y299511D01*
X717345Y298810D01*
X720055D01*
X722672Y299511D01*
X725018Y300866D01*
X726934Y302782D01*
X728289Y305128D01*
X728990Y307745D01*
Y310455D01*
X728289Y313072D01*
X726934Y315418D01*
X725018Y317334D01*
X722672Y318689D01*
X720055Y319390D01*
D02*
G37*
G36*
X694655D02*
X691945D01*
X689328Y318689D01*
X686982Y317334D01*
X685066Y315418D01*
X683711Y313072D01*
X683010Y310455D01*
Y307745D01*
X683711Y305128D01*
X685066Y302782D01*
X686982Y300866D01*
X689328Y299511D01*
X691945Y298810D01*
X694655D01*
X697272Y299511D01*
X699618Y300866D01*
X701534Y302782D01*
X702889Y305128D01*
X703590Y307745D01*
Y310455D01*
X702889Y313072D01*
X701534Y315418D01*
X699618Y317334D01*
X697272Y318689D01*
X694655Y319390D01*
D02*
G37*
G36*
X821655Y293990D02*
X818945D01*
X816328Y293289D01*
X813982Y291934D01*
X812066Y290018D01*
X810711Y287672D01*
X810010Y285055D01*
Y282345D01*
X810711Y279728D01*
X812066Y277382D01*
X813982Y275466D01*
X816328Y274111D01*
X818945Y273410D01*
X821655D01*
X824272Y274111D01*
X826618Y275466D01*
X828534Y277382D01*
X829889Y279728D01*
X830590Y282345D01*
Y285055D01*
X829889Y287672D01*
X828534Y290018D01*
X826618Y291934D01*
X824272Y293289D01*
X821655Y293990D01*
D02*
G37*
G36*
X796255D02*
X793545D01*
X790928Y293289D01*
X788582Y291934D01*
X786666Y290018D01*
X785311Y287672D01*
X784610Y285055D01*
Y282345D01*
X785311Y279728D01*
X786666Y277382D01*
X788582Y275466D01*
X790928Y274111D01*
X793545Y273410D01*
X796255D01*
X798872Y274111D01*
X801218Y275466D01*
X803134Y277382D01*
X804489Y279728D01*
X805190Y282345D01*
Y285055D01*
X804489Y287672D01*
X803134Y290018D01*
X801218Y291934D01*
X798872Y293289D01*
X796255Y293990D01*
D02*
G37*
G36*
X770855D02*
X768145D01*
X765528Y293289D01*
X763182Y291934D01*
X761266Y290018D01*
X759911Y287672D01*
X759210Y285055D01*
Y282345D01*
X759911Y279728D01*
X761266Y277382D01*
X763182Y275466D01*
X765528Y274111D01*
X768145Y273410D01*
X770855D01*
X773472Y274111D01*
X775818Y275466D01*
X777734Y277382D01*
X779089Y279728D01*
X779790Y282345D01*
Y285055D01*
X779089Y287672D01*
X777734Y290018D01*
X775818Y291934D01*
X773472Y293289D01*
X770855Y293990D01*
D02*
G37*
G36*
X745455D02*
X742745D01*
X740128Y293289D01*
X737782Y291934D01*
X735866Y290018D01*
X734511Y287672D01*
X733810Y285055D01*
Y282345D01*
X734511Y279728D01*
X735866Y277382D01*
X737782Y275466D01*
X740128Y274111D01*
X742745Y273410D01*
X745455D01*
X748072Y274111D01*
X750418Y275466D01*
X752334Y277382D01*
X753689Y279728D01*
X754390Y282345D01*
Y285055D01*
X753689Y287672D01*
X752334Y290018D01*
X750418Y291934D01*
X748072Y293289D01*
X745455Y293990D01*
D02*
G37*
G36*
X720055D02*
X717345D01*
X714728Y293289D01*
X712382Y291934D01*
X710466Y290018D01*
X709111Y287672D01*
X708410Y285055D01*
Y282345D01*
X709111Y279728D01*
X710466Y277382D01*
X712382Y275466D01*
X714728Y274111D01*
X717345Y273410D01*
X720055D01*
X722672Y274111D01*
X725018Y275466D01*
X726934Y277382D01*
X728289Y279728D01*
X728990Y282345D01*
Y285055D01*
X728289Y287672D01*
X726934Y290018D01*
X725018Y291934D01*
X722672Y293289D01*
X720055Y293990D01*
D02*
G37*
G36*
X694655D02*
X691945D01*
X689328Y293289D01*
X686982Y291934D01*
X685066Y290018D01*
X683711Y287672D01*
X683010Y285055D01*
Y282345D01*
X683711Y279728D01*
X685066Y277382D01*
X686982Y275466D01*
X689328Y274111D01*
X691945Y273410D01*
X694655D01*
X697272Y274111D01*
X699618Y275466D01*
X701534Y277382D01*
X702889Y279728D01*
X703590Y282345D01*
Y285055D01*
X702889Y287672D01*
X701534Y290018D01*
X699618Y291934D01*
X697272Y293289D01*
X694655Y293990D01*
D02*
G37*
G36*
X821655Y268590D02*
X818945D01*
X816328Y267889D01*
X813982Y266534D01*
X812066Y264618D01*
X810711Y262272D01*
X810010Y259655D01*
Y256945D01*
X810711Y254328D01*
X812066Y251982D01*
X813982Y250066D01*
X816328Y248711D01*
X818945Y248010D01*
X821655D01*
X824272Y248711D01*
X826618Y250066D01*
X828534Y251982D01*
X829889Y254328D01*
X830590Y256945D01*
Y259655D01*
X829889Y262272D01*
X828534Y264618D01*
X826618Y266534D01*
X824272Y267889D01*
X821655Y268590D01*
D02*
G37*
G36*
X796255D02*
X793545D01*
X790928Y267889D01*
X788582Y266534D01*
X786666Y264618D01*
X785311Y262272D01*
X784610Y259655D01*
Y256945D01*
X785311Y254328D01*
X786666Y251982D01*
X788582Y250066D01*
X790928Y248711D01*
X793545Y248010D01*
X796255D01*
X798872Y248711D01*
X801218Y250066D01*
X803134Y251982D01*
X804489Y254328D01*
X805190Y256945D01*
Y259655D01*
X804489Y262272D01*
X803134Y264618D01*
X801218Y266534D01*
X798872Y267889D01*
X796255Y268590D01*
D02*
G37*
G36*
X770855D02*
X768145D01*
X765528Y267889D01*
X763182Y266534D01*
X761266Y264618D01*
X759911Y262272D01*
X759210Y259655D01*
Y256945D01*
X759911Y254328D01*
X761266Y251982D01*
X763182Y250066D01*
X765528Y248711D01*
X768145Y248010D01*
X770855D01*
X773472Y248711D01*
X775818Y250066D01*
X777734Y251982D01*
X779089Y254328D01*
X779790Y256945D01*
Y259655D01*
X779089Y262272D01*
X777734Y264618D01*
X775818Y266534D01*
X773472Y267889D01*
X770855Y268590D01*
D02*
G37*
G36*
X745455D02*
X742745D01*
X740128Y267889D01*
X737782Y266534D01*
X735866Y264618D01*
X734511Y262272D01*
X733810Y259655D01*
Y256945D01*
X734511Y254328D01*
X735866Y251982D01*
X737782Y250066D01*
X740128Y248711D01*
X742745Y248010D01*
X745455D01*
X748072Y248711D01*
X750418Y250066D01*
X752334Y251982D01*
X753689Y254328D01*
X754390Y256945D01*
Y259655D01*
X753689Y262272D01*
X752334Y264618D01*
X750418Y266534D01*
X748072Y267889D01*
X745455Y268590D01*
D02*
G37*
G36*
X720055D02*
X717345D01*
X714728Y267889D01*
X712382Y266534D01*
X710466Y264618D01*
X709111Y262272D01*
X708410Y259655D01*
Y256945D01*
X709111Y254328D01*
X710466Y251982D01*
X712382Y250066D01*
X714728Y248711D01*
X717345Y248010D01*
X720055D01*
X722672Y248711D01*
X725018Y250066D01*
X726934Y251982D01*
X728289Y254328D01*
X728990Y256945D01*
Y259655D01*
X728289Y262272D01*
X726934Y264618D01*
X725018Y266534D01*
X722672Y267889D01*
X720055Y268590D01*
D02*
G37*
G36*
X694655D02*
X691945D01*
X689328Y267889D01*
X686982Y266534D01*
X685066Y264618D01*
X683711Y262272D01*
X683010Y259655D01*
Y256945D01*
X683711Y254328D01*
X685066Y251982D01*
X686982Y250066D01*
X689328Y248711D01*
X691945Y248010D01*
X694655D01*
X697272Y248711D01*
X699618Y250066D01*
X701534Y251982D01*
X702889Y254328D01*
X703590Y256945D01*
Y259655D01*
X702889Y262272D01*
X701534Y264618D01*
X699618Y266534D01*
X697272Y267889D01*
X694655Y268590D01*
D02*
G37*
G36*
X646270Y233628D02*
Y226397D01*
X653501D01*
X652958Y228423D01*
X651834Y230371D01*
X650244Y231961D01*
X648296Y233085D01*
X646270Y233628D01*
D02*
G37*
G36*
X643730D02*
X641704Y233085D01*
X639756Y231961D01*
X638166Y230371D01*
X637042Y228423D01*
X636499Y226397D01*
X643730D01*
Y233628D01*
D02*
G37*
G36*
X821655Y243190D02*
X818945D01*
X816328Y242489D01*
X813982Y241134D01*
X812066Y239218D01*
X810711Y236872D01*
X810010Y234255D01*
Y231545D01*
X810711Y228928D01*
X812066Y226582D01*
X813982Y224666D01*
X816328Y223311D01*
X818945Y222610D01*
X821655D01*
X824272Y223311D01*
X826618Y224666D01*
X828534Y226582D01*
X829889Y228928D01*
X830590Y231545D01*
Y234255D01*
X829889Y236872D01*
X828534Y239218D01*
X826618Y241134D01*
X824272Y242489D01*
X821655Y243190D01*
D02*
G37*
G36*
X796255D02*
X793545D01*
X790928Y242489D01*
X788582Y241134D01*
X786666Y239218D01*
X785311Y236872D01*
X784610Y234255D01*
Y231545D01*
X785311Y228928D01*
X786666Y226582D01*
X788582Y224666D01*
X790928Y223311D01*
X793545Y222610D01*
X796255D01*
X798872Y223311D01*
X801218Y224666D01*
X803134Y226582D01*
X804489Y228928D01*
X805190Y231545D01*
Y234255D01*
X804489Y236872D01*
X803134Y239218D01*
X801218Y241134D01*
X798872Y242489D01*
X796255Y243190D01*
D02*
G37*
G36*
X770855D02*
X768145D01*
X765528Y242489D01*
X763182Y241134D01*
X761266Y239218D01*
X759911Y236872D01*
X759210Y234255D01*
Y231545D01*
X759911Y228928D01*
X761266Y226582D01*
X763182Y224666D01*
X765528Y223311D01*
X768145Y222610D01*
X770855D01*
X773472Y223311D01*
X775818Y224666D01*
X777734Y226582D01*
X779089Y228928D01*
X779790Y231545D01*
Y234255D01*
X779089Y236872D01*
X777734Y239218D01*
X775818Y241134D01*
X773472Y242489D01*
X770855Y243190D01*
D02*
G37*
G36*
X745455D02*
X742745D01*
X740128Y242489D01*
X737782Y241134D01*
X735866Y239218D01*
X734511Y236872D01*
X733810Y234255D01*
Y231545D01*
X734511Y228928D01*
X735866Y226582D01*
X737782Y224666D01*
X740128Y223311D01*
X742745Y222610D01*
X745455D01*
X748072Y223311D01*
X750418Y224666D01*
X752334Y226582D01*
X753689Y228928D01*
X754390Y231545D01*
Y234255D01*
X753689Y236872D01*
X752334Y239218D01*
X750418Y241134D01*
X748072Y242489D01*
X745455Y243190D01*
D02*
G37*
G36*
X720055D02*
X717345D01*
X714728Y242489D01*
X712382Y241134D01*
X710466Y239218D01*
X709111Y236872D01*
X708410Y234255D01*
Y231545D01*
X709111Y228928D01*
X710466Y226582D01*
X712382Y224666D01*
X714728Y223311D01*
X717345Y222610D01*
X720055D01*
X722672Y223311D01*
X725018Y224666D01*
X726934Y226582D01*
X728289Y228928D01*
X728990Y231545D01*
Y234255D01*
X728289Y236872D01*
X726934Y239218D01*
X725018Y241134D01*
X722672Y242489D01*
X720055Y243190D01*
D02*
G37*
G36*
X694655D02*
X691945D01*
X689328Y242489D01*
X686982Y241134D01*
X685066Y239218D01*
X683711Y236872D01*
X683010Y234255D01*
Y231545D01*
X683711Y228928D01*
X685066Y226582D01*
X686982Y224666D01*
X689328Y223311D01*
X691945Y222610D01*
X694655D01*
X697272Y223311D01*
X699618Y224666D01*
X701534Y226582D01*
X702889Y228928D01*
X703590Y231545D01*
Y234255D01*
X702889Y236872D01*
X701534Y239218D01*
X699618Y241134D01*
X697272Y242489D01*
X694655Y243190D01*
D02*
G37*
G36*
X643730Y223857D02*
X636499D01*
X637042Y221831D01*
X638166Y219883D01*
X639756Y218293D01*
X641704Y217169D01*
X643730Y216626D01*
Y223857D01*
D02*
G37*
G36*
X653501D02*
X646270D01*
Y216626D01*
X648296Y217169D01*
X650244Y218293D01*
X651834Y219883D01*
X652958Y221831D01*
X653501Y223857D01*
D02*
G37*
G36*
X626124Y233413D02*
X623876D01*
X621704Y232831D01*
X619756Y231707D01*
X618166Y230117D01*
X617042Y228169D01*
X616460Y225997D01*
Y223749D01*
X617042Y221577D01*
X618166Y219629D01*
X619756Y218039D01*
X621704Y216915D01*
X623876Y216333D01*
X626124D01*
X628296Y216915D01*
X630244Y218039D01*
X631834Y219629D01*
X632958Y221577D01*
X633540Y223749D01*
Y225997D01*
X632958Y228169D01*
X631834Y230117D01*
X630244Y231707D01*
X628296Y232831D01*
X626124Y233413D01*
D02*
G37*
G36*
X606124Y453413D02*
X603876D01*
X601704Y452831D01*
X599756Y451707D01*
X598166Y450117D01*
X597042Y448169D01*
X596460Y445997D01*
Y443749D01*
X597042Y441577D01*
X598166Y439629D01*
X599756Y438039D01*
X599861Y437979D01*
Y341767D01*
X599756Y341707D01*
X598166Y340117D01*
X597042Y338169D01*
X596460Y335997D01*
Y333749D01*
X597042Y331577D01*
X598166Y329629D01*
X599756Y328039D01*
X599861Y327979D01*
Y231767D01*
X599756Y231707D01*
X598166Y230117D01*
X597042Y228169D01*
X596460Y225997D01*
Y223749D01*
X597042Y221577D01*
X598166Y219629D01*
X599756Y218039D01*
X601704Y216915D01*
X603876Y216333D01*
X606124D01*
X608296Y216915D01*
X610244Y218039D01*
X611834Y219629D01*
X612958Y221577D01*
X613540Y223749D01*
Y225997D01*
X612958Y228169D01*
X611834Y230117D01*
X610244Y231707D01*
X610139Y231767D01*
Y327979D01*
X610244Y328039D01*
X611834Y329629D01*
X612958Y331577D01*
X613540Y333749D01*
Y335997D01*
X612958Y338169D01*
X611834Y340117D01*
X610244Y341707D01*
X610139Y341767D01*
Y437979D01*
X610244Y438039D01*
X611834Y439629D01*
X612958Y441577D01*
X613540Y443749D01*
Y445997D01*
X612958Y448169D01*
X611834Y450117D01*
X610244Y451707D01*
X608296Y452831D01*
X606124Y453413D01*
D02*
G37*
G36*
X593540D02*
X576460D01*
Y436333D01*
X579861D01*
Y343413D01*
X576460D01*
Y326333D01*
X579861D01*
Y233413D01*
X576460D01*
Y216333D01*
X593540D01*
Y233413D01*
X590139D01*
Y326333D01*
X593540D01*
Y343413D01*
X590139D01*
Y436333D01*
X593540D01*
Y453413D01*
D02*
G37*
G36*
X821655Y217790D02*
X821570D01*
Y208770D01*
X830590D01*
Y208855D01*
X829889Y211472D01*
X828534Y213818D01*
X826618Y215734D01*
X824272Y217089D01*
X821655Y217790D01*
D02*
G37*
G36*
X819030D02*
X818945D01*
X816328Y217089D01*
X813982Y215734D01*
X812066Y213818D01*
X810711Y211472D01*
X810010Y208855D01*
Y208770D01*
X819030D01*
Y217790D01*
D02*
G37*
G36*
X796255D02*
X796170D01*
Y208770D01*
X805190D01*
Y208855D01*
X804489Y211472D01*
X803134Y213818D01*
X801218Y215734D01*
X798872Y217089D01*
X796255Y217790D01*
D02*
G37*
G36*
X793630D02*
X793545D01*
X790928Y217089D01*
X788582Y215734D01*
X786666Y213818D01*
X785311Y211472D01*
X784610Y208855D01*
Y208770D01*
X793630D01*
Y217790D01*
D02*
G37*
G36*
X770855D02*
X770770D01*
Y208770D01*
X779790D01*
Y208855D01*
X779089Y211472D01*
X777734Y213818D01*
X775818Y215734D01*
X773472Y217089D01*
X770855Y217790D01*
D02*
G37*
G36*
X768230D02*
X768145D01*
X765528Y217089D01*
X763182Y215734D01*
X761266Y213818D01*
X759911Y211472D01*
X759210Y208855D01*
Y208770D01*
X768230D01*
Y217790D01*
D02*
G37*
G36*
X745455D02*
X745370D01*
Y208770D01*
X754390D01*
Y208855D01*
X753689Y211472D01*
X752334Y213818D01*
X750418Y215734D01*
X748072Y217089D01*
X745455Y217790D01*
D02*
G37*
G36*
X742830D02*
X742745D01*
X740128Y217089D01*
X737782Y215734D01*
X735866Y213818D01*
X734511Y211472D01*
X733810Y208855D01*
Y208770D01*
X742830D01*
Y217790D01*
D02*
G37*
G36*
X720055D02*
X719970D01*
Y208770D01*
X728990D01*
Y208855D01*
X728289Y211472D01*
X726934Y213818D01*
X725018Y215734D01*
X722672Y217089D01*
X720055Y217790D01*
D02*
G37*
G36*
X717430D02*
X717345D01*
X714728Y217089D01*
X712382Y215734D01*
X710466Y213818D01*
X709111Y211472D01*
X708410Y208855D01*
Y208770D01*
X717430D01*
Y217790D01*
D02*
G37*
G36*
X694655D02*
X694570D01*
Y208770D01*
X703590D01*
Y208855D01*
X702889Y211472D01*
X701534Y213818D01*
X699618Y215734D01*
X697272Y217089D01*
X694655Y217790D01*
D02*
G37*
G36*
X692030D02*
X691945D01*
X689328Y217089D01*
X686982Y215734D01*
X685066Y213818D01*
X683711Y211472D01*
X683010Y208855D01*
Y208770D01*
X692030D01*
Y217790D01*
D02*
G37*
G36*
X830590Y206230D02*
X821570D01*
Y197210D01*
X821655D01*
X824272Y197911D01*
X826618Y199266D01*
X828534Y201182D01*
X829889Y203528D01*
X830590Y206145D01*
Y206230D01*
D02*
G37*
G36*
X819030D02*
X810010D01*
Y206145D01*
X810711Y203528D01*
X812066Y201182D01*
X813982Y199266D01*
X816328Y197911D01*
X818945Y197210D01*
X819030D01*
Y206230D01*
D02*
G37*
G36*
X805190D02*
X796170D01*
Y197210D01*
X796255D01*
X798872Y197911D01*
X801218Y199266D01*
X803134Y201182D01*
X804489Y203528D01*
X805190Y206145D01*
Y206230D01*
D02*
G37*
G36*
X793630D02*
X784610D01*
Y206145D01*
X785311Y203528D01*
X786666Y201182D01*
X788582Y199266D01*
X790928Y197911D01*
X793545Y197210D01*
X793630D01*
Y206230D01*
D02*
G37*
G36*
X779790D02*
X770770D01*
Y197210D01*
X770855D01*
X773472Y197911D01*
X775818Y199266D01*
X777734Y201182D01*
X779089Y203528D01*
X779790Y206145D01*
Y206230D01*
D02*
G37*
G36*
X768230D02*
X759210D01*
Y206145D01*
X759911Y203528D01*
X761266Y201182D01*
X763182Y199266D01*
X765528Y197911D01*
X768145Y197210D01*
X768230D01*
Y206230D01*
D02*
G37*
G36*
X754390D02*
X745370D01*
Y197210D01*
X745455D01*
X748072Y197911D01*
X750418Y199266D01*
X752334Y201182D01*
X753689Y203528D01*
X754390Y206145D01*
Y206230D01*
D02*
G37*
G36*
X742830D02*
X733810D01*
Y206145D01*
X734511Y203528D01*
X735866Y201182D01*
X737782Y199266D01*
X740128Y197911D01*
X742745Y197210D01*
X742830D01*
Y206230D01*
D02*
G37*
G36*
X728990D02*
X719970D01*
Y197210D01*
X720055D01*
X722672Y197911D01*
X725018Y199266D01*
X726934Y201182D01*
X728289Y203528D01*
X728990Y206145D01*
Y206230D01*
D02*
G37*
G36*
X717430D02*
X708410D01*
Y206145D01*
X709111Y203528D01*
X710466Y201182D01*
X712382Y199266D01*
X714728Y197911D01*
X717345Y197210D01*
X717430D01*
Y206230D01*
D02*
G37*
G36*
X703590D02*
X694570D01*
Y197210D01*
X694655D01*
X697272Y197911D01*
X699618Y199266D01*
X701534Y201182D01*
X702889Y203528D01*
X703590Y206145D01*
Y206230D01*
D02*
G37*
G36*
X692030D02*
X683010D01*
Y206145D01*
X683711Y203528D01*
X685066Y201182D01*
X686982Y199266D01*
X689328Y197911D01*
X691945Y197210D01*
X692030D01*
Y206230D01*
D02*
G37*
G36*
X514993Y208540D02*
X513007D01*
X511090Y208026D01*
X509370Y207034D01*
X508475Y206139D01*
X496000D01*
X494034Y205748D01*
X492366Y204634D01*
X472872Y185139D01*
X458525D01*
X457630Y186033D01*
X455910Y187026D01*
X453993Y187540D01*
X452007D01*
X450090Y187026D01*
X448370Y186033D01*
X446967Y184630D01*
X445974Y182910D01*
X445460Y180993D01*
Y179007D01*
X445974Y177090D01*
X446967Y175370D01*
X448370Y173967D01*
X450090Y172974D01*
X452007Y172460D01*
X453993D01*
X455910Y172974D01*
X457630Y173967D01*
X458525Y174861D01*
X475000D01*
X476967Y175252D01*
X478634Y176366D01*
X498129Y195861D01*
X508475D01*
X509370Y194967D01*
X511090Y193974D01*
X513007Y193460D01*
X514993D01*
X516910Y193974D01*
X518630Y194967D01*
X520033Y196370D01*
X521026Y198090D01*
X521540Y200007D01*
Y201993D01*
X521026Y203910D01*
X520033Y205630D01*
X518630Y207034D01*
X516910Y208026D01*
X514993Y208540D01*
D02*
G37*
G36*
X45040Y123730D02*
X36270D01*
Y114960D01*
X36322D01*
X38875Y115644D01*
X41165Y116966D01*
X43034Y118835D01*
X44356Y121125D01*
X45040Y123678D01*
Y123730D01*
D02*
G37*
G36*
X33730D02*
X24960D01*
Y123678D01*
X25644Y121125D01*
X26966Y118835D01*
X28835Y116966D01*
X31125Y115644D01*
X33678Y114960D01*
X33730D01*
Y123730D01*
D02*
G37*
G36*
X155000Y206605D02*
X121000D01*
X119032Y206346D01*
X117198Y205586D01*
X115622Y204378D01*
X63850Y152605D01*
X44612D01*
X43808Y153808D01*
X42348Y154784D01*
X40625Y155126D01*
X29375D01*
X27652Y154784D01*
X26192Y153808D01*
X25216Y152348D01*
X24873Y150625D01*
Y139375D01*
X25216Y137652D01*
X26192Y136192D01*
X27652Y135216D01*
X28368Y135074D01*
X28756Y133379D01*
X28758Y132957D01*
X26966Y131165D01*
X25644Y128875D01*
X24960Y126322D01*
Y126270D01*
X35000D01*
X45040D01*
Y126322D01*
X44356Y128875D01*
X43034Y131165D01*
X41242Y132957D01*
X41244Y133379D01*
X41632Y135074D01*
X42348Y135216D01*
X43808Y136192D01*
X44612Y137395D01*
X67000D01*
X68968Y137654D01*
X70802Y138414D01*
X72378Y139622D01*
X98728Y165973D01*
X100521Y164938D01*
X100520Y164932D01*
Y162947D01*
X101034Y161029D01*
X102026Y159310D01*
X103430Y157906D01*
X105149Y156914D01*
X107067Y156400D01*
X108333D01*
X122671Y142061D01*
Y113334D01*
X121966Y112630D01*
X120974Y110910D01*
X120460Y108993D01*
Y107007D01*
X120974Y105090D01*
X121966Y103370D01*
X123370Y101966D01*
X125090Y100974D01*
X127007Y100460D01*
X128993D01*
X130910Y100974D01*
X132630Y101966D01*
X134033Y103370D01*
X135026Y105090D01*
X135540Y107007D01*
Y108993D01*
X135026Y110910D01*
X134033Y112630D01*
X132949Y113715D01*
Y144190D01*
X132557Y146156D01*
X131444Y147823D01*
X115600Y163667D01*
Y164932D01*
X115086Y166850D01*
X114093Y168569D01*
X112690Y169973D01*
X110970Y170966D01*
X109052Y171480D01*
X107067D01*
X107062Y171478D01*
X106027Y173272D01*
X124150Y191395D01*
X155000D01*
X155494Y191460D01*
X155993D01*
X156474Y191589D01*
X156968Y191654D01*
X157429Y191845D01*
X157910Y191974D01*
X158342Y192223D01*
X158802Y192414D01*
X159198Y192717D01*
X159630Y192966D01*
X159982Y193319D01*
X160378Y193622D01*
X160681Y194018D01*
X161033Y194370D01*
X161283Y194802D01*
X161586Y195198D01*
X161777Y195658D01*
X162026Y196090D01*
X162155Y196571D01*
X162346Y197032D01*
X162411Y197526D01*
X162540Y198007D01*
Y198506D01*
X162605Y199000D01*
X162540Y199494D01*
Y199993D01*
X162411Y200474D01*
X162346Y200968D01*
X162155Y201429D01*
X162026Y201910D01*
X161777Y202342D01*
X161586Y202803D01*
X161283Y203198D01*
X161033Y203630D01*
X160681Y203982D01*
X160378Y204378D01*
X159982Y204681D01*
X159630Y205033D01*
X159198Y205283D01*
X158802Y205586D01*
X158342Y205777D01*
X157910Y206026D01*
X157429Y206155D01*
X156968Y206346D01*
X156474Y206411D01*
X155993Y206540D01*
X155494D01*
X155000Y206605D01*
D02*
G37*
G36*
X295000Y119139D02*
X220250D01*
X218284Y118748D01*
X216616Y117634D01*
X207616Y108634D01*
X206502Y106966D01*
X206111Y105000D01*
Y74524D01*
X205217Y73630D01*
X204224Y71910D01*
X203710Y69993D01*
Y68007D01*
X204224Y66090D01*
X205217Y64370D01*
X206087Y63500D01*
X205217Y62630D01*
X204224Y60910D01*
X203710Y58993D01*
Y57007D01*
X204224Y55090D01*
X205217Y53370D01*
X206620Y51967D01*
X208340Y50974D01*
X210257Y50460D01*
X212243D01*
X214160Y50974D01*
X215880Y51967D01*
X217283Y53370D01*
X218276Y55090D01*
X218790Y57007D01*
Y58993D01*
X218276Y60910D01*
X217283Y62630D01*
X216413Y63500D01*
X217283Y64370D01*
X218276Y66090D01*
X218790Y68007D01*
Y69993D01*
X218276Y71910D01*
X217283Y73630D01*
X216389Y74524D01*
Y102872D01*
X222379Y108861D01*
X292871D01*
X297460Y104273D01*
Y103007D01*
X297974Y101090D01*
X298967Y99370D01*
X300370Y97966D01*
X302090Y96974D01*
X304007Y96460D01*
X305993D01*
X307910Y96974D01*
X309630Y97966D01*
X311033Y99370D01*
X312026Y101090D01*
X312540Y103007D01*
Y104993D01*
X312026Y106910D01*
X311033Y108630D01*
X309630Y110034D01*
X307910Y111026D01*
X305993Y111540D01*
X304727D01*
X298634Y117634D01*
X296966Y118748D01*
X295000Y119139D01*
D02*
G37*
G36*
X826000Y146590D02*
X778000D01*
X777009Y146393D01*
X776169Y145831D01*
X775608Y144991D01*
X775411Y144000D01*
Y76000D01*
X775608Y75009D01*
X776169Y74169D01*
X777009Y73607D01*
X778000Y73410D01*
X826000D01*
X826992Y73607D01*
X827832Y74169D01*
X828393Y75009D01*
X828590Y76000D01*
Y144000D01*
X828393Y144991D01*
X827832Y145831D01*
X826992Y146393D01*
X826000Y146590D01*
D02*
G37*
G36*
X245743Y96040D02*
X243757D01*
X241840Y95526D01*
X240120Y94533D01*
X238717Y93129D01*
X237724Y91410D01*
X237210Y89492D01*
Y87507D01*
X237724Y85589D01*
X238717Y83870D01*
X239611Y82975D01*
Y72250D01*
X240002Y70283D01*
X241116Y68616D01*
X253366Y56366D01*
X255033Y55252D01*
X257000Y54861D01*
X275476D01*
X276370Y53966D01*
X278090Y52974D01*
X280007Y52460D01*
X281993D01*
X283910Y52974D01*
X285630Y53966D01*
X287034Y55370D01*
X288026Y57090D01*
X288540Y59007D01*
Y60993D01*
X288026Y62910D01*
X287034Y64630D01*
X285630Y66034D01*
X283910Y67026D01*
X281993Y67540D01*
X280007D01*
X278090Y67026D01*
X276370Y66034D01*
X275476Y65139D01*
X259128D01*
X249889Y74378D01*
Y82975D01*
X250784Y83870D01*
X251776Y85589D01*
X252290Y87507D01*
Y89492D01*
X251776Y91410D01*
X250784Y93129D01*
X249380Y94533D01*
X247660Y95526D01*
X245743Y96040D01*
D02*
G37*
G36*
X185915Y60947D02*
X174485D01*
X172751Y60602D01*
X171280Y59620D01*
X170298Y58149D01*
X169953Y56415D01*
Y44985D01*
X170298Y43251D01*
X171280Y41780D01*
X172751Y40798D01*
X174485Y40453D01*
X185915D01*
X187649Y40798D01*
X189120Y41780D01*
X190102Y43251D01*
X190447Y44985D01*
Y56415D01*
X190102Y58149D01*
X189120Y59620D01*
X187649Y60602D01*
X185915Y60947D01*
D02*
G37*
G36*
X95515D02*
X84085D01*
X82351Y60602D01*
X80880Y59620D01*
X79898Y58149D01*
X79553Y56415D01*
Y44985D01*
X79898Y43251D01*
X80880Y41780D01*
X82351Y40798D01*
X84085Y40453D01*
X95515D01*
X97249Y40798D01*
X98720Y41780D01*
X99702Y43251D01*
X100047Y44985D01*
Y56415D01*
X99702Y58149D01*
X98720Y59620D01*
X97249Y60602D01*
X95515Y60947D01*
D02*
G37*
G36*
X410538Y38160D02*
X410470D01*
Y29270D01*
X419360D01*
Y29338D01*
X418668Y31922D01*
X417330Y34238D01*
X415438Y36130D01*
X413122Y37468D01*
X410538Y38160D01*
D02*
G37*
G36*
X407930D02*
X407862D01*
X405278Y37468D01*
X402962Y36130D01*
X401070Y34238D01*
X399732Y31922D01*
X399040Y29338D01*
Y29270D01*
X407930D01*
Y38160D01*
D02*
G37*
G36*
X616580Y51040D02*
X613420D01*
X610321Y50424D01*
X607402Y49215D01*
X604775Y47459D01*
X602541Y45225D01*
X600785Y42598D01*
X599576Y39679D01*
X598960Y36580D01*
Y33420D01*
X599576Y30321D01*
X600785Y27402D01*
X602541Y24775D01*
X604775Y22541D01*
X607402Y20786D01*
X610321Y19576D01*
X613420Y18960D01*
X616580D01*
X619679Y19576D01*
X622598Y20786D01*
X625225Y22541D01*
X627459Y24775D01*
X629215Y27402D01*
X630424Y30321D01*
X631040Y33420D01*
Y36580D01*
X630424Y39679D01*
X629215Y42598D01*
X627459Y45225D01*
X625225Y47459D01*
X622598Y49215D01*
X619679Y50424D01*
X616580Y51040D01*
D02*
G37*
G36*
X36580D02*
X33420D01*
X30321Y50424D01*
X27402Y49215D01*
X24775Y47459D01*
X22541Y45225D01*
X20786Y42598D01*
X19576Y39679D01*
X18960Y36580D01*
Y33420D01*
X19576Y30321D01*
X20786Y27402D01*
X22541Y24775D01*
X24775Y22541D01*
X27402Y20786D01*
X30321Y19576D01*
X33420Y18960D01*
X36580D01*
X39679Y19576D01*
X42598Y20786D01*
X45225Y22541D01*
X47459Y24775D01*
X49215Y27402D01*
X50424Y30321D01*
X51040Y33420D01*
Y36580D01*
X50424Y39679D01*
X49215Y42598D01*
X47459Y45225D01*
X45225Y47459D01*
X42598Y49215D01*
X39679Y50424D01*
X36580Y51040D01*
D02*
G37*
G36*
X486738Y38160D02*
X484062D01*
X481478Y37468D01*
X479162Y36130D01*
X477270Y34238D01*
X475932Y31922D01*
X475240Y29338D01*
Y26662D01*
X475932Y24078D01*
X477270Y21762D01*
X479162Y19870D01*
X481478Y18532D01*
X484062Y17840D01*
X486738D01*
X489322Y18532D01*
X491638Y19870D01*
X493530Y21762D01*
X494868Y24078D01*
X495560Y26662D01*
Y29338D01*
X494868Y31922D01*
X493530Y34238D01*
X491638Y36130D01*
X489322Y37468D01*
X486738Y38160D01*
D02*
G37*
G36*
X435938D02*
X433262D01*
X430678Y37468D01*
X428362Y36130D01*
X426470Y34238D01*
X425132Y31922D01*
X424440Y29338D01*
Y26662D01*
X425132Y24078D01*
X426470Y21762D01*
X428362Y19870D01*
X430678Y18532D01*
X433262Y17840D01*
X435938D01*
X438522Y18532D01*
X440838Y19870D01*
X442730Y21762D01*
X444068Y24078D01*
X444760Y26662D01*
Y29338D01*
X444068Y31922D01*
X442730Y34238D01*
X440838Y36130D01*
X438522Y37468D01*
X435938Y38160D01*
D02*
G37*
G36*
X419360Y26730D02*
X410470D01*
Y17840D01*
X410538D01*
X413122Y18532D01*
X415438Y19870D01*
X417330Y21762D01*
X418668Y24078D01*
X419360Y26662D01*
Y26730D01*
D02*
G37*
G36*
X407930D02*
X399040D01*
Y26662D01*
X399732Y24078D01*
X401070Y21762D01*
X402962Y19870D01*
X405278Y18532D01*
X407862Y17840D01*
X407930D01*
Y26730D01*
D02*
G37*
%LPD*%
G36*
X464861Y317871D02*
Y299692D01*
X464484Y299385D01*
X462034Y299630D01*
X460630Y301033D01*
X458910Y302026D01*
X456993Y302540D01*
X455727D01*
X419634Y338634D01*
X417966Y339748D01*
X417395Y339861D01*
X417592Y341861D01*
X440872D01*
X464861Y317871D01*
D02*
G37*
D71*
X682000Y529000D02*
X820000D01*
X631000Y478000D02*
X682000Y529000D01*
X611000Y478000D02*
X631000D01*
X337000Y104000D02*
Y115000D01*
X330750Y121250D02*
X337000Y115000D01*
X344000Y300000D02*
X357000Y287000D01*
Y273000D02*
Y287000D01*
X348000Y264000D02*
X357000Y273000D01*
X348000Y222266D02*
Y264000D01*
X321000Y195266D02*
X348000Y222266D01*
X329193Y299807D02*
X341193D01*
X329000Y300000D02*
X329193Y299807D01*
X321000Y151000D02*
Y195266D01*
Y151000D02*
X330750Y141250D01*
Y121250D02*
Y141250D01*
X121000Y199000D02*
X155000D01*
X67000Y145000D02*
X121000Y199000D01*
X35000Y145000D02*
X67000D01*
D72*
X465040Y49319D02*
Y74960D01*
X460000Y44279D02*
X465040Y49319D01*
X432000Y108000D02*
Y137000D01*
Y108000D02*
X465040Y74960D01*
X460000Y28000D02*
Y44279D01*
X820300Y512300D02*
Y528700D01*
X794900Y512300D02*
Y528100D01*
X769500Y512300D02*
Y527500D01*
X744100Y512300D02*
Y528900D01*
X718700Y512300D02*
Y527700D01*
X693300Y512300D02*
Y528700D01*
X820000Y529000D02*
X820300Y528700D01*
X102700Y299300D02*
Y325300D01*
Y299300D02*
X130000Y272000D01*
X246000D01*
X136540Y284460D02*
X244877D01*
X116700Y304300D02*
X136540Y284460D01*
X116700Y304300D02*
Y345300D01*
X146000Y292000D02*
X248000D01*
X132700Y305300D02*
X146000Y292000D01*
X244877Y284460D02*
X297337Y232000D01*
X240000Y243000D02*
X261000Y222000D01*
X118000Y243000D02*
X240000D01*
X83000Y208000D02*
X118000Y243000D01*
X83000Y199000D02*
Y208000D01*
X101000Y261000D02*
X241000D01*
X62500Y222500D02*
X101000Y261000D01*
X62500Y210500D02*
Y222500D01*
X241000Y261000D02*
X281000Y221000D01*
X443000Y347000D02*
X470000Y320000D01*
X274000Y347000D02*
X443000D01*
X254700Y366300D02*
X274000Y347000D01*
X416000Y335000D02*
X456000Y295000D01*
X265000Y335000D02*
X416000D01*
X254700Y345300D02*
X265000Y335000D01*
X404700Y325300D02*
X448000Y282000D01*
X254700Y325300D02*
X404700D01*
X470000Y242000D02*
Y320000D01*
X414000Y274000D02*
X429000Y259000D01*
Y222000D02*
Y259000D01*
X415000Y208000D02*
X429000Y222000D01*
X435000Y207000D02*
X470000Y242000D01*
X448000Y236825D02*
Y282000D01*
X481000Y237000D02*
Y327000D01*
X491000Y224000D02*
Y336000D01*
X454950Y210950D02*
X481000Y237000D01*
X445000Y363000D02*
X481000Y327000D01*
X465250Y198250D02*
X491000Y224000D01*
X456460Y370540D02*
X491000Y336000D01*
X319700Y224000D02*
X332000D01*
X319350Y223650D02*
X319700Y224000D01*
X311000Y232000D02*
X319350Y223650D01*
X248000Y292000D02*
X291000Y249000D01*
X331000D01*
X220250Y114000D02*
X295000D01*
X305000Y104000D01*
X274700Y365300D02*
X283400Y374000D01*
X292000D01*
X303000Y363000D01*
X445000D01*
X311460Y370540D02*
X456460D01*
X296700Y385300D02*
X311460Y370540D01*
X297337Y232000D02*
X311000D01*
X292000Y206939D02*
Y226000D01*
X246000Y272000D02*
X292000Y226000D01*
X283061Y198000D02*
X292000Y206939D01*
X108060Y163940D02*
X127810Y144190D01*
X585000Y224873D02*
Y334873D01*
X605000D02*
Y444873D01*
Y224873D02*
Y334873D01*
X127810Y108190D02*
Y144190D01*
X211250Y58000D02*
Y105000D01*
X220250Y114000D01*
X244750Y72250D02*
X257000Y60000D01*
X244750Y72250D02*
Y88500D01*
X257000Y60000D02*
X281000D01*
X453000Y180000D02*
X475000D01*
X496000Y201000D01*
X448750Y198250D02*
X465250D01*
X415000Y154000D02*
Y208000D01*
X435000Y159000D02*
Y207000D01*
X415000Y154000D02*
X432000Y137000D01*
X418000Y85000D02*
Y137663D01*
X383800Y50800D02*
X418000Y85000D01*
X383800Y28000D02*
Y50800D01*
X403000Y95000D02*
Y142000D01*
X358400Y50400D02*
X403000Y95000D01*
X358400Y28000D02*
Y50400D01*
X388500Y104500D02*
Y136500D01*
X333000Y49000D02*
X388500Y104500D01*
X333000Y28000D02*
Y49000D01*
X404000Y151663D02*
X418000Y137663D01*
X381000Y164000D02*
X403000Y142000D01*
X367000Y158000D02*
X388500Y136500D01*
X393000Y186000D02*
X404000Y175000D01*
Y151663D02*
Y175000D01*
X351000Y159000D02*
X376000Y134000D01*
Y116000D02*
Y134000D01*
X274700Y385300D02*
X296700D01*
X367000Y158000D02*
Y191000D01*
X351000Y159000D02*
Y190000D01*
X342750Y198250D02*
X351000Y190000D01*
X496000Y201000D02*
X514000D01*
X585000Y334873D02*
Y444873D01*
X254700Y366300D02*
Y405300D01*
D77*
X604500Y478000D02*
D03*
D94*
X693300Y512300D02*
D03*
X718700D02*
D03*
X744100D02*
D03*
X769500D02*
D03*
X794900D02*
D03*
X820300D02*
D03*
X693300Y486900D02*
D03*
X718700D02*
D03*
X744100D02*
D03*
X769500D02*
D03*
X794900D02*
D03*
X820300D02*
D03*
X693300Y461500D02*
D03*
X718700D02*
D03*
X744100D02*
D03*
X769500D02*
D03*
X794900D02*
D03*
X820300D02*
D03*
X693300Y436100D02*
D03*
X718700D02*
D03*
X744100D02*
D03*
X769500D02*
D03*
X794900D02*
D03*
X820300D02*
D03*
X693300Y410700D02*
D03*
X718700D02*
D03*
X744100D02*
D03*
X769500D02*
D03*
X794900D02*
D03*
X820300D02*
D03*
X693300Y385300D02*
D03*
X718700D02*
D03*
X744100D02*
D03*
X769500D02*
D03*
X794900D02*
D03*
X820300D02*
D03*
X693300Y359900D02*
D03*
X718700D02*
D03*
X744100D02*
D03*
X769500D02*
D03*
X794900D02*
D03*
X820300D02*
D03*
X693300Y334500D02*
D03*
X718700D02*
D03*
X744100D02*
D03*
X769500D02*
D03*
X794900D02*
D03*
X820300D02*
D03*
X693300Y309100D02*
D03*
X718700D02*
D03*
X744100D02*
D03*
X769500D02*
D03*
X794900D02*
D03*
X820300D02*
D03*
X693300Y283700D02*
D03*
X718700D02*
D03*
X744100D02*
D03*
X769500D02*
D03*
X794900D02*
D03*
X820300D02*
D03*
X693300Y258300D02*
D03*
X718700D02*
D03*
X744100D02*
D03*
X769500D02*
D03*
X794900D02*
D03*
X820300D02*
D03*
X693300Y232900D02*
D03*
X718700D02*
D03*
X744100D02*
D03*
X769500D02*
D03*
X794900D02*
D03*
X820300D02*
D03*
Y207500D02*
D03*
X794900D02*
D03*
X769500D02*
D03*
X744100D02*
D03*
X718700D02*
D03*
X693300D02*
D03*
X388500Y410700D02*
D03*
Y385300D02*
D03*
Y461500D02*
D03*
Y436100D02*
D03*
X337700Y410700D02*
D03*
X363100D02*
D03*
X337700Y385300D02*
D03*
X363100D02*
D03*
X337700Y461500D02*
D03*
X363100D02*
D03*
X413900Y410700D02*
D03*
X439300D02*
D03*
X413900Y385300D02*
D03*
X439300D02*
D03*
X413900Y461500D02*
D03*
X439300D02*
D03*
X337700Y436100D02*
D03*
X363100D02*
D03*
X413900D02*
D03*
X439300D02*
D03*
X464700Y410700D02*
D03*
Y385300D02*
D03*
Y461500D02*
D03*
Y436100D02*
D03*
X540900Y537700D02*
D03*
Y512300D02*
D03*
X566300Y537700D02*
D03*
Y512300D02*
D03*
X490100Y537700D02*
D03*
Y512300D02*
D03*
X515500Y537700D02*
D03*
Y512300D02*
D03*
X439300Y537700D02*
D03*
Y512300D02*
D03*
X464700Y537700D02*
D03*
Y512300D02*
D03*
X388500Y537700D02*
D03*
Y512300D02*
D03*
X413900Y537700D02*
D03*
Y512300D02*
D03*
X337700Y537700D02*
D03*
Y512300D02*
D03*
X363100Y537700D02*
D03*
Y512300D02*
D03*
X286900Y537700D02*
D03*
Y512300D02*
D03*
X312300Y537700D02*
D03*
Y512300D02*
D03*
X236100Y537700D02*
D03*
Y512300D02*
D03*
X261500Y537700D02*
D03*
Y512300D02*
D03*
X185300Y537700D02*
D03*
Y512300D02*
D03*
X210700Y537700D02*
D03*
Y512300D02*
D03*
X134500Y537700D02*
D03*
Y512300D02*
D03*
X159900Y537700D02*
D03*
Y512300D02*
D03*
X109100D02*
D03*
Y537700D02*
D03*
X83700Y512300D02*
D03*
Y537700D02*
D03*
D95*
X89800Y50700D02*
D03*
X180180Y13970D02*
D03*
X89820D02*
D03*
X180200Y50700D02*
D03*
D96*
X383800Y28000D02*
D03*
X409200D02*
D03*
X358400D02*
D03*
X485400D02*
D03*
X460000D02*
D03*
X434600D02*
D03*
D97*
X333000D02*
D03*
D98*
X585000Y334873D02*
D03*
Y224873D02*
D03*
Y444873D02*
D03*
D99*
X605000Y334873D02*
D03*
X625000D02*
D03*
X645000Y335127D02*
D03*
X605000Y224873D02*
D03*
X625000D02*
D03*
X645000Y225127D02*
D03*
X605000Y444873D02*
D03*
X625000D02*
D03*
X645000Y445127D02*
D03*
D100*
X35000Y125000D02*
D03*
D101*
Y145000D02*
D03*
D102*
X305000Y395000D02*
D03*
Y415000D02*
D03*
Y435000D02*
D03*
Y455000D02*
D03*
X285000D02*
D03*
Y435000D02*
D03*
Y415000D02*
D03*
X545000Y445000D02*
D03*
Y425000D02*
D03*
X525000D02*
D03*
Y405000D02*
D03*
X545000D02*
D03*
Y385000D02*
D03*
X525000D02*
D03*
Y365000D02*
D03*
X545000D02*
D03*
Y345000D02*
D03*
Y325000D02*
D03*
X525000Y305000D02*
D03*
Y325000D02*
D03*
Y345000D02*
D03*
X505000D02*
D03*
Y325000D02*
D03*
Y305000D02*
D03*
X25000Y265000D02*
D03*
X65000Y175000D02*
D03*
X75000Y265000D02*
D03*
Y285000D02*
D03*
X45000Y385000D02*
D03*
Y405000D02*
D03*
Y425000D02*
D03*
X105000Y445000D02*
D03*
Y365000D02*
D03*
Y385000D02*
D03*
Y405000D02*
D03*
X125000Y365000D02*
D03*
Y385000D02*
D03*
Y405000D02*
D03*
Y425000D02*
D03*
Y445000D02*
D03*
X145000D02*
D03*
X165000D02*
D03*
X185000Y425000D02*
D03*
X165000D02*
D03*
X145000D02*
D03*
Y405000D02*
D03*
X165000D02*
D03*
X185000D02*
D03*
Y385000D02*
D03*
X165000D02*
D03*
X145000D02*
D03*
Y325000D02*
D03*
Y345000D02*
D03*
Y365000D02*
D03*
X185000D02*
D03*
X165000D02*
D03*
Y345000D02*
D03*
X185000D02*
D03*
Y325000D02*
D03*
X165000D02*
D03*
Y305000D02*
D03*
X265000Y295000D02*
D03*
Y315000D02*
D03*
X285000D02*
D03*
Y295000D02*
D03*
Y275000D02*
D03*
X375000Y305000D02*
D03*
X395000D02*
D03*
X385000Y315000D02*
D03*
X655000Y465000D02*
D03*
Y415000D02*
D03*
Y395000D02*
D03*
Y375000D02*
D03*
Y355000D02*
D03*
X565000Y185000D02*
D03*
X575000Y205000D02*
D03*
X595000D02*
D03*
X615000D02*
D03*
X635000D02*
D03*
X655000D02*
D03*
Y315000D02*
D03*
Y295000D02*
D03*
Y275000D02*
D03*
X505000Y235000D02*
D03*
Y215000D02*
D03*
X525000D02*
D03*
Y235000D02*
D03*
Y255000D02*
D03*
X545000D02*
D03*
Y235000D02*
D03*
Y215000D02*
D03*
X665000Y185000D02*
D03*
X645000D02*
D03*
X625000D02*
D03*
X605000D02*
D03*
X585000D02*
D03*
X735000Y115000D02*
D03*
X715000D02*
D03*
Y95000D02*
D03*
X735000D02*
D03*
X755000D02*
D03*
Y115000D02*
D03*
Y135000D02*
D03*
X735000D02*
D03*
X715000D02*
D03*
X585000Y55000D02*
D03*
X565000D02*
D03*
X545000D02*
D03*
X525000D02*
D03*
X505000D02*
D03*
X485000D02*
D03*
X455000D02*
D03*
X575000Y45000D02*
D03*
X555000D02*
D03*
X535000D02*
D03*
X515000D02*
D03*
X495000D02*
D03*
X475000D02*
D03*
X415000D02*
D03*
X395000D02*
D03*
X295000D02*
D03*
Y25000D02*
D03*
X275000D02*
D03*
Y45000D02*
D03*
X255000D02*
D03*
X254960Y24960D02*
D03*
X155000Y25000D02*
D03*
X135000D02*
D03*
X115000D02*
D03*
X65000D02*
D03*
Y45000D02*
D03*
Y65000D02*
D03*
X45000D02*
D03*
X25000D02*
D03*
X211250Y69000D02*
D03*
Y58000D02*
D03*
X598000Y478000D02*
D03*
X611000D02*
D03*
X330750Y104000D02*
D03*
X336652Y312348D02*
D03*
X344000Y300000D02*
D03*
X329000D02*
D03*
X233000Y185000D02*
D03*
X102700Y325300D02*
D03*
X116700Y345300D02*
D03*
X132700Y305300D02*
D03*
X83000Y199000D02*
D03*
X261000Y222000D02*
D03*
X456000Y295000D02*
D03*
X456450Y312550D02*
D03*
X332000Y224000D02*
D03*
X331000Y249000D02*
D03*
X657000Y81000D02*
D03*
X342750Y104000D02*
D03*
X67000Y111490D02*
D03*
X503860Y139000D02*
D03*
X337850Y161000D02*
D03*
X577480Y100760D02*
D03*
X267000Y125000D02*
D03*
X268000Y136000D02*
D03*
X281000Y221000D02*
D03*
X283061Y198000D02*
D03*
X142000Y199000D02*
D03*
X155000D02*
D03*
X108060Y163940D02*
D03*
X133060Y176940D02*
D03*
X128000Y108000D02*
D03*
X83250Y83500D02*
D03*
X98000Y66000D02*
D03*
X172000D02*
D03*
X305000Y104000D02*
D03*
X244750Y88500D02*
D03*
X281000Y60000D02*
D03*
X453000Y180000D02*
D03*
X448750Y198250D02*
D03*
X454950Y210950D02*
D03*
X435000Y159000D02*
D03*
X62500Y210500D02*
D03*
X35000Y235000D02*
D03*
X50000Y234500D02*
D03*
X376000Y116000D02*
D03*
X342750Y198250D02*
D03*
X671000Y127000D02*
D03*
Y87000D02*
D03*
X414000Y274000D02*
D03*
X448000Y236825D02*
D03*
X393000Y186000D02*
D03*
X367000Y191000D02*
D03*
X514000Y201000D02*
D03*
X737000Y47000D02*
D03*
X721000D02*
D03*
X747000Y173000D02*
D03*
X731000D02*
D03*
X801000D02*
D03*
X761000D02*
D03*
X777000D02*
D03*
X793250Y14000D02*
D03*
X809250Y30000D02*
D03*
X818000Y173000D02*
D03*
X201350Y305300D02*
D03*
Y445300D02*
D03*
X103450Y425300D02*
D03*
X254700Y405300D02*
D03*
X274700Y385300D02*
D03*
Y365300D02*
D03*
X254700Y345300D02*
D03*
Y325300D02*
D03*
X381000Y164000D02*
D03*
D103*
X376800Y219850D02*
D03*
X393300Y236350D02*
D03*
Y219850D02*
D03*
X376800Y236350D02*
D03*
X401500Y244650D02*
D03*
X385000D02*
D03*
X368500D02*
D03*
X401500Y228050D02*
D03*
X385000D02*
D03*
X368500D02*
D03*
X393300Y252950D02*
D03*
X376800D02*
D03*
D104*
X337500Y104000D02*
D03*
M02*
