M48
;Layer_Color=6321
;FILE_FORMAT=4:4
METRIC,LZ
;TYPE=PLATED
T1F00S00C0.3300
T2F00S00C0.5000
T4F00S00C0.7000
T5F00S00C0.8000
T6F00S00C0.8890
T7F00S00C1.0200
;TYPE=NON_PLATED
T9F00S00C2.7000
%
T01
X003685Y0022805
X003768Y0021985
X00385Y0022805
X003933Y0021985
X004015Y0022805
X003933Y0023635
X003768
X00385Y0024465
X003768Y0025295
X003933
X004015Y0024465
X003685
T02
X0079325Y00014
X0080925Y0003
X00295Y00025
X00275
X0025496Y0002496
X00155Y00025
X00135
X00115
X00065
X00025Y00065
X00035Y00235
X00025Y00265
X00075
Y00285
X001027Y003253
X001167Y003453
X00125Y00365
X00105
Y00385
Y00405
X00125
Y00385
X00145
Y00405
X00165
Y00385
X00185
Y00405
Y00425
X00165
X00145
X00125
X0010345Y004253
X00045Y00425
Y00405
Y00385
X00145Y00365
X00165
X00185
Y00345
Y00325
X00165
X00145
Y00345
X00165
Y00305
X001327Y003053
X0020135
X00265Y00315
Y00295
X00285
Y00275
Y00315
X002547Y003253
Y003453
X002747Y003653
Y003853
X00305Y00395
Y00415
Y00435
X00285
Y00415
X002547Y004053
X00336652Y00312348
X00344Y003
X00329
X00375Y00305
X00395
X00385Y00315
X00414Y00274
X00331Y00249
X00332Y00224
X0034275Y0019825
X00367Y00191
X00393Y00186
X00381Y00164
X0033785Y00161
X0034275Y00104
X0033075
X00305
X00267Y00125
X00268Y00136
X0024475Y000885
X0021125Y00069
Y00058
X00172Y00066
X00098
X0008325Y000835
X00065Y00065
Y00045
X00045Y00065
X00067Y0011149
X00128Y00108
X0013306Y0017694
X00142Y00199
X00155
X00083
X000625Y002105
X0005Y002345
X00065Y00175
X0010806Y0016394
X00233Y00185
X00283061Y00198
X00281Y00221
X00261Y00222
X00281Y0006
X00275Y00045
X00295
X00255
X00395
X00415
X00376Y00116
X00435Y00159
X00453Y0018
X0044875Y0019825
X0045495Y0021095
X00448Y00236825
X00505Y00235
Y00215
X00525
X00545
Y00235
X00525
Y00255
X00545
X00525Y00305
Y00325
X00545
Y00345
X00525
Y00365
X00545
Y00385
Y00405
X00525
Y00385
Y00425
X00545
X00505Y00345
Y00325
Y00305
X0045645Y0031255
X00456Y00295
X00514Y00201
X00575Y00205
X00595
X00615
X00635
X00655
X00665Y00185
X00645
X00625
X00605
X00585
X00565
X0057748Y0010076
X00585Y00055
X00565
X00545
X00525
X00535Y00045
X00515
X00505Y00055
X00485
X00475Y00045
X00495
X00455Y00055
X00555Y00045
X00575
X00657Y00081
X00671Y00087
Y00127
X00715Y00135
X00735
Y00115
X00715
Y00095
X00735
X00755
Y00115
Y00135
X00761Y00173
X00747
X00731
X00777
X00801
X00818
X00737Y00047
X00721
X00655Y00275
Y00295
Y00315
Y00355
Y00375
Y00395
Y00415
X0050386Y00139
X00545Y00445
X00598Y00478
X00611
X00655Y00465
X00305Y00455
X00285
X0020135Y004453
X00165Y00445
X00145
X00125
X00105
T04
X00585Y00224873
X00605
X00625
X00645Y00225127
Y00335127
X00625Y00334873
X00605
X00585
Y00444873
X00605
X00625
X00645Y00445127
T05
X00035Y00125
Y00145
T06
X0046Y00028
X004854
X004346
X004092
X003838
X003584
X00333
T07
X003377Y003853
Y004107
X003631
X003885
Y003853
X003631
X004139
Y004107
X004393
Y003853
Y004361
X004139
X003885
X003631
X003377
X004647
Y004107
Y003853
X006933
Y004107
Y004361
X007187
X007441
X007695
X007949
X008203
Y004107
X007949
X007695
X007441
X007187
Y003853
X007441
X007695
X007949
X008203
Y003599
X007949
X007695
X007441
X007187
X006933
Y003345
X007187
X007441
X007695
X007949
X008203
Y003091
X007949
X007695
X007441
X007187
X006933
Y002837
X007187
X007441
X007695
X007949
X008203
Y002583
X007949
X007695
X007441
X007187
X006933
Y002329
X007187
X007441
X007695
X007949
X008203
Y002075
X007949
X007695
X007441
X007187
X006933
Y004615
Y004869
Y005123
X007187
X007441
X007695
X007949
X008203
Y004869
X007949
X007695
X007441
X007187
Y004615
X007441
X007695
X007949
X008203
X005663Y005123
X005409
Y005377
X005663
X005155
X004901
Y005123
X005155
X004647
Y005377
Y004615
X004393
X004139
X003885
X003631
X003377
Y005123
Y005377
X003631
X003885
Y005123
X004139
X004393
Y005377
X004139
X003631Y005123
X003123
X002869
Y005377
X003123
X002615
X002361
Y005123
X002615
X002107
X001853
Y005377
X002107
X001599
X001345
Y005123
X001599
X001091
Y005377
X000837
Y005123
T09
X00615Y00035
X00035
X00615Y00525
X00035
M30
