G04*
G04 #@! TF.GenerationSoftware,Altium Limited,CircuitMaker,2.2.1 (2.2.1.6)*
G04*
G04 Layer_Color=7318015*
%FSLAX44Y44*%
%MOMM*%
G71*
G04*
G04 #@! TF.SameCoordinates,4DC394B6-E11D-4AB0-B304-EE3890279FAF*
G04*
G04*
G04 #@! TF.FilePolarity,Positive*
G04*
G01*
G75*
%ADD15R,0.8000X0.9000*%
%ADD16R,0.8128X0.8890*%
%ADD17R,0.7000X0.8500*%
%ADD18R,1.3000X1.8000*%
%ADD19R,0.8500X0.7000*%
%ADD20R,0.6000X0.9000*%
%ADD21R,1.5000X1.0000*%
%ADD22R,0.6000X1.1000*%
%ADD23R,1.1000X0.5499*%
%ADD24R,0.9000X3.9000*%
%ADD25R,1.6500X1.8000*%
%ADD26R,1.5000X0.7000*%
%ADD27R,0.7000X1.5000*%
%ADD28R,1.0000X1.5000*%
%ADD29R,0.8890X0.8128*%
%ADD30R,2.0000X0.9000*%
%ADD31R,0.9000X2.0000*%
%ADD32R,1.3300X1.3300*%
%ADD33R,2.4000X1.4000*%
%ADD34R,0.9000X0.8000*%
%ADD35R,0.8128X1.2700*%
%ADD36R,0.7620X1.2700*%
%ADD37R,0.7112X1.2700*%
G36*
X299750Y52500D02*
X292750Y59500D01*
Y84500D01*
X299750Y91500D01*
Y52500D01*
D02*
G37*
G36*
X330750Y91500D02*
X337750Y84500D01*
Y59500D01*
X330750Y52500D01*
Y91500D01*
D02*
G37*
D15*
X226750Y69000D02*
D03*
X239250D02*
D03*
X293250Y104000D02*
D03*
X280750D02*
D03*
X244750D02*
D03*
X257250D02*
D03*
X244750Y135000D02*
D03*
X257250D02*
D03*
X244750Y119000D02*
D03*
X257250D02*
D03*
D16*
X209000Y201380D02*
D03*
Y216620D02*
D03*
X98250Y94130D02*
D03*
Y109370D02*
D03*
X619240Y116000D02*
D03*
Y100760D02*
D03*
D17*
X209000Y185000D02*
D03*
X221500D02*
D03*
X239250Y53000D02*
D03*
X226750D02*
D03*
X239250Y37000D02*
D03*
X226750D02*
D03*
X642750Y98000D02*
D03*
X655250D02*
D03*
X642750Y166000D02*
D03*
X655250D02*
D03*
X716750Y31000D02*
D03*
X729250D02*
D03*
X642750Y116000D02*
D03*
X655250D02*
D03*
X642750Y150000D02*
D03*
X655250D02*
D03*
X642750Y134000D02*
D03*
X655250D02*
D03*
X588740Y100760D02*
D03*
X601240D02*
D03*
X515120Y139000D02*
D03*
X527620D02*
D03*
X572500Y378496D02*
D03*
X585000D02*
D03*
X572500Y268496D02*
D03*
X585000D02*
D03*
X617500D02*
D03*
X605000D02*
D03*
X617500Y378496D02*
D03*
X605000D02*
D03*
X617500Y401250D02*
D03*
X605000D02*
D03*
X572500D02*
D03*
X585000D02*
D03*
D18*
X415500Y65000D02*
D03*
X384500D02*
D03*
D19*
X67000Y135250D02*
D03*
Y122750D02*
D03*
X83250Y108000D02*
D03*
Y95500D02*
D03*
X133060Y165440D02*
D03*
Y152940D02*
D03*
X113250Y95500D02*
D03*
Y108000D02*
D03*
X83250Y135250D02*
D03*
Y122750D02*
D03*
X35000Y197500D02*
D03*
Y185000D02*
D03*
Y223500D02*
D03*
Y211000D02*
D03*
D20*
X116560Y152940D02*
D03*
X97560D02*
D03*
Y176940D02*
D03*
X107060D02*
D03*
X116560D02*
D03*
D21*
X223000Y133500D02*
D03*
Y104500D02*
D03*
X193000D02*
D03*
Y133500D02*
D03*
X163000Y104500D02*
D03*
Y133500D02*
D03*
D22*
X172000Y179000D02*
D03*
X181500Y161000D02*
D03*
X162500D02*
D03*
D23*
X281000Y69500D02*
D03*
Y79000D02*
D03*
Y88500D02*
D03*
X257000D02*
D03*
Y69500D02*
D03*
D24*
X326250Y72000D02*
D03*
X304250D02*
D03*
D25*
X768750Y30000D02*
D03*
X793250D02*
D03*
D26*
X690000Y110000D02*
D03*
Y120000D02*
D03*
Y130000D02*
D03*
Y100000D02*
D03*
Y90000D02*
D03*
D27*
X804000Y66000D02*
D03*
X784000D02*
D03*
X794000D02*
D03*
X774000D02*
D03*
X764000D02*
D03*
X754000D02*
D03*
X744000D02*
D03*
X734000D02*
D03*
X724000D02*
D03*
X714000D02*
D03*
X704000D02*
D03*
X694000D02*
D03*
Y154000D02*
D03*
X704000D02*
D03*
X714000D02*
D03*
X724000D02*
D03*
X734000D02*
D03*
X744000D02*
D03*
X754000D02*
D03*
X764000D02*
D03*
X774000D02*
D03*
X794000D02*
D03*
X784000D02*
D03*
X804000D02*
D03*
D28*
X815500Y66000D02*
D03*
Y154000D02*
D03*
D29*
X512380Y160000D02*
D03*
X527620D02*
D03*
D30*
X480000Y312550D02*
D03*
Y299850D02*
D03*
Y287150D02*
D03*
Y274450D02*
D03*
Y261750D02*
D03*
Y249050D02*
D03*
Y236350D02*
D03*
Y223650D02*
D03*
Y210950D02*
D03*
Y198250D02*
D03*
Y185550D02*
D03*
Y172850D02*
D03*
Y160150D02*
D03*
Y147450D02*
D03*
X310000D02*
D03*
Y160150D02*
D03*
Y172850D02*
D03*
Y185550D02*
D03*
Y198250D02*
D03*
Y210950D02*
D03*
Y223650D02*
D03*
Y236350D02*
D03*
Y249050D02*
D03*
Y261750D02*
D03*
Y274450D02*
D03*
Y287150D02*
D03*
Y299850D02*
D03*
Y312550D02*
D03*
D31*
X452150Y137450D02*
D03*
X439450D02*
D03*
X426750D02*
D03*
X414050D02*
D03*
X401350D02*
D03*
X388650D02*
D03*
X375950D02*
D03*
X363250D02*
D03*
X350550D02*
D03*
X337850D02*
D03*
D32*
X385000Y236350D02*
D03*
Y252950D02*
D03*
Y219850D02*
D03*
X401500D02*
D03*
Y252950D02*
D03*
Y236350D02*
D03*
X368500Y219850D02*
D03*
Y252950D02*
D03*
Y236350D02*
D03*
D33*
X224900Y305300D02*
D03*
Y325300D02*
D03*
Y345300D02*
D03*
Y365300D02*
D03*
Y385300D02*
D03*
Y405300D02*
D03*
Y425300D02*
D03*
Y445300D02*
D03*
X79900Y305300D02*
D03*
Y325300D02*
D03*
Y345300D02*
D03*
Y365300D02*
D03*
Y385300D02*
D03*
Y405300D02*
D03*
Y425300D02*
D03*
D34*
X50000Y210500D02*
D03*
Y223000D02*
D03*
D35*
X107568Y54610D02*
D03*
X162432D02*
D03*
D36*
X119760D02*
D03*
X129920D02*
D03*
D37*
X140080D02*
D03*
X150240D02*
D03*
M02*
