G04*
G04 #@! TF.GenerationSoftware,Altium Limited,CircuitMaker,2.2.1 (2.2.1.6)*
G04*
G04 Layer_Physical_Order=1*
G04 Layer_Color=25308*
%FSLAX44Y44*%
%MOMM*%
G71*
G04*
G04 #@! TF.SameCoordinates,4DC394B6-E11D-4AB0-B304-EE3890279FAF*
G04*
G04*
G04 #@! TF.FilePolarity,Positive*
G04*
G01*
G75*
%ADD11C,0.2540*%
%ADD15R,0.8000X0.9000*%
%ADD16R,0.8128X0.8890*%
%ADD17R,0.7000X0.8500*%
%ADD18R,1.3000X1.8000*%
%ADD19R,0.8500X0.7000*%
%ADD20R,0.6000X0.9000*%
%ADD21R,1.5000X1.0000*%
%ADD22R,0.6000X1.1000*%
%ADD23R,1.1000X0.5499*%
%ADD24R,0.9000X3.9000*%
%ADD25R,1.6500X1.8000*%
%ADD26R,1.5000X0.7000*%
%ADD27R,0.7000X1.5000*%
%ADD28R,1.0000X1.5000*%
%ADD29R,0.8890X0.8128*%
%ADD30R,2.0000X0.9000*%
%ADD31R,0.9000X2.0000*%
%ADD32R,1.3300X1.3300*%
%ADD33R,2.4000X1.4000*%
%ADD34R,0.9000X0.8000*%
%ADD35R,0.8128X1.2700*%
%ADD36R,0.7620X1.2700*%
%ADD37R,0.7112X1.2700*%
%ADD71C,1.0000*%
%ADD72C,0.5000*%
%ADD73C,0.7000*%
%ADD74C,0.8000*%
%ADD75C,0.6000*%
%ADD76C,0.4000*%
%ADD77R,1.3000X1.0000*%
%ADD78R,3.9000X3.6000*%
%ADD79R,2.5250X1.0000*%
%ADD80R,5.8000X1.0000*%
%ADD81R,1.0000X4.0000*%
%ADD82R,3.4250X1.1250*%
%ADD83R,1.0750X5.4000*%
%ADD84R,13.8000X1.2750*%
%ADD85R,2.5000X2.8000*%
%ADD86R,1.0000X2.1000*%
%ADD87R,1.0000X4.3000*%
%ADD88R,2.2000X4.6000*%
%ADD89R,3.2000X0.5000*%
%ADD90R,2.0000X5.4000*%
%ADD91R,5.7750X1.2000*%
%ADD92R,1.0000X4.2000*%
%ADD93R,3.0000X0.8000*%
%ADD94C,1.5500*%
G04:AMPARAMS|DCode=95|XSize=1.524mm|YSize=1.524mm|CornerRadius=0.1905mm|HoleSize=0mm|Usage=FLASHONLY|Rotation=0.000|XOffset=0mm|YOffset=0mm|HoleType=Round|Shape=RoundedRectangle|*
%AMROUNDEDRECTD95*
21,1,1.5240,1.1430,0,0,0.0*
21,1,1.1430,1.5240,0,0,0.0*
1,1,0.3810,0.5715,-0.5715*
1,1,0.3810,-0.5715,-0.5715*
1,1,0.3810,-0.5715,0.5715*
1,1,0.3810,0.5715,0.5715*
%
%ADD95ROUNDEDRECTD95*%
%ADD96C,1.5240*%
%ADD97R,1.5240X1.5240*%
%ADD98R,1.2000X1.2000*%
%ADD99C,1.2000*%
%ADD100C,1.5000*%
G04:AMPARAMS|DCode=101|XSize=1.5mm|YSize=1.5mm|CornerRadius=0.1875mm|HoleSize=0mm|Usage=FLASHONLY|Rotation=90.000|XOffset=0mm|YOffset=0mm|HoleType=Round|Shape=RoundedRectangle|*
%AMROUNDEDRECTD101*
21,1,1.5000,1.1250,0,0,90.0*
21,1,1.1250,1.5000,0,0,90.0*
1,1,0.3750,0.5625,0.5625*
1,1,0.3750,0.5625,-0.5625*
1,1,0.3750,-0.5625,-0.5625*
1,1,0.3750,-0.5625,0.5625*
%
%ADD101ROUNDEDRECTD101*%
%ADD102C,1.0000*%
%ADD103C,0.6800*%
G36*
X824211Y556585D02*
X828317Y555599D01*
X832220Y553982D01*
X835821Y551776D01*
X839033Y549033D01*
X841776Y545821D01*
X843982Y542220D01*
X845599Y538317D01*
X846585Y534211D01*
X846763Y531943D01*
X846900Y530000D01*
X846900Y530000D01*
X846900Y528033D01*
Y30000D01*
X846912Y29944D01*
X846585Y25789D01*
X845599Y21683D01*
X843982Y17780D01*
X841776Y14179D01*
X839033Y10968D01*
X835821Y8224D01*
X832220Y6018D01*
X828317Y4401D01*
X824211Y3415D01*
X821943Y3237D01*
X820000Y3100D01*
X820000Y3100D01*
X818033Y3100D01*
X473775D01*
X473096Y5100D01*
X473778Y5622D01*
X485995Y17840D01*
X486738D01*
X489322Y18532D01*
X491638Y19870D01*
X493530Y21762D01*
X494868Y24078D01*
X495560Y26662D01*
Y29338D01*
X494868Y31922D01*
X493530Y34238D01*
X491638Y36130D01*
X489322Y37468D01*
X486738Y38160D01*
X484062D01*
X481478Y37468D01*
X479162Y36130D01*
X477270Y34238D01*
X475932Y31922D01*
X475240Y29338D01*
Y28595D01*
X471837Y25192D01*
X470043Y26227D01*
X470160Y26662D01*
Y29338D01*
X469468Y31922D01*
X468130Y34238D01*
X466238Y36130D01*
X463922Y37468D01*
X461338Y38160D01*
X458662D01*
X456078Y37468D01*
X453762Y36130D01*
X451870Y34238D01*
X450532Y31922D01*
X449840Y29338D01*
Y26662D01*
X450532Y24078D01*
X451870Y21762D01*
X453027Y20605D01*
X452198Y18605D01*
X442402D01*
X441573Y20605D01*
X442730Y21762D01*
X444068Y24078D01*
X444760Y26662D01*
Y29338D01*
X444068Y31922D01*
X442730Y34238D01*
X442205Y34763D01*
Y56400D01*
X441946Y58368D01*
X441186Y60202D01*
X439978Y61778D01*
X431378Y70378D01*
X429803Y71586D01*
X427968Y72346D01*
X426000Y72605D01*
X424540D01*
Y76540D01*
X406460D01*
Y53460D01*
X424540D01*
Y53460D01*
X425194Y53731D01*
X426995Y52372D01*
Y34763D01*
X426470Y34238D01*
X425132Y31922D01*
X424440Y29338D01*
Y26662D01*
X425132Y24078D01*
X426470Y21762D01*
X427626Y20605D01*
X426798Y18605D01*
X417002D01*
X416174Y20605D01*
X417330Y21762D01*
X418668Y24078D01*
X419360Y26662D01*
Y26730D01*
X399040D01*
Y26662D01*
X399732Y24078D01*
X401070Y21762D01*
X402226Y20605D01*
X401398Y18605D01*
X391602D01*
X390774Y20605D01*
X391930Y21762D01*
X393268Y24078D01*
X393960Y26662D01*
Y29338D01*
X393268Y31922D01*
X391930Y34238D01*
X390038Y36130D01*
X387722Y37468D01*
X385138Y38160D01*
X382462D01*
X379878Y37468D01*
X377562Y36130D01*
X375670Y34238D01*
X374332Y31922D01*
X373640Y29338D01*
Y26662D01*
X374332Y24078D01*
X375670Y21762D01*
X376827Y20605D01*
X375998Y18605D01*
X366202D01*
X365373Y20605D01*
X366530Y21762D01*
X367868Y24078D01*
X368560Y26662D01*
Y29338D01*
X367868Y31922D01*
X366530Y34238D01*
X364638Y36130D01*
X362322Y37468D01*
X359738Y38160D01*
X357062D01*
X354478Y37468D01*
X352162Y36130D01*
X350270Y34238D01*
X348932Y31922D01*
X348240Y29338D01*
Y26662D01*
X348932Y24078D01*
X350270Y21762D01*
X351427Y20605D01*
X350598Y18605D01*
X343160D01*
Y38160D01*
X322840D01*
Y18605D01*
X222737D01*
X203605Y37737D01*
Y42822D01*
X205250Y44410D01*
X218967D01*
X220710Y43790D01*
Y38270D01*
X226750D01*
Y37000D01*
X228020D01*
Y30210D01*
X231817D01*
X231857Y30009D01*
X232419Y29169D01*
X233259Y28607D01*
X234250Y28410D01*
X244250D01*
X245241Y28607D01*
X246081Y29169D01*
X246643Y30009D01*
X246840Y31000D01*
Y64362D01*
X248960D01*
Y64211D01*
X265040D01*
Y74790D01*
X248960D01*
Y74639D01*
X246713D01*
X246643Y74991D01*
X246081Y75831D01*
X245790Y76026D01*
Y76040D01*
X245769D01*
X245241Y76393D01*
X244250Y76590D01*
X234250D01*
X233259Y76393D01*
X232731Y76040D01*
X232610D01*
X232081Y76831D01*
X231241Y77393D01*
X230250Y77590D01*
X205250D01*
X203481Y79067D01*
X203458Y79117D01*
X203346Y79968D01*
X202586Y81803D01*
X201378Y83378D01*
X200605Y84150D01*
Y96960D01*
X203040D01*
Y112040D01*
X193494D01*
X193000Y112105D01*
X192506Y112040D01*
X182960D01*
Y96960D01*
X185395D01*
Y81000D01*
X185654Y79032D01*
X186414Y77197D01*
X187622Y75622D01*
X188395Y74850D01*
Y62326D01*
X186395Y60852D01*
X185915Y60947D01*
X174485D01*
X172751Y60602D01*
X171280Y59620D01*
X171036Y59254D01*
X169036Y59861D01*
Y63500D01*
X163702D01*
Y54610D01*
Y45720D01*
X168215D01*
X169378Y45228D01*
X170116Y44167D01*
X170298Y43251D01*
X171280Y41780D01*
X172751Y40798D01*
X174485Y40453D01*
X185915D01*
X186395Y40548D01*
X188395Y39074D01*
Y34587D01*
X188654Y32619D01*
X189414Y30784D01*
X190622Y29209D01*
X214209Y5622D01*
X214891Y5100D01*
X214212Y3100D01*
X189780D01*
X189190Y4791D01*
X189133Y5100D01*
X190082Y6521D01*
X190427Y8255D01*
Y19685D01*
X190082Y21419D01*
X189100Y22890D01*
X187629Y23872D01*
X185895Y24217D01*
X174465D01*
X172731Y23872D01*
X171260Y22890D01*
X170278Y21419D01*
X169933Y19685D01*
Y8255D01*
X170278Y6521D01*
X171227Y5100D01*
X171170Y4791D01*
X170580Y3100D01*
X99420D01*
X98830Y4791D01*
X98773Y5100D01*
X99722Y6521D01*
X100067Y8255D01*
Y19685D01*
X99722Y21419D01*
X98740Y22890D01*
X97269Y23872D01*
X95535Y24217D01*
X84105D01*
X82371Y23872D01*
X80900Y22890D01*
X79918Y21419D01*
X79573Y19685D01*
Y8255D01*
X79918Y6521D01*
X80868Y5100D01*
X80810Y4791D01*
X80220Y3100D01*
X32000D01*
X31967Y3100D01*
X30000Y3100D01*
X28057Y3237D01*
X25789Y3415D01*
X21683Y4401D01*
X17780Y6018D01*
X14179Y8224D01*
X10968Y10968D01*
X8224Y14179D01*
X6018Y17780D01*
X4401Y21683D01*
X3415Y25789D01*
X3237Y28057D01*
X3100Y30000D01*
X3100Y30000D01*
X3100Y31967D01*
Y530000D01*
X3088Y530056D01*
X3415Y534211D01*
X4401Y538317D01*
X6018Y542220D01*
X8224Y545821D01*
X10968Y549033D01*
X14179Y551776D01*
X17780Y553982D01*
X21683Y555599D01*
X25789Y556585D01*
X28057Y556763D01*
X30000Y556900D01*
Y556900D01*
X31967Y556900D01*
X820000D01*
X820056Y556912D01*
X824211Y556585D01*
D02*
G37*
%LPC*%
G36*
X491455Y547990D02*
X491370D01*
Y538970D01*
X500390D01*
Y539055D01*
X499689Y541672D01*
X498334Y544018D01*
X496418Y545934D01*
X494072Y547289D01*
X491455Y547990D01*
D02*
G37*
G36*
X488830D02*
X488745D01*
X486128Y547289D01*
X483782Y545934D01*
X481866Y544018D01*
X480511Y541672D01*
X479810Y539055D01*
Y538970D01*
X488830D01*
Y547990D01*
D02*
G37*
G36*
X440655D02*
X440570D01*
Y538970D01*
X449590D01*
Y539055D01*
X448889Y541672D01*
X447534Y544018D01*
X445618Y545934D01*
X443272Y547289D01*
X440655Y547990D01*
D02*
G37*
G36*
X438030D02*
X437945D01*
X435328Y547289D01*
X432982Y545934D01*
X431066Y544018D01*
X429711Y541672D01*
X429010Y539055D01*
Y538970D01*
X438030D01*
Y547990D01*
D02*
G37*
G36*
X313655D02*
X313570D01*
Y538970D01*
X322590D01*
Y539055D01*
X321889Y541672D01*
X320534Y544018D01*
X318618Y545934D01*
X316272Y547289D01*
X313655Y547990D01*
D02*
G37*
G36*
X311030D02*
X310945D01*
X308328Y547289D01*
X305982Y545934D01*
X304066Y544018D01*
X302711Y541672D01*
X302010Y539055D01*
Y538970D01*
X311030D01*
Y547990D01*
D02*
G37*
G36*
X237455D02*
X237370D01*
Y538970D01*
X246390D01*
Y539055D01*
X245689Y541672D01*
X244334Y544018D01*
X242418Y545934D01*
X240072Y547289D01*
X237455Y547990D01*
D02*
G37*
G36*
X234830D02*
X234745D01*
X232128Y547289D01*
X229782Y545934D01*
X227866Y544018D01*
X226511Y541672D01*
X225810Y539055D01*
Y538970D01*
X234830D01*
Y547990D01*
D02*
G37*
G36*
X135855D02*
X135770D01*
Y538970D01*
X144790D01*
Y539055D01*
X144089Y541672D01*
X142734Y544018D01*
X140818Y545934D01*
X138472Y547289D01*
X135855Y547990D01*
D02*
G37*
G36*
X133230D02*
X133145D01*
X130528Y547289D01*
X128182Y545934D01*
X126266Y544018D01*
X124911Y541672D01*
X124210Y539055D01*
Y538970D01*
X133230D01*
Y547990D01*
D02*
G37*
G36*
X567655D02*
X564945D01*
X562328Y547289D01*
X559982Y545934D01*
X558066Y544018D01*
X556711Y541672D01*
X556010Y539055D01*
Y536345D01*
X556711Y533728D01*
X558066Y531382D01*
X559982Y529466D01*
X562328Y528111D01*
X564945Y527410D01*
X567655D01*
X570272Y528111D01*
X572618Y529466D01*
X574534Y531382D01*
X575889Y533728D01*
X576590Y536345D01*
Y539055D01*
X575889Y541672D01*
X574534Y544018D01*
X572618Y545934D01*
X570272Y547289D01*
X567655Y547990D01*
D02*
G37*
G36*
X542255D02*
X539545D01*
X536928Y547289D01*
X534582Y545934D01*
X532666Y544018D01*
X531311Y541672D01*
X530610Y539055D01*
Y536345D01*
X531311Y533728D01*
X532666Y531382D01*
X534582Y529466D01*
X536928Y528111D01*
X539545Y527410D01*
X542255D01*
X544872Y528111D01*
X547218Y529466D01*
X549134Y531382D01*
X550489Y533728D01*
X551190Y536345D01*
Y539055D01*
X550489Y541672D01*
X549134Y544018D01*
X547218Y545934D01*
X544872Y547289D01*
X542255Y547990D01*
D02*
G37*
G36*
X516855D02*
X514145D01*
X511528Y547289D01*
X509182Y545934D01*
X507266Y544018D01*
X505911Y541672D01*
X505210Y539055D01*
Y536345D01*
X505911Y533728D01*
X507266Y531382D01*
X509182Y529466D01*
X511528Y528111D01*
X514145Y527410D01*
X516855D01*
X519472Y528111D01*
X521818Y529466D01*
X523734Y531382D01*
X525089Y533728D01*
X525790Y536345D01*
Y539055D01*
X525089Y541672D01*
X523734Y544018D01*
X521818Y545934D01*
X519472Y547289D01*
X516855Y547990D01*
D02*
G37*
G36*
X500390Y536430D02*
X491370D01*
Y527410D01*
X491455D01*
X494072Y528111D01*
X496418Y529466D01*
X498334Y531382D01*
X499689Y533728D01*
X500390Y536345D01*
Y536430D01*
D02*
G37*
G36*
X488830D02*
X479810D01*
Y536345D01*
X480511Y533728D01*
X481866Y531382D01*
X483782Y529466D01*
X486128Y528111D01*
X488745Y527410D01*
X488830D01*
Y536430D01*
D02*
G37*
G36*
X466055Y547990D02*
X463345D01*
X460728Y547289D01*
X458382Y545934D01*
X456466Y544018D01*
X455111Y541672D01*
X454410Y539055D01*
Y536345D01*
X455111Y533728D01*
X456466Y531382D01*
X458382Y529466D01*
X460728Y528111D01*
X463345Y527410D01*
X466055D01*
X468672Y528111D01*
X471018Y529466D01*
X472934Y531382D01*
X474289Y533728D01*
X474990Y536345D01*
Y539055D01*
X474289Y541672D01*
X472934Y544018D01*
X471018Y545934D01*
X468672Y547289D01*
X466055Y547990D01*
D02*
G37*
G36*
X449590Y536430D02*
X440570D01*
Y527410D01*
X440655D01*
X443272Y528111D01*
X445618Y529466D01*
X447534Y531382D01*
X448889Y533728D01*
X449590Y536345D01*
Y536430D01*
D02*
G37*
G36*
X438030D02*
X429010D01*
Y536345D01*
X429711Y533728D01*
X431066Y531382D01*
X432982Y529466D01*
X435328Y528111D01*
X437945Y527410D01*
X438030D01*
Y536430D01*
D02*
G37*
G36*
X415255Y547990D02*
X412545D01*
X409928Y547289D01*
X407582Y545934D01*
X405666Y544018D01*
X404311Y541672D01*
X403610Y539055D01*
Y536345D01*
X404311Y533728D01*
X405666Y531382D01*
X407582Y529466D01*
X409928Y528111D01*
X412545Y527410D01*
X415255D01*
X417872Y528111D01*
X420218Y529466D01*
X422134Y531382D01*
X423489Y533728D01*
X424190Y536345D01*
Y539055D01*
X423489Y541672D01*
X422134Y544018D01*
X420218Y545934D01*
X417872Y547289D01*
X415255Y547990D01*
D02*
G37*
G36*
X389855D02*
X387145D01*
X384528Y547289D01*
X382182Y545934D01*
X380266Y544018D01*
X378911Y541672D01*
X378210Y539055D01*
Y536345D01*
X378911Y533728D01*
X380266Y531382D01*
X382182Y529466D01*
X384528Y528111D01*
X387145Y527410D01*
X389855D01*
X392472Y528111D01*
X394818Y529466D01*
X396734Y531382D01*
X398089Y533728D01*
X398790Y536345D01*
Y539055D01*
X398089Y541672D01*
X396734Y544018D01*
X394818Y545934D01*
X392472Y547289D01*
X389855Y547990D01*
D02*
G37*
G36*
X364455D02*
X361745D01*
X359128Y547289D01*
X356782Y545934D01*
X354866Y544018D01*
X353511Y541672D01*
X352810Y539055D01*
Y536345D01*
X353511Y533728D01*
X354866Y531382D01*
X356782Y529466D01*
X359128Y528111D01*
X361745Y527410D01*
X364455D01*
X367072Y528111D01*
X369418Y529466D01*
X371334Y531382D01*
X372689Y533728D01*
X373390Y536345D01*
Y539055D01*
X372689Y541672D01*
X371334Y544018D01*
X369418Y545934D01*
X367072Y547289D01*
X364455Y547990D01*
D02*
G37*
G36*
X339055D02*
X336345D01*
X333728Y547289D01*
X331382Y545934D01*
X329466Y544018D01*
X328111Y541672D01*
X327410Y539055D01*
Y536345D01*
X328111Y533728D01*
X329466Y531382D01*
X331382Y529466D01*
X333728Y528111D01*
X336345Y527410D01*
X339055D01*
X341672Y528111D01*
X344018Y529466D01*
X345934Y531382D01*
X347289Y533728D01*
X347990Y536345D01*
Y539055D01*
X347289Y541672D01*
X345934Y544018D01*
X344018Y545934D01*
X341672Y547289D01*
X339055Y547990D01*
D02*
G37*
G36*
X322590Y536430D02*
X313570D01*
Y527410D01*
X313655D01*
X316272Y528111D01*
X318618Y529466D01*
X320534Y531382D01*
X321889Y533728D01*
X322590Y536345D01*
Y536430D01*
D02*
G37*
G36*
X311030D02*
X302010D01*
Y536345D01*
X302711Y533728D01*
X304066Y531382D01*
X305982Y529466D01*
X308328Y528111D01*
X310945Y527410D01*
X311030D01*
Y536430D01*
D02*
G37*
G36*
X288255Y547990D02*
X285545D01*
X282928Y547289D01*
X280582Y545934D01*
X278666Y544018D01*
X277311Y541672D01*
X276610Y539055D01*
Y536345D01*
X277311Y533728D01*
X278666Y531382D01*
X280582Y529466D01*
X282928Y528111D01*
X285545Y527410D01*
X288255D01*
X290872Y528111D01*
X293218Y529466D01*
X295134Y531382D01*
X296489Y533728D01*
X297190Y536345D01*
Y539055D01*
X296489Y541672D01*
X295134Y544018D01*
X293218Y545934D01*
X290872Y547289D01*
X288255Y547990D01*
D02*
G37*
G36*
X262855D02*
X260145D01*
X257528Y547289D01*
X255182Y545934D01*
X253266Y544018D01*
X251911Y541672D01*
X251210Y539055D01*
Y536345D01*
X251911Y533728D01*
X253266Y531382D01*
X255182Y529466D01*
X257528Y528111D01*
X260145Y527410D01*
X262855D01*
X265472Y528111D01*
X267818Y529466D01*
X269734Y531382D01*
X271089Y533728D01*
X271790Y536345D01*
Y539055D01*
X271089Y541672D01*
X269734Y544018D01*
X267818Y545934D01*
X265472Y547289D01*
X262855Y547990D01*
D02*
G37*
G36*
X246390Y536430D02*
X237370D01*
Y527410D01*
X237455D01*
X240072Y528111D01*
X242418Y529466D01*
X244334Y531382D01*
X245689Y533728D01*
X246390Y536345D01*
Y536430D01*
D02*
G37*
G36*
X234830D02*
X225810D01*
Y536345D01*
X226511Y533728D01*
X227866Y531382D01*
X229782Y529466D01*
X232128Y528111D01*
X234745Y527410D01*
X234830D01*
Y536430D01*
D02*
G37*
G36*
X212055Y547990D02*
X209345D01*
X206728Y547289D01*
X204382Y545934D01*
X202466Y544018D01*
X201111Y541672D01*
X200410Y539055D01*
Y536345D01*
X201111Y533728D01*
X202466Y531382D01*
X204382Y529466D01*
X206728Y528111D01*
X209345Y527410D01*
X212055D01*
X214672Y528111D01*
X217018Y529466D01*
X218934Y531382D01*
X220289Y533728D01*
X220990Y536345D01*
Y539055D01*
X220289Y541672D01*
X218934Y544018D01*
X217018Y545934D01*
X214672Y547289D01*
X212055Y547990D01*
D02*
G37*
G36*
X186655D02*
X183945D01*
X181328Y547289D01*
X178982Y545934D01*
X177066Y544018D01*
X175711Y541672D01*
X175010Y539055D01*
Y536345D01*
X175711Y533728D01*
X177066Y531382D01*
X178982Y529466D01*
X181328Y528111D01*
X183945Y527410D01*
X186655D01*
X189272Y528111D01*
X191618Y529466D01*
X193534Y531382D01*
X194889Y533728D01*
X195590Y536345D01*
Y539055D01*
X194889Y541672D01*
X193534Y544018D01*
X191618Y545934D01*
X189272Y547289D01*
X186655Y547990D01*
D02*
G37*
G36*
X161255D02*
X158545D01*
X155928Y547289D01*
X153582Y545934D01*
X151666Y544018D01*
X150311Y541672D01*
X149610Y539055D01*
Y536345D01*
X150311Y533728D01*
X151666Y531382D01*
X153582Y529466D01*
X155928Y528111D01*
X158545Y527410D01*
X161255D01*
X163872Y528111D01*
X166218Y529466D01*
X168134Y531382D01*
X169489Y533728D01*
X170190Y536345D01*
Y539055D01*
X169489Y541672D01*
X168134Y544018D01*
X166218Y545934D01*
X163872Y547289D01*
X161255Y547990D01*
D02*
G37*
G36*
X144790Y536430D02*
X135770D01*
Y527410D01*
X135855D01*
X138472Y528111D01*
X140818Y529466D01*
X142734Y531382D01*
X144089Y533728D01*
X144790Y536345D01*
Y536430D01*
D02*
G37*
G36*
X133230D02*
X124210D01*
Y536345D01*
X124911Y533728D01*
X126266Y531382D01*
X128182Y529466D01*
X130528Y528111D01*
X133145Y527410D01*
X133230D01*
Y536430D01*
D02*
G37*
G36*
X110455Y547990D02*
X107745D01*
X105128Y547289D01*
X102782Y545934D01*
X100866Y544018D01*
X99511Y541672D01*
X98810Y539055D01*
Y536345D01*
X99511Y533728D01*
X100866Y531382D01*
X102782Y529466D01*
X105128Y528111D01*
X107745Y527410D01*
X110455D01*
X113072Y528111D01*
X115418Y529466D01*
X117334Y531382D01*
X118689Y533728D01*
X119390Y536345D01*
Y539055D01*
X118689Y541672D01*
X117334Y544018D01*
X115418Y545934D01*
X113072Y547289D01*
X110455Y547990D01*
D02*
G37*
G36*
X85055D02*
X82345D01*
X79728Y547289D01*
X77382Y545934D01*
X75466Y544018D01*
X74111Y541672D01*
X73410Y539055D01*
Y536345D01*
X74111Y533728D01*
X75466Y531382D01*
X77382Y529466D01*
X79728Y528111D01*
X82345Y527410D01*
X85055D01*
X87672Y528111D01*
X90018Y529466D01*
X91934Y531382D01*
X93289Y533728D01*
X93990Y536345D01*
Y539055D01*
X93289Y541672D01*
X91934Y544018D01*
X90018Y545934D01*
X87672Y547289D01*
X85055Y547990D01*
D02*
G37*
G36*
X567655Y522590D02*
X567570D01*
Y513570D01*
X576590D01*
Y513655D01*
X575889Y516272D01*
X574534Y518618D01*
X572618Y520534D01*
X570272Y521889D01*
X567655Y522590D01*
D02*
G37*
G36*
X565030D02*
X564945D01*
X562328Y521889D01*
X559982Y520534D01*
X558066Y518618D01*
X556711Y516272D01*
X556010Y513655D01*
Y513570D01*
X565030D01*
Y522590D01*
D02*
G37*
G36*
X389855D02*
X389770D01*
Y513570D01*
X398790D01*
Y513655D01*
X398089Y516272D01*
X396734Y518618D01*
X394818Y520534D01*
X392472Y521889D01*
X389855Y522590D01*
D02*
G37*
G36*
X387230D02*
X387145D01*
X384528Y521889D01*
X382182Y520534D01*
X380266Y518618D01*
X378911Y516272D01*
X378210Y513655D01*
Y513570D01*
X387230D01*
Y522590D01*
D02*
G37*
G36*
X186655D02*
X186570D01*
Y513570D01*
X195590D01*
Y513655D01*
X194889Y516272D01*
X193534Y518618D01*
X191618Y520534D01*
X189272Y521889D01*
X186655Y522590D01*
D02*
G37*
G36*
X184030D02*
X183945D01*
X181328Y521889D01*
X178982Y520534D01*
X177066Y518618D01*
X175711Y516272D01*
X175010Y513655D01*
Y513570D01*
X184030D01*
Y522590D01*
D02*
G37*
G36*
X616580Y541040D02*
X613420D01*
X610321Y540424D01*
X607402Y539215D01*
X604775Y537459D01*
X602541Y535225D01*
X600785Y532598D01*
X599576Y529679D01*
X598960Y526580D01*
Y523420D01*
X599576Y520321D01*
X600785Y517402D01*
X602541Y514775D01*
X604775Y512541D01*
X607402Y510785D01*
X610321Y509576D01*
X613420Y508960D01*
X616580D01*
X619679Y509576D01*
X622598Y510785D01*
X625225Y512541D01*
X627459Y514775D01*
X629215Y517402D01*
X630424Y520321D01*
X631040Y523420D01*
Y526580D01*
X630424Y529679D01*
X629215Y532598D01*
X627459Y535225D01*
X625225Y537459D01*
X622598Y539215D01*
X619679Y540424D01*
X616580Y541040D01*
D02*
G37*
G36*
X36580D02*
X33420D01*
X30321Y540424D01*
X27402Y539215D01*
X24775Y537459D01*
X22541Y535225D01*
X20786Y532598D01*
X19576Y529679D01*
X18960Y526580D01*
Y523420D01*
X19576Y520321D01*
X20786Y517402D01*
X22541Y514775D01*
X24775Y512541D01*
X27402Y510785D01*
X30321Y509576D01*
X33420Y508960D01*
X36580D01*
X39679Y509576D01*
X42598Y510785D01*
X45225Y512541D01*
X47459Y514775D01*
X49215Y517402D01*
X50424Y520321D01*
X51040Y523420D01*
Y526580D01*
X50424Y529679D01*
X49215Y532598D01*
X47459Y535225D01*
X45225Y537459D01*
X42598Y539215D01*
X39679Y540424D01*
X36580Y541040D01*
D02*
G37*
G36*
X821655Y522590D02*
X818945D01*
X816328Y521889D01*
X813982Y520534D01*
X812066Y518618D01*
X810711Y516272D01*
X810010Y513655D01*
Y510945D01*
X810711Y508328D01*
X812066Y505982D01*
X813982Y504066D01*
X816328Y502711D01*
X818945Y502010D01*
X821655D01*
X824272Y502711D01*
X826618Y504066D01*
X828534Y505982D01*
X829889Y508328D01*
X830590Y510945D01*
Y513655D01*
X829889Y516272D01*
X828534Y518618D01*
X826618Y520534D01*
X824272Y521889D01*
X821655Y522590D01*
D02*
G37*
G36*
X796255D02*
X793545D01*
X790928Y521889D01*
X788582Y520534D01*
X786666Y518618D01*
X785311Y516272D01*
X784610Y513655D01*
Y510945D01*
X785311Y508328D01*
X786666Y505982D01*
X788582Y504066D01*
X790928Y502711D01*
X793545Y502010D01*
X796255D01*
X798872Y502711D01*
X801218Y504066D01*
X803134Y505982D01*
X804489Y508328D01*
X805190Y510945D01*
Y513655D01*
X804489Y516272D01*
X803134Y518618D01*
X801218Y520534D01*
X798872Y521889D01*
X796255Y522590D01*
D02*
G37*
G36*
X770855D02*
X768145D01*
X765528Y521889D01*
X763182Y520534D01*
X761266Y518618D01*
X759911Y516272D01*
X759210Y513655D01*
Y510945D01*
X759911Y508328D01*
X761266Y505982D01*
X763182Y504066D01*
X765528Y502711D01*
X768145Y502010D01*
X770855D01*
X773472Y502711D01*
X775818Y504066D01*
X777734Y505982D01*
X779089Y508328D01*
X779790Y510945D01*
Y513655D01*
X779089Y516272D01*
X777734Y518618D01*
X775818Y520534D01*
X773472Y521889D01*
X770855Y522590D01*
D02*
G37*
G36*
X745455D02*
X742745D01*
X740128Y521889D01*
X737782Y520534D01*
X735866Y518618D01*
X734511Y516272D01*
X733810Y513655D01*
Y510945D01*
X734511Y508328D01*
X735866Y505982D01*
X737782Y504066D01*
X740128Y502711D01*
X742745Y502010D01*
X745455D01*
X748072Y502711D01*
X750418Y504066D01*
X752334Y505982D01*
X753689Y508328D01*
X754390Y510945D01*
Y513655D01*
X753689Y516272D01*
X752334Y518618D01*
X750418Y520534D01*
X748072Y521889D01*
X745455Y522590D01*
D02*
G37*
G36*
X720055D02*
X717345D01*
X714728Y521889D01*
X712382Y520534D01*
X710466Y518618D01*
X709111Y516272D01*
X708410Y513655D01*
Y510945D01*
X709111Y508328D01*
X710466Y505982D01*
X712382Y504066D01*
X714728Y502711D01*
X717345Y502010D01*
X720055D01*
X722672Y502711D01*
X725018Y504066D01*
X726934Y505982D01*
X728289Y508328D01*
X728990Y510945D01*
Y513655D01*
X728289Y516272D01*
X726934Y518618D01*
X725018Y520534D01*
X722672Y521889D01*
X720055Y522590D01*
D02*
G37*
G36*
X694655D02*
X691945D01*
X689328Y521889D01*
X686982Y520534D01*
X685066Y518618D01*
X683711Y516272D01*
X683010Y513655D01*
Y510945D01*
X683711Y508328D01*
X685066Y505982D01*
X686982Y504066D01*
X689328Y502711D01*
X691945Y502010D01*
X694655D01*
X697272Y502711D01*
X699618Y504066D01*
X701534Y505982D01*
X702889Y508328D01*
X703590Y510945D01*
Y513655D01*
X702889Y516272D01*
X701534Y518618D01*
X699618Y520534D01*
X697272Y521889D01*
X694655Y522590D01*
D02*
G37*
G36*
X576590Y511030D02*
X567570D01*
Y502010D01*
X567655D01*
X570272Y502711D01*
X572618Y504066D01*
X574534Y505982D01*
X575889Y508328D01*
X576590Y510945D01*
Y511030D01*
D02*
G37*
G36*
X565030D02*
X556010D01*
Y510945D01*
X556711Y508328D01*
X558066Y505982D01*
X559982Y504066D01*
X562328Y502711D01*
X564945Y502010D01*
X565030D01*
Y511030D01*
D02*
G37*
G36*
X542255Y522590D02*
X539545D01*
X536928Y521889D01*
X534582Y520534D01*
X532666Y518618D01*
X531311Y516272D01*
X530610Y513655D01*
Y510945D01*
X531311Y508328D01*
X532666Y505982D01*
X534582Y504066D01*
X536928Y502711D01*
X539545Y502010D01*
X542255D01*
X544872Y502711D01*
X547218Y504066D01*
X549134Y505982D01*
X550489Y508328D01*
X551190Y510945D01*
Y513655D01*
X550489Y516272D01*
X549134Y518618D01*
X547218Y520534D01*
X544872Y521889D01*
X542255Y522590D01*
D02*
G37*
G36*
X516855D02*
X514145D01*
X511528Y521889D01*
X509182Y520534D01*
X507266Y518618D01*
X505911Y516272D01*
X505210Y513655D01*
Y510945D01*
X505911Y508328D01*
X507266Y505982D01*
X509182Y504066D01*
X511528Y502711D01*
X514145Y502010D01*
X516855D01*
X519472Y502711D01*
X521818Y504066D01*
X523734Y505982D01*
X525089Y508328D01*
X525790Y510945D01*
Y513655D01*
X525089Y516272D01*
X523734Y518618D01*
X521818Y520534D01*
X519472Y521889D01*
X516855Y522590D01*
D02*
G37*
G36*
X491455D02*
X488745D01*
X486128Y521889D01*
X483782Y520534D01*
X481866Y518618D01*
X480511Y516272D01*
X479810Y513655D01*
Y510945D01*
X480511Y508328D01*
X481866Y505982D01*
X483782Y504066D01*
X486128Y502711D01*
X488745Y502010D01*
X491455D01*
X494072Y502711D01*
X496418Y504066D01*
X498334Y505982D01*
X499689Y508328D01*
X500390Y510945D01*
Y513655D01*
X499689Y516272D01*
X498334Y518618D01*
X496418Y520534D01*
X494072Y521889D01*
X491455Y522590D01*
D02*
G37*
G36*
X466055D02*
X463345D01*
X460728Y521889D01*
X458382Y520534D01*
X456466Y518618D01*
X455111Y516272D01*
X454410Y513655D01*
Y510945D01*
X455111Y508328D01*
X456466Y505982D01*
X458382Y504066D01*
X460728Y502711D01*
X463345Y502010D01*
X466055D01*
X468672Y502711D01*
X471018Y504066D01*
X472934Y505982D01*
X474289Y508328D01*
X474990Y510945D01*
Y513655D01*
X474289Y516272D01*
X472934Y518618D01*
X471018Y520534D01*
X468672Y521889D01*
X466055Y522590D01*
D02*
G37*
G36*
X440655D02*
X437945D01*
X435328Y521889D01*
X432982Y520534D01*
X431066Y518618D01*
X429711Y516272D01*
X429010Y513655D01*
Y510945D01*
X429711Y508328D01*
X431066Y505982D01*
X432982Y504066D01*
X435328Y502711D01*
X437945Y502010D01*
X440655D01*
X443272Y502711D01*
X445618Y504066D01*
X447534Y505982D01*
X448889Y508328D01*
X449590Y510945D01*
Y513655D01*
X448889Y516272D01*
X447534Y518618D01*
X445618Y520534D01*
X443272Y521889D01*
X440655Y522590D01*
D02*
G37*
G36*
X415255D02*
X412545D01*
X409928Y521889D01*
X407582Y520534D01*
X405666Y518618D01*
X404311Y516272D01*
X403610Y513655D01*
Y510945D01*
X404311Y508328D01*
X405666Y505982D01*
X407582Y504066D01*
X409928Y502711D01*
X412545Y502010D01*
X415255D01*
X417872Y502711D01*
X420218Y504066D01*
X422134Y505982D01*
X423489Y508328D01*
X424190Y510945D01*
Y513655D01*
X423489Y516272D01*
X422134Y518618D01*
X420218Y520534D01*
X417872Y521889D01*
X415255Y522590D01*
D02*
G37*
G36*
X398790Y511030D02*
X389770D01*
Y502010D01*
X389855D01*
X392472Y502711D01*
X394818Y504066D01*
X396734Y505982D01*
X398089Y508328D01*
X398790Y510945D01*
Y511030D01*
D02*
G37*
G36*
X387230D02*
X378210D01*
Y510945D01*
X378911Y508328D01*
X380266Y505982D01*
X382182Y504066D01*
X384528Y502711D01*
X387145Y502010D01*
X387230D01*
Y511030D01*
D02*
G37*
G36*
X364455Y522590D02*
X361745D01*
X359128Y521889D01*
X356782Y520534D01*
X354866Y518618D01*
X353511Y516272D01*
X352810Y513655D01*
Y510945D01*
X353511Y508328D01*
X354866Y505982D01*
X356782Y504066D01*
X359128Y502711D01*
X361745Y502010D01*
X364455D01*
X367072Y502711D01*
X369418Y504066D01*
X371334Y505982D01*
X372689Y508328D01*
X373390Y510945D01*
Y513655D01*
X372689Y516272D01*
X371334Y518618D01*
X369418Y520534D01*
X367072Y521889D01*
X364455Y522590D01*
D02*
G37*
G36*
X339055D02*
X336345D01*
X333728Y521889D01*
X331382Y520534D01*
X329466Y518618D01*
X328111Y516272D01*
X327410Y513655D01*
Y510945D01*
X328111Y508328D01*
X329466Y505982D01*
X331382Y504066D01*
X333728Y502711D01*
X336345Y502010D01*
X339055D01*
X341672Y502711D01*
X344018Y504066D01*
X345934Y505982D01*
X347289Y508328D01*
X347990Y510945D01*
Y513655D01*
X347289Y516272D01*
X345934Y518618D01*
X344018Y520534D01*
X341672Y521889D01*
X339055Y522590D01*
D02*
G37*
G36*
X313655D02*
X310945D01*
X308328Y521889D01*
X305982Y520534D01*
X304066Y518618D01*
X302711Y516272D01*
X302010Y513655D01*
Y510945D01*
X302711Y508328D01*
X304066Y505982D01*
X305982Y504066D01*
X308328Y502711D01*
X310945Y502010D01*
X313655D01*
X316272Y502711D01*
X318618Y504066D01*
X320534Y505982D01*
X321889Y508328D01*
X322590Y510945D01*
Y513655D01*
X321889Y516272D01*
X320534Y518618D01*
X318618Y520534D01*
X316272Y521889D01*
X313655Y522590D01*
D02*
G37*
G36*
X288255D02*
X285545D01*
X282928Y521889D01*
X280582Y520534D01*
X278666Y518618D01*
X277311Y516272D01*
X276610Y513655D01*
Y510945D01*
X277311Y508328D01*
X278666Y505982D01*
X280582Y504066D01*
X282928Y502711D01*
X285545Y502010D01*
X288255D01*
X290872Y502711D01*
X293218Y504066D01*
X295134Y505982D01*
X296489Y508328D01*
X297190Y510945D01*
Y513655D01*
X296489Y516272D01*
X295134Y518618D01*
X293218Y520534D01*
X290872Y521889D01*
X288255Y522590D01*
D02*
G37*
G36*
X262855D02*
X260145D01*
X257528Y521889D01*
X255182Y520534D01*
X253266Y518618D01*
X251911Y516272D01*
X251210Y513655D01*
Y510945D01*
X251911Y508328D01*
X253266Y505982D01*
X255182Y504066D01*
X257528Y502711D01*
X260145Y502010D01*
X262855D01*
X265472Y502711D01*
X267818Y504066D01*
X269734Y505982D01*
X271089Y508328D01*
X271790Y510945D01*
Y513655D01*
X271089Y516272D01*
X269734Y518618D01*
X267818Y520534D01*
X265472Y521889D01*
X262855Y522590D01*
D02*
G37*
G36*
X237455D02*
X234745D01*
X232128Y521889D01*
X229782Y520534D01*
X227866Y518618D01*
X226511Y516272D01*
X225810Y513655D01*
Y510945D01*
X226511Y508328D01*
X227866Y505982D01*
X229782Y504066D01*
X232128Y502711D01*
X234745Y502010D01*
X237455D01*
X240072Y502711D01*
X242418Y504066D01*
X244334Y505982D01*
X245689Y508328D01*
X246390Y510945D01*
Y513655D01*
X245689Y516272D01*
X244334Y518618D01*
X242418Y520534D01*
X240072Y521889D01*
X237455Y522590D01*
D02*
G37*
G36*
X212055D02*
X209345D01*
X206728Y521889D01*
X204382Y520534D01*
X202466Y518618D01*
X201111Y516272D01*
X200410Y513655D01*
Y510945D01*
X201111Y508328D01*
X202466Y505982D01*
X204382Y504066D01*
X206728Y502711D01*
X209345Y502010D01*
X212055D01*
X214672Y502711D01*
X217018Y504066D01*
X218934Y505982D01*
X220289Y508328D01*
X220990Y510945D01*
Y513655D01*
X220289Y516272D01*
X218934Y518618D01*
X217018Y520534D01*
X214672Y521889D01*
X212055Y522590D01*
D02*
G37*
G36*
X195590Y511030D02*
X186570D01*
Y502010D01*
X186655D01*
X189272Y502711D01*
X191618Y504066D01*
X193534Y505982D01*
X194889Y508328D01*
X195590Y510945D01*
Y511030D01*
D02*
G37*
G36*
X184030D02*
X175010D01*
Y510945D01*
X175711Y508328D01*
X177066Y505982D01*
X178982Y504066D01*
X181328Y502711D01*
X183945Y502010D01*
X184030D01*
Y511030D01*
D02*
G37*
G36*
X161255Y522590D02*
X158545D01*
X155928Y521889D01*
X153582Y520534D01*
X151666Y518618D01*
X150311Y516272D01*
X149610Y513655D01*
Y510945D01*
X150311Y508328D01*
X151666Y505982D01*
X153582Y504066D01*
X155928Y502711D01*
X158545Y502010D01*
X161255D01*
X163872Y502711D01*
X166218Y504066D01*
X168134Y505982D01*
X169489Y508328D01*
X170190Y510945D01*
Y513655D01*
X169489Y516272D01*
X168134Y518618D01*
X166218Y520534D01*
X163872Y521889D01*
X161255Y522590D01*
D02*
G37*
G36*
X135855D02*
X133145D01*
X130528Y521889D01*
X128182Y520534D01*
X126266Y518618D01*
X124911Y516272D01*
X124210Y513655D01*
Y510945D01*
X124911Y508328D01*
X126266Y505982D01*
X128182Y504066D01*
X130528Y502711D01*
X133145Y502010D01*
X135855D01*
X138472Y502711D01*
X140818Y504066D01*
X142734Y505982D01*
X144089Y508328D01*
X144790Y510945D01*
Y513655D01*
X144089Y516272D01*
X142734Y518618D01*
X140818Y520534D01*
X138472Y521889D01*
X135855Y522590D01*
D02*
G37*
G36*
X110455D02*
X107745D01*
X105128Y521889D01*
X102782Y520534D01*
X100866Y518618D01*
X99511Y516272D01*
X98810Y513655D01*
Y510945D01*
X99511Y508328D01*
X100866Y505982D01*
X102782Y504066D01*
X105128Y502711D01*
X107745Y502010D01*
X110455D01*
X113072Y502711D01*
X115418Y504066D01*
X117334Y505982D01*
X118689Y508328D01*
X119390Y510945D01*
Y513655D01*
X118689Y516272D01*
X117334Y518618D01*
X115418Y520534D01*
X113072Y521889D01*
X110455Y522590D01*
D02*
G37*
G36*
X85055D02*
X82345D01*
X79728Y521889D01*
X77382Y520534D01*
X75466Y518618D01*
X74111Y516272D01*
X73410Y513655D01*
Y510945D01*
X74111Y508328D01*
X75466Y505982D01*
X77382Y504066D01*
X79728Y502711D01*
X82345Y502010D01*
X85055D01*
X87672Y502711D01*
X90018Y504066D01*
X91934Y505982D01*
X93289Y508328D01*
X93990Y510945D01*
Y513655D01*
X93289Y516272D01*
X91934Y518618D01*
X90018Y520534D01*
X87672Y521889D01*
X85055Y522590D01*
D02*
G37*
G36*
X821655Y497190D02*
X818945D01*
X816328Y496489D01*
X813982Y495134D01*
X812066Y493218D01*
X810711Y490872D01*
X810010Y488255D01*
Y485545D01*
X810711Y482928D01*
X812066Y480582D01*
X813982Y478666D01*
X816328Y477311D01*
X818945Y476610D01*
X821655D01*
X824272Y477311D01*
X826618Y478666D01*
X828534Y480582D01*
X829889Y482928D01*
X830590Y485545D01*
Y488255D01*
X829889Y490872D01*
X828534Y493218D01*
X826618Y495134D01*
X824272Y496489D01*
X821655Y497190D01*
D02*
G37*
G36*
X796255D02*
X793545D01*
X790928Y496489D01*
X788582Y495134D01*
X786666Y493218D01*
X785311Y490872D01*
X784610Y488255D01*
Y485545D01*
X785311Y482928D01*
X786666Y480582D01*
X788582Y478666D01*
X790928Y477311D01*
X793545Y476610D01*
X796255D01*
X798872Y477311D01*
X801218Y478666D01*
X803134Y480582D01*
X804489Y482928D01*
X805190Y485545D01*
Y488255D01*
X804489Y490872D01*
X803134Y493218D01*
X801218Y495134D01*
X798872Y496489D01*
X796255Y497190D01*
D02*
G37*
G36*
X770855D02*
X768145D01*
X765528Y496489D01*
X763182Y495134D01*
X761266Y493218D01*
X759911Y490872D01*
X759210Y488255D01*
Y485545D01*
X759911Y482928D01*
X761266Y480582D01*
X763182Y478666D01*
X765528Y477311D01*
X768145Y476610D01*
X770855D01*
X773472Y477311D01*
X775818Y478666D01*
X777734Y480582D01*
X779089Y482928D01*
X779790Y485545D01*
Y488255D01*
X779089Y490872D01*
X777734Y493218D01*
X775818Y495134D01*
X773472Y496489D01*
X770855Y497190D01*
D02*
G37*
G36*
X745455D02*
X742745D01*
X740128Y496489D01*
X737782Y495134D01*
X735866Y493218D01*
X734511Y490872D01*
X733810Y488255D01*
Y485545D01*
X734511Y482928D01*
X735866Y480582D01*
X737782Y478666D01*
X740128Y477311D01*
X742745Y476610D01*
X745455D01*
X748072Y477311D01*
X750418Y478666D01*
X752334Y480582D01*
X753689Y482928D01*
X754390Y485545D01*
Y488255D01*
X753689Y490872D01*
X752334Y493218D01*
X750418Y495134D01*
X748072Y496489D01*
X745455Y497190D01*
D02*
G37*
G36*
X720055D02*
X717345D01*
X714728Y496489D01*
X712382Y495134D01*
X710466Y493218D01*
X709111Y490872D01*
X708410Y488255D01*
Y485545D01*
X709111Y482928D01*
X710466Y480582D01*
X712382Y478666D01*
X714728Y477311D01*
X717345Y476610D01*
X720055D01*
X722672Y477311D01*
X725018Y478666D01*
X726934Y480582D01*
X728289Y482928D01*
X728990Y485545D01*
Y488255D01*
X728289Y490872D01*
X726934Y493218D01*
X725018Y495134D01*
X722672Y496489D01*
X720055Y497190D01*
D02*
G37*
G36*
X694655D02*
X691945D01*
X689328Y496489D01*
X686982Y495134D01*
X685066Y493218D01*
X683711Y490872D01*
X683010Y488255D01*
Y485545D01*
X683711Y482928D01*
X685066Y480582D01*
X686982Y478666D01*
X689328Y477311D01*
X691945Y476610D01*
X694655D01*
X697272Y477311D01*
X699618Y478666D01*
X701534Y480582D01*
X702889Y482928D01*
X703590Y485545D01*
Y488255D01*
X702889Y490872D01*
X701534Y493218D01*
X699618Y495134D01*
X697272Y496489D01*
X694655Y497190D01*
D02*
G37*
G36*
X821655Y471790D02*
X818945D01*
X816328Y471089D01*
X813982Y469734D01*
X812066Y467818D01*
X810711Y465472D01*
X810010Y462855D01*
Y460145D01*
X810711Y457528D01*
X812066Y455182D01*
X813982Y453266D01*
X816328Y451911D01*
X818945Y451210D01*
X821655D01*
X824272Y451911D01*
X826618Y453266D01*
X828534Y455182D01*
X829889Y457528D01*
X830590Y460145D01*
Y462855D01*
X829889Y465472D01*
X828534Y467818D01*
X826618Y469734D01*
X824272Y471089D01*
X821655Y471790D01*
D02*
G37*
G36*
X796255D02*
X793545D01*
X790928Y471089D01*
X788582Y469734D01*
X786666Y467818D01*
X785311Y465472D01*
X784610Y462855D01*
Y460145D01*
X785311Y457528D01*
X786666Y455182D01*
X788582Y453266D01*
X790928Y451911D01*
X793545Y451210D01*
X796255D01*
X798872Y451911D01*
X801218Y453266D01*
X803134Y455182D01*
X804489Y457528D01*
X805190Y460145D01*
Y462855D01*
X804489Y465472D01*
X803134Y467818D01*
X801218Y469734D01*
X798872Y471089D01*
X796255Y471790D01*
D02*
G37*
G36*
X770855D02*
X768145D01*
X765528Y471089D01*
X763182Y469734D01*
X761266Y467818D01*
X759911Y465472D01*
X759210Y462855D01*
Y460145D01*
X759911Y457528D01*
X761266Y455182D01*
X763182Y453266D01*
X765528Y451911D01*
X768145Y451210D01*
X770855D01*
X773472Y451911D01*
X775818Y453266D01*
X777734Y455182D01*
X779089Y457528D01*
X779790Y460145D01*
Y462855D01*
X779089Y465472D01*
X777734Y467818D01*
X775818Y469734D01*
X773472Y471089D01*
X770855Y471790D01*
D02*
G37*
G36*
X745455D02*
X742745D01*
X740128Y471089D01*
X737782Y469734D01*
X735866Y467818D01*
X734511Y465472D01*
X733810Y462855D01*
Y460145D01*
X734511Y457528D01*
X735866Y455182D01*
X737782Y453266D01*
X740128Y451911D01*
X742745Y451210D01*
X745455D01*
X748072Y451911D01*
X750418Y453266D01*
X752334Y455182D01*
X753689Y457528D01*
X754390Y460145D01*
Y462855D01*
X753689Y465472D01*
X752334Y467818D01*
X750418Y469734D01*
X748072Y471089D01*
X745455Y471790D01*
D02*
G37*
G36*
X720055D02*
X717345D01*
X714728Y471089D01*
X712382Y469734D01*
X710466Y467818D01*
X709111Y465472D01*
X708410Y462855D01*
Y460145D01*
X709111Y457528D01*
X710466Y455182D01*
X712382Y453266D01*
X714728Y451911D01*
X717345Y451210D01*
X720055D01*
X722672Y451911D01*
X725018Y453266D01*
X726934Y455182D01*
X728289Y457528D01*
X728990Y460145D01*
Y462855D01*
X728289Y465472D01*
X726934Y467818D01*
X725018Y469734D01*
X722672Y471089D01*
X720055Y471790D01*
D02*
G37*
G36*
X694655D02*
X691945D01*
X689328Y471089D01*
X686982Y469734D01*
X685066Y467818D01*
X683711Y465472D01*
X683010Y462855D01*
Y460145D01*
X683711Y457528D01*
X685066Y455182D01*
X686982Y453266D01*
X689328Y451911D01*
X691945Y451210D01*
X694655D01*
X697272Y451911D01*
X699618Y453266D01*
X701534Y455182D01*
X702889Y457528D01*
X703590Y460145D01*
Y462855D01*
X702889Y465472D01*
X701534Y467818D01*
X699618Y469734D01*
X697272Y471089D01*
X694655Y471790D01*
D02*
G37*
G36*
X466055D02*
X463345D01*
X460728Y471089D01*
X458382Y469734D01*
X456466Y467818D01*
X455111Y465472D01*
X454410Y462855D01*
Y460145D01*
X455111Y457528D01*
X456466Y455182D01*
X458382Y453266D01*
X460728Y451911D01*
X463345Y451210D01*
X466055D01*
X468672Y451911D01*
X471018Y453266D01*
X472934Y455182D01*
X474289Y457528D01*
X474990Y460145D01*
Y462855D01*
X474289Y465472D01*
X472934Y467818D01*
X471018Y469734D01*
X468672Y471089D01*
X466055Y471790D01*
D02*
G37*
G36*
X440655D02*
X437945D01*
X435328Y471089D01*
X432982Y469734D01*
X431066Y467818D01*
X429711Y465472D01*
X429010Y462855D01*
Y460145D01*
X429711Y457528D01*
X431066Y455182D01*
X432982Y453266D01*
X435328Y451911D01*
X437945Y451210D01*
X440655D01*
X443272Y451911D01*
X445618Y453266D01*
X447534Y455182D01*
X448889Y457528D01*
X449590Y460145D01*
Y462855D01*
X448889Y465472D01*
X447534Y467818D01*
X445618Y469734D01*
X443272Y471089D01*
X440655Y471790D01*
D02*
G37*
G36*
X415255D02*
X412545D01*
X409928Y471089D01*
X407582Y469734D01*
X405666Y467818D01*
X404311Y465472D01*
X403610Y462855D01*
Y460145D01*
X404311Y457528D01*
X405666Y455182D01*
X407582Y453266D01*
X409928Y451911D01*
X412545Y451210D01*
X415255D01*
X417872Y451911D01*
X420218Y453266D01*
X422134Y455182D01*
X423489Y457528D01*
X424190Y460145D01*
Y462855D01*
X423489Y465472D01*
X422134Y467818D01*
X420218Y469734D01*
X417872Y471089D01*
X415255Y471790D01*
D02*
G37*
G36*
X389855D02*
X387145D01*
X384528Y471089D01*
X382182Y469734D01*
X380266Y467818D01*
X378911Y465472D01*
X378210Y462855D01*
Y460145D01*
X378911Y457528D01*
X380266Y455182D01*
X382182Y453266D01*
X384528Y451911D01*
X387145Y451210D01*
X389855D01*
X392472Y451911D01*
X394818Y453266D01*
X396734Y455182D01*
X398089Y457528D01*
X398790Y460145D01*
Y462855D01*
X398089Y465472D01*
X396734Y467818D01*
X394818Y469734D01*
X392472Y471089D01*
X389855Y471790D01*
D02*
G37*
G36*
X364455D02*
X361745D01*
X359128Y471089D01*
X356782Y469734D01*
X354866Y467818D01*
X353511Y465472D01*
X352810Y462855D01*
Y460145D01*
X353511Y457528D01*
X354866Y455182D01*
X356782Y453266D01*
X359128Y451911D01*
X361745Y451210D01*
X364455D01*
X367072Y451911D01*
X369418Y453266D01*
X371334Y455182D01*
X372689Y457528D01*
X373390Y460145D01*
Y462855D01*
X372689Y465472D01*
X371334Y467818D01*
X369418Y469734D01*
X367072Y471089D01*
X364455Y471790D01*
D02*
G37*
G36*
X339055D02*
X336345D01*
X333728Y471089D01*
X331382Y469734D01*
X329466Y467818D01*
X328111Y465472D01*
X327410Y462855D01*
Y460145D01*
X328111Y457528D01*
X329466Y455182D01*
X331382Y453266D01*
X333728Y451911D01*
X336345Y451210D01*
X339055D01*
X341672Y451911D01*
X344018Y453266D01*
X345934Y455182D01*
X347289Y457528D01*
X347990Y460145D01*
Y462855D01*
X347289Y465472D01*
X345934Y467818D01*
X344018Y469734D01*
X341672Y471089D01*
X339055Y471790D01*
D02*
G37*
G36*
X239440Y454840D02*
X226170D01*
Y446570D01*
X239440D01*
Y454840D01*
D02*
G37*
G36*
X223630D02*
X210360D01*
Y446570D01*
X223630D01*
Y454840D01*
D02*
G37*
G36*
X646270Y453628D02*
Y446397D01*
X653501D01*
X652958Y448423D01*
X651834Y450371D01*
X650244Y451961D01*
X648296Y453085D01*
X646270Y453628D01*
D02*
G37*
G36*
X643730D02*
X641704Y453085D01*
X639756Y451961D01*
X638166Y450371D01*
X637042Y448423D01*
X636499Y446397D01*
X643730D01*
Y453628D01*
D02*
G37*
G36*
X653501Y443857D02*
X646270D01*
Y436626D01*
X648296Y437169D01*
X650244Y438293D01*
X651834Y439883D01*
X652958Y441831D01*
X653501Y443857D01*
D02*
G37*
G36*
X643730D02*
X636499D01*
X637042Y441831D01*
X638166Y439883D01*
X639756Y438293D01*
X641704Y437169D01*
X643730Y436626D01*
Y443857D01*
D02*
G37*
G36*
X84900Y453914D02*
X72900D01*
X72719Y453890D01*
X67898D01*
X66907Y453693D01*
X66066Y453132D01*
X65505Y452291D01*
X65308Y451300D01*
Y449287D01*
X64580Y447530D01*
X64286Y445300D01*
X64580Y443071D01*
X65308Y441313D01*
Y439300D01*
X65505Y438309D01*
X66066Y437469D01*
X66907Y436908D01*
X67246Y436840D01*
X67049Y434840D01*
X65360D01*
Y426570D01*
X94440D01*
Y434840D01*
X90746D01*
X90549Y436840D01*
X90889Y436908D01*
X91729Y437469D01*
X92290Y438309D01*
X92487Y439300D01*
Y441302D01*
X93220Y443071D01*
X93514Y445300D01*
X93220Y447530D01*
X92487Y449299D01*
Y451300D01*
X92290Y452291D01*
X91729Y453132D01*
X90889Y453693D01*
X89898Y453890D01*
X85081D01*
X84900Y453914D01*
D02*
G37*
G36*
X821655Y446390D02*
X818945D01*
X816328Y445689D01*
X813982Y444334D01*
X812066Y442418D01*
X810711Y440072D01*
X810010Y437455D01*
Y434745D01*
X810711Y432128D01*
X812066Y429782D01*
X813982Y427866D01*
X816328Y426511D01*
X818945Y425810D01*
X821655D01*
X824272Y426511D01*
X826618Y427866D01*
X828534Y429782D01*
X829889Y432128D01*
X830590Y434745D01*
Y437455D01*
X829889Y440072D01*
X828534Y442418D01*
X826618Y444334D01*
X824272Y445689D01*
X821655Y446390D01*
D02*
G37*
G36*
X796255D02*
X793545D01*
X790928Y445689D01*
X788582Y444334D01*
X786666Y442418D01*
X785311Y440072D01*
X784610Y437455D01*
Y434745D01*
X785311Y432128D01*
X786666Y429782D01*
X788582Y427866D01*
X790928Y426511D01*
X793545Y425810D01*
X796255D01*
X798872Y426511D01*
X801218Y427866D01*
X803134Y429782D01*
X804489Y432128D01*
X805190Y434745D01*
Y437455D01*
X804489Y440072D01*
X803134Y442418D01*
X801218Y444334D01*
X798872Y445689D01*
X796255Y446390D01*
D02*
G37*
G36*
X770855D02*
X768145D01*
X765528Y445689D01*
X763182Y444334D01*
X761266Y442418D01*
X759911Y440072D01*
X759210Y437455D01*
Y434745D01*
X759911Y432128D01*
X761266Y429782D01*
X763182Y427866D01*
X765528Y426511D01*
X768145Y425810D01*
X770855D01*
X773472Y426511D01*
X775818Y427866D01*
X777734Y429782D01*
X779089Y432128D01*
X779790Y434745D01*
Y437455D01*
X779089Y440072D01*
X777734Y442418D01*
X775818Y444334D01*
X773472Y445689D01*
X770855Y446390D01*
D02*
G37*
G36*
X745455D02*
X742745D01*
X740128Y445689D01*
X737782Y444334D01*
X735866Y442418D01*
X734511Y440072D01*
X733810Y437455D01*
Y434745D01*
X734511Y432128D01*
X735866Y429782D01*
X737782Y427866D01*
X740128Y426511D01*
X742745Y425810D01*
X745455D01*
X748072Y426511D01*
X750418Y427866D01*
X752334Y429782D01*
X753689Y432128D01*
X754390Y434745D01*
Y437455D01*
X753689Y440072D01*
X752334Y442418D01*
X750418Y444334D01*
X748072Y445689D01*
X745455Y446390D01*
D02*
G37*
G36*
X720055D02*
X717345D01*
X714728Y445689D01*
X712382Y444334D01*
X710466Y442418D01*
X709111Y440072D01*
X708410Y437455D01*
Y434745D01*
X709111Y432128D01*
X710466Y429782D01*
X712382Y427866D01*
X714728Y426511D01*
X717345Y425810D01*
X720055D01*
X722672Y426511D01*
X725018Y427866D01*
X726934Y429782D01*
X728289Y432128D01*
X728990Y434745D01*
Y437455D01*
X728289Y440072D01*
X726934Y442418D01*
X725018Y444334D01*
X722672Y445689D01*
X720055Y446390D01*
D02*
G37*
G36*
X694655D02*
X691945D01*
X689328Y445689D01*
X686982Y444334D01*
X685066Y442418D01*
X683711Y440072D01*
X683010Y437455D01*
Y434745D01*
X683711Y432128D01*
X685066Y429782D01*
X686982Y427866D01*
X689328Y426511D01*
X691945Y425810D01*
X694655D01*
X697272Y426511D01*
X699618Y427866D01*
X701534Y429782D01*
X702889Y432128D01*
X703590Y434745D01*
Y437455D01*
X702889Y440072D01*
X701534Y442418D01*
X699618Y444334D01*
X697272Y445689D01*
X694655Y446390D01*
D02*
G37*
G36*
X466055D02*
X463345D01*
X460728Y445689D01*
X458382Y444334D01*
X456466Y442418D01*
X455111Y440072D01*
X454410Y437455D01*
Y434745D01*
X455111Y432128D01*
X456466Y429782D01*
X458382Y427866D01*
X460728Y426511D01*
X463345Y425810D01*
X466055D01*
X468672Y426511D01*
X471018Y427866D01*
X472934Y429782D01*
X474289Y432128D01*
X474990Y434745D01*
Y437455D01*
X474289Y440072D01*
X472934Y442418D01*
X471018Y444334D01*
X468672Y445689D01*
X466055Y446390D01*
D02*
G37*
G36*
X440655D02*
X437945D01*
X435328Y445689D01*
X432982Y444334D01*
X431066Y442418D01*
X429711Y440072D01*
X429010Y437455D01*
Y434745D01*
X429711Y432128D01*
X431066Y429782D01*
X432982Y427866D01*
X435328Y426511D01*
X437945Y425810D01*
X440655D01*
X443272Y426511D01*
X445618Y427866D01*
X447534Y429782D01*
X448889Y432128D01*
X449590Y434745D01*
Y437455D01*
X448889Y440072D01*
X447534Y442418D01*
X445618Y444334D01*
X443272Y445689D01*
X440655Y446390D01*
D02*
G37*
G36*
X415255D02*
X412545D01*
X409928Y445689D01*
X407582Y444334D01*
X405666Y442418D01*
X404311Y440072D01*
X403610Y437455D01*
Y434745D01*
X404311Y432128D01*
X405666Y429782D01*
X407582Y427866D01*
X409928Y426511D01*
X412545Y425810D01*
X415255D01*
X417872Y426511D01*
X420218Y427866D01*
X422134Y429782D01*
X423489Y432128D01*
X424190Y434745D01*
Y437455D01*
X423489Y440072D01*
X422134Y442418D01*
X420218Y444334D01*
X417872Y445689D01*
X415255Y446390D01*
D02*
G37*
G36*
X389855D02*
X387145D01*
X384528Y445689D01*
X382182Y444334D01*
X380266Y442418D01*
X378911Y440072D01*
X378210Y437455D01*
Y434745D01*
X378911Y432128D01*
X380266Y429782D01*
X382182Y427866D01*
X384528Y426511D01*
X387145Y425810D01*
X389855D01*
X392472Y426511D01*
X394818Y427866D01*
X396734Y429782D01*
X398089Y432128D01*
X398790Y434745D01*
Y437455D01*
X398089Y440072D01*
X396734Y442418D01*
X394818Y444334D01*
X392472Y445689D01*
X389855Y446390D01*
D02*
G37*
G36*
X364455D02*
X361745D01*
X359128Y445689D01*
X356782Y444334D01*
X354866Y442418D01*
X353511Y440072D01*
X352810Y437455D01*
Y434745D01*
X353511Y432128D01*
X354866Y429782D01*
X356782Y427866D01*
X359128Y426511D01*
X361745Y425810D01*
X364455D01*
X367072Y426511D01*
X369418Y427866D01*
X371334Y429782D01*
X372689Y432128D01*
X373390Y434745D01*
Y437455D01*
X372689Y440072D01*
X371334Y442418D01*
X369418Y444334D01*
X367072Y445689D01*
X364455Y446390D01*
D02*
G37*
G36*
X339055D02*
X336345D01*
X333728Y445689D01*
X331382Y444334D01*
X329466Y442418D01*
X328111Y440072D01*
X327410Y437455D01*
Y434745D01*
X328111Y432128D01*
X329466Y429782D01*
X331382Y427866D01*
X333728Y426511D01*
X336345Y425810D01*
X339055D01*
X341672Y426511D01*
X344018Y427866D01*
X345934Y429782D01*
X347289Y432128D01*
X347990Y434745D01*
Y437455D01*
X347289Y440072D01*
X345934Y442418D01*
X344018Y444334D01*
X341672Y445689D01*
X339055Y446390D01*
D02*
G37*
G36*
X821655Y420990D02*
X818945D01*
X816328Y420289D01*
X813982Y418934D01*
X812066Y417018D01*
X810711Y414672D01*
X810010Y412055D01*
Y409345D01*
X810711Y406728D01*
X812066Y404382D01*
X813982Y402466D01*
X816328Y401111D01*
X818945Y400410D01*
X821655D01*
X824272Y401111D01*
X826618Y402466D01*
X828534Y404382D01*
X829889Y406728D01*
X830590Y409345D01*
Y412055D01*
X829889Y414672D01*
X828534Y417018D01*
X826618Y418934D01*
X824272Y420289D01*
X821655Y420990D01*
D02*
G37*
G36*
X796255D02*
X793545D01*
X790928Y420289D01*
X788582Y418934D01*
X786666Y417018D01*
X785311Y414672D01*
X784610Y412055D01*
Y409345D01*
X785311Y406728D01*
X786666Y404382D01*
X788582Y402466D01*
X790928Y401111D01*
X793545Y400410D01*
X796255D01*
X798872Y401111D01*
X801218Y402466D01*
X803134Y404382D01*
X804489Y406728D01*
X805190Y409345D01*
Y412055D01*
X804489Y414672D01*
X803134Y417018D01*
X801218Y418934D01*
X798872Y420289D01*
X796255Y420990D01*
D02*
G37*
G36*
X770855D02*
X768145D01*
X765528Y420289D01*
X763182Y418934D01*
X761266Y417018D01*
X759911Y414672D01*
X759210Y412055D01*
Y409345D01*
X759911Y406728D01*
X761266Y404382D01*
X763182Y402466D01*
X765528Y401111D01*
X768145Y400410D01*
X770855D01*
X773472Y401111D01*
X775818Y402466D01*
X777734Y404382D01*
X779089Y406728D01*
X779790Y409345D01*
Y412055D01*
X779089Y414672D01*
X777734Y417018D01*
X775818Y418934D01*
X773472Y420289D01*
X770855Y420990D01*
D02*
G37*
G36*
X745455D02*
X742745D01*
X740128Y420289D01*
X737782Y418934D01*
X735866Y417018D01*
X734511Y414672D01*
X733810Y412055D01*
Y409345D01*
X734511Y406728D01*
X735866Y404382D01*
X737782Y402466D01*
X740128Y401111D01*
X742745Y400410D01*
X745455D01*
X748072Y401111D01*
X750418Y402466D01*
X752334Y404382D01*
X753689Y406728D01*
X754390Y409345D01*
Y412055D01*
X753689Y414672D01*
X752334Y417018D01*
X750418Y418934D01*
X748072Y420289D01*
X745455Y420990D01*
D02*
G37*
G36*
X720055D02*
X717345D01*
X714728Y420289D01*
X712382Y418934D01*
X710466Y417018D01*
X709111Y414672D01*
X708410Y412055D01*
Y409345D01*
X709111Y406728D01*
X710466Y404382D01*
X712382Y402466D01*
X714728Y401111D01*
X717345Y400410D01*
X720055D01*
X722672Y401111D01*
X725018Y402466D01*
X726934Y404382D01*
X728289Y406728D01*
X728990Y409345D01*
Y412055D01*
X728289Y414672D01*
X726934Y417018D01*
X725018Y418934D01*
X722672Y420289D01*
X720055Y420990D01*
D02*
G37*
G36*
X694655D02*
X691945D01*
X689328Y420289D01*
X686982Y418934D01*
X685066Y417018D01*
X683711Y414672D01*
X683010Y412055D01*
Y409345D01*
X683711Y406728D01*
X685066Y404382D01*
X686982Y402466D01*
X689328Y401111D01*
X691945Y400410D01*
X694655D01*
X697272Y401111D01*
X699618Y402466D01*
X701534Y404382D01*
X702889Y406728D01*
X703590Y409345D01*
Y412055D01*
X702889Y414672D01*
X701534Y417018D01*
X699618Y418934D01*
X697272Y420289D01*
X694655Y420990D01*
D02*
G37*
G36*
X466055D02*
X463345D01*
X460728Y420289D01*
X458382Y418934D01*
X456466Y417018D01*
X455111Y414672D01*
X454410Y412055D01*
Y409345D01*
X455111Y406728D01*
X456466Y404382D01*
X458382Y402466D01*
X460728Y401111D01*
X463345Y400410D01*
X466055D01*
X468672Y401111D01*
X471018Y402466D01*
X472934Y404382D01*
X474289Y406728D01*
X474990Y409345D01*
Y412055D01*
X474289Y414672D01*
X472934Y417018D01*
X471018Y418934D01*
X468672Y420289D01*
X466055Y420990D01*
D02*
G37*
G36*
X440655D02*
X437945D01*
X435328Y420289D01*
X432982Y418934D01*
X431066Y417018D01*
X429711Y414672D01*
X429010Y412055D01*
Y409345D01*
X429711Y406728D01*
X431066Y404382D01*
X432982Y402466D01*
X435328Y401111D01*
X437945Y400410D01*
X440655D01*
X443272Y401111D01*
X445618Y402466D01*
X447534Y404382D01*
X448889Y406728D01*
X449590Y409345D01*
Y412055D01*
X448889Y414672D01*
X447534Y417018D01*
X445618Y418934D01*
X443272Y420289D01*
X440655Y420990D01*
D02*
G37*
G36*
X415255D02*
X412545D01*
X409928Y420289D01*
X407582Y418934D01*
X405666Y417018D01*
X404311Y414672D01*
X403610Y412055D01*
Y409345D01*
X404311Y406728D01*
X405666Y404382D01*
X407582Y402466D01*
X409928Y401111D01*
X412545Y400410D01*
X415255D01*
X417872Y401111D01*
X420218Y402466D01*
X422134Y404382D01*
X423489Y406728D01*
X424190Y409345D01*
Y412055D01*
X423489Y414672D01*
X422134Y417018D01*
X420218Y418934D01*
X417872Y420289D01*
X415255Y420990D01*
D02*
G37*
G36*
X389855D02*
X387145D01*
X384528Y420289D01*
X382182Y418934D01*
X380266Y417018D01*
X378911Y414672D01*
X378210Y412055D01*
Y409345D01*
X378911Y406728D01*
X380266Y404382D01*
X382182Y402466D01*
X384528Y401111D01*
X387145Y400410D01*
X389855D01*
X392472Y401111D01*
X394818Y402466D01*
X396734Y404382D01*
X398089Y406728D01*
X398790Y409345D01*
Y412055D01*
X398089Y414672D01*
X396734Y417018D01*
X394818Y418934D01*
X392472Y420289D01*
X389855Y420990D01*
D02*
G37*
G36*
X364455D02*
X361745D01*
X359128Y420289D01*
X356782Y418934D01*
X354866Y417018D01*
X353511Y414672D01*
X352810Y412055D01*
Y409345D01*
X353511Y406728D01*
X354866Y404382D01*
X356782Y402466D01*
X359128Y401111D01*
X361745Y400410D01*
X364455D01*
X367072Y401111D01*
X369418Y402466D01*
X371334Y404382D01*
X372689Y406728D01*
X373390Y409345D01*
Y412055D01*
X372689Y414672D01*
X371334Y417018D01*
X369418Y418934D01*
X367072Y420289D01*
X364455Y420990D01*
D02*
G37*
G36*
X339055D02*
X336345D01*
X333728Y420289D01*
X331382Y418934D01*
X329466Y417018D01*
X328111Y414672D01*
X327410Y412055D01*
Y409345D01*
X328111Y406728D01*
X329466Y404382D01*
X331382Y402466D01*
X333728Y401111D01*
X336345Y400410D01*
X339055D01*
X341672Y401111D01*
X344018Y402466D01*
X345934Y404382D01*
X347289Y406728D01*
X347990Y409345D01*
Y412055D01*
X347289Y414672D01*
X345934Y417018D01*
X344018Y418934D01*
X341672Y420289D01*
X339055Y420990D01*
D02*
G37*
G36*
X239440Y444030D02*
X210360D01*
Y436840D01*
X210360Y435760D01*
X210360Y433760D01*
Y416840D01*
X210360Y415760D01*
X210360Y413760D01*
Y396840D01*
X210360Y395760D01*
X210360Y393760D01*
Y376840D01*
X210360Y375760D01*
X210360Y373760D01*
Y356840D01*
X210360Y355760D01*
X210360Y353760D01*
Y336840D01*
X210360Y335760D01*
X210360Y333760D01*
Y316840D01*
X210360Y315760D01*
X210360Y313760D01*
Y306570D01*
X239440D01*
Y313760D01*
X239440Y314840D01*
X239440Y316840D01*
Y320162D01*
X249175D01*
X250070Y319267D01*
X251789Y318274D01*
X253707Y317760D01*
X255692D01*
X257610Y318274D01*
X259329Y319267D01*
X260733Y320671D01*
X261726Y322390D01*
X262240Y324308D01*
Y326293D01*
X261726Y328211D01*
X260733Y329930D01*
X259329Y331334D01*
X257610Y332327D01*
X255692Y332840D01*
X253707D01*
X251789Y332327D01*
X250070Y331334D01*
X249175Y330439D01*
X240854D01*
X239440Y331853D01*
X239440Y334840D01*
X239440Y336840D01*
Y340162D01*
X249175D01*
X250070Y339267D01*
X251789Y338274D01*
X253707Y337760D01*
X255692D01*
X257610Y338274D01*
X259329Y339267D01*
X260733Y340671D01*
X261726Y342390D01*
X262240Y344308D01*
Y346293D01*
X261726Y348211D01*
X260733Y349930D01*
X259329Y351334D01*
X257610Y352327D01*
X255692Y352840D01*
X253707D01*
X251789Y352327D01*
X250070Y351334D01*
X249175Y350439D01*
X240854D01*
X239440Y351853D01*
X239440Y354840D01*
X239440Y356840D01*
Y360162D01*
X269176D01*
X270070Y359267D01*
X271790Y358274D01*
X273707Y357760D01*
X275693D01*
X277610Y358274D01*
X279330Y359267D01*
X280734Y360671D01*
X281726Y362390D01*
X282240Y364308D01*
Y366293D01*
X281726Y368211D01*
X280734Y369930D01*
X279330Y371334D01*
X277610Y372327D01*
X275693Y372840D01*
X273707D01*
X271790Y372327D01*
X270070Y371334D01*
X269176Y370439D01*
X240854D01*
X239440Y371853D01*
X239440Y374840D01*
X239440Y376840D01*
Y380162D01*
X269176D01*
X270070Y379267D01*
X271790Y378274D01*
X273707Y377760D01*
X275693D01*
X277610Y378274D01*
X279330Y379267D01*
X280734Y380671D01*
X281726Y382390D01*
X282240Y384308D01*
Y386293D01*
X281726Y388211D01*
X280734Y389930D01*
X279330Y391334D01*
X277610Y392327D01*
X275693Y392840D01*
X273707D01*
X271790Y392327D01*
X270070Y391334D01*
X269176Y390439D01*
X240854D01*
X239440Y391853D01*
X239440Y394840D01*
X239440Y396840D01*
Y400162D01*
X249175D01*
X250070Y399267D01*
X251790Y398274D01*
X253707Y397760D01*
X255693D01*
X257610Y398274D01*
X259330Y399267D01*
X260734Y400671D01*
X261726Y402390D01*
X262240Y404308D01*
Y406293D01*
X261726Y408211D01*
X260734Y409930D01*
X259330Y411334D01*
X257610Y412327D01*
X255693Y412840D01*
X253707D01*
X251790Y412327D01*
X250070Y411334D01*
X249175Y410439D01*
X240854D01*
X239440Y411853D01*
X239440Y414840D01*
X239440Y416840D01*
Y433760D01*
X239440Y434840D01*
X239440Y436840D01*
Y444030D01*
D02*
G37*
G36*
X821655Y395590D02*
X818945D01*
X816328Y394889D01*
X813982Y393534D01*
X812066Y391618D01*
X810711Y389272D01*
X810010Y386655D01*
Y383945D01*
X810711Y381328D01*
X812066Y378982D01*
X813982Y377066D01*
X816328Y375711D01*
X818945Y375010D01*
X821655D01*
X824272Y375711D01*
X826618Y377066D01*
X828534Y378982D01*
X829889Y381328D01*
X830590Y383945D01*
Y386655D01*
X829889Y389272D01*
X828534Y391618D01*
X826618Y393534D01*
X824272Y394889D01*
X821655Y395590D01*
D02*
G37*
G36*
X796255D02*
X793545D01*
X790928Y394889D01*
X788582Y393534D01*
X786666Y391618D01*
X785311Y389272D01*
X784610Y386655D01*
Y383945D01*
X785311Y381328D01*
X786666Y378982D01*
X788582Y377066D01*
X790928Y375711D01*
X793545Y375010D01*
X796255D01*
X798872Y375711D01*
X801218Y377066D01*
X803134Y378982D01*
X804489Y381328D01*
X805190Y383945D01*
Y386655D01*
X804489Y389272D01*
X803134Y391618D01*
X801218Y393534D01*
X798872Y394889D01*
X796255Y395590D01*
D02*
G37*
G36*
X770855D02*
X768145D01*
X765528Y394889D01*
X763182Y393534D01*
X761266Y391618D01*
X759911Y389272D01*
X759210Y386655D01*
Y383945D01*
X759911Y381328D01*
X761266Y378982D01*
X763182Y377066D01*
X765528Y375711D01*
X768145Y375010D01*
X770855D01*
X773472Y375711D01*
X775818Y377066D01*
X777734Y378982D01*
X779089Y381328D01*
X779790Y383945D01*
Y386655D01*
X779089Y389272D01*
X777734Y391618D01*
X775818Y393534D01*
X773472Y394889D01*
X770855Y395590D01*
D02*
G37*
G36*
X745455D02*
X742745D01*
X740128Y394889D01*
X737782Y393534D01*
X735866Y391618D01*
X734511Y389272D01*
X733810Y386655D01*
Y383945D01*
X734511Y381328D01*
X735866Y378982D01*
X737782Y377066D01*
X740128Y375711D01*
X742745Y375010D01*
X745455D01*
X748072Y375711D01*
X750418Y377066D01*
X752334Y378982D01*
X753689Y381328D01*
X754390Y383945D01*
Y386655D01*
X753689Y389272D01*
X752334Y391618D01*
X750418Y393534D01*
X748072Y394889D01*
X745455Y395590D01*
D02*
G37*
G36*
X720055D02*
X717345D01*
X714728Y394889D01*
X712382Y393534D01*
X710466Y391618D01*
X709111Y389272D01*
X708410Y386655D01*
Y383945D01*
X709111Y381328D01*
X710466Y378982D01*
X712382Y377066D01*
X714728Y375711D01*
X717345Y375010D01*
X720055D01*
X722672Y375711D01*
X725018Y377066D01*
X726934Y378982D01*
X728289Y381328D01*
X728990Y383945D01*
Y386655D01*
X728289Y389272D01*
X726934Y391618D01*
X725018Y393534D01*
X722672Y394889D01*
X720055Y395590D01*
D02*
G37*
G36*
X694655D02*
X691945D01*
X689328Y394889D01*
X686982Y393534D01*
X685066Y391618D01*
X683711Y389272D01*
X683010Y386655D01*
Y383945D01*
X683711Y381328D01*
X685066Y378982D01*
X686982Y377066D01*
X689328Y375711D01*
X691945Y375010D01*
X694655D01*
X697272Y375711D01*
X699618Y377066D01*
X701534Y378982D01*
X702889Y381328D01*
X703590Y383945D01*
Y386655D01*
X702889Y389272D01*
X701534Y391618D01*
X699618Y393534D01*
X697272Y394889D01*
X694655Y395590D01*
D02*
G37*
G36*
X466055D02*
X463345D01*
X460728Y394889D01*
X458382Y393534D01*
X456466Y391618D01*
X455111Y389272D01*
X454410Y386655D01*
Y383945D01*
X455111Y381328D01*
X456466Y378982D01*
X458382Y377066D01*
X460728Y375711D01*
X463345Y375010D01*
X466055D01*
X468672Y375711D01*
X471018Y377066D01*
X472934Y378982D01*
X474289Y381328D01*
X474990Y383945D01*
Y386655D01*
X474289Y389272D01*
X472934Y391618D01*
X471018Y393534D01*
X468672Y394889D01*
X466055Y395590D01*
D02*
G37*
G36*
X440655D02*
X437945D01*
X435328Y394889D01*
X432982Y393534D01*
X431066Y391618D01*
X429711Y389272D01*
X429010Y386655D01*
Y383945D01*
X429711Y381328D01*
X431066Y378982D01*
X432982Y377066D01*
X435328Y375711D01*
X437945Y375010D01*
X440655D01*
X443272Y375711D01*
X445618Y377066D01*
X447534Y378982D01*
X448889Y381328D01*
X449590Y383945D01*
Y386655D01*
X448889Y389272D01*
X447534Y391618D01*
X445618Y393534D01*
X443272Y394889D01*
X440655Y395590D01*
D02*
G37*
G36*
X415255D02*
X412545D01*
X409928Y394889D01*
X407582Y393534D01*
X405666Y391618D01*
X404311Y389272D01*
X403610Y386655D01*
Y383945D01*
X404311Y381328D01*
X405666Y378982D01*
X407582Y377066D01*
X409928Y375711D01*
X412545Y375010D01*
X415255D01*
X417872Y375711D01*
X420218Y377066D01*
X422134Y378982D01*
X423489Y381328D01*
X424190Y383945D01*
Y386655D01*
X423489Y389272D01*
X422134Y391618D01*
X420218Y393534D01*
X417872Y394889D01*
X415255Y395590D01*
D02*
G37*
G36*
X389855D02*
X387145D01*
X384528Y394889D01*
X382182Y393534D01*
X380266Y391618D01*
X378911Y389272D01*
X378210Y386655D01*
Y383945D01*
X378911Y381328D01*
X380266Y378982D01*
X382182Y377066D01*
X384528Y375711D01*
X387145Y375010D01*
X389855D01*
X392472Y375711D01*
X394818Y377066D01*
X396734Y378982D01*
X398089Y381328D01*
X398790Y383945D01*
Y386655D01*
X398089Y389272D01*
X396734Y391618D01*
X394818Y393534D01*
X392472Y394889D01*
X389855Y395590D01*
D02*
G37*
G36*
X364455D02*
X361745D01*
X359128Y394889D01*
X356782Y393534D01*
X354866Y391618D01*
X353511Y389272D01*
X352810Y386655D01*
Y383945D01*
X353511Y381328D01*
X354866Y378982D01*
X356782Y377066D01*
X359128Y375711D01*
X361745Y375010D01*
X364455D01*
X367072Y375711D01*
X369418Y377066D01*
X371334Y378982D01*
X372689Y381328D01*
X373390Y383945D01*
Y386655D01*
X372689Y389272D01*
X371334Y391618D01*
X369418Y393534D01*
X367072Y394889D01*
X364455Y395590D01*
D02*
G37*
G36*
X339055D02*
X336345D01*
X333728Y394889D01*
X331382Y393534D01*
X329466Y391618D01*
X328111Y389272D01*
X327410Y386655D01*
Y383945D01*
X328111Y381328D01*
X329466Y378982D01*
X331382Y377066D01*
X333728Y375711D01*
X336345Y375010D01*
X339055D01*
X341672Y375711D01*
X344018Y377066D01*
X345934Y378982D01*
X347289Y381328D01*
X347990Y383945D01*
Y386655D01*
X347289Y389272D01*
X345934Y391618D01*
X344018Y393534D01*
X341672Y394889D01*
X339055Y395590D01*
D02*
G37*
G36*
X821655Y370190D02*
X818945D01*
X816328Y369489D01*
X813982Y368134D01*
X812066Y366218D01*
X810711Y363872D01*
X810010Y361255D01*
Y358545D01*
X810711Y355928D01*
X812066Y353582D01*
X813982Y351666D01*
X816328Y350311D01*
X818945Y349610D01*
X821655D01*
X824272Y350311D01*
X826618Y351666D01*
X828534Y353582D01*
X829889Y355928D01*
X830590Y358545D01*
Y361255D01*
X829889Y363872D01*
X828534Y366218D01*
X826618Y368134D01*
X824272Y369489D01*
X821655Y370190D01*
D02*
G37*
G36*
X796255D02*
X793545D01*
X790928Y369489D01*
X788582Y368134D01*
X786666Y366218D01*
X785311Y363872D01*
X784610Y361255D01*
Y358545D01*
X785311Y355928D01*
X786666Y353582D01*
X788582Y351666D01*
X790928Y350311D01*
X793545Y349610D01*
X796255D01*
X798872Y350311D01*
X801218Y351666D01*
X803134Y353582D01*
X804489Y355928D01*
X805190Y358545D01*
Y361255D01*
X804489Y363872D01*
X803134Y366218D01*
X801218Y368134D01*
X798872Y369489D01*
X796255Y370190D01*
D02*
G37*
G36*
X770855D02*
X768145D01*
X765528Y369489D01*
X763182Y368134D01*
X761266Y366218D01*
X759911Y363872D01*
X759210Y361255D01*
Y358545D01*
X759911Y355928D01*
X761266Y353582D01*
X763182Y351666D01*
X765528Y350311D01*
X768145Y349610D01*
X770855D01*
X773472Y350311D01*
X775818Y351666D01*
X777734Y353582D01*
X779089Y355928D01*
X779790Y358545D01*
Y361255D01*
X779089Y363872D01*
X777734Y366218D01*
X775818Y368134D01*
X773472Y369489D01*
X770855Y370190D01*
D02*
G37*
G36*
X745455D02*
X742745D01*
X740128Y369489D01*
X737782Y368134D01*
X735866Y366218D01*
X734511Y363872D01*
X733810Y361255D01*
Y358545D01*
X734511Y355928D01*
X735866Y353582D01*
X737782Y351666D01*
X740128Y350311D01*
X742745Y349610D01*
X745455D01*
X748072Y350311D01*
X750418Y351666D01*
X752334Y353582D01*
X753689Y355928D01*
X754390Y358545D01*
Y361255D01*
X753689Y363872D01*
X752334Y366218D01*
X750418Y368134D01*
X748072Y369489D01*
X745455Y370190D01*
D02*
G37*
G36*
X720055D02*
X717345D01*
X714728Y369489D01*
X712382Y368134D01*
X710466Y366218D01*
X709111Y363872D01*
X708410Y361255D01*
Y358545D01*
X709111Y355928D01*
X710466Y353582D01*
X712382Y351666D01*
X714728Y350311D01*
X717345Y349610D01*
X720055D01*
X722672Y350311D01*
X725018Y351666D01*
X726934Y353582D01*
X728289Y355928D01*
X728990Y358545D01*
Y361255D01*
X728289Y363872D01*
X726934Y366218D01*
X725018Y368134D01*
X722672Y369489D01*
X720055Y370190D01*
D02*
G37*
G36*
X694655D02*
X691945D01*
X689328Y369489D01*
X686982Y368134D01*
X685066Y366218D01*
X683711Y363872D01*
X683010Y361255D01*
Y358545D01*
X683711Y355928D01*
X685066Y353582D01*
X686982Y351666D01*
X689328Y350311D01*
X691945Y349610D01*
X694655D01*
X697272Y350311D01*
X699618Y351666D01*
X701534Y353582D01*
X702889Y355928D01*
X703590Y358545D01*
Y361255D01*
X702889Y363872D01*
X701534Y366218D01*
X699618Y368134D01*
X697272Y369489D01*
X694655Y370190D01*
D02*
G37*
G36*
X611000Y485605D02*
X556000D01*
X554032Y485346D01*
X552957Y484901D01*
X552197Y484586D01*
X550622Y483378D01*
X503622Y436378D01*
X502414Y434803D01*
X501654Y432968D01*
X501395Y431000D01*
Y390150D01*
X453850Y342605D01*
X383000D01*
X381032Y342346D01*
X379957Y341901D01*
X379198Y341586D01*
X377622Y340378D01*
X344850Y307605D01*
X344000D01*
X343506Y307540D01*
X343007D01*
X342526Y307411D01*
X342032Y307346D01*
X341571Y307155D01*
X341090Y307026D01*
X340658Y306777D01*
X340197Y306586D01*
X339802Y306283D01*
X339370Y306033D01*
X339018Y305681D01*
X338622Y305378D01*
X338319Y304982D01*
X337966Y304630D01*
X337717Y304198D01*
X337646Y304105D01*
X337555Y304068D01*
X336500Y303926D01*
X335445Y304068D01*
X335354Y304105D01*
X335283Y304198D01*
X335033Y304630D01*
X334681Y304982D01*
X334378Y305378D01*
X333982Y305681D01*
X333630Y306033D01*
X333198Y306283D01*
X332803Y306586D01*
X332342Y306777D01*
X331910Y307026D01*
X331429Y307155D01*
X330968Y307346D01*
X330474Y307411D01*
X329993Y307540D01*
X329494D01*
X329000Y307605D01*
X322540D01*
Y311280D01*
X297460D01*
Y305510D01*
Y292810D01*
Y280110D01*
Y266889D01*
X288750D01*
X286784Y266498D01*
X285116Y265384D01*
X275366Y255634D01*
X274252Y253967D01*
X273861Y252000D01*
Y242129D01*
X261273Y229540D01*
X260007D01*
X258090Y229026D01*
X256370Y228034D01*
X254967Y226630D01*
X253974Y224910D01*
X253460Y222993D01*
Y221007D01*
X253974Y219090D01*
X254967Y217370D01*
X256370Y215966D01*
X258090Y214974D01*
X260007Y214460D01*
X261993D01*
X263910Y214974D01*
X265630Y215966D01*
X267034Y217370D01*
X268026Y219090D01*
X268540Y221007D01*
Y222273D01*
X272450Y226183D01*
X274593Y225497D01*
X274660Y225098D01*
X273974Y223910D01*
X273460Y221993D01*
Y220007D01*
X273974Y218090D01*
X274967Y216370D01*
X276370Y214967D01*
X278090Y213974D01*
X280007Y213460D01*
X281364D01*
X282261Y211742D01*
X282290Y211557D01*
X279428Y208695D01*
X278314Y207028D01*
X277922Y205061D01*
Y203524D01*
X277028Y202630D01*
X276035Y200910D01*
X275521Y198993D01*
Y197007D01*
X276035Y195090D01*
X277028Y193370D01*
X278431Y191966D01*
X280151Y190974D01*
X282069Y190460D01*
X284054D01*
X285972Y190974D01*
X287691Y191966D01*
X289095Y193370D01*
X290087Y195090D01*
X290601Y197007D01*
Y198993D01*
X290087Y200910D01*
X289095Y202630D01*
X288496Y203228D01*
X291079Y205811D01*
X297460D01*
Y191210D01*
Y178510D01*
Y165810D01*
Y161310D01*
X295684Y159965D01*
X295460Y159967D01*
X294378Y161378D01*
X233378Y222378D01*
X231803Y223586D01*
X229968Y224346D01*
X228000Y224605D01*
X96150D01*
X53605Y267150D01*
Y347850D01*
X63360Y357605D01*
X65360Y357477D01*
X65360Y355760D01*
X65360Y353760D01*
Y336840D01*
X65360Y335760D01*
X65360Y333760D01*
Y316840D01*
X65360Y315760D01*
X65360Y313760D01*
Y295760D01*
X94440D01*
Y300162D01*
X127175D01*
X128070Y299267D01*
X129789Y298274D01*
X131707Y297760D01*
X133692D01*
X135610Y298274D01*
X137329Y299267D01*
X138733Y300671D01*
X139726Y302390D01*
X140240Y304308D01*
Y306293D01*
X139726Y308211D01*
X138733Y309930D01*
X137329Y311334D01*
X135610Y312327D01*
X133692Y312840D01*
X131707D01*
X129789Y312327D01*
X128070Y311334D01*
X127175Y310439D01*
X95854D01*
X94440Y311853D01*
X94440Y314840D01*
X94440Y316840D01*
Y320162D01*
X97175D01*
X98070Y319267D01*
X99789Y318274D01*
X101707Y317760D01*
X103692D01*
X105610Y318274D01*
X107329Y319267D01*
X108733Y320671D01*
X109726Y322390D01*
X110240Y324308D01*
Y326293D01*
X109726Y328211D01*
X108733Y329930D01*
X107329Y331334D01*
X105610Y332327D01*
X103692Y332840D01*
X101707D01*
X99789Y332327D01*
X98070Y331334D01*
X97655Y330919D01*
X95374D01*
X94440Y331853D01*
X94440Y334840D01*
X94440Y336840D01*
Y340162D01*
X111175D01*
X112070Y339267D01*
X113789Y338274D01*
X115707Y337760D01*
X117692D01*
X119610Y338274D01*
X121329Y339267D01*
X122733Y340671D01*
X123726Y342390D01*
X124240Y344308D01*
Y346293D01*
X123726Y348211D01*
X122733Y349930D01*
X121329Y351334D01*
X119610Y352327D01*
X117692Y352840D01*
X115707D01*
X113789Y352327D01*
X112070Y351334D01*
X111175Y350439D01*
X95854D01*
X94440Y351853D01*
X94440Y354840D01*
X94440Y356840D01*
Y373760D01*
X94440Y374840D01*
X94440Y376840D01*
Y393760D01*
X94440Y394840D01*
X94440Y396840D01*
Y413760D01*
X94440Y414840D01*
X94440Y416840D01*
Y424030D01*
X65360D01*
Y416840D01*
X65360Y415760D01*
X65360Y413760D01*
Y396840D01*
X65360Y395760D01*
X65360Y393760D01*
Y376840D01*
X65360Y375760D01*
X65360Y374320D01*
X63946Y372905D01*
X60300D01*
X58332Y372646D01*
X56498Y371887D01*
X54923Y370678D01*
X40622Y356378D01*
X39414Y354803D01*
X38654Y352968D01*
X38395Y351000D01*
Y264000D01*
X38654Y262032D01*
X39414Y260197D01*
X40622Y258622D01*
X87622Y211622D01*
X89198Y210414D01*
X91032Y209654D01*
X93000Y209395D01*
X200823D01*
X202396Y208365D01*
X202396Y207395D01*
Y194395D01*
X203861D01*
Y191790D01*
X202960D01*
Y178210D01*
X213460D01*
X215040Y178210D01*
X217040Y178210D01*
X220230D01*
Y185000D01*
Y191790D01*
X216817D01*
X215383Y193758D01*
X215604Y194395D01*
X215604D01*
Y207395D01*
X215604Y208365D01*
X217177Y209395D01*
X224850D01*
X281395Y152850D01*
Y140000D01*
X281654Y138032D01*
X282414Y136197D01*
X283622Y134622D01*
X303807Y114438D01*
X303042Y112590D01*
X292250D01*
X291259Y112393D01*
X290419Y111831D01*
X289890Y111040D01*
X282020D01*
Y104000D01*
Y96960D01*
X289890D01*
X290419Y96169D01*
X291259Y95607D01*
X291347Y95590D01*
X291150Y93590D01*
X289040D01*
Y93789D01*
X272960D01*
Y83210D01*
Y80270D01*
X281000D01*
Y77730D01*
X272960D01*
Y73710D01*
Y64211D01*
X272960D01*
X273786Y62211D01*
X273460Y60993D01*
Y59007D01*
X273974Y57090D01*
X274967Y55370D01*
X276370Y53966D01*
X278090Y52974D01*
X280007Y52460D01*
X281993D01*
X283910Y52974D01*
X285630Y53966D01*
X287034Y55370D01*
X288026Y57090D01*
X288356Y58320D01*
X289853Y58461D01*
X290443Y58381D01*
X290919Y57669D01*
X297210Y51378D01*
Y49960D01*
X299500D01*
X299750Y49910D01*
X300000Y49960D01*
X311290D01*
Y93410D01*
X311290Y94040D01*
X312722Y95410D01*
X316660D01*
Y51000D01*
X316857Y50009D01*
X317419Y49169D01*
X318259Y48607D01*
X319250Y48410D01*
X339250D01*
X340241Y48607D01*
X341082Y49169D01*
X341643Y50009D01*
X341840Y51000D01*
Y64395D01*
X351850D01*
X356622Y59622D01*
X358198Y58414D01*
X358957Y58099D01*
X360032Y57654D01*
X362000Y57395D01*
X375460D01*
Y53460D01*
X393540D01*
Y76540D01*
X375460D01*
Y72605D01*
X365150D01*
X360378Y77378D01*
X358802Y78586D01*
X356968Y79346D01*
X355000Y79605D01*
X341840D01*
Y95410D01*
X347835D01*
X361622Y81622D01*
X363198Y80414D01*
X365032Y79654D01*
X367000Y79395D01*
X433850D01*
X446622Y66622D01*
X448198Y65414D01*
X448957Y65099D01*
X450032Y64654D01*
X452000Y64395D01*
X626850D01*
X680622Y10622D01*
X682197Y9414D01*
X684032Y8654D01*
X686000Y8395D01*
X754750D01*
X756718Y8654D01*
X758552Y9414D01*
X760128Y10622D01*
X767965Y18460D01*
X779540D01*
Y41540D01*
X775605D01*
Y55960D01*
X782730D01*
Y66000D01*
X785270D01*
Y55960D01*
X792730D01*
Y66000D01*
X795270D01*
Y55960D01*
X802730D01*
Y66000D01*
X805270D01*
Y55960D01*
X814230D01*
Y66000D01*
X815500D01*
Y67270D01*
X823040D01*
Y73410D01*
X826000D01*
X826992Y73607D01*
X827832Y74169D01*
X828393Y75009D01*
X828590Y76000D01*
Y144000D01*
X828393Y144991D01*
X827832Y145831D01*
X826992Y146393D01*
X826000Y146590D01*
X823040D01*
Y152730D01*
X815500D01*
Y154000D01*
X814230D01*
Y164040D01*
X805270D01*
Y154000D01*
X802730D01*
Y164040D01*
X775270D01*
Y154000D01*
Y143960D01*
X775411D01*
Y76040D01*
X773139D01*
Y77000D01*
X772748Y78966D01*
X771634Y80634D01*
X767634Y84634D01*
X765966Y85748D01*
X764000Y86139D01*
X700040D01*
Y88730D01*
X679960D01*
Y83960D01*
X690080D01*
X690845Y82112D01*
X690366Y81634D01*
X689252Y79967D01*
X688861Y78000D01*
Y76040D01*
X687960D01*
Y55960D01*
X722730D01*
Y66000D01*
X725270D01*
Y55960D01*
X732730D01*
Y66000D01*
X735270D01*
Y55960D01*
X748861D01*
Y46129D01*
X738871Y36139D01*
X735290D01*
Y37790D01*
X723210D01*
Y37790D01*
X722790D01*
Y37790D01*
X710710D01*
Y36139D01*
X697129D01*
X659634Y73634D01*
X657967Y74748D01*
X656000Y75139D01*
X648327D01*
X636832Y86634D01*
X635165Y87748D01*
X633199Y88139D01*
X576129D01*
X555634Y108634D01*
X555293Y108861D01*
X555900Y110861D01*
X611222D01*
X612636Y109447D01*
X612636Y107745D01*
X611098Y105899D01*
X607280D01*
Y107550D01*
X596780D01*
X595200Y107550D01*
X593200Y107550D01*
X590010D01*
Y100760D01*
Y93970D01*
X593200D01*
X594780Y93970D01*
X596780Y93970D01*
X607280D01*
Y95621D01*
X612636D01*
Y93775D01*
X625844D01*
Y107015D01*
X625844Y109015D01*
X627382Y110861D01*
X636710D01*
Y109210D01*
X648790D01*
Y109210D01*
X649210D01*
Y109210D01*
X661290D01*
Y109851D01*
X663290Y110443D01*
X666859Y106874D01*
X666446Y104790D01*
X666421Y104747D01*
X664753Y103634D01*
X664258Y103139D01*
X661290D01*
Y104790D01*
X650790D01*
X649210Y104790D01*
X647210Y104790D01*
X644020D01*
Y98000D01*
Y91210D01*
X647210D01*
X648790Y91210D01*
X650790Y91210D01*
X661290D01*
Y92861D01*
X666387D01*
X668354Y93252D01*
X670021Y94366D01*
X670516Y94861D01*
X679960D01*
Y91270D01*
X700040D01*
Y93960D01*
Y103960D01*
Y113960D01*
Y123960D01*
Y128730D01*
X679960D01*
Y123960D01*
Y115139D01*
X673129D01*
X668634Y119634D01*
X666966Y120748D01*
X665000Y121139D01*
X661290D01*
Y122790D01*
X649210D01*
Y122790D01*
X648790D01*
Y122790D01*
X636710D01*
Y121139D01*
X625844D01*
Y122985D01*
X612636D01*
Y121139D01*
X381525D01*
X380630Y122034D01*
X380083Y124646D01*
X380252Y124910D01*
X459190D01*
Y143074D01*
X461190Y143633D01*
X462584Y142703D01*
X464550Y142311D01*
X467460D01*
Y140410D01*
X492540D01*
Y155011D01*
X505395D01*
Y153396D01*
X519365D01*
Y153396D01*
X520481D01*
X522481Y153025D01*
Y147243D01*
X521160Y145790D01*
X519580Y145790D01*
X516390D01*
Y139000D01*
Y132210D01*
X519580D01*
X521160Y132210D01*
X523160Y132210D01*
X533660D01*
Y145790D01*
X532759D01*
Y153396D01*
X534605D01*
Y161515D01*
X536453Y162280D01*
X568366Y130366D01*
X570033Y129252D01*
X572000Y128861D01*
X636710D01*
Y127210D01*
X648790D01*
Y127210D01*
X649210D01*
Y127210D01*
X661290D01*
Y128861D01*
X663801D01*
X665768Y129252D01*
X667435Y130366D01*
X685930Y148861D01*
X687960D01*
Y143960D01*
X732730D01*
Y154000D01*
Y164040D01*
X728514D01*
X728277Y165232D01*
X727273Y166734D01*
X724789Y169218D01*
X724747Y169427D01*
X723634Y171094D01*
X712094Y182634D01*
X710427Y183748D01*
X708460Y184139D01*
X679000D01*
X677033Y183748D01*
X675366Y182634D01*
X663872Y171139D01*
X661290D01*
Y172790D01*
X649210D01*
Y172790D01*
X648790D01*
Y172790D01*
X636710D01*
Y171139D01*
X571129D01*
X537634Y204634D01*
X535966Y205748D01*
X534000Y206139D01*
X519524D01*
X518630Y207034D01*
X516910Y208026D01*
X514993Y208540D01*
X513007D01*
X511090Y208026D01*
X509370Y207034D01*
X507966Y205630D01*
X506974Y203910D01*
X506460Y201993D01*
Y200007D01*
X506974Y198090D01*
X507966Y196370D01*
X509370Y194967D01*
X511090Y193974D01*
X513007Y193460D01*
X514993D01*
X516910Y193974D01*
X518630Y194967D01*
X519524Y195861D01*
X531871D01*
X535044Y192689D01*
X534216Y190689D01*
X492540D01*
Y203910D01*
Y216610D01*
Y229310D01*
Y243911D01*
X499050D01*
X501017Y244303D01*
X502684Y245416D01*
X528129Y270861D01*
X542000D01*
X543966Y271252D01*
X545634Y272366D01*
X566129Y292861D01*
X577408D01*
X577605Y290861D01*
X577034Y290748D01*
X575366Y289634D01*
X568866Y283134D01*
X567752Y281467D01*
X567361Y279500D01*
Y275286D01*
X566460D01*
Y261706D01*
X576960D01*
X578540Y261706D01*
X579861Y260253D01*
Y233413D01*
X576460D01*
Y216333D01*
X593540D01*
Y233413D01*
X590139D01*
Y261706D01*
X591040D01*
Y275286D01*
X580540D01*
X578960Y275286D01*
X577639Y276739D01*
Y277372D01*
X581129Y280861D01*
X612361D01*
Y276739D01*
X611040Y275286D01*
X609460Y275286D01*
X598960D01*
Y261706D01*
X599861D01*
Y231767D01*
X599756Y231707D01*
X598166Y230117D01*
X597042Y228169D01*
X596460Y225997D01*
Y223749D01*
X597042Y221577D01*
X598166Y219629D01*
X599756Y218039D01*
X601704Y216915D01*
X603876Y216333D01*
X606124D01*
X608296Y216915D01*
X610244Y218039D01*
X611834Y219629D01*
X612958Y221577D01*
X613540Y223749D01*
Y225997D01*
X612958Y228169D01*
X611834Y230117D01*
X610244Y231707D01*
X610139Y231767D01*
Y260253D01*
X611460Y261706D01*
X613040Y261706D01*
X623540D01*
Y275286D01*
X622639D01*
Y280861D01*
X627395D01*
Y259150D01*
X619622Y251378D01*
X618414Y249803D01*
X617654Y247968D01*
X617395Y246000D01*
Y228781D01*
X617042Y228169D01*
X616460Y225997D01*
Y223749D01*
X617042Y221577D01*
X618166Y219629D01*
X619756Y218039D01*
X621704Y216915D01*
X623876Y216333D01*
X626124D01*
X628296Y216915D01*
X630244Y218039D01*
X631834Y219629D01*
X632958Y221577D01*
X633540Y223749D01*
Y225997D01*
X632958Y228169D01*
X632605Y228781D01*
Y242850D01*
X640378Y250622D01*
X641586Y252197D01*
X642346Y254032D01*
X642605Y256000D01*
Y305000D01*
X642346Y306968D01*
X641586Y308803D01*
X640378Y310378D01*
X632605Y318150D01*
Y330965D01*
X632958Y331577D01*
X633540Y333749D01*
Y335997D01*
X632958Y338169D01*
X632605Y338781D01*
Y352850D01*
X640378Y360622D01*
X641586Y362197D01*
X642346Y364032D01*
X642605Y366000D01*
Y390000D01*
Y415000D01*
X642346Y416968D01*
X641586Y418802D01*
X640378Y420378D01*
X632605Y428150D01*
Y440965D01*
X632958Y441577D01*
X633540Y443749D01*
Y445997D01*
X632958Y448169D01*
X632605Y448781D01*
Y464000D01*
X632346Y465968D01*
X631901Y467043D01*
X631586Y467803D01*
X630378Y469378D01*
X616378Y483378D01*
X615982Y483681D01*
X615630Y484034D01*
X615198Y484283D01*
X614803Y484586D01*
X614342Y484777D01*
X613910Y485026D01*
X613429Y485155D01*
X612968Y485346D01*
X612474Y485411D01*
X611993Y485540D01*
X611494D01*
X611000Y485605D01*
D02*
G37*
G36*
X646270Y343628D02*
Y336397D01*
X653501D01*
X652958Y338423D01*
X651834Y340371D01*
X650244Y341961D01*
X648296Y343085D01*
X646270Y343628D01*
D02*
G37*
G36*
X643730D02*
X641704Y343085D01*
X639756Y341961D01*
X638166Y340371D01*
X637042Y338423D01*
X636499Y336397D01*
X643730D01*
Y343628D01*
D02*
G37*
G36*
Y333857D02*
X636499D01*
X637042Y331831D01*
X638166Y329883D01*
X639756Y328293D01*
X641704Y327169D01*
X643730Y326626D01*
Y333857D01*
D02*
G37*
G36*
X653501D02*
X646270D01*
Y326626D01*
X648296Y327169D01*
X650244Y328293D01*
X651834Y329883D01*
X652958Y331831D01*
X653501Y333857D01*
D02*
G37*
G36*
X821655Y344790D02*
X818945D01*
X816328Y344089D01*
X813982Y342734D01*
X812066Y340818D01*
X810711Y338472D01*
X810010Y335855D01*
Y333145D01*
X810711Y330528D01*
X812066Y328182D01*
X813982Y326266D01*
X816328Y324911D01*
X818945Y324210D01*
X821655D01*
X824272Y324911D01*
X826618Y326266D01*
X828534Y328182D01*
X829889Y330528D01*
X830590Y333145D01*
Y335855D01*
X829889Y338472D01*
X828534Y340818D01*
X826618Y342734D01*
X824272Y344089D01*
X821655Y344790D01*
D02*
G37*
G36*
X796255D02*
X793545D01*
X790928Y344089D01*
X788582Y342734D01*
X786666Y340818D01*
X785311Y338472D01*
X784610Y335855D01*
Y333145D01*
X785311Y330528D01*
X786666Y328182D01*
X788582Y326266D01*
X790928Y324911D01*
X793545Y324210D01*
X796255D01*
X798872Y324911D01*
X801218Y326266D01*
X803134Y328182D01*
X804489Y330528D01*
X805190Y333145D01*
Y335855D01*
X804489Y338472D01*
X803134Y340818D01*
X801218Y342734D01*
X798872Y344089D01*
X796255Y344790D01*
D02*
G37*
G36*
X770855D02*
X768145D01*
X765528Y344089D01*
X763182Y342734D01*
X761266Y340818D01*
X759911Y338472D01*
X759210Y335855D01*
Y333145D01*
X759911Y330528D01*
X761266Y328182D01*
X763182Y326266D01*
X765528Y324911D01*
X768145Y324210D01*
X770855D01*
X773472Y324911D01*
X775818Y326266D01*
X777734Y328182D01*
X779089Y330528D01*
X779790Y333145D01*
Y335855D01*
X779089Y338472D01*
X777734Y340818D01*
X775818Y342734D01*
X773472Y344089D01*
X770855Y344790D01*
D02*
G37*
G36*
X745455D02*
X742745D01*
X740128Y344089D01*
X737782Y342734D01*
X735866Y340818D01*
X734511Y338472D01*
X733810Y335855D01*
Y333145D01*
X734511Y330528D01*
X735866Y328182D01*
X737782Y326266D01*
X740128Y324911D01*
X742745Y324210D01*
X745455D01*
X748072Y324911D01*
X750418Y326266D01*
X752334Y328182D01*
X753689Y330528D01*
X754390Y333145D01*
Y335855D01*
X753689Y338472D01*
X752334Y340818D01*
X750418Y342734D01*
X748072Y344089D01*
X745455Y344790D01*
D02*
G37*
G36*
X720055D02*
X717345D01*
X714728Y344089D01*
X712382Y342734D01*
X710466Y340818D01*
X709111Y338472D01*
X708410Y335855D01*
Y333145D01*
X709111Y330528D01*
X710466Y328182D01*
X712382Y326266D01*
X714728Y324911D01*
X717345Y324210D01*
X720055D01*
X722672Y324911D01*
X725018Y326266D01*
X726934Y328182D01*
X728289Y330528D01*
X728990Y333145D01*
Y335855D01*
X728289Y338472D01*
X726934Y340818D01*
X725018Y342734D01*
X722672Y344089D01*
X720055Y344790D01*
D02*
G37*
G36*
X694655D02*
X691945D01*
X689328Y344089D01*
X686982Y342734D01*
X685066Y340818D01*
X683711Y338472D01*
X683010Y335855D01*
Y333145D01*
X683711Y330528D01*
X685066Y328182D01*
X686982Y326266D01*
X689328Y324911D01*
X691945Y324210D01*
X694655D01*
X697272Y324911D01*
X699618Y326266D01*
X701534Y328182D01*
X702889Y330528D01*
X703590Y333145D01*
Y335855D01*
X702889Y338472D01*
X701534Y340818D01*
X699618Y342734D01*
X697272Y344089D01*
X694655Y344790D01*
D02*
G37*
G36*
X322540Y319590D02*
X311270D01*
Y313820D01*
X322540D01*
Y319590D01*
D02*
G37*
G36*
X308730D02*
X297460D01*
Y313820D01*
X308730D01*
Y319590D01*
D02*
G37*
G36*
X821655Y319390D02*
X818945D01*
X816328Y318689D01*
X813982Y317334D01*
X812066Y315418D01*
X810711Y313072D01*
X810010Y310455D01*
Y307745D01*
X810711Y305128D01*
X812066Y302782D01*
X813982Y300866D01*
X816328Y299511D01*
X818945Y298810D01*
X821655D01*
X824272Y299511D01*
X826618Y300866D01*
X828534Y302782D01*
X829889Y305128D01*
X830590Y307745D01*
Y310455D01*
X829889Y313072D01*
X828534Y315418D01*
X826618Y317334D01*
X824272Y318689D01*
X821655Y319390D01*
D02*
G37*
G36*
X796255D02*
X793545D01*
X790928Y318689D01*
X788582Y317334D01*
X786666Y315418D01*
X785311Y313072D01*
X784610Y310455D01*
Y307745D01*
X785311Y305128D01*
X786666Y302782D01*
X788582Y300866D01*
X790928Y299511D01*
X793545Y298810D01*
X796255D01*
X798872Y299511D01*
X801218Y300866D01*
X803134Y302782D01*
X804489Y305128D01*
X805190Y307745D01*
Y310455D01*
X804489Y313072D01*
X803134Y315418D01*
X801218Y317334D01*
X798872Y318689D01*
X796255Y319390D01*
D02*
G37*
G36*
X770855D02*
X768145D01*
X765528Y318689D01*
X763182Y317334D01*
X761266Y315418D01*
X759911Y313072D01*
X759210Y310455D01*
Y307745D01*
X759911Y305128D01*
X761266Y302782D01*
X763182Y300866D01*
X765528Y299511D01*
X768145Y298810D01*
X770855D01*
X773472Y299511D01*
X775818Y300866D01*
X777734Y302782D01*
X779089Y305128D01*
X779790Y307745D01*
Y310455D01*
X779089Y313072D01*
X777734Y315418D01*
X775818Y317334D01*
X773472Y318689D01*
X770855Y319390D01*
D02*
G37*
G36*
X745455D02*
X742745D01*
X740128Y318689D01*
X737782Y317334D01*
X735866Y315418D01*
X734511Y313072D01*
X733810Y310455D01*
Y307745D01*
X734511Y305128D01*
X735866Y302782D01*
X737782Y300866D01*
X740128Y299511D01*
X742745Y298810D01*
X745455D01*
X748072Y299511D01*
X750418Y300866D01*
X752334Y302782D01*
X753689Y305128D01*
X754390Y307745D01*
Y310455D01*
X753689Y313072D01*
X752334Y315418D01*
X750418Y317334D01*
X748072Y318689D01*
X745455Y319390D01*
D02*
G37*
G36*
X720055D02*
X717345D01*
X714728Y318689D01*
X712382Y317334D01*
X710466Y315418D01*
X709111Y313072D01*
X708410Y310455D01*
Y307745D01*
X709111Y305128D01*
X710466Y302782D01*
X712382Y300866D01*
X714728Y299511D01*
X717345Y298810D01*
X720055D01*
X722672Y299511D01*
X725018Y300866D01*
X726934Y302782D01*
X728289Y305128D01*
X728990Y307745D01*
Y310455D01*
X728289Y313072D01*
X726934Y315418D01*
X725018Y317334D01*
X722672Y318689D01*
X720055Y319390D01*
D02*
G37*
G36*
X694655D02*
X691945D01*
X689328Y318689D01*
X686982Y317334D01*
X685066Y315418D01*
X683711Y313072D01*
X683010Y310455D01*
Y307745D01*
X683711Y305128D01*
X685066Y302782D01*
X686982Y300866D01*
X689328Y299511D01*
X691945Y298810D01*
X694655D01*
X697272Y299511D01*
X699618Y300866D01*
X701534Y302782D01*
X702889Y305128D01*
X703590Y307745D01*
Y310455D01*
X702889Y313072D01*
X701534Y315418D01*
X699618Y317334D01*
X697272Y318689D01*
X694655Y319390D01*
D02*
G37*
G36*
X239440Y304030D02*
X226170D01*
Y295760D01*
X239440D01*
Y304030D01*
D02*
G37*
G36*
X223630D02*
X210360D01*
Y295760D01*
X223630D01*
Y304030D01*
D02*
G37*
G36*
X821655Y293990D02*
X818945D01*
X816328Y293289D01*
X813982Y291934D01*
X812066Y290018D01*
X810711Y287672D01*
X810010Y285055D01*
Y282345D01*
X810711Y279728D01*
X812066Y277382D01*
X813982Y275466D01*
X816328Y274111D01*
X818945Y273410D01*
X821655D01*
X824272Y274111D01*
X826618Y275466D01*
X828534Y277382D01*
X829889Y279728D01*
X830590Y282345D01*
Y285055D01*
X829889Y287672D01*
X828534Y290018D01*
X826618Y291934D01*
X824272Y293289D01*
X821655Y293990D01*
D02*
G37*
G36*
X796255D02*
X793545D01*
X790928Y293289D01*
X788582Y291934D01*
X786666Y290018D01*
X785311Y287672D01*
X784610Y285055D01*
Y282345D01*
X785311Y279728D01*
X786666Y277382D01*
X788582Y275466D01*
X790928Y274111D01*
X793545Y273410D01*
X796255D01*
X798872Y274111D01*
X801218Y275466D01*
X803134Y277382D01*
X804489Y279728D01*
X805190Y282345D01*
Y285055D01*
X804489Y287672D01*
X803134Y290018D01*
X801218Y291934D01*
X798872Y293289D01*
X796255Y293990D01*
D02*
G37*
G36*
X770855D02*
X768145D01*
X765528Y293289D01*
X763182Y291934D01*
X761266Y290018D01*
X759911Y287672D01*
X759210Y285055D01*
Y282345D01*
X759911Y279728D01*
X761266Y277382D01*
X763182Y275466D01*
X765528Y274111D01*
X768145Y273410D01*
X770855D01*
X773472Y274111D01*
X775818Y275466D01*
X777734Y277382D01*
X779089Y279728D01*
X779790Y282345D01*
Y285055D01*
X779089Y287672D01*
X777734Y290018D01*
X775818Y291934D01*
X773472Y293289D01*
X770855Y293990D01*
D02*
G37*
G36*
X745455D02*
X742745D01*
X740128Y293289D01*
X737782Y291934D01*
X735866Y290018D01*
X734511Y287672D01*
X733810Y285055D01*
Y282345D01*
X734511Y279728D01*
X735866Y277382D01*
X737782Y275466D01*
X740128Y274111D01*
X742745Y273410D01*
X745455D01*
X748072Y274111D01*
X750418Y275466D01*
X752334Y277382D01*
X753689Y279728D01*
X754390Y282345D01*
Y285055D01*
X753689Y287672D01*
X752334Y290018D01*
X750418Y291934D01*
X748072Y293289D01*
X745455Y293990D01*
D02*
G37*
G36*
X720055D02*
X717345D01*
X714728Y293289D01*
X712382Y291934D01*
X710466Y290018D01*
X709111Y287672D01*
X708410Y285055D01*
Y282345D01*
X709111Y279728D01*
X710466Y277382D01*
X712382Y275466D01*
X714728Y274111D01*
X717345Y273410D01*
X720055D01*
X722672Y274111D01*
X725018Y275466D01*
X726934Y277382D01*
X728289Y279728D01*
X728990Y282345D01*
Y285055D01*
X728289Y287672D01*
X726934Y290018D01*
X725018Y291934D01*
X722672Y293289D01*
X720055Y293990D01*
D02*
G37*
G36*
X694655D02*
X691945D01*
X689328Y293289D01*
X686982Y291934D01*
X685066Y290018D01*
X683711Y287672D01*
X683010Y285055D01*
Y282345D01*
X683711Y279728D01*
X685066Y277382D01*
X686982Y275466D01*
X689328Y274111D01*
X691945Y273410D01*
X694655D01*
X697272Y274111D01*
X699618Y275466D01*
X701534Y277382D01*
X702889Y279728D01*
X703590Y282345D01*
Y285055D01*
X702889Y287672D01*
X701534Y290018D01*
X699618Y291934D01*
X697272Y293289D01*
X694655Y293990D01*
D02*
G37*
G36*
X821655Y268590D02*
X818945D01*
X816328Y267889D01*
X813982Y266534D01*
X812066Y264618D01*
X810711Y262272D01*
X810010Y259655D01*
Y256945D01*
X810711Y254328D01*
X812066Y251982D01*
X813982Y250066D01*
X816328Y248711D01*
X818945Y248010D01*
X821655D01*
X824272Y248711D01*
X826618Y250066D01*
X828534Y251982D01*
X829889Y254328D01*
X830590Y256945D01*
Y259655D01*
X829889Y262272D01*
X828534Y264618D01*
X826618Y266534D01*
X824272Y267889D01*
X821655Y268590D01*
D02*
G37*
G36*
X796255D02*
X793545D01*
X790928Y267889D01*
X788582Y266534D01*
X786666Y264618D01*
X785311Y262272D01*
X784610Y259655D01*
Y256945D01*
X785311Y254328D01*
X786666Y251982D01*
X788582Y250066D01*
X790928Y248711D01*
X793545Y248010D01*
X796255D01*
X798872Y248711D01*
X801218Y250066D01*
X803134Y251982D01*
X804489Y254328D01*
X805190Y256945D01*
Y259655D01*
X804489Y262272D01*
X803134Y264618D01*
X801218Y266534D01*
X798872Y267889D01*
X796255Y268590D01*
D02*
G37*
G36*
X770855D02*
X768145D01*
X765528Y267889D01*
X763182Y266534D01*
X761266Y264618D01*
X759911Y262272D01*
X759210Y259655D01*
Y256945D01*
X759911Y254328D01*
X761266Y251982D01*
X763182Y250066D01*
X765528Y248711D01*
X768145Y248010D01*
X770855D01*
X773472Y248711D01*
X775818Y250066D01*
X777734Y251982D01*
X779089Y254328D01*
X779790Y256945D01*
Y259655D01*
X779089Y262272D01*
X777734Y264618D01*
X775818Y266534D01*
X773472Y267889D01*
X770855Y268590D01*
D02*
G37*
G36*
X745455D02*
X742745D01*
X740128Y267889D01*
X737782Y266534D01*
X735866Y264618D01*
X734511Y262272D01*
X733810Y259655D01*
Y256945D01*
X734511Y254328D01*
X735866Y251982D01*
X737782Y250066D01*
X740128Y248711D01*
X742745Y248010D01*
X745455D01*
X748072Y248711D01*
X750418Y250066D01*
X752334Y251982D01*
X753689Y254328D01*
X754390Y256945D01*
Y259655D01*
X753689Y262272D01*
X752334Y264618D01*
X750418Y266534D01*
X748072Y267889D01*
X745455Y268590D01*
D02*
G37*
G36*
X720055D02*
X717345D01*
X714728Y267889D01*
X712382Y266534D01*
X710466Y264618D01*
X709111Y262272D01*
X708410Y259655D01*
Y256945D01*
X709111Y254328D01*
X710466Y251982D01*
X712382Y250066D01*
X714728Y248711D01*
X717345Y248010D01*
X720055D01*
X722672Y248711D01*
X725018Y250066D01*
X726934Y251982D01*
X728289Y254328D01*
X728990Y256945D01*
Y259655D01*
X728289Y262272D01*
X726934Y264618D01*
X725018Y266534D01*
X722672Y267889D01*
X720055Y268590D01*
D02*
G37*
G36*
X694655D02*
X691945D01*
X689328Y267889D01*
X686982Y266534D01*
X685066Y264618D01*
X683711Y262272D01*
X683010Y259655D01*
Y256945D01*
X683711Y254328D01*
X685066Y251982D01*
X686982Y250066D01*
X689328Y248711D01*
X691945Y248010D01*
X694655D01*
X697272Y248711D01*
X699618Y250066D01*
X701534Y251982D01*
X702889Y254328D01*
X703590Y256945D01*
Y259655D01*
X702889Y262272D01*
X701534Y264618D01*
X699618Y266534D01*
X697272Y267889D01*
X694655Y268590D01*
D02*
G37*
G36*
X646270Y233628D02*
Y226397D01*
X653501D01*
X652958Y228423D01*
X651834Y230371D01*
X650244Y231961D01*
X648296Y233085D01*
X646270Y233628D01*
D02*
G37*
G36*
X643730D02*
X641704Y233085D01*
X639756Y231961D01*
X638166Y230371D01*
X637042Y228423D01*
X636499Y226397D01*
X643730D01*
Y233628D01*
D02*
G37*
G36*
X33730Y229540D02*
X28210D01*
Y224770D01*
X33730D01*
Y229540D01*
D02*
G37*
G36*
X51270D02*
Y224270D01*
X57040D01*
Y229540D01*
X51270D01*
D02*
G37*
G36*
X821655Y243190D02*
X818945D01*
X816328Y242489D01*
X813982Y241134D01*
X812066Y239218D01*
X810711Y236872D01*
X810010Y234255D01*
Y231545D01*
X810711Y228928D01*
X812066Y226582D01*
X813982Y224666D01*
X816328Y223311D01*
X818945Y222610D01*
X821655D01*
X824272Y223311D01*
X826618Y224666D01*
X828534Y226582D01*
X829889Y228928D01*
X830590Y231545D01*
Y234255D01*
X829889Y236872D01*
X828534Y239218D01*
X826618Y241134D01*
X824272Y242489D01*
X821655Y243190D01*
D02*
G37*
G36*
X796255D02*
X793545D01*
X790928Y242489D01*
X788582Y241134D01*
X786666Y239218D01*
X785311Y236872D01*
X784610Y234255D01*
Y231545D01*
X785311Y228928D01*
X786666Y226582D01*
X788582Y224666D01*
X790928Y223311D01*
X793545Y222610D01*
X796255D01*
X798872Y223311D01*
X801218Y224666D01*
X803134Y226582D01*
X804489Y228928D01*
X805190Y231545D01*
Y234255D01*
X804489Y236872D01*
X803134Y239218D01*
X801218Y241134D01*
X798872Y242489D01*
X796255Y243190D01*
D02*
G37*
G36*
X770855D02*
X768145D01*
X765528Y242489D01*
X763182Y241134D01*
X761266Y239218D01*
X759911Y236872D01*
X759210Y234255D01*
Y231545D01*
X759911Y228928D01*
X761266Y226582D01*
X763182Y224666D01*
X765528Y223311D01*
X768145Y222610D01*
X770855D01*
X773472Y223311D01*
X775818Y224666D01*
X777734Y226582D01*
X779089Y228928D01*
X779790Y231545D01*
Y234255D01*
X779089Y236872D01*
X777734Y239218D01*
X775818Y241134D01*
X773472Y242489D01*
X770855Y243190D01*
D02*
G37*
G36*
X745455D02*
X742745D01*
X740128Y242489D01*
X737782Y241134D01*
X735866Y239218D01*
X734511Y236872D01*
X733810Y234255D01*
Y231545D01*
X734511Y228928D01*
X735866Y226582D01*
X737782Y224666D01*
X740128Y223311D01*
X742745Y222610D01*
X745455D01*
X748072Y223311D01*
X750418Y224666D01*
X752334Y226582D01*
X753689Y228928D01*
X754390Y231545D01*
Y234255D01*
X753689Y236872D01*
X752334Y239218D01*
X750418Y241134D01*
X748072Y242489D01*
X745455Y243190D01*
D02*
G37*
G36*
X720055D02*
X717345D01*
X714728Y242489D01*
X712382Y241134D01*
X710466Y239218D01*
X709111Y236872D01*
X708410Y234255D01*
Y231545D01*
X709111Y228928D01*
X710466Y226582D01*
X712382Y224666D01*
X714728Y223311D01*
X717345Y222610D01*
X720055D01*
X722672Y223311D01*
X725018Y224666D01*
X726934Y226582D01*
X728289Y228928D01*
X728990Y231545D01*
Y234255D01*
X728289Y236872D01*
X726934Y239218D01*
X725018Y241134D01*
X722672Y242489D01*
X720055Y243190D01*
D02*
G37*
G36*
X694655D02*
X691945D01*
X689328Y242489D01*
X686982Y241134D01*
X685066Y239218D01*
X683711Y236872D01*
X683010Y234255D01*
Y231545D01*
X683711Y228928D01*
X685066Y226582D01*
X686982Y224666D01*
X689328Y223311D01*
X691945Y222610D01*
X694655D01*
X697272Y223311D01*
X699618Y224666D01*
X701534Y226582D01*
X702889Y228928D01*
X703590Y231545D01*
Y234255D01*
X702889Y236872D01*
X701534Y239218D01*
X699618Y241134D01*
X697272Y242489D01*
X694655Y243190D01*
D02*
G37*
G36*
X643730Y223857D02*
X636499D01*
X637042Y221831D01*
X638166Y219883D01*
X639756Y218293D01*
X641704Y217169D01*
X643730Y216626D01*
Y223857D01*
D02*
G37*
G36*
X653501D02*
X646270D01*
Y216626D01*
X648296Y217169D01*
X650244Y218293D01*
X651834Y219883D01*
X652958Y221831D01*
X653501Y223857D01*
D02*
G37*
G36*
X821655Y217790D02*
X821570D01*
Y208770D01*
X830590D01*
Y208855D01*
X829889Y211472D01*
X828534Y213818D01*
X826618Y215734D01*
X824272Y217089D01*
X821655Y217790D01*
D02*
G37*
G36*
X819030D02*
X818945D01*
X816328Y217089D01*
X813982Y215734D01*
X812066Y213818D01*
X810711Y211472D01*
X810010Y208855D01*
Y208770D01*
X819030D01*
Y217790D01*
D02*
G37*
G36*
X796255D02*
X796170D01*
Y208770D01*
X805190D01*
Y208855D01*
X804489Y211472D01*
X803134Y213818D01*
X801218Y215734D01*
X798872Y217089D01*
X796255Y217790D01*
D02*
G37*
G36*
X793630D02*
X793545D01*
X790928Y217089D01*
X788582Y215734D01*
X786666Y213818D01*
X785311Y211472D01*
X784610Y208855D01*
Y208770D01*
X793630D01*
Y217790D01*
D02*
G37*
G36*
X770855D02*
X770770D01*
Y208770D01*
X779790D01*
Y208855D01*
X779089Y211472D01*
X777734Y213818D01*
X775818Y215734D01*
X773472Y217089D01*
X770855Y217790D01*
D02*
G37*
G36*
X768230D02*
X768145D01*
X765528Y217089D01*
X763182Y215734D01*
X761266Y213818D01*
X759911Y211472D01*
X759210Y208855D01*
Y208770D01*
X768230D01*
Y217790D01*
D02*
G37*
G36*
X745455D02*
X745370D01*
Y208770D01*
X754390D01*
Y208855D01*
X753689Y211472D01*
X752334Y213818D01*
X750418Y215734D01*
X748072Y217089D01*
X745455Y217790D01*
D02*
G37*
G36*
X742830D02*
X742745D01*
X740128Y217089D01*
X737782Y215734D01*
X735866Y213818D01*
X734511Y211472D01*
X733810Y208855D01*
Y208770D01*
X742830D01*
Y217790D01*
D02*
G37*
G36*
X720055D02*
X719970D01*
Y208770D01*
X728990D01*
Y208855D01*
X728289Y211472D01*
X726934Y213818D01*
X725018Y215734D01*
X722672Y217089D01*
X720055Y217790D01*
D02*
G37*
G36*
X717430D02*
X717345D01*
X714728Y217089D01*
X712382Y215734D01*
X710466Y213818D01*
X709111Y211472D01*
X708410Y208855D01*
Y208770D01*
X717430D01*
Y217790D01*
D02*
G37*
G36*
X694655D02*
X694570D01*
Y208770D01*
X703590D01*
Y208855D01*
X702889Y211472D01*
X701534Y213818D01*
X699618Y215734D01*
X697272Y217089D01*
X694655Y217790D01*
D02*
G37*
G36*
X692030D02*
X691945D01*
X689328Y217089D01*
X686982Y215734D01*
X685066Y213818D01*
X683711Y211472D01*
X683010Y208855D01*
Y208770D01*
X692030D01*
Y217790D01*
D02*
G37*
G36*
X155993Y206540D02*
X154007D01*
X152090Y206026D01*
X150552Y205138D01*
X146448D01*
X144910Y206026D01*
X142993Y206540D01*
X141007D01*
X139090Y206026D01*
X137552Y205138D01*
X107523D01*
X105166Y204670D01*
X103168Y203335D01*
X93205Y193372D01*
X91870Y191374D01*
X91402Y189017D01*
Y176940D01*
X91870Y174583D01*
X92020Y174359D01*
Y169900D01*
X100725D01*
X101640Y167900D01*
X101034Y166850D01*
X100520Y164932D01*
Y162947D01*
X100616Y162590D01*
X99081Y160590D01*
X92250D01*
X91259Y160393D01*
X90419Y159831D01*
X90389Y159786D01*
X88389Y160393D01*
Y193725D01*
X89033Y194370D01*
X90026Y196090D01*
X90540Y198007D01*
Y199993D01*
X90026Y201910D01*
X89033Y203630D01*
X87630Y205033D01*
X85910Y206026D01*
X83993Y206540D01*
X82007D01*
X80090Y206026D01*
X78370Y205033D01*
X76967Y203630D01*
X75974Y201910D01*
X75460Y199993D01*
Y198007D01*
X75974Y196090D01*
X76967Y194370D01*
X78111Y193226D01*
Y141290D01*
X76460D01*
Y140389D01*
X73790D01*
Y141290D01*
X60210D01*
Y130790D01*
X60210Y129210D01*
X60210Y127210D01*
Y124020D01*
X67000D01*
X73790D01*
X73790Y128168D01*
X75125Y129065D01*
X76460Y128168D01*
Y116710D01*
X75607Y115111D01*
X75410Y114120D01*
Y104120D01*
X75607Y103129D01*
X76460Y101540D01*
Y96770D01*
X83250D01*
Y95500D01*
X84520D01*
Y89460D01*
X89646D01*
X90040Y89460D01*
X91646Y88509D01*
Y87145D01*
X104854D01*
Y89036D01*
X106596Y89382D01*
X106713Y89460D01*
X119682D01*
X120844Y87793D01*
X115405Y82355D01*
X114071Y80357D01*
X113602Y78000D01*
Y63500D01*
X108838D01*
Y54610D01*
Y45720D01*
X161162D01*
Y54610D01*
Y63500D01*
X156398D01*
Y72449D01*
X167355Y83405D01*
X168690Y85403D01*
X169158Y87760D01*
Y96960D01*
X173040D01*
Y112040D01*
X152960D01*
Y110658D01*
X146260D01*
X143903Y110190D01*
X141905Y108855D01*
X136236Y103185D01*
X134636Y104413D01*
X135026Y105090D01*
X135540Y107007D01*
Y108993D01*
X135026Y110910D01*
X134033Y112630D01*
X132630Y114033D01*
X130910Y115026D01*
X128993Y115540D01*
X127007D01*
X125090Y115026D01*
X123370Y114033D01*
X122476Y113139D01*
X120040D01*
Y114040D01*
X107708D01*
X107113Y114066D01*
X106535Y114477D01*
X106023Y114863D01*
X105590Y115680D01*
Y124410D01*
X232000D01*
X232991Y124607D01*
X233831Y125169D01*
X234393Y126009D01*
X234590Y127000D01*
Y139750D01*
X234393Y140741D01*
X233831Y141581D01*
X232991Y142143D01*
X232000Y142340D01*
X169840D01*
Y168000D01*
X169643Y168991D01*
X170718Y170960D01*
X175540D01*
X175767Y170960D01*
X175825Y170380D01*
X175960Y168436D01*
X175960D01*
X175960Y168436D01*
Y152960D01*
X187040D01*
Y153160D01*
X234084D01*
X237145Y150100D01*
Y135000D01*
X237404Y133032D01*
X237410Y133017D01*
Y112840D01*
X215000D01*
X214009Y112642D01*
X213169Y112081D01*
X213141Y112040D01*
X212960D01*
Y111769D01*
X212607Y111241D01*
X212410Y110250D01*
Y99000D01*
X212607Y98009D01*
X212960Y97481D01*
Y96960D01*
X213481D01*
X214009Y96607D01*
X215000Y96410D01*
X237145D01*
Y88500D01*
X237210Y88005D01*
Y87507D01*
X237339Y87026D01*
X237404Y86531D01*
X237595Y86071D01*
X237724Y85589D01*
X237973Y85157D01*
X238164Y84697D01*
X238467Y84302D01*
X238717Y83870D01*
X239069Y83517D01*
X239372Y83122D01*
X239768Y82819D01*
X240120Y82466D01*
X240552Y82217D01*
X240947Y81913D01*
X241408Y81723D01*
X241840Y81473D01*
X242321Y81344D01*
X242782Y81154D01*
X243276Y81089D01*
X243757Y80960D01*
X244256D01*
X244750Y80894D01*
X245244Y80960D01*
X245743D01*
X246224Y81089D01*
X246718Y81154D01*
X247179Y81344D01*
X247660Y81473D01*
X248092Y81723D01*
X248552Y81913D01*
X248948Y82217D01*
X249380Y82466D01*
X249732Y82819D01*
X249774Y82851D01*
X257000D01*
X258805Y83210D01*
X265040D01*
Y93789D01*
X258805D01*
X257000Y94148D01*
X252355D01*
Y96960D01*
X255980D01*
Y104000D01*
X257250D01*
Y105270D01*
X263790D01*
Y111040D01*
X263790D01*
Y111960D01*
X263790D01*
Y117730D01*
X257250D01*
Y120270D01*
X263790D01*
Y126040D01*
X263790D01*
Y127960D01*
X263790D01*
Y133730D01*
X257250D01*
Y135000D01*
X255980D01*
Y142040D01*
X252360D01*
X252355Y142047D01*
Y153250D01*
X252096Y155218D01*
X251651Y156293D01*
X251336Y157053D01*
X250128Y158628D01*
X242378Y166378D01*
X240803Y167586D01*
X238968Y168346D01*
X237000Y168605D01*
X235032Y168346D01*
X235017Y168340D01*
X187040D01*
Y169040D01*
X177960D01*
X177733Y169040D01*
X177675Y169620D01*
X177540Y171564D01*
X177540D01*
X177540Y171564D01*
Y176420D01*
X177690Y176643D01*
X178158Y179000D01*
Y189980D01*
X177690Y192337D01*
X176355Y194335D01*
X167355Y203335D01*
X165357Y204670D01*
X163000Y205138D01*
X159448D01*
X157910Y206026D01*
X155993Y206540D01*
D02*
G37*
G36*
X41790Y229540D02*
X40960Y229540D01*
X36270D01*
Y223500D01*
X35000D01*
Y222230D01*
X28210D01*
Y219040D01*
X28210Y217460D01*
X28210Y215460D01*
Y204960D01*
X28210D01*
Y203540D01*
X28210D01*
Y193040D01*
X28210Y191460D01*
X28210Y189460D01*
Y178960D01*
X28842D01*
Y155020D01*
X27652Y154784D01*
X26192Y153808D01*
X25216Y152348D01*
X24873Y150625D01*
Y139375D01*
X25216Y137652D01*
X26192Y136192D01*
X27652Y135216D01*
X28368Y135074D01*
X28756Y133379D01*
X28758Y132957D01*
X26966Y131165D01*
X25644Y128875D01*
X24960Y126322D01*
Y126270D01*
X35000D01*
X45040D01*
Y126322D01*
X44356Y128875D01*
X43034Y131165D01*
X41242Y132957D01*
X41244Y133379D01*
X41632Y135074D01*
X42348Y135216D01*
X43808Y136192D01*
X44784Y137652D01*
X45127Y139375D01*
Y150625D01*
X44784Y152348D01*
X43808Y153808D01*
X42348Y154784D01*
X41158Y155020D01*
Y178960D01*
X41790D01*
Y189460D01*
X41790Y191040D01*
X41790Y193040D01*
Y202445D01*
X42818Y203776D01*
X43616Y203960D01*
X57040D01*
X57040Y203960D01*
Y203960D01*
X58984Y203824D01*
X59590Y203474D01*
X61507Y202960D01*
X63493D01*
X65410Y203474D01*
X67130Y204466D01*
X68534Y205870D01*
X69526Y207590D01*
X70040Y209507D01*
Y211493D01*
X69526Y213410D01*
X68534Y215130D01*
X67130Y216534D01*
X65410Y217526D01*
X63493Y218040D01*
X61507D01*
X59590Y217526D01*
X59040Y217209D01*
X57040Y218363D01*
Y221730D01*
X50000D01*
Y223000D01*
X48730D01*
Y229540D01*
X43790D01*
X41790Y229540D01*
D02*
G37*
G36*
X830590Y206230D02*
X821570D01*
Y197210D01*
X821655D01*
X824272Y197911D01*
X826618Y199266D01*
X828534Y201182D01*
X829889Y203528D01*
X830590Y206145D01*
Y206230D01*
D02*
G37*
G36*
X819030D02*
X810010D01*
Y206145D01*
X810711Y203528D01*
X812066Y201182D01*
X813982Y199266D01*
X816328Y197911D01*
X818945Y197210D01*
X819030D01*
Y206230D01*
D02*
G37*
G36*
X805190D02*
X796170D01*
Y197210D01*
X796255D01*
X798872Y197911D01*
X801218Y199266D01*
X803134Y201182D01*
X804489Y203528D01*
X805190Y206145D01*
Y206230D01*
D02*
G37*
G36*
X793630D02*
X784610D01*
Y206145D01*
X785311Y203528D01*
X786666Y201182D01*
X788582Y199266D01*
X790928Y197911D01*
X793545Y197210D01*
X793630D01*
Y206230D01*
D02*
G37*
G36*
X779790D02*
X770770D01*
Y197210D01*
X770855D01*
X773472Y197911D01*
X775818Y199266D01*
X777734Y201182D01*
X779089Y203528D01*
X779790Y206145D01*
Y206230D01*
D02*
G37*
G36*
X768230D02*
X759210D01*
Y206145D01*
X759911Y203528D01*
X761266Y201182D01*
X763182Y199266D01*
X765528Y197911D01*
X768145Y197210D01*
X768230D01*
Y206230D01*
D02*
G37*
G36*
X754390D02*
X745370D01*
Y197210D01*
X745455D01*
X748072Y197911D01*
X750418Y199266D01*
X752334Y201182D01*
X753689Y203528D01*
X754390Y206145D01*
Y206230D01*
D02*
G37*
G36*
X742830D02*
X733810D01*
Y206145D01*
X734511Y203528D01*
X735866Y201182D01*
X737782Y199266D01*
X740128Y197911D01*
X742745Y197210D01*
X742830D01*
Y206230D01*
D02*
G37*
G36*
X728990D02*
X719970D01*
Y197210D01*
X720055D01*
X722672Y197911D01*
X725018Y199266D01*
X726934Y201182D01*
X728289Y203528D01*
X728990Y206145D01*
Y206230D01*
D02*
G37*
G36*
X717430D02*
X708410D01*
Y206145D01*
X709111Y203528D01*
X710466Y201182D01*
X712382Y199266D01*
X714728Y197911D01*
X717345Y197210D01*
X717430D01*
Y206230D01*
D02*
G37*
G36*
X703590D02*
X694570D01*
Y197210D01*
X694655D01*
X697272Y197911D01*
X699618Y199266D01*
X701534Y201182D01*
X702889Y203528D01*
X703590Y206145D01*
Y206230D01*
D02*
G37*
G36*
X692030D02*
X683010D01*
Y206145D01*
X683711Y203528D01*
X685066Y201182D01*
X686982Y199266D01*
X689328Y197911D01*
X691945Y197210D01*
X692030D01*
Y206230D01*
D02*
G37*
G36*
X222770Y191790D02*
Y186270D01*
X227540D01*
Y191790D01*
X222770D01*
D02*
G37*
G36*
X227540Y183730D02*
X222770D01*
Y178210D01*
X227540D01*
Y183730D01*
D02*
G37*
G36*
X823040Y164040D02*
X816770D01*
Y155270D01*
X823040D01*
Y164040D01*
D02*
G37*
G36*
X772730D02*
X765270D01*
Y154000D01*
Y143960D01*
X772730D01*
Y154000D01*
Y164040D01*
D02*
G37*
G36*
X762730D02*
X745270D01*
Y154000D01*
Y143960D01*
X762730D01*
Y154000D01*
Y164040D01*
D02*
G37*
G36*
X742730D02*
X735270D01*
Y154000D01*
Y143960D01*
X742730D01*
Y154000D01*
Y164040D01*
D02*
G37*
G36*
X513850Y145790D02*
X509080D01*
Y140270D01*
X513850D01*
Y145790D01*
D02*
G37*
G36*
X263790Y142040D02*
X258520D01*
Y136270D01*
X263790D01*
Y142040D01*
D02*
G37*
G36*
X513850Y137730D02*
X509080D01*
Y132210D01*
X513850D01*
Y137730D01*
D02*
G37*
G36*
X700040Y136040D02*
X691270D01*
Y131270D01*
X700040D01*
Y136040D01*
D02*
G37*
G36*
X688730D02*
X679960D01*
Y131270D01*
X688730D01*
Y136040D01*
D02*
G37*
G36*
X73790Y121480D02*
X68270D01*
Y116710D01*
X73790D01*
Y121480D01*
D02*
G37*
G36*
X65730D02*
X60210D01*
Y116710D01*
X65730D01*
Y121480D01*
D02*
G37*
G36*
X45040Y123730D02*
X36270D01*
Y114960D01*
X36322D01*
X38875Y115644D01*
X41165Y116966D01*
X43034Y118835D01*
X44356Y121125D01*
X45040Y123678D01*
Y123730D01*
D02*
G37*
G36*
X33730D02*
X24960D01*
Y123678D01*
X25644Y121125D01*
X26966Y118835D01*
X28835Y116966D01*
X31125Y115644D01*
X33678Y114960D01*
X33730D01*
Y123730D01*
D02*
G37*
G36*
X279480Y111040D02*
X274210D01*
Y105270D01*
X279480D01*
Y111040D01*
D02*
G37*
G36*
X587470Y107550D02*
X582700D01*
Y102030D01*
X587470D01*
Y107550D01*
D02*
G37*
G36*
X641480Y104790D02*
X636710D01*
Y99270D01*
X641480D01*
Y104790D01*
D02*
G37*
G36*
X279480Y102730D02*
X274210D01*
Y96960D01*
X279480D01*
Y102730D01*
D02*
G37*
G36*
X263790Y102730D02*
X258520D01*
Y96960D01*
X263790D01*
Y102730D01*
D02*
G37*
G36*
X587470Y99490D02*
X582700D01*
Y93970D01*
X587470D01*
Y99490D01*
D02*
G37*
G36*
X641480Y96730D02*
X636710D01*
Y91210D01*
X641480D01*
Y96730D01*
D02*
G37*
G36*
X81980Y94230D02*
X76460D01*
Y89460D01*
X81980D01*
Y94230D01*
D02*
G37*
G36*
X106298Y63500D02*
X100964D01*
Y59861D01*
X98964Y59254D01*
X98720Y59620D01*
X97249Y60602D01*
X95515Y60947D01*
X84085D01*
X82351Y60602D01*
X80880Y59620D01*
X79898Y58149D01*
X79553Y56415D01*
Y44985D01*
X79898Y43251D01*
X80880Y41780D01*
X82351Y40798D01*
X84085Y40453D01*
X95515D01*
X97249Y40798D01*
X98720Y41780D01*
X99702Y43251D01*
X99884Y44167D01*
X100622Y45228D01*
X101785Y45720D01*
X102047D01*
X106298D01*
Y54610D01*
Y63500D01*
D02*
G37*
G36*
X823040Y64730D02*
X816770D01*
Y55960D01*
X823040D01*
Y64730D01*
D02*
G37*
G36*
X804040Y41540D02*
X794520D01*
Y31270D01*
X804040D01*
Y41540D01*
D02*
G37*
G36*
X791980D02*
X782460D01*
Y31270D01*
X791980D01*
Y41540D01*
D02*
G37*
G36*
X225480Y35730D02*
X220710D01*
Y30210D01*
X225480D01*
Y35730D01*
D02*
G37*
G36*
X410538Y38160D02*
X410470D01*
Y29270D01*
X419360D01*
Y29338D01*
X418668Y31922D01*
X417330Y34238D01*
X415438Y36130D01*
X413122Y37468D01*
X410538Y38160D01*
D02*
G37*
G36*
X407930D02*
X407862D01*
X405278Y37468D01*
X402962Y36130D01*
X401070Y34238D01*
X399732Y31922D01*
X399040Y29338D01*
Y29270D01*
X407930D01*
Y38160D01*
D02*
G37*
G36*
X616580Y51040D02*
X613420D01*
X610321Y50424D01*
X607402Y49215D01*
X604775Y47459D01*
X602541Y45225D01*
X600785Y42598D01*
X599576Y39679D01*
X598960Y36580D01*
Y33420D01*
X599576Y30321D01*
X600785Y27402D01*
X602541Y24775D01*
X604775Y22541D01*
X607402Y20786D01*
X610321Y19576D01*
X613420Y18960D01*
X616580D01*
X619679Y19576D01*
X622598Y20786D01*
X625225Y22541D01*
X627459Y24775D01*
X629215Y27402D01*
X630424Y30321D01*
X631040Y33420D01*
Y36580D01*
X630424Y39679D01*
X629215Y42598D01*
X627459Y45225D01*
X625225Y47459D01*
X622598Y49215D01*
X619679Y50424D01*
X616580Y51040D01*
D02*
G37*
G36*
X36580D02*
X33420D01*
X30321Y50424D01*
X27402Y49215D01*
X24775Y47459D01*
X22541Y45225D01*
X20786Y42598D01*
X19576Y39679D01*
X18960Y36580D01*
Y33420D01*
X19576Y30321D01*
X20786Y27402D01*
X22541Y24775D01*
X24775Y22541D01*
X27402Y20786D01*
X30321Y19576D01*
X33420Y18960D01*
X36580D01*
X39679Y19576D01*
X42598Y20786D01*
X45225Y22541D01*
X47459Y24775D01*
X49215Y27402D01*
X50424Y30321D01*
X51040Y33420D01*
Y36580D01*
X50424Y39679D01*
X49215Y42598D01*
X47459Y45225D01*
X45225Y47459D01*
X42598Y49215D01*
X39679Y50424D01*
X36580Y51040D01*
D02*
G37*
G36*
X804040Y28730D02*
X794520D01*
Y18460D01*
X804040D01*
Y28730D01*
D02*
G37*
G36*
X791980D02*
X782460D01*
Y18460D01*
X791980D01*
Y28730D01*
D02*
G37*
%LPD*%
G36*
X617395Y460850D02*
Y448781D01*
X617042Y448169D01*
X616460Y445997D01*
Y443749D01*
X617042Y441577D01*
X617395Y440965D01*
Y425000D01*
X617654Y423032D01*
X618414Y421198D01*
X619622Y419622D01*
X627395Y411850D01*
Y395012D01*
X623540D01*
Y408040D01*
X611460D01*
X610139Y409493D01*
Y437979D01*
X610244Y438039D01*
X611834Y439629D01*
X612958Y441577D01*
X613540Y443749D01*
Y445997D01*
X612958Y448169D01*
X611834Y450117D01*
X610244Y451707D01*
X608296Y452831D01*
X606124Y453413D01*
X603876D01*
X601704Y452831D01*
X599756Y451707D01*
X598166Y450117D01*
X597042Y448169D01*
X596460Y445997D01*
Y443749D01*
X597042Y441577D01*
X598166Y439629D01*
X599756Y438039D01*
X599861Y437979D01*
Y408040D01*
X598960D01*
Y395012D01*
X591040D01*
Y408040D01*
X590139D01*
Y436333D01*
X593540D01*
Y453413D01*
X576460D01*
Y436333D01*
X579861D01*
Y409493D01*
X578540Y408040D01*
X566460D01*
Y394460D01*
X567361D01*
Y385286D01*
X566460D01*
Y371706D01*
X578540D01*
X579861Y370253D01*
Y343413D01*
X576460D01*
Y326333D01*
X577237D01*
X578066Y324333D01*
X569871Y316139D01*
X559000D01*
X557034Y315748D01*
X555366Y314634D01*
X533022Y292289D01*
X492540D01*
Y305510D01*
Y311280D01*
X480000D01*
X467460D01*
Y304989D01*
X460850D01*
X458884Y304598D01*
X457216Y303484D01*
X456273Y302540D01*
X455007D01*
X453090Y302026D01*
X451370Y301033D01*
X449967Y299630D01*
X448974Y297910D01*
X448460Y295993D01*
Y294007D01*
X448974Y292090D01*
X449967Y290370D01*
X451370Y288967D01*
X453090Y287974D01*
X455007Y287460D01*
X456993D01*
X458910Y287974D01*
X460630Y288967D01*
X462034Y290370D01*
X463026Y292090D01*
X463540Y294007D01*
Y294711D01*
X467460D01*
Y279589D01*
X443450D01*
X441483Y279198D01*
X439816Y278084D01*
X419366Y257634D01*
X418252Y255966D01*
X417861Y254000D01*
Y218129D01*
X412538Y212805D01*
X410690Y213570D01*
Y218580D01*
X402770D01*
Y210660D01*
X407780D01*
X408545Y208812D01*
X405872Y206139D01*
X377000D01*
X375033Y205748D01*
X373366Y204634D01*
X367273Y198540D01*
X366007D01*
X364090Y198026D01*
X362370Y197034D01*
X360966Y195630D01*
X359974Y193910D01*
X359460Y191993D01*
Y190007D01*
X359974Y188090D01*
X360966Y186370D01*
X362370Y184967D01*
X364090Y183974D01*
X366007Y183460D01*
X367993D01*
X369910Y183974D01*
X371630Y184967D01*
X373033Y186370D01*
X374026Y188090D01*
X374540Y190007D01*
Y191273D01*
X379128Y195861D01*
X390852D01*
X391177Y195591D01*
X391936Y193861D01*
X391607Y193433D01*
X390090Y193026D01*
X388370Y192034D01*
X386967Y190630D01*
X385974Y188910D01*
X385460Y186993D01*
Y185007D01*
X385974Y183090D01*
X386967Y181370D01*
X387158Y181179D01*
X386330Y179179D01*
X336691D01*
X334725Y178788D01*
X333058Y177674D01*
X324388Y169004D01*
X322540Y169769D01*
Y178510D01*
Y193111D01*
X337225D01*
X338120Y192216D01*
X339840Y191224D01*
X341757Y190710D01*
X343743D01*
X345660Y191224D01*
X347380Y192216D01*
X348783Y193620D01*
X349776Y195340D01*
X350290Y197257D01*
Y199243D01*
X349776Y201160D01*
X348783Y202880D01*
X347380Y204284D01*
X345660Y205276D01*
X343743Y205790D01*
X341757D01*
X339840Y205276D01*
X338120Y204284D01*
X337225Y203389D01*
X322540D01*
Y218861D01*
X326475D01*
X327370Y217966D01*
X329090Y216974D01*
X331007Y216460D01*
X332993D01*
X334910Y216974D01*
X336630Y217966D01*
X338033Y219370D01*
X339026Y221090D01*
X339540Y223007D01*
Y224993D01*
X339026Y226910D01*
X338033Y228630D01*
X336630Y230033D01*
X334910Y231026D01*
X332993Y231540D01*
X331007D01*
X329090Y231026D01*
X327370Y230033D01*
X326475Y229139D01*
X322540D01*
Y243861D01*
X325476D01*
X326370Y242966D01*
X328090Y241974D01*
X330007Y241460D01*
X331993D01*
X333910Y241974D01*
X335630Y242966D01*
X337034Y244370D01*
X338026Y246090D01*
X338540Y248007D01*
Y249993D01*
X338026Y251910D01*
X337034Y253630D01*
X335630Y255033D01*
X333910Y256026D01*
X331993Y256540D01*
X330007D01*
X328090Y256026D01*
X326370Y255033D01*
X325476Y254139D01*
X322540D01*
Y267410D01*
Y282011D01*
X398722D01*
X406460Y274273D01*
Y273007D01*
X406974Y271090D01*
X407966Y269370D01*
X409370Y267966D01*
X411090Y266974D01*
X413007Y266460D01*
X414993D01*
X416910Y266974D01*
X418630Y267966D01*
X420033Y269370D01*
X421026Y271090D01*
X421540Y273007D01*
Y274993D01*
X421026Y276910D01*
X420033Y278630D01*
X418630Y280033D01*
X416910Y281026D01*
X414993Y281540D01*
X413727D01*
X404484Y290784D01*
X402817Y291898D01*
X400850Y292289D01*
X353667D01*
X352988Y294289D01*
X353228Y294472D01*
X386150Y327395D01*
X457000D01*
X458968Y327654D01*
X460802Y328414D01*
X462378Y329622D01*
X514378Y381622D01*
X515586Y383198D01*
X516346Y385032D01*
X516605Y387000D01*
Y427850D01*
X559150Y470395D01*
X607850D01*
X617395Y460850D01*
D02*
G37*
G36*
X373974Y166910D02*
X373460Y164993D01*
Y163007D01*
X373974Y161090D01*
X374967Y159370D01*
X376370Y157966D01*
X378090Y156974D01*
X380007Y156460D01*
X381993D01*
X383910Y156974D01*
X385630Y157966D01*
X386524Y158861D01*
X407000D01*
X408966Y159252D01*
X410634Y160366D01*
X414287Y164020D01*
X426882D01*
X428037Y162020D01*
X427974Y161910D01*
X427460Y159993D01*
Y158007D01*
X427974Y156090D01*
X428966Y154370D01*
X430370Y152966D01*
X432090Y151974D01*
X431766Y149990D01*
X339120D01*
Y137450D01*
Y124910D01*
X345411D01*
Y120450D01*
X345802Y118483D01*
X346916Y116816D01*
X349143Y114590D01*
X348315Y112590D01*
X325179D01*
X325096Y113218D01*
X324651Y114293D01*
X324336Y115052D01*
X323128Y116628D01*
X301193Y138562D01*
X301958Y140410D01*
X322540D01*
Y155011D01*
X322801D01*
X324768Y155402D01*
X326435Y156516D01*
X338820Y168901D01*
X372814D01*
X373974Y166910D01*
D02*
G37*
G36*
X337750Y84500D02*
Y59500D01*
X330750Y52500D01*
Y91500D01*
X337750Y84500D01*
D02*
G37*
G36*
X299750Y52500D02*
X292750Y59500D01*
Y84500D01*
X299750Y91500D01*
Y52500D01*
D02*
G37*
%LPC*%
G36*
X492540Y319590D02*
X481270D01*
Y313820D01*
X492540D01*
Y319590D01*
D02*
G37*
G36*
X478730D02*
X467460D01*
Y313820D01*
X478730D01*
Y319590D01*
D02*
G37*
G36*
X410690Y262140D02*
X402770D01*
Y254220D01*
X410690D01*
Y262140D01*
D02*
G37*
G36*
X367230D02*
X359310D01*
Y254220D01*
X367230D01*
Y262140D01*
D02*
G37*
G36*
X400230D02*
X386270D01*
Y252950D01*
X383730D01*
Y262140D01*
X369770D01*
Y252950D01*
X368500D01*
Y251680D01*
X359310D01*
Y243760D01*
Y237620D01*
X368500D01*
Y235080D01*
X359310D01*
Y227160D01*
Y221120D01*
X368500D01*
Y219850D01*
X369770D01*
Y210660D01*
X383730D01*
Y219850D01*
X386270D01*
Y210660D01*
X400230D01*
Y219850D01*
X401500D01*
Y221120D01*
X410690D01*
Y227160D01*
Y235080D01*
X401500D01*
Y237620D01*
X410690D01*
Y243760D01*
Y251680D01*
X401500D01*
Y252950D01*
X400230D01*
Y262140D01*
D02*
G37*
G36*
X367230Y218580D02*
X359310D01*
Y210660D01*
X367230D01*
Y218580D01*
D02*
G37*
G36*
X336580Y149990D02*
X330810D01*
Y138720D01*
X336580D01*
Y149990D01*
D02*
G37*
G36*
Y136180D02*
X330810D01*
Y124910D01*
X336580D01*
Y136180D01*
D02*
G37*
%LPD*%
G36*
X165842Y187429D02*
Y179000D01*
X166311Y176643D01*
X166460Y176420D01*
X166460Y170960D01*
X164613Y170590D01*
X157250D01*
X156259Y170393D01*
X155419Y169831D01*
X154857Y168991D01*
X154660Y168000D01*
Y142340D01*
X105590D01*
Y155266D01*
X107067Y156400D01*
X109052D01*
X111020Y154856D01*
Y145900D01*
X122100D01*
Y147801D01*
X126270D01*
Y146900D01*
X139850D01*
Y157400D01*
X139850Y158980D01*
X139850Y160980D01*
Y164170D01*
X126270D01*
Y160980D01*
X126270Y159400D01*
X124817Y158079D01*
X122100D01*
Y159980D01*
X118196D01*
X117367Y161980D01*
X120194Y164806D01*
X121308Y166474D01*
X121699Y168440D01*
Y169900D01*
X122100D01*
Y183980D01*
X108330D01*
Y176940D01*
X105790D01*
Y183980D01*
X103718D01*
Y186467D01*
X110073Y192822D01*
X137621D01*
X139090Y191974D01*
X141007Y191460D01*
X142993D01*
X144910Y191974D01*
X146379Y192822D01*
X150621D01*
X152090Y191974D01*
X154007Y191460D01*
X155993D01*
X157910Y191974D01*
X159379Y192822D01*
X160449D01*
X165842Y187429D01*
D02*
G37*
%LPC*%
G36*
X139850Y171480D02*
X134330D01*
Y166710D01*
X139850D01*
Y171480D01*
D02*
G37*
G36*
X131790D02*
X126270D01*
Y166710D01*
X131790D01*
Y171480D01*
D02*
G37*
%LPD*%
D11*
X178180Y13970D02*
X178200Y13990D01*
X91800D02*
X91820Y13970D01*
D15*
X226750Y69000D02*
D03*
X239250D02*
D03*
X293250Y104000D02*
D03*
X280750D02*
D03*
X244750D02*
D03*
X257250D02*
D03*
X244750Y135000D02*
D03*
X257250D02*
D03*
X244750Y119000D02*
D03*
X257250D02*
D03*
D16*
X209000Y201380D02*
D03*
Y216620D02*
D03*
X98250Y94130D02*
D03*
Y109370D02*
D03*
X619240Y116000D02*
D03*
Y100760D02*
D03*
D17*
X209000Y185000D02*
D03*
X221500D02*
D03*
X239250Y53000D02*
D03*
X226750D02*
D03*
X239250Y37000D02*
D03*
X226750D02*
D03*
X642750Y98000D02*
D03*
X655250D02*
D03*
X642750Y166000D02*
D03*
X655250D02*
D03*
X716750Y31000D02*
D03*
X729250D02*
D03*
X642750Y116000D02*
D03*
X655250D02*
D03*
X642750Y150000D02*
D03*
X655250D02*
D03*
X642750Y134000D02*
D03*
X655250D02*
D03*
X588740Y100760D02*
D03*
X601240D02*
D03*
X515120Y139000D02*
D03*
X527620D02*
D03*
X572500Y378496D02*
D03*
X585000D02*
D03*
X572500Y268496D02*
D03*
X585000D02*
D03*
X617500D02*
D03*
X605000D02*
D03*
X617500Y378496D02*
D03*
X605000D02*
D03*
X617500Y401250D02*
D03*
X605000D02*
D03*
X572500D02*
D03*
X585000D02*
D03*
D18*
X415500Y65000D02*
D03*
X384500D02*
D03*
D19*
X67000Y135250D02*
D03*
Y122750D02*
D03*
X83250Y108000D02*
D03*
Y95500D02*
D03*
X133060Y165440D02*
D03*
Y152940D02*
D03*
X113250Y95500D02*
D03*
Y108000D02*
D03*
X83250Y135250D02*
D03*
Y122750D02*
D03*
X35000Y197500D02*
D03*
Y185000D02*
D03*
Y223500D02*
D03*
Y211000D02*
D03*
D20*
X116560Y152940D02*
D03*
X97560D02*
D03*
Y176940D02*
D03*
X107060D02*
D03*
X116560D02*
D03*
D21*
X223000Y133500D02*
D03*
Y104500D02*
D03*
X193000D02*
D03*
Y133500D02*
D03*
X163000Y104500D02*
D03*
Y133500D02*
D03*
D22*
X172000Y179000D02*
D03*
X181500Y161000D02*
D03*
X162500D02*
D03*
D23*
X281000Y69500D02*
D03*
Y79000D02*
D03*
Y88500D02*
D03*
X257000D02*
D03*
Y69500D02*
D03*
D24*
X326250Y72000D02*
D03*
X304250D02*
D03*
D25*
X768750Y30000D02*
D03*
X793250D02*
D03*
D26*
X690000Y110000D02*
D03*
Y120000D02*
D03*
Y130000D02*
D03*
Y100000D02*
D03*
Y90000D02*
D03*
D27*
X804000Y66000D02*
D03*
X784000D02*
D03*
X794000D02*
D03*
X774000D02*
D03*
X764000D02*
D03*
X754000D02*
D03*
X744000D02*
D03*
X734000D02*
D03*
X724000D02*
D03*
X714000D02*
D03*
X704000D02*
D03*
X694000D02*
D03*
Y154000D02*
D03*
X704000D02*
D03*
X714000D02*
D03*
X724000D02*
D03*
X734000D02*
D03*
X744000D02*
D03*
X754000D02*
D03*
X764000D02*
D03*
X774000D02*
D03*
X794000D02*
D03*
X784000D02*
D03*
X804000D02*
D03*
D28*
X815500Y66000D02*
D03*
Y154000D02*
D03*
D29*
X512380Y160000D02*
D03*
X527620D02*
D03*
D30*
X480000Y312550D02*
D03*
Y299850D02*
D03*
Y287150D02*
D03*
Y274450D02*
D03*
Y261750D02*
D03*
Y249050D02*
D03*
Y236350D02*
D03*
Y223650D02*
D03*
Y210950D02*
D03*
Y198250D02*
D03*
Y185550D02*
D03*
Y172850D02*
D03*
Y160150D02*
D03*
Y147450D02*
D03*
X310000D02*
D03*
Y160150D02*
D03*
Y172850D02*
D03*
Y185550D02*
D03*
Y198250D02*
D03*
Y210950D02*
D03*
Y223650D02*
D03*
Y236350D02*
D03*
Y249050D02*
D03*
Y261750D02*
D03*
Y274450D02*
D03*
Y287150D02*
D03*
Y299850D02*
D03*
Y312550D02*
D03*
D31*
X452150Y137450D02*
D03*
X439450D02*
D03*
X426750D02*
D03*
X414050D02*
D03*
X401350D02*
D03*
X388650D02*
D03*
X375950D02*
D03*
X363250D02*
D03*
X350550D02*
D03*
X337850D02*
D03*
D32*
X385000Y236350D02*
D03*
Y252950D02*
D03*
Y219850D02*
D03*
X401500D02*
D03*
Y252950D02*
D03*
Y236350D02*
D03*
X368500Y219850D02*
D03*
Y252950D02*
D03*
Y236350D02*
D03*
D33*
X224900Y305300D02*
D03*
Y325300D02*
D03*
Y345300D02*
D03*
Y365300D02*
D03*
Y385300D02*
D03*
Y405300D02*
D03*
Y425300D02*
D03*
Y445300D02*
D03*
X79900Y305300D02*
D03*
Y325300D02*
D03*
Y345300D02*
D03*
Y365300D02*
D03*
Y385300D02*
D03*
Y405300D02*
D03*
Y425300D02*
D03*
D34*
X50000Y210500D02*
D03*
Y223000D02*
D03*
D35*
X107568Y54610D02*
D03*
X162432D02*
D03*
D36*
X119760D02*
D03*
X129920D02*
D03*
D37*
X140080D02*
D03*
X150240D02*
D03*
D71*
X598000Y478000D02*
X611000D01*
X46000Y351000D02*
X60300Y365300D01*
X46000Y264000D02*
Y351000D01*
Y264000D02*
X93000Y217000D01*
X556000Y478000D02*
X598000D01*
X317750Y104000D02*
Y111250D01*
X289000Y140000D02*
X317750Y111250D01*
X367000Y87000D02*
X437000D01*
X350000Y104000D02*
X367000Y87000D01*
X342750Y104000D02*
X350000D01*
X344000Y300000D02*
X347700D01*
X310010Y312540D02*
X336460D01*
X336652Y312348D01*
X310000Y312550D02*
X310010Y312540D01*
X310150Y300000D02*
X329000D01*
X310000Y299850D02*
X310150Y300000D01*
X347700D02*
X347850Y299850D01*
X383000Y335000D02*
X457000D01*
X347850Y299850D02*
X383000Y335000D01*
X768000Y30000D02*
Y63040D01*
X635000Y256000D02*
Y305000D01*
Y390000D02*
Y415000D01*
Y366000D02*
Y390000D01*
X625000Y356000D02*
X635000Y366000D01*
X625000Y425000D02*
X635000Y415000D01*
X625000Y246000D02*
X635000Y256000D01*
X625000Y315000D02*
X635000Y305000D01*
X625000Y224873D02*
Y246000D01*
Y444873D02*
Y464000D01*
Y425000D02*
Y444873D01*
Y315000D02*
Y356000D01*
X611000Y478000D02*
X625000Y464000D01*
X509000Y431000D02*
X556000Y478000D01*
X509000Y387000D02*
Y431000D01*
X457000Y335000D02*
X509000Y387000D01*
X93000Y217000D02*
X228000D01*
X289000Y140000D02*
Y156000D01*
X228000Y217000D02*
X289000Y156000D01*
X60300Y365300D02*
X79900D01*
X456450Y312550D02*
X480000D01*
X686000Y16000D02*
X754750D01*
X630000Y72000D02*
X686000Y16000D01*
X452000Y72000D02*
X630000D01*
X437000Y87000D02*
X452000Y72000D01*
X754750Y16000D02*
X768750Y30000D01*
X326250Y72000D02*
X355000D01*
X362000Y65000D01*
X384500D01*
X434600Y28000D02*
Y56400D01*
X426000Y65000D02*
X434600Y56400D01*
X415500Y65000D02*
X426000D01*
X244750Y88500D02*
Y104000D01*
X237000Y161000D02*
X244750Y153250D01*
Y135000D02*
Y153250D01*
X193000Y81000D02*
X196000Y78000D01*
X193000Y81000D02*
Y104500D01*
X196000Y34587D02*
Y78000D01*
Y34587D02*
X219587Y11000D01*
X468400D01*
X485400Y28000D01*
X105000Y66000D02*
X107568Y63432D01*
Y54610D02*
Y63432D01*
X98000Y66000D02*
X105000D01*
X165000D02*
X172000D01*
X162432Y63432D02*
X165000Y66000D01*
X162432Y54610D02*
Y63432D01*
X792500Y30000D02*
X794000Y31500D01*
X815500Y170500D02*
X818000Y173000D01*
X815500Y154000D02*
Y170500D01*
X201350Y305300D02*
X224900D01*
X201350Y445300D02*
X224900D01*
X79900Y425300D02*
X103450D01*
D72*
X534000Y201000D02*
X569000Y166000D01*
X642750D01*
X366000Y105000D02*
X552000D01*
X350550Y120450D02*
X366000Y105000D01*
X350550Y120450D02*
Y137450D01*
X768000Y63040D02*
Y77000D01*
X764000Y81000D02*
X768000Y77000D01*
X697000Y81000D02*
X764000D01*
X694000Y78000D02*
X697000Y81000D01*
X694000Y66000D02*
Y78000D01*
X579000Y286000D02*
X632000D01*
X617500Y268496D02*
Y285500D01*
X572500Y279500D02*
X579000Y286000D01*
X572500Y268496D02*
Y279500D01*
X572500Y389873D02*
Y401250D01*
Y378496D02*
Y389873D01*
X617500D02*
Y401250D01*
Y378496D02*
Y389873D01*
X634873D01*
X572500D02*
X617500D01*
X634873D02*
X635000Y390000D01*
X209000Y185000D02*
Y201380D01*
X221500Y185000D02*
X233000D01*
X79900Y325300D02*
X102700D01*
X79900Y345300D02*
X116700D01*
X79900Y305300D02*
X132700D01*
X79900D02*
X80200Y305000D01*
X261000Y222000D02*
X279000Y240000D01*
X288750Y261750D02*
X310000D01*
X279000Y240000D02*
Y252000D01*
X288750Y261750D01*
X456000Y295000D02*
X460850Y299850D01*
X480000D01*
X310000Y287150D02*
X400850D01*
X414000Y274000D01*
X310350Y224000D02*
X332000D01*
X310000Y223650D02*
X310350Y224000D01*
X310050Y249000D02*
X331000D01*
X310000Y249050D02*
X310050Y249000D01*
X695000Y31000D02*
X716750D01*
X656000Y70000D02*
X695000Y31000D01*
X646199Y70000D02*
X656000D01*
X574000Y83000D02*
X633199D01*
X646199Y70000D01*
X552000Y105000D02*
X574000Y83000D01*
X288350Y236350D02*
X310000D01*
X281000Y229000D02*
X288350Y236350D01*
X281000Y221000D02*
Y229000D01*
X288950Y210950D02*
X310000D01*
X283061Y205061D02*
X288950Y210950D01*
X283061Y198000D02*
Y205061D01*
X83250Y135250D02*
Y198250D01*
X133060Y176940D02*
Y186940D01*
X129560Y190440D02*
X133060Y186940D01*
X111060Y190440D02*
X129560D01*
X108060Y163940D02*
X112060D01*
X133060Y176940D02*
X133060Y176940D01*
X107060Y186440D02*
X111060Y190440D01*
X107060Y176940D02*
Y186440D01*
X526000Y276000D02*
X542000D01*
X499050Y249050D02*
X526000Y276000D01*
X480000Y249050D02*
X499050D01*
X542000Y276000D02*
X564000Y298000D01*
X535150Y287150D02*
X559000Y311000D01*
X480000Y287150D02*
X535150D01*
X582000Y298000D02*
X605000Y321000D01*
X564000Y298000D02*
X582000D01*
X572000Y311000D02*
X585000Y324000D01*
X559000Y311000D02*
X572000D01*
X605000Y321000D02*
Y334873D01*
X585000Y324000D02*
Y334873D01*
X605000Y224873D02*
Y268496D01*
X585000Y224873D02*
Y268496D01*
X605000Y334873D02*
Y378496D01*
X585000Y334873D02*
Y378496D01*
X585000Y401250D02*
Y444873D01*
X605000Y401250D02*
Y444873D01*
X67000Y135250D02*
X83250D01*
X112060Y163940D02*
X116560Y168440D01*
Y176940D01*
X133060Y165440D02*
Y176940D01*
X116560Y152940D02*
X133060D01*
X113250Y108000D02*
X128000D01*
X106000Y95500D02*
X113250D01*
X98250Y94130D02*
X104630D01*
X106000Y95500D01*
X97750Y109870D02*
X98250Y109370D01*
X239750Y69500D02*
X257000D01*
X269000Y79000D02*
X281000D01*
X257250Y119000D02*
Y135000D01*
Y104000D02*
Y119000D01*
X239250Y69000D02*
X239750Y69500D01*
X408000Y180000D02*
X453000D01*
X402040Y174040D02*
X408000Y180000D01*
X448750Y198250D02*
X480000D01*
X447750Y261750D02*
X480000D01*
X435000Y249000D02*
X447750Y261750D01*
X435000Y207000D02*
Y249000D01*
X443450Y274450D02*
X480000D01*
X423000Y254000D02*
X443450Y274450D01*
X423000Y216000D02*
Y254000D01*
X439450Y137450D02*
Y154550D01*
X435000Y159000D02*
X439450Y154550D01*
X412159Y169159D02*
X442841D01*
X407000Y164000D02*
X412159Y169159D01*
X442841D02*
X464550Y147450D01*
X50000Y210500D02*
X62500D01*
X35000Y223500D02*
Y235000D01*
X50000Y223000D02*
Y234500D01*
X49500Y211000D02*
X50000Y210500D01*
X35000Y211000D02*
X49500D01*
X35000Y197500D02*
Y211000D01*
X376000Y116000D02*
X619240D01*
X310000Y198250D02*
X342750D01*
X655250Y98000D02*
X666387D01*
X668387Y100000D01*
X655250Y116000D02*
X665000D01*
X671000Y110000D01*
X690000D01*
X668387Y100000D02*
X690000D01*
X448000Y236825D02*
X461175Y223650D01*
X527620Y139000D02*
Y160000D01*
X480000Y160150D02*
X512230D01*
X572000Y134000D02*
X642750D01*
X533150Y172850D02*
X572000Y134000D01*
X480000Y172850D02*
X533150D01*
X571000Y150000D02*
X642750D01*
X535450Y185550D02*
X571000Y150000D01*
X480000Y185550D02*
X535450D01*
X514000Y201000D02*
X534000D01*
X419000Y191000D02*
X435000Y207000D01*
X398000Y191000D02*
X419000D01*
X408000Y201000D02*
X423000Y216000D01*
X377000Y201000D02*
X408000D01*
X336691Y174040D02*
X402040D01*
X381000Y164000D02*
X407000D01*
X393000Y186000D02*
X398000Y191000D01*
X367000D02*
X377000Y201000D01*
X310000Y160150D02*
X322801D01*
X336691Y174040D01*
X464550Y147450D02*
X480000D01*
X619240Y116000D02*
X642750D01*
X601240Y100760D02*
X619240D01*
X729250Y31000D02*
X741000D01*
X754000Y44000D01*
Y66000D01*
X655250Y166000D02*
X666000D01*
X679000Y179000D01*
X708460D01*
X720000Y167460D01*
X664000Y150000D02*
X683000Y169000D01*
X655250Y150000D02*
X664000D01*
X702000Y169000D02*
X704000Y167000D01*
X683000Y169000D02*
X702000D01*
X683801Y154000D02*
X694000D01*
X663801Y134000D02*
X683801Y154000D01*
X655250Y134000D02*
X663801D01*
X704000Y154000D02*
Y167000D01*
X461175Y223650D02*
X480000D01*
X454950Y210950D02*
X480000D01*
X784000Y154000D02*
X794000D01*
X224900Y405300D02*
X254700D01*
X224900Y385300D02*
X274700D01*
X224900Y365300D02*
X274700D01*
X224900Y345300D02*
X254700D01*
X224900Y325300D02*
X254700D01*
D73*
X642750Y86250D02*
Y98000D01*
Y86250D02*
X648000Y81000D01*
X657000D01*
X67000Y111490D02*
Y122750D01*
X503860Y139000D02*
X515120D01*
X577480Y100760D02*
X588740D01*
X163000Y198980D02*
X172000Y189980D01*
X107523Y198980D02*
X163000D01*
X172000Y179000D02*
Y189980D01*
X97560Y189017D02*
X107523Y198980D01*
X97560Y176940D02*
Y189017D01*
X119760Y54610D02*
Y78000D01*
X146260Y104500D01*
X163000D01*
X150240Y54610D02*
Y75000D01*
X163000Y87760D01*
Y104500D01*
X83250Y83500D02*
Y95500D01*
X225250Y24960D02*
X254960D01*
X269000Y39000D01*
Y79000D02*
Y104000D01*
Y39000D02*
Y79000D01*
X35000Y145000D02*
Y185000D01*
X680458Y130000D02*
X690000D01*
X677458Y127000D02*
X680458Y130000D01*
X671000Y127000D02*
X677458D01*
X680458Y90000D02*
X690000D01*
X677458Y87000D02*
X680458Y90000D01*
X671000Y87000D02*
X677458D01*
X731000Y167831D02*
Y173000D01*
Y167831D02*
X732040Y166791D01*
Y165502D02*
Y166791D01*
Y165502D02*
X734000Y163542D01*
X737000Y47000D02*
Y53458D01*
X734000Y56458D02*
X737000Y53458D01*
X734000Y56458D02*
Y66000D01*
X721000Y47000D02*
Y53458D01*
X724000Y56458D01*
Y66000D01*
X747000Y166542D02*
Y173000D01*
X744000Y163542D02*
X747000Y166542D01*
X744000Y154000D02*
Y163542D01*
X734000Y154000D02*
Y163542D01*
X801000Y166542D02*
Y173000D01*
Y166542D02*
X804000Y163542D01*
Y154000D02*
Y163542D01*
X761000Y166542D02*
Y173000D01*
Y166542D02*
X764000Y163542D01*
Y154000D02*
Y163542D01*
X774000Y154000D02*
Y163542D01*
X777000Y166542D01*
Y173000D01*
X793250Y14000D02*
Y30000D01*
X809250D01*
D74*
X337850Y137450D02*
Y161000D01*
D75*
X244750Y88500D02*
X257000D01*
X83250Y108000D02*
Y122750D01*
X281000Y60000D02*
Y69500D01*
D76*
X724000Y154000D02*
Y163461D01*
X720000Y167460D02*
X724000Y163461D01*
D77*
X604500Y478000D02*
D03*
D78*
X800500Y55000D02*
D03*
D79*
X90625Y109120D02*
D03*
D80*
X208000Y160750D02*
D03*
D81*
X162250Y148000D02*
D03*
D82*
X232125Y104625D02*
D03*
D83*
X97625Y131000D02*
D03*
D84*
X163000Y133375D02*
D03*
D85*
X217750Y61000D02*
D03*
D86*
X225250Y31500D02*
D03*
D87*
X239250Y52500D02*
D03*
D88*
X268250Y118000D02*
D03*
D89*
X292250Y88500D02*
D03*
D90*
X329250Y78000D02*
D03*
D91*
X321125Y104000D02*
D03*
D92*
X245000Y120000D02*
D03*
D93*
X269250Y104000D02*
D03*
D94*
X693300Y512300D02*
D03*
X718700D02*
D03*
X744100D02*
D03*
X769500D02*
D03*
X794900D02*
D03*
X820300D02*
D03*
X693300Y486900D02*
D03*
X718700D02*
D03*
X744100D02*
D03*
X769500D02*
D03*
X794900D02*
D03*
X820300D02*
D03*
X693300Y461500D02*
D03*
X718700D02*
D03*
X744100D02*
D03*
X769500D02*
D03*
X794900D02*
D03*
X820300D02*
D03*
X693300Y436100D02*
D03*
X718700D02*
D03*
X744100D02*
D03*
X769500D02*
D03*
X794900D02*
D03*
X820300D02*
D03*
X693300Y410700D02*
D03*
X718700D02*
D03*
X744100D02*
D03*
X769500D02*
D03*
X794900D02*
D03*
X820300D02*
D03*
X693300Y385300D02*
D03*
X718700D02*
D03*
X744100D02*
D03*
X769500D02*
D03*
X794900D02*
D03*
X820300D02*
D03*
X693300Y359900D02*
D03*
X718700D02*
D03*
X744100D02*
D03*
X769500D02*
D03*
X794900D02*
D03*
X820300D02*
D03*
X693300Y334500D02*
D03*
X718700D02*
D03*
X744100D02*
D03*
X769500D02*
D03*
X794900D02*
D03*
X820300D02*
D03*
X693300Y309100D02*
D03*
X718700D02*
D03*
X744100D02*
D03*
X769500D02*
D03*
X794900D02*
D03*
X820300D02*
D03*
X693300Y283700D02*
D03*
X718700D02*
D03*
X744100D02*
D03*
X769500D02*
D03*
X794900D02*
D03*
X820300D02*
D03*
X693300Y258300D02*
D03*
X718700D02*
D03*
X744100D02*
D03*
X769500D02*
D03*
X794900D02*
D03*
X820300D02*
D03*
X693300Y232900D02*
D03*
X718700D02*
D03*
X744100D02*
D03*
X769500D02*
D03*
X794900D02*
D03*
X820300D02*
D03*
Y207500D02*
D03*
X794900D02*
D03*
X769500D02*
D03*
X744100D02*
D03*
X718700D02*
D03*
X693300D02*
D03*
X388500Y410700D02*
D03*
Y385300D02*
D03*
Y461500D02*
D03*
Y436100D02*
D03*
X337700Y410700D02*
D03*
X363100D02*
D03*
X337700Y385300D02*
D03*
X363100D02*
D03*
X337700Y461500D02*
D03*
X363100D02*
D03*
X413900Y410700D02*
D03*
X439300D02*
D03*
X413900Y385300D02*
D03*
X439300D02*
D03*
X413900Y461500D02*
D03*
X439300D02*
D03*
X337700Y436100D02*
D03*
X363100D02*
D03*
X413900D02*
D03*
X439300D02*
D03*
X464700Y410700D02*
D03*
Y385300D02*
D03*
Y461500D02*
D03*
Y436100D02*
D03*
X540900Y537700D02*
D03*
Y512300D02*
D03*
X566300Y537700D02*
D03*
Y512300D02*
D03*
X490100Y537700D02*
D03*
Y512300D02*
D03*
X515500Y537700D02*
D03*
Y512300D02*
D03*
X439300Y537700D02*
D03*
Y512300D02*
D03*
X464700Y537700D02*
D03*
Y512300D02*
D03*
X388500Y537700D02*
D03*
Y512300D02*
D03*
X413900Y537700D02*
D03*
Y512300D02*
D03*
X337700Y537700D02*
D03*
Y512300D02*
D03*
X363100Y537700D02*
D03*
Y512300D02*
D03*
X286900Y537700D02*
D03*
Y512300D02*
D03*
X312300Y537700D02*
D03*
Y512300D02*
D03*
X236100Y537700D02*
D03*
Y512300D02*
D03*
X261500Y537700D02*
D03*
Y512300D02*
D03*
X185300Y537700D02*
D03*
Y512300D02*
D03*
X210700Y537700D02*
D03*
Y512300D02*
D03*
X134500Y537700D02*
D03*
Y512300D02*
D03*
X159900Y537700D02*
D03*
Y512300D02*
D03*
X109100D02*
D03*
Y537700D02*
D03*
X83700Y512300D02*
D03*
Y537700D02*
D03*
D95*
X89800Y50700D02*
D03*
X180180Y13970D02*
D03*
X89820D02*
D03*
X180200Y50700D02*
D03*
D96*
X383800Y28000D02*
D03*
X409200D02*
D03*
X358400D02*
D03*
X485400D02*
D03*
X460000D02*
D03*
X434600D02*
D03*
D97*
X333000D02*
D03*
D98*
X585000Y334873D02*
D03*
Y224873D02*
D03*
Y444873D02*
D03*
D99*
X605000Y334873D02*
D03*
X625000D02*
D03*
X645000Y335127D02*
D03*
X605000Y224873D02*
D03*
X625000D02*
D03*
X645000Y225127D02*
D03*
X605000Y444873D02*
D03*
X625000D02*
D03*
X645000Y445127D02*
D03*
D100*
X35000Y125000D02*
D03*
D101*
Y145000D02*
D03*
D102*
X305000Y395000D02*
D03*
Y415000D02*
D03*
Y435000D02*
D03*
Y455000D02*
D03*
X285000D02*
D03*
Y435000D02*
D03*
Y415000D02*
D03*
X545000Y445000D02*
D03*
Y425000D02*
D03*
X525000D02*
D03*
Y405000D02*
D03*
X545000D02*
D03*
Y385000D02*
D03*
X525000D02*
D03*
Y365000D02*
D03*
X545000D02*
D03*
Y345000D02*
D03*
Y325000D02*
D03*
X525000Y305000D02*
D03*
Y325000D02*
D03*
Y345000D02*
D03*
X505000D02*
D03*
Y325000D02*
D03*
Y305000D02*
D03*
X25000Y265000D02*
D03*
X65000Y175000D02*
D03*
X75000Y265000D02*
D03*
Y285000D02*
D03*
X45000Y385000D02*
D03*
Y405000D02*
D03*
Y425000D02*
D03*
X105000Y445000D02*
D03*
Y365000D02*
D03*
Y385000D02*
D03*
Y405000D02*
D03*
X125000Y365000D02*
D03*
Y385000D02*
D03*
Y405000D02*
D03*
Y425000D02*
D03*
Y445000D02*
D03*
X145000D02*
D03*
X165000D02*
D03*
X185000Y425000D02*
D03*
X165000D02*
D03*
X145000D02*
D03*
Y405000D02*
D03*
X165000D02*
D03*
X185000D02*
D03*
Y385000D02*
D03*
X165000D02*
D03*
X145000D02*
D03*
Y325000D02*
D03*
Y345000D02*
D03*
Y365000D02*
D03*
X185000D02*
D03*
X165000D02*
D03*
Y345000D02*
D03*
X185000D02*
D03*
Y325000D02*
D03*
X165000D02*
D03*
Y305000D02*
D03*
X265000Y295000D02*
D03*
Y315000D02*
D03*
X285000D02*
D03*
Y295000D02*
D03*
Y275000D02*
D03*
X375000Y305000D02*
D03*
X395000D02*
D03*
X385000Y315000D02*
D03*
X655000Y465000D02*
D03*
Y415000D02*
D03*
Y395000D02*
D03*
Y375000D02*
D03*
Y355000D02*
D03*
X565000Y185000D02*
D03*
X575000Y205000D02*
D03*
X595000D02*
D03*
X615000D02*
D03*
X635000D02*
D03*
X655000D02*
D03*
Y315000D02*
D03*
Y295000D02*
D03*
Y275000D02*
D03*
X505000Y235000D02*
D03*
Y215000D02*
D03*
X525000D02*
D03*
Y235000D02*
D03*
Y255000D02*
D03*
X545000D02*
D03*
Y235000D02*
D03*
Y215000D02*
D03*
X665000Y185000D02*
D03*
X645000D02*
D03*
X625000D02*
D03*
X605000D02*
D03*
X585000D02*
D03*
X735000Y115000D02*
D03*
X715000D02*
D03*
Y95000D02*
D03*
X735000D02*
D03*
X755000D02*
D03*
Y115000D02*
D03*
Y135000D02*
D03*
X735000D02*
D03*
X715000D02*
D03*
X585000Y55000D02*
D03*
X565000D02*
D03*
X545000D02*
D03*
X525000D02*
D03*
X505000D02*
D03*
X485000D02*
D03*
X455000D02*
D03*
X575000Y45000D02*
D03*
X555000D02*
D03*
X535000D02*
D03*
X515000D02*
D03*
X495000D02*
D03*
X475000D02*
D03*
X415000D02*
D03*
X395000D02*
D03*
X295000D02*
D03*
Y25000D02*
D03*
X275000D02*
D03*
Y45000D02*
D03*
X255000D02*
D03*
X254960Y24960D02*
D03*
X155000Y25000D02*
D03*
X135000D02*
D03*
X115000D02*
D03*
X65000D02*
D03*
Y45000D02*
D03*
Y65000D02*
D03*
X45000D02*
D03*
X25000D02*
D03*
X211250Y69000D02*
D03*
Y58000D02*
D03*
X598000Y478000D02*
D03*
X611000D02*
D03*
X330750Y104000D02*
D03*
X336652Y312348D02*
D03*
X344000Y300000D02*
D03*
X329000D02*
D03*
X233000Y185000D02*
D03*
X102700Y325300D02*
D03*
X116700Y345300D02*
D03*
X132700Y305300D02*
D03*
X83000Y199000D02*
D03*
X261000Y222000D02*
D03*
X456000Y295000D02*
D03*
X456450Y312550D02*
D03*
X332000Y224000D02*
D03*
X331000Y249000D02*
D03*
X657000Y81000D02*
D03*
X342750Y104000D02*
D03*
X67000Y111490D02*
D03*
X503860Y139000D02*
D03*
X337850Y161000D02*
D03*
X577480Y100760D02*
D03*
X267000Y125000D02*
D03*
X268000Y136000D02*
D03*
X281000Y221000D02*
D03*
X283061Y198000D02*
D03*
X142000Y199000D02*
D03*
X155000D02*
D03*
X108060Y163940D02*
D03*
X133060Y176940D02*
D03*
X128000Y108000D02*
D03*
X83250Y83500D02*
D03*
X98000Y66000D02*
D03*
X172000D02*
D03*
X305000Y104000D02*
D03*
X244750Y88500D02*
D03*
X281000Y60000D02*
D03*
X453000Y180000D02*
D03*
X448750Y198250D02*
D03*
X454950Y210950D02*
D03*
X435000Y159000D02*
D03*
X62500Y210500D02*
D03*
X35000Y235000D02*
D03*
X50000Y234500D02*
D03*
X376000Y116000D02*
D03*
X342750Y198250D02*
D03*
X671000Y127000D02*
D03*
Y87000D02*
D03*
X414000Y274000D02*
D03*
X448000Y236825D02*
D03*
X393000Y186000D02*
D03*
X367000Y191000D02*
D03*
X514000Y201000D02*
D03*
X737000Y47000D02*
D03*
X721000D02*
D03*
X747000Y173000D02*
D03*
X731000D02*
D03*
X801000D02*
D03*
X761000D02*
D03*
X777000D02*
D03*
X793250Y14000D02*
D03*
X809250Y30000D02*
D03*
X818000Y173000D02*
D03*
X201350Y305300D02*
D03*
Y445300D02*
D03*
X103450Y425300D02*
D03*
X254700Y405300D02*
D03*
X274700Y385300D02*
D03*
Y365300D02*
D03*
X254700Y345300D02*
D03*
Y325300D02*
D03*
X381000Y164000D02*
D03*
D103*
X376800Y219850D02*
D03*
X393300Y236350D02*
D03*
Y219850D02*
D03*
X376800Y236350D02*
D03*
X401500Y244650D02*
D03*
X385000D02*
D03*
X368500D02*
D03*
X401500Y228050D02*
D03*
X385000D02*
D03*
X368500D02*
D03*
X393300Y252950D02*
D03*
X376800D02*
D03*
M02*
