G04*
G04 #@! TF.GenerationSoftware,Altium Limited,CircuitMaker,2.2.1 (2.2.1.6)*
G04*
G04 Layer_Color=8150272*
%FSLAX44Y44*%
%MOMM*%
G71*
G04*
G04 #@! TF.SameCoordinates,4DC394B6-E11D-4AB0-B304-EE3890279FAF*
G04*
G04*
G04 #@! TF.FilePolarity,Negative*
G04*
G01*
G75*
%ADD11C,0.2540*%
%ADD13C,0.2000*%
%ADD61C,1.7532*%
G04:AMPARAMS|DCode=62|XSize=1.7272mm|YSize=1.7272mm|CornerRadius=0.2921mm|HoleSize=0mm|Usage=FLASHONLY|Rotation=0.000|XOffset=0mm|YOffset=0mm|HoleType=Round|Shape=RoundedRectangle|*
%AMROUNDEDRECTD62*
21,1,1.7272,1.1430,0,0,0.0*
21,1,1.1430,1.7272,0,0,0.0*
1,1,0.5842,0.5715,-0.5715*
1,1,0.5842,-0.5715,-0.5715*
1,1,0.5842,-0.5715,0.5715*
1,1,0.5842,0.5715,0.5715*
%
%ADD62ROUNDEDRECTD62*%
%ADD63C,1.7272*%
%ADD64R,1.7272X1.7272*%
%ADD65C,6.0000*%
%ADD66R,1.4032X1.4032*%
%ADD67C,1.4032*%
%ADD68C,1.7032*%
G04:AMPARAMS|DCode=69|XSize=1.7032mm|YSize=1.7032mm|CornerRadius=0.2891mm|HoleSize=0mm|Usage=FLASHONLY|Rotation=90.000|XOffset=0mm|YOffset=0mm|HoleType=Round|Shape=RoundedRectangle|*
%AMROUNDEDRECTD69*
21,1,1.7032,1.1250,0,0,90.0*
21,1,1.1250,1.7032,0,0,90.0*
1,1,0.5782,0.5625,0.5625*
1,1,0.5782,0.5625,-0.5625*
1,1,0.5782,-0.5625,-0.5625*
1,1,0.5782,-0.5625,0.5625*
%
%ADD69ROUNDEDRECTD69*%
%ADD70C,0.8832*%
D11*
X698950Y152618D02*
Y137382D01*
Y145000D01*
X688793D01*
Y152618D01*
Y137382D01*
X673558D02*
X683715D01*
X673558Y147539D01*
Y150078D01*
X676097Y152618D01*
X681175D01*
X683715Y150078D01*
X658323D02*
X660862Y152618D01*
X665940D01*
X668480Y150078D01*
Y147539D01*
X665940Y145000D01*
X660862D01*
X658323Y142461D01*
Y139922D01*
X660862Y137382D01*
X665940D01*
X668480Y139922D01*
X653244Y152618D02*
X643088D01*
X648166D01*
Y137382D01*
X638009Y145000D02*
X627853D01*
X622774Y152618D02*
Y137382D01*
X615157D01*
X612617Y139922D01*
Y150078D01*
X615157Y152618D01*
X622774D01*
X599922Y137382D02*
X605000D01*
X607539Y139922D01*
Y145000D01*
X605000Y147539D01*
X599922D01*
X597382Y145000D01*
Y142461D01*
X607539D01*
X592304Y147539D02*
X587226Y137382D01*
X582147Y147539D01*
X561834Y152618D02*
Y142461D01*
X556756Y137382D01*
X551677Y142461D01*
Y152618D01*
X546599Y137382D02*
X541521D01*
X544060D01*
Y152618D01*
X546599Y150078D01*
X533903Y137382D02*
Y139922D01*
X531364D01*
Y137382D01*
X533903D01*
X521207Y150078D02*
X518668Y152618D01*
X513590D01*
X511050Y150078D01*
Y139922D01*
X513590Y137382D01*
X518668D01*
X521207Y139922D01*
Y150078D01*
X693072Y99922D02*
X698150Y105000D01*
Y110078D01*
X693072Y115157D01*
X675297Y110078D02*
X682915D01*
X685454Y107539D01*
Y102461D01*
X682915Y99922D01*
X675297D01*
X670219D02*
X665141Y105000D01*
Y110078D01*
X670219Y115157D01*
X632132Y99922D02*
X642288D01*
X632132Y110078D01*
Y112618D01*
X634671Y115157D01*
X639749D01*
X642288Y112618D01*
X627053D02*
X624514Y115157D01*
X619436D01*
X616896Y112618D01*
Y102461D01*
X619436Y99922D01*
X624514D01*
X627053Y102461D01*
Y112618D01*
X601661Y99922D02*
X611818D01*
X601661Y110078D01*
Y112618D01*
X604201Y115157D01*
X609279D01*
X611818Y112618D01*
X596583D02*
X594044Y115157D01*
X588965D01*
X586426Y112618D01*
Y110078D01*
X588965Y107539D01*
X591505D01*
X588965D01*
X586426Y105000D01*
Y102461D01*
X588965Y99922D01*
X594044D01*
X596583Y102461D01*
X566113Y115157D02*
Y99922D01*
Y107539D01*
X555956D01*
Y115157D01*
Y99922D01*
X548339D02*
X543260D01*
X540721Y102461D01*
Y107539D01*
X543260Y110078D01*
X548339D01*
X550878Y107539D01*
Y102461D01*
X548339Y99922D01*
X535643Y115157D02*
Y99922D01*
X528025D01*
X525486Y102461D01*
Y105000D01*
Y107539D01*
X528025Y110078D01*
X535643D01*
X520408Y115157D02*
Y99922D01*
X512790D01*
X510251Y102461D01*
Y105000D01*
Y107539D01*
X512790Y110078D01*
X520408D01*
X505173D02*
Y102461D01*
X502633Y99922D01*
X495016D01*
Y97382D01*
X497555Y94843D01*
X500094D01*
X495016Y99922D02*
Y110078D01*
X489938Y115157D02*
X484859D01*
X487398D01*
Y99922D01*
X489938D01*
X484859D01*
X474702D02*
X469624D01*
X467085Y102461D01*
Y107539D01*
X469624Y110078D01*
X474702D01*
X477242Y107539D01*
Y102461D01*
X474702Y99922D01*
X462006Y115157D02*
X451850D01*
X456928D01*
Y99922D01*
D13*
X0Y30000D02*
G03*
X30000Y0I30000J0D01*
G01*
X820000D02*
G03*
X850000Y30000I0J30000D01*
G01*
Y530000D02*
G03*
X820000Y560000I-30000J0D01*
G01*
X30000D02*
G03*
X0Y530000I0J-30000D01*
G01*
X30000Y0D02*
X820000D01*
X30000Y560000D02*
X820000D01*
X850000Y30000D02*
Y530000D01*
X0Y30000D02*
Y530000D01*
D61*
X693300Y512300D02*
D03*
X718700D02*
D03*
X744100D02*
D03*
X769500D02*
D03*
X794900D02*
D03*
X820300D02*
D03*
X693300Y486900D02*
D03*
X718700D02*
D03*
X744100D02*
D03*
X769500D02*
D03*
X794900D02*
D03*
X820300D02*
D03*
X693300Y461500D02*
D03*
X718700D02*
D03*
X744100D02*
D03*
X769500D02*
D03*
X794900D02*
D03*
X820300D02*
D03*
X693300Y436100D02*
D03*
X718700D02*
D03*
X744100D02*
D03*
X769500D02*
D03*
X794900D02*
D03*
X820300D02*
D03*
X693300Y410700D02*
D03*
X718700D02*
D03*
X744100D02*
D03*
X769500D02*
D03*
X794900D02*
D03*
X820300D02*
D03*
X693300Y385300D02*
D03*
X718700D02*
D03*
X744100D02*
D03*
X769500D02*
D03*
X794900D02*
D03*
X820300D02*
D03*
X693300Y359900D02*
D03*
X718700D02*
D03*
X744100D02*
D03*
X769500D02*
D03*
X794900D02*
D03*
X820300D02*
D03*
X693300Y334500D02*
D03*
X718700D02*
D03*
X744100D02*
D03*
X769500D02*
D03*
X794900D02*
D03*
X820300D02*
D03*
X693300Y309100D02*
D03*
X718700D02*
D03*
X744100D02*
D03*
X769500D02*
D03*
X794900D02*
D03*
X820300D02*
D03*
X693300Y283700D02*
D03*
X718700D02*
D03*
X744100D02*
D03*
X769500D02*
D03*
X794900D02*
D03*
X820300D02*
D03*
X693300Y258300D02*
D03*
X718700D02*
D03*
X744100D02*
D03*
X769500D02*
D03*
X794900D02*
D03*
X820300D02*
D03*
X693300Y232900D02*
D03*
X718700D02*
D03*
X744100D02*
D03*
X769500D02*
D03*
X794900D02*
D03*
X820300D02*
D03*
Y207500D02*
D03*
X794900D02*
D03*
X769500D02*
D03*
X744100D02*
D03*
X718700D02*
D03*
X693300D02*
D03*
X388500Y410700D02*
D03*
Y385300D02*
D03*
Y461500D02*
D03*
Y436100D02*
D03*
X337700Y410700D02*
D03*
X363100D02*
D03*
X337700Y385300D02*
D03*
X363100D02*
D03*
X337700Y461500D02*
D03*
X363100D02*
D03*
X413900Y410700D02*
D03*
X439300D02*
D03*
X413900Y385300D02*
D03*
X439300D02*
D03*
X413900Y461500D02*
D03*
X439300D02*
D03*
X337700Y436100D02*
D03*
X363100D02*
D03*
X413900D02*
D03*
X439300D02*
D03*
X464700Y410700D02*
D03*
Y385300D02*
D03*
Y461500D02*
D03*
Y436100D02*
D03*
X540900Y537700D02*
D03*
Y512300D02*
D03*
X566300Y537700D02*
D03*
Y512300D02*
D03*
X490100Y537700D02*
D03*
Y512300D02*
D03*
X515500Y537700D02*
D03*
Y512300D02*
D03*
X439300Y537700D02*
D03*
Y512300D02*
D03*
X464700Y537700D02*
D03*
Y512300D02*
D03*
X388500Y537700D02*
D03*
Y512300D02*
D03*
X413900Y537700D02*
D03*
Y512300D02*
D03*
X337700Y537700D02*
D03*
Y512300D02*
D03*
X363100Y537700D02*
D03*
Y512300D02*
D03*
X286900Y537700D02*
D03*
Y512300D02*
D03*
X312300Y537700D02*
D03*
Y512300D02*
D03*
X236100Y537700D02*
D03*
Y512300D02*
D03*
X261500Y537700D02*
D03*
Y512300D02*
D03*
X185300Y537700D02*
D03*
Y512300D02*
D03*
X210700Y537700D02*
D03*
Y512300D02*
D03*
X134500Y537700D02*
D03*
Y512300D02*
D03*
X159900Y537700D02*
D03*
Y512300D02*
D03*
X109100D02*
D03*
Y537700D02*
D03*
X83700Y512300D02*
D03*
Y537700D02*
D03*
D62*
X89800Y50700D02*
D03*
X180180Y13970D02*
D03*
X89820D02*
D03*
X180200Y50700D02*
D03*
D63*
X383800Y28000D02*
D03*
X409200D02*
D03*
X358400D02*
D03*
X485400D02*
D03*
X460000D02*
D03*
X434600D02*
D03*
D64*
X333000D02*
D03*
D65*
X615000Y35000D02*
D03*
Y525000D02*
D03*
X35000D02*
D03*
Y35000D02*
D03*
D66*
X585000Y334873D02*
D03*
Y224873D02*
D03*
Y444873D02*
D03*
D67*
X605000Y334873D02*
D03*
X625000D02*
D03*
X645000Y335127D02*
D03*
X605000Y224873D02*
D03*
X625000D02*
D03*
X645000Y225127D02*
D03*
X605000Y444873D02*
D03*
X625000D02*
D03*
X645000Y445127D02*
D03*
D68*
X35000Y125000D02*
D03*
D69*
Y145000D02*
D03*
D70*
X376800Y219850D02*
D03*
X393300Y236350D02*
D03*
Y219850D02*
D03*
X376800Y236350D02*
D03*
X401500Y244650D02*
D03*
X385000D02*
D03*
X368500D02*
D03*
X401500Y228050D02*
D03*
X385000D02*
D03*
X368500D02*
D03*
X393300Y252950D02*
D03*
X376800D02*
D03*
M02*
